<svg xmlns="http://www.w3.org/2000/svg" width="270" height="272" fill="none"><path fill-rule="evenodd" clip-rule="evenodd" d="m120.993 81.316 56.997 101.896c4 7.028 13.499 9.537 20.499 5.522l3.499-2.008c7-4.016 9.5-13.553 5.5-20.58L150.491 64.25c-3.999-7.028-13.499-9.537-20.498-5.522l-4 2.008c-7 4.518-9 13.553-5 20.58z" fill="#CA2027"/><path fill-rule="evenodd" clip-rule="evenodd" d="M134.992 271.054c-23.498 0-44.997-6.023-64.496-16.564l-4.5-2.51c-7-4.518-8-14.055-4-20.58l2-3.514c4-7.027 11.5-8.533 18-4.517l2 1.004 2.499 1.506c14.499 8.031 30.998 12.548 48.997 12.548 56.497 0 102.494-46.179 102.494-102.9 0-56.72-45.997-102.9-102.494-102.9-56.996 0-102.994 46.18-102.994 102.9 0 13.051 2.5 26.102 7 37.647l1 2.007 39.497-43.669.5-.502c2.5-4.016 7-6.526 12.5-6.526l35.998.502c8.499 0 14.999 6.526 14.999 15.059v4.517c0 8.031-6.5 15.059-14.999 15.059l-25.499-.502-53.497 55.215c-7 7.529-19.499 6.525-23.998 0-4-5.02-4-5.522-7.5-11.545C6.499 183.213 0 160.123 0 135.527 0 60.737 60.496 0 134.992 0c74.496 0 134.993 60.736 134.993 135.527s-60.497 135.527-134.993 135.527z" fill="#CA2027"/></svg>