<svg width="97" height="48" fill="none" xmlns="http://www.w3.org/2000/svg"><g clip-path="url(#a)"><rect y=".07" width="97" height="47.311" rx="4" fill="#fff"/><rect y=".07" width="97" height="47.311" rx="4" fill="#fff"/><path d="M25.627 27.979h.483v2.055h-.483v-.212a.806.806 0 0 1-.62.277c-.643 0-1.007-.531-1.007-1.092 0-.668.465-1.081 1.007-1.081.155 0 .418.041.614.295v-.242h.006zm-1.132 1.034c0 .354.226.655.578.655.304 0 .584-.218.584-.65 0-.448-.28-.661-.584-.661-.352 0-.578.29-.578.655zM28.32 28.613a.83.83 0 0 0-.584-.254.625.625 0 0 0-.459.183.648.648 0 0 0-.179.473c0 .236.096.401.185.49.107.1.262.165.441.165a.8.8 0 0 0 .596-.266v.532c-.119.07-.31.16-.632.16-.345 0-.59-.101-.786-.302a1.065 1.065 0 0 1-.299-.774c0-.383.162-.643.316-.797.161-.16.424-.301.835-.301.155 0 .346.023.566.148v.543zM30.396 28.613a.83.83 0 0 0-.584-.254.625.625 0 0 0-.459.183.648.648 0 0 0-.179.473c0 .236.096.401.185.49.108.1.262.165.441.165a.8.8 0 0 0 .596-.266v.532c-.119.07-.31.16-.631.16-.346 0-.59-.101-.787-.302a1.065 1.065 0 0 1-.298-.774c0-.383.16-.643.316-.797.16-.16.423-.301.834-.301.155 0 .346.023.567.148v.543zM32.966 29.007c0 .631-.483 1.086-1.11 1.086-.625 0-1.108-.46-1.108-1.086 0-.632.483-1.081 1.109-1.081s1.109.449 1.109 1.08zm-.495.005c0-.466-.31-.661-.614-.661s-.614.189-.614.662c0 .395.238.655.614.655.381 0 .614-.26.614-.655zM33.467 27.98h.483V29.6h.816V27.98h.483V29.6h.346v1.021h-.441v-.584h-1.687V27.98zM36.424 27.984v1.17l1.419-1.353v2.238h-.483V28.84l-1.419 1.353v-2.21h.483zM39.971 27.979h.483v2.055h-.483v-.212a.806.806 0 0 1-.62.277c-.638 0-1.007-.526-1.007-1.092 0-.668.465-1.081 1.007-1.081.155 0 .418.041.614.295v-.242h.006zm-1.132 1.034c0 .354.226.655.578.655.304 0 .584-.218.584-.65 0-.448-.28-.661-.584-.661-.352 0-.578.29-.578.655zM41.059 27.98h.482V29.6h.817V27.98h.483V29.6h.346v1.021h-.441v-.584h-1.687V27.98zM44.016 27.984v1.17l1.419-1.353v2.238h-.483V28.84l-1.419 1.353v-2.21h.483zM46.431 29.223a.562.562 0 0 1-.5-.579c0-.13.03-.325.19-.473.179-.165.388-.183.602-.183h.775v2.056h-.489v-.756h-.101l-.566.756h-.567l.656-.821zm.578-.833h-.28a.545.545 0 0 0-.25.041.243.243 0 0 0-.12.207c0 .1.048.165.102.2.06.042.149.048.268.048h.286v-.496h-.006zM49.733 31.15h-.483V27.98h.483v.224a.778.778 0 0 1 .614-.277c.548 0 1.007.413 1.007 1.069 0 .69-.512 1.104-1.007 1.104a.834.834 0 0 1-.62-.301v1.352h.006zm-.03-2.132c0 .431.28.65.584.65.352 0 .578-.295.578-.655 0-.367-.226-.662-.578-.662-.304.006-.584.219-.584.667zM53.381 27.979h.483v2.055h-.483v-.212a.806.806 0 0 1-.62.277c-.638 0-1.007-.526-1.007-1.092 0-.668.465-1.081 1.007-1.081.155 0 .418.041.614.295v-.242h.006zm-1.132 1.034c0 .354.226.655.578.655.304 0 .584-.218.584-.65 0-.448-.28-.661-.584-.661-.352 0-.578.29-.578.655zM54.445 28.245a.905.905 0 0 1 .316-.23c.173-.072.351-.09.489-.09.178 0 .357.024.524.142a.473.473 0 0 1 .215.42c0 .1-.012.189-.09.283a.463.463 0 0 1-.196.148.577.577 0 0 1 .298.154.472.472 0 0 1 .13.342c0 .19-.059.337-.178.455-.16.16-.393.236-.727.236-.15 0-.352-.012-.543-.124a.806.806 0 0 1-.328-.366l.382-.195a.493.493 0 0 0 .185.213.588.588 0 0 0 .31.076c.083 0 .238-.011.328-.1a.28.28 0 0 0 .071-.183.221.221 0 0 0-.065-.165c-.084-.09-.227-.09-.346-.09h-.215v-.389h.185a.472.472 0 0 0 .239-.053c.041-.03.089-.077.089-.183a.2.2 0 0 0-.09-.177.432.432 0 0 0-.232-.053.619.619 0 0 0-.453.195l-.298-.266zM57.455 27.98c.126 0 .316.006.471.125a.5.5 0 0 1 .191.395.432.432 0 0 1-.244.402.62.62 0 0 1 .28.136c.095.082.16.212.16.395a.56.56 0 0 1-.226.467.833.833 0 0 1-.477.136h-.971V27.98h.816zm-.083.804c.113 0 .179-.036.19-.042a.19.19 0 0 0 .096-.165.195.195 0 0 0-.083-.16c-.066-.04-.138-.04-.215-.04h-.239v.407h.25zm.113.862a.475.475 0 0 0 .25-.06.224.224 0 0 0 .102-.182c0-.095-.042-.154-.096-.183a.46.46 0 0 0-.244-.053h-.376v.472h.364v.006zM59.301 27.984v1.17L60.72 27.8v2.238h-.483V28.84l-1.419 1.353v-2.21h.483zM62.151 28.418v1.618h-.483v-1.619h-.602v-.437h1.693v.438h-.608zM63.586 27.984v1.17l1.42-1.353v2.238h-.484V28.84l-1.419 1.353v-2.21h.483zM66.001 29.223a.562.562 0 0 1-.5-.579c0-.13.03-.325.19-.473.18-.165.388-.183.602-.183h.775v2.056h-.483v-.756h-.1l-.567.756h-.566l.65-.821zm.579-.833h-.28a.545.545 0 0 0-.251.041.243.243 0 0 0-.12.207c0 .1.049.165.102.2.06.042.15.048.268.048h.286v-.496h-.005zM24.514 32.21v1.17l1.419-1.353v2.239h-.483v-1.193l-1.419 1.346V32.21h.483zM26.623 32.21h.483v.763h.852v-.762h.483v2.055h-.483v-.856h-.852v.856h-.483v-2.055zM29.878 32.654v1.612h-.483v-1.612h-.608v-.443h1.693v.443h-.602zM32.631 33.798c-.09.154-.215.295-.352.378a1.149 1.149 0 0 1-.608.154c-.274 0-.5-.071-.697-.266a1.097 1.097 0 0 1-.304-.786c0-.319.113-.626.328-.844a.95.95 0 0 1 .697-.278c.328 0 .543.142.668.266.268.272.292.656.292.868v.06h-1.49a.656.656 0 0 0 .178.413c.114.112.25.13.37.13.131 0 .233-.03.328-.1a.74.74 0 0 0 .19-.225l.4.23zm-.483-.839a.468.468 0 0 0-.477-.396.49.49 0 0 0-.488.396h.965zM33.625 35.38h-.482v-3.17h.482v.224a.778.778 0 0 1 .614-.278c.549 0 1.008.414 1.008 1.07 0 .69-.513 1.104-1.008 1.104a.833.833 0 0 1-.62-.302v1.353h.006zm-.03-2.131c0 .431.28.65.585.65.352 0 .578-.296.578-.656 0-.366-.227-.662-.578-.662-.298.006-.584.219-.584.668zM37.276 32.21h.483v2.055h-.483v-.213a.806.806 0 0 1-.62.278c-.638 0-1.008-.526-1.008-1.093 0-.667.465-1.08 1.008-1.08.155 0 .417.04.614.295v-.243h.006zm-1.133 1.033c0 .354.227.655.578.655.305 0 .585-.218.585-.65 0-.448-.28-.66-.585-.66-.351 0-.578.289-.578.655zM38.848 32.21v.733l.692-.732h.637l-.906.898.96 1.157h-.614l-.691-.844-.078.076v.768h-.483v-2.055h.483zM41.417 32.654v1.612h-.483v-1.612h-.608v-.443h1.693v.443h-.602zM42.85 32.21v1.17l1.419-1.353v2.239h-.483v-1.193l-1.419 1.346V32.21h.483zM45.694 32.21c.125 0 .316.007.47.125a.5.5 0 0 1 .191.396.432.432 0 0 1-.244.401.62.62 0 0 1 .28.136c.096.083.161.213.161.396a.56.56 0 0 1-.227.466.833.833 0 0 1-.476.136h-.972v-2.055h.817zm-.084.804c.113 0 .179-.035.19-.041a.19.19 0 0 0 .096-.166.195.195 0 0 0-.083-.159c-.066-.041-.137-.041-.215-.041h-.238v.407h.25zm.113.862a.475.475 0 0 0 .25-.059.224.224 0 0 0 .102-.183c0-.094-.042-.153-.095-.183a.46.46 0 0 0-.245-.053h-.375v.472h.363v.006zM47.059 32.21h.482v.763h.859v-.762h.483v2.055H48.4v-.856h-.859v.856h-.482v-2.055zM51.6 33.245c0 .632-.483 1.087-1.108 1.087-.626 0-1.11-.461-1.11-1.087 0-.632.484-1.08 1.11-1.08.626-.007 1.108.442 1.108 1.08zm-.494 0c0-.467-.31-.662-.614-.662s-.614.19-.614.662c0 .396.238.656.614.656.375 0 .614-.26.614-.656zM52.583 32.209v1.163L54 32.02v2.238h-.483v-1.193L52.1 34.418v-2.209h.483zm.065-.998c.083.283.286.319.405.319.215 0 .334-.1.406-.32l.393.113c-.113.408-.518.579-.799.579-.28 0-.685-.171-.798-.579l.393-.112zM56.243 35.38h-.483v-3.17h.483v.224a.778.778 0 0 1 .614-.278c.548 0 1.007.414 1.007 1.07 0 .69-.513 1.104-1.007 1.104a.833.833 0 0 1-.62-.302v1.353h.006zm-.03-2.131c0 .431.28.65.584.65.352 0 .578-.296.578-.656 0-.366-.226-.662-.578-.662-.304.006-.584.219-.584.668zM60.225 33.798c-.09.154-.215.295-.352.378a1.149 1.149 0 0 1-.608.154c-.274 0-.5-.071-.697-.266a1.097 1.097 0 0 1-.304-.786c0-.319.113-.626.328-.844a.95.95 0 0 1 .697-.278c.328 0 .542.142.668.266.268.272.292.656.292.868v.06h-1.49a.657.657 0 0 0 .178.413c.114.112.25.13.37.13.131 0 .232-.03.328-.1a.738.738 0 0 0 .19-.225l.4.23zm-.477-.839a.467.467 0 0 0-.477-.396.49.49 0 0 0-.489.396h.966zM61.225 32.21v.733l.691-.732h.638l-.906.898.954 1.157h-.608l-.691-.844-.078.076v.768h-.483v-2.055h.483zM64.672 34.266h-.483v-1.618h-.608v.815c0 .177-.024.407-.196.59-.185.207-.46.243-.68.213v-.437a.344.344 0 0 0 .34-.094c.065-.077.071-.19.071-.266V32.21h1.556v2.055zM66.801 32.21h.483v2.055h-.483v-.213a.806.806 0 0 1-.62.278c-.638 0-1.007-.526-1.007-1.093 0-.667.465-1.08 1.007-1.08.155 0 .418.04.614.295v-.243h.006zm-1.132 1.033c0 .354.226.655.578.655.304 0 .584-.218.584-.65 0-.448-.28-.66-.584-.66-.352 0-.578.289-.578.655zM68.16 32.027l.86 1.565.858-1.565.5 2.239h-.488l-.209-1.028-.662 1.181-.661-1.18-.203 1.027h-.495l.5-2.239zM70.752 32.21h.483v.727h.274c.203 0 .441.006.626.213a.65.65 0 0 1 .16.449.674.674 0 0 1-.184.49c-.185.177-.4.177-.608.177h-.751v-2.055zm.703 1.649a.544.544 0 0 0 .25-.042.24.24 0 0 0 .108-.212c0-.1-.042-.166-.101-.207-.078-.047-.18-.047-.25-.047h-.227v.508h.22zm1.061-1.648H73v2.055h-.483v-2.055zM31.732 12.383h3.058v9.385h-3.058v-1.134c-.829 1.264-2.015 1.453-2.802 1.453-1.36 0-2.504-.337-3.547-1.43C24.381 19.6 24 18.385 24 17.144c0-1.576.596-2.923 1.466-3.785.829-.827 1.974-1.288 3.291-1.288.805 0 2.104.19 2.975 1.37v-1.057zm-3.887 2.971a2.342 2.342 0 0 0-.703 1.707c0 .844.363 1.388.637 1.683.424.443 1.085.738 1.807.738.614 0 1.192-.254 1.591-.65.405-.377.745-.968.745-1.765 0-.674-.256-1.306-.703-1.725-.465-.443-1.145-.65-1.699-.65a2.356 2.356 0 0 0-1.675.662zM40.226 25.447h-3.058V12.383h3.058V13.5c.995-1.282 2.23-1.43 2.95-1.43 1.7 0 2.76.739 3.357 1.323.852.845 1.425 2.126 1.425 3.662 0 1.618-.573 2.84-1.509 3.768-.935.927-1.955 1.264-3.207 1.264-1.89 0-2.694-.945-3.016-1.388v4.748zm.507-10.075a2.498 2.498 0 0 0-.722 1.724c0 .59.233 1.2.68 1.66a2.505 2.505 0 0 0 1.74.715c.573 0 1.193-.23 1.634-.65.489-.46.745-1.176.745-1.79 0-.697-.298-1.305-.721-1.706a2.425 2.425 0 0 0-1.657-.65c-.847.006-1.401.401-1.7.697zM52.923 12.383v5.368l4.036-5.368h2.85v9.384H56.75v-5.445l-4.035 5.445h-2.85v-9.384h3.058zM65.246 21.768h-3.058v-9.385h3.058V13.5c.995-1.282 2.229-1.43 2.95-1.43 1.7 0 2.76.739 3.356 1.323.853.845 1.425 2.126 1.425 3.662 0 1.618-.572 2.84-1.508 3.768-.936.927-1.955 1.264-3.207 1.264-1.89 0-2.695-.945-3.016-1.388v1.069zm.506-6.396a2.498 2.498 0 0 0-.721 1.724c0 .59.232 1.2.68 1.66a2.505 2.505 0 0 0 1.74.715c.572 0 1.192-.23 1.634-.65.488-.46.745-1.176.745-1.79 0-.697-.298-1.305-.722-1.706a2.425 2.425 0 0 0-1.657-.65c-.846.006-1.4.401-1.699.697zM65.246 22.418h-3.058v3.03h3.058v-3.03z" fill="#525356"/></g><defs><clipPath id="a"><rect y=".07" width="97" height="47.311" rx="4" fill="#fff"/></clipPath></defs></svg>