<svg width="56" height="57" fill="none" xmlns="http://www.w3.org/2000/svg"><rect y=".383" width="56" height="56" rx="4" fill="#fff"/><path d="M29.194 26.545c.275-.367.55-.734.918-1.01 1.01-.918 2.203-1.468 3.58-1.377.734 0 1.56.092 2.295.276 1.652.459 2.662 1.652 3.121 3.305.367 1.193.459 2.478.459 3.763v8.079c0 .275-.092.275-.275.275H35.16c-.275 0-.275-.092-.275-.275V31.87c0-.643 0-1.286-.183-1.928-.368-1.194-1.194-1.744-2.387-1.653-1.653.092-2.479.918-2.754 2.57-.092.368-.092.827-.092 1.194v7.436c0 .275-.092.367-.276.275h-4.222c-.184 0-.276-.091-.276-.275v-14.78c0-.275.092-.275.276-.275h3.947c.276 0 .276.092.276.275v1.836zM21.574 32.24v7.344c0 .276-.091.368-.367.368h-4.13c-.184 0-.276-.092-.276-.276v-14.78c0-.183.092-.275.275-.275H21.3c.275 0 .275.092.275.367v7.252zM21.942 19.57c0 1.561-1.286 2.754-2.754 2.754-1.47 0-2.754-1.285-2.754-2.754 0-1.56 1.285-2.754 2.754-2.754 1.56 0 2.754 1.286 2.754 2.754z" fill="#53575E"/></svg>