<svg width="48" height="48" viewBox="0 0 48 48" fill="none" xmlns="http://www.w3.org/2000/svg">
<rect width="48" height="48" rx="10" fill="#63ACD0"/>
<path d="M25.1935 22.1633C25.4689 21.7961 25.7443 21.4289 26.1115 21.1535C27.1213 20.2355 28.3147 19.6847 29.6917 19.7765C30.4261 19.7765 31.2523 19.8683 31.9867 20.0519C33.6392 20.5109 34.649 21.7043 35.108 23.3568C35.4752 24.5502 35.567 25.8354 35.567 27.1206C35.567 29.7828 35.567 32.5368 35.567 35.199C35.567 35.4744 35.4752 35.4744 35.2916 35.4744C33.9146 35.4744 32.5375 35.4744 31.1605 35.4744C30.8851 35.4744 30.8851 35.3826 30.8851 35.199C30.8851 32.6286 30.8851 30.0582 30.8851 27.4878C30.8851 26.8452 30.8851 26.2026 30.7015 25.56C30.3343 24.3666 29.5081 23.8158 28.3147 23.9076C26.6623 23.9994 25.8361 24.8256 25.5607 26.478C25.4689 26.8452 25.4689 27.3042 25.4689 27.6714C25.4689 30.15 25.4689 32.6286 25.4689 35.1072C25.4689 35.3826 25.3771 35.4744 25.1935 35.3826C23.8165 35.3826 22.4395 35.3826 20.9707 35.3826C20.7871 35.3826 20.6953 35.2908 20.6953 35.1072C20.6953 30.15 20.6953 25.2846 20.6953 20.3273C20.6953 20.0519 20.7871 20.0519 20.9707 20.0519C22.2559 20.0519 23.6329 20.0519 24.9181 20.0519C25.1935 20.0519 25.1935 20.1437 25.1935 20.3273C25.1935 21.0617 25.1935 21.6125 25.1935 22.1633Z" fill="white"/>
<path d="M17.5724 27.8558C17.5724 30.3344 17.5724 32.7212 17.5724 35.1998C17.5724 35.4752 17.4806 35.567 17.2052 35.567C15.8282 35.567 14.4512 35.567 13.0742 35.567C12.8906 35.567 12.7988 35.4752 12.7988 35.2916C12.7988 30.3344 12.7988 25.3771 12.7988 20.5117C12.7988 20.3281 12.8906 20.2363 13.0742 20.2363C14.4512 20.2363 15.92 20.2363 17.297 20.2363C17.5724 20.2363 17.5724 20.3281 17.5724 20.6035C17.5724 22.8985 17.5724 25.3771 17.5724 27.8558Z" fill="white"/>
<path d="M17.9406 15.1866C17.9406 16.7472 16.6554 17.9406 15.1866 17.9406C13.7178 17.9406 12.4326 16.6554 12.4326 15.1866C12.4326 13.626 13.7178 12.4326 15.1866 12.4326C16.7472 12.4326 17.9406 13.7178 17.9406 15.1866Z" fill="white"/>
</svg>
