<svg width="73" height="48" fill="none" xmlns="http://www.w3.org/2000/svg"><rect y=".07" width="73" height="47.311" rx="4" fill="#fff"/><path d="M31.723 33.176c.916 0 3.272-.196 4.973-1.434v.978h3.469v-4.237l1.44-1.5 3.207 5.737H49l-4.843-8.148 4.712-5.214h-4.32l-4.384 5.018V14.73h-3.469v1.564c-1.047-1.173-2.814-2.02-5.497-2.02-5.825 0-6.937 3.52-6.937 5.54 0 2.737 1.44 4.237 3.992 4.823l3.6.913c1.897.456 3.272.847 3.272 2.216 0 1.89-1.964 2.346-3.796 2.346-3.272 0-3.796-1.89-3.796-2.933H24c0 2.216 1.113 5.997 7.723 5.997zm2.355-10.69-4.384-1.043c-.786-.195-1.898-.521-1.898-1.955 0-1.63 1.701-2.151 3.141-2.151 3.272 0 3.6 1.89 3.665 2.738h2.094v3.324a11.29 11.29 0 0 0-2.617-.913z" fill="#525356"/></svg>