<svg width="56" height="57" fill="none" xmlns="http://www.w3.org/2000/svg"><rect y=".383" width="56" height="56" rx="4" fill="#fff"/><path d="M33.907 16.672c.953-.369 1.995-.45 3.004-.289 1.148.177 2.304.603 3.16 1.398 0 .892.007 1.775-.009 2.667a68.67 68.67 0 0 0-1.816 0c-.024-.61.041-1.245-.032-1.848-.847-.522-1.889-.65-2.866-.522a3.595 3.595 0 0 0-2.206 1.302c-.806 1.02-1.05 2.426-.684 3.663.26.908.88 1.71 1.718 2.169.846.474 1.897.546 2.825.289a3.832 3.832 0 0 0 1.954-1.334c.488.362.969.731 1.457 1.093-.749.98-1.815 1.751-3.037 2.032-1.245.298-2.605.21-3.777-.32a5.645 5.645 0 0 1-2.923-2.99 5.503 5.503 0 0 1 .04-4.281 5.622 5.622 0 0 1 3.192-3.029zM17.828 16.559c1.124.016 2.255-.017 3.379.016.912 2.627 1.807 5.261 2.743 7.88.92-2.635 1.824-5.27 2.76-7.896 1.05.008 2.093.008 3.143 0 .024.61.008 1.213.008 1.823h-1.767c-1.131 2.98-2.255 5.96-3.387 8.941h-1.742c-1.082-2.98-2.165-5.969-3.24-8.949-.635-.008-1.262 0-1.897 0V16.56zM18.617 29.605h3.354c.025.699.09 1.39.106 2.088.521-.875 1.32-1.606 2.304-1.92.88-.313 1.832-.168 2.752-.2v3.253c-.61-.008-1.221 0-1.832 0 .008-.538.033-1.076.025-1.615-.717.016-1.425.282-1.946.772a3.463 3.463 0 0 0-1.083 2.136c-.008 1.446 0 2.892 0 4.338h4.584c-.009.57 0 1.141 0 1.711h-8.256c.009-.586-.016-1.172.017-1.759.586.016 1.18 0 1.766.008v-7.174h-1.774c-.017-.546-.017-1.092-.017-1.638zM29.145 29.605c1.188-.008 2.369 0 3.557 0v6.571c.025.7.163 1.446.643 1.984.489.555 1.311.7 2.011.547 1.124-.233 2.003-1.19 2.255-2.282.082-.313.09-.642.09-.972v-4.048h-1.864v-1.8c1.27 0 2.532-.008 3.802 0 .008 2.932-.041 5.872.065 8.805.472.008.944-.016 1.416.016-.008.578 0 1.156 0 1.735h-2.914c-.106-.57-.163-1.157-.277-1.727-.48.956-1.384 1.743-2.467 1.952-.977.184-2.035.04-2.898-.466-.651-.378-1.14-.988-1.417-1.671-.285-.683-.374-1.43-.366-2.161.008-1.559-.008-3.125.008-4.683-.545-.009-1.09 0-1.628-.009-.008-.594-.017-1.196-.017-1.79zM14.88 38.363h1.882c-.009.619 0 1.23 0 1.848H14.88c0-.61.008-1.23 0-1.848z" fill="#525356"/></svg>