<svg width="350" height="711" fill="none" xmlns="http://www.w3.org/2000/svg"><g clip-path="url(#a)"><g clip-path="url(#b)"><g filter="url(#c)"><rect width="3.204" height="84.898" rx=".4" transform="matrix(-1 0 0 1 350.004 214.648)" fill="#565553"/><rect x=".2" y="-.2" width="3.604" height="85.299" rx=".601" transform="matrix(-1 0 0 1 350.404 214.648)" stroke="#000" stroke-width=".4"/></g><g filter="url(#d)"><rect x=".2" y="-.2" width="2.002" height="83.697" rx=".28" transform="matrix(-1 0 0 1 349.604 215.449)" stroke="#31302E" stroke-width=".4"/></g><g filter="url(#e)"><rect width="1.602" height="5.606" rx=".08" transform="matrix(-1 0 0 1 349.203 215.449)" fill="url(#f)"/></g><g filter="url(#g)"><rect x="349.203" y="298.746" width="1.602" height="5.606" rx=".08" transform="rotate(180 349.203 298.746)" fill="url(#h)"/></g></g><g clip-path="url(#i)"><g filter="url(#j)"><rect x="-.002" y="144.968" width="3.204" height="24.829" rx=".4" fill="#565553"/><rect x="-.202" y="144.767" width="3.604" height="25.229" rx=".601" stroke="#000" stroke-width=".4"/></g><g filter="url(#k)"><rect x=".599" y="145.688" width="2.002" height="23.627" rx=".28" stroke="#31302E" stroke-width=".4"/></g><g filter="url(#l)"><rect x=".799" y="145.888" width="1.602" height="3.204" rx=".08" fill="url(#m)"/></g><g filter="url(#n)"><rect width="1.602" height="3.204" rx=".08" transform="matrix(1 0 0 -1 .799 169.115)" fill="url(#o)"/></g></g><g clip-path="url(#p)"><g filter="url(#q)"><rect x="-.002" y="195.426" width="3.204" height="54.463" rx=".4" fill="#565553"/><rect x="-.202" y="195.226" width="3.604" height="54.863" rx=".601" stroke="#000" stroke-width=".4"/></g><g filter="url(#r)"><rect x=".599" y="196.027" width="2.002" height="53.262" rx=".28" stroke="#31302E" stroke-width=".4"/></g><g filter="url(#s)"><rect x=".799" y="196.227" width="2.403" height="5.606" rx=".08" fill="url(#t)"/></g><g filter="url(#u)"><rect width="2.403" height="5.606" rx=".08" transform="matrix(1 0 0 -1 .799 249.089)" fill="url(#v)"/></g></g><g clip-path="url(#w)"><g filter="url(#x)"><rect x="-.002" y="264.306" width="3.204" height="54.463" rx=".4" fill="#565553"/><rect x="-.202" y="264.105" width="3.604" height="54.863" rx=".601" stroke="#000" stroke-width=".4"/></g><g filter="url(#y)"><rect x=".664" y="264.972" width="1.871" height="53.13" rx=".215" stroke="#31302E" stroke-width=".269"/></g><g filter="url(#z)"><rect x=".799" y="265.107" width="2.403" height="5.606" rx=".08" fill="url(#A)"/></g><g filter="url(#B)"><rect width="2.403" height="5.606" rx=".08" transform="matrix(1 0 0 -1 .799 317.968)" fill="url(#C)"/></g></g><g clip-path="url(#D)"><rect x="2.4" width="345.199" height="711.222" rx="56.065" fill="#000"/><rect x="5.604" y="3.203" width="338.792" height="704.815" rx="54.463" stroke="#565553" stroke-width="3.204"/><rect x="3.201" y=".801" width="343.597" height="709.62" rx="55.264" stroke="#3F3E3B" stroke-width="1.602"/><g opacity=".9" filter="url(#E)"><rect x="4.002" y="1.601" width="341.995" height="708.018" rx="55.264" stroke="#31302E" stroke-width="1.602"/></g><g opacity=".8" filter="url(#F)"><rect x="8.408" y="6.007" width="333.185" height="699.208" rx="51.66" stroke="#646464" stroke-width=".801"/></g><rect x="125.742" y="25.63" width="99.315" height="28.833" rx="14.417" fill="#000"/><g opacity=".75"><rect x="198.095" y="33.108" width="13.878" height="13.878" rx="6.939" fill="#121212"/><rect x="198.095" y="33.108" width="13.878" height="13.878" rx="6.939" stroke="#0E0E0E" stroke-width=".538"/><g filter="url(#G)"><path d="M203.434 36.843c-2.732.712-3.643 4.805 0 6.407-.911-2.135-.911-4.093 0-6.407z" fill="#50A99A"/></g><g filter="url(#H)"><path d="M202.834 38.322c-1.366.383-1.821 2.587 0 3.45-.455-1.15-.455-2.205 0-3.45z" fill="#50A99A"/></g><g opacity=".4" filter="url(#I)"><path d="M203.397 37.765c-1.171.157-2.026 3.036-.612 3.8-.5-1.026-.25-3.08.612-3.8z" fill="#D0FFF7"/></g><g filter="url(#J)"><path d="M205.836 36.843c2.732.712 3.642 4.805 0 6.407.91-2.136.91-4.093 0-6.407z" fill="#3E518C"/></g><g filter="url(#K)"><path d="M206.435 38.32c1.366.384 1.822 2.588 0 3.45.456-1.15.456-2.203 0-3.45z" fill="#26408D"/></g><g opacity=".5" filter="url(#L)"><path d="M205.872 37.765c1.171.157 2.026 3.036.612 3.8.501-1.026.251-3.08-.612-3.8z" fill="#0D308C"/></g></g><path fill="#7C7C7C" d="M2.4 635.134h5.606v4.005H2.4zM72.883 705.616h4.806v5.606h-4.806zM341.992 72.083h5.606v4.806h-5.606zM2.4 72.083h5.606v4.005H2.4zM276.316 0h4.806v5.606h-4.806zM341.992 634.333h5.606v4.806h-5.606z" style="mix-blend-mode:screen" opacity=".75"/></g></g><defs><filter id="H" x="200.133" y="36.822" width="4.201" height="6.45" filterUnits="userSpaceOnUse" color-interpolation-filters="sRGB"><feFlood flood-opacity="0" result="BackgroundImageFix"/><feBlend in="SourceGraphic" in2="BackgroundImageFix" result="shape"/><feGaussianBlur stdDeviation=".75" result="effect1_foregroundBlur_656_1186"/></filter><filter id="c" x="346.131" y="213.979" width="4.542" height="86.237" filterUnits="userSpaceOnUse" color-interpolation-filters="sRGB"><feFlood flood-opacity="0" result="BackgroundImageFix"/><feBlend in="SourceGraphic" in2="BackgroundImageFix" result="shape"/><feGaussianBlur stdDeviation=".135" result="effect1_foregroundBlur_656_1186"/></filter><filter id="e" x="347.332" y="215.18" width="2.14" height="6.145" filterUnits="userSpaceOnUse" color-interpolation-filters="sRGB"><feFlood flood-opacity="0" result="BackgroundImageFix"/><feBlend in="SourceGraphic" in2="BackgroundImageFix" result="shape"/><feGaussianBlur stdDeviation=".135" result="effect1_foregroundBlur_656_1186"/></filter><filter id="g" x="347.332" y="292.87" width="2.14" height="6.145" filterUnits="userSpaceOnUse" color-interpolation-filters="sRGB"><feFlood flood-opacity="0" result="BackgroundImageFix"/><feBlend in="SourceGraphic" in2="BackgroundImageFix" result="shape"/><feGaussianBlur stdDeviation=".135" result="effect1_foregroundBlur_656_1186"/></filter><filter id="j" x="-.672" y="144.298" width="4.542" height="26.168" filterUnits="userSpaceOnUse" color-interpolation-filters="sRGB"><feFlood flood-opacity="0" result="BackgroundImageFix"/><feBlend in="SourceGraphic" in2="BackgroundImageFix" result="shape"/><feGaussianBlur stdDeviation=".135" result="effect1_foregroundBlur_656_1186"/></filter><filter id="k" x=".129" y="145.219" width="2.941" height="24.566" filterUnits="userSpaceOnUse" color-interpolation-filters="sRGB"><feFlood flood-opacity="0" result="BackgroundImageFix"/><feBlend in="SourceGraphic" in2="BackgroundImageFix" result="shape"/><feGaussianBlur stdDeviation=".135" result="effect1_foregroundBlur_656_1186"/></filter><filter id="l" x=".53" y="145.619" width="2.14" height="3.742" filterUnits="userSpaceOnUse" color-interpolation-filters="sRGB"><feFlood flood-opacity="0" result="BackgroundImageFix"/><feBlend in="SourceGraphic" in2="BackgroundImageFix" result="shape"/><feGaussianBlur stdDeviation=".135" result="effect1_foregroundBlur_656_1186"/></filter><filter id="n" x=".53" y="165.642" width="2.14" height="3.742" filterUnits="userSpaceOnUse" color-interpolation-filters="sRGB"><feFlood flood-opacity="0" result="BackgroundImageFix"/><feBlend in="SourceGraphic" in2="BackgroundImageFix" result="shape"/><feGaussianBlur stdDeviation=".135" result="effect1_foregroundBlur_656_1186"/></filter><filter id="q" x="-.672" y="194.756" width="4.542" height="55.802" filterUnits="userSpaceOnUse" color-interpolation-filters="sRGB"><feFlood flood-opacity="0" result="BackgroundImageFix"/><feBlend in="SourceGraphic" in2="BackgroundImageFix" result="shape"/><feGaussianBlur stdDeviation=".135" result="effect1_foregroundBlur_656_1186"/></filter><filter id="r" x=".129" y="195.558" width="2.941" height="54.2" filterUnits="userSpaceOnUse" color-interpolation-filters="sRGB"><feFlood flood-opacity="0" result="BackgroundImageFix"/><feBlend in="SourceGraphic" in2="BackgroundImageFix" result="shape"/><feGaussianBlur stdDeviation=".135" result="effect1_foregroundBlur_656_1186"/></filter><filter id="s" x=".53" y="195.958" width="2.941" height="6.145" filterUnits="userSpaceOnUse" color-interpolation-filters="sRGB"><feFlood flood-opacity="0" result="BackgroundImageFix"/><feBlend in="SourceGraphic" in2="BackgroundImageFix" result="shape"/><feGaussianBlur stdDeviation=".135" result="effect1_foregroundBlur_656_1186"/></filter><filter id="u" x=".53" y="243.213" width="2.941" height="6.145" filterUnits="userSpaceOnUse" color-interpolation-filters="sRGB"><feFlood flood-opacity="0" result="BackgroundImageFix"/><feBlend in="SourceGraphic" in2="BackgroundImageFix" result="shape"/><feGaussianBlur stdDeviation=".135" result="effect1_foregroundBlur_656_1186"/></filter><filter id="x" x="-.672" y="263.636" width="4.542" height="55.802" filterUnits="userSpaceOnUse" color-interpolation-filters="sRGB"><feFlood flood-opacity="0" result="BackgroundImageFix"/><feBlend in="SourceGraphic" in2="BackgroundImageFix" result="shape"/><feGaussianBlur stdDeviation=".135" result="effect1_foregroundBlur_656_1186"/></filter><filter id="y" x=".26" y="264.568" width="2.679" height="53.938" filterUnits="userSpaceOnUse" color-interpolation-filters="sRGB"><feFlood flood-opacity="0" result="BackgroundImageFix"/><feBlend in="SourceGraphic" in2="BackgroundImageFix" result="shape"/><feGaussianBlur stdDeviation=".135" result="effect1_foregroundBlur_656_1186"/></filter><filter id="z" x=".53" y="264.838" width="2.941" height="6.145" filterUnits="userSpaceOnUse" color-interpolation-filters="sRGB"><feFlood flood-opacity="0" result="BackgroundImageFix"/><feBlend in="SourceGraphic" in2="BackgroundImageFix" result="shape"/><feGaussianBlur stdDeviation=".135" result="effect1_foregroundBlur_656_1186"/></filter><filter id="B" x=".53" y="312.092" width="2.941" height="6.145" filterUnits="userSpaceOnUse" color-interpolation-filters="sRGB"><feFlood flood-opacity="0" result="BackgroundImageFix"/><feBlend in="SourceGraphic" in2="BackgroundImageFix" result="shape"/><feGaussianBlur stdDeviation=".135" result="effect1_foregroundBlur_656_1186"/></filter><filter id="E" x="2.393" y="-.007" width="345.213" height="711.236" filterUnits="userSpaceOnUse" color-interpolation-filters="sRGB"><feFlood flood-opacity="0" result="BackgroundImageFix"/><feBlend in="SourceGraphic" in2="BackgroundImageFix" result="shape"/><feGaussianBlur stdDeviation=".404" result="effect1_foregroundBlur_656_1186"/></filter><filter id="F" x="7.469" y="5.068" width="335.063" height="701.086" filterUnits="userSpaceOnUse" color-interpolation-filters="sRGB"><feFlood flood-opacity="0" result="BackgroundImageFix"/><feBlend in="SourceGraphic" in2="BackgroundImageFix" result="shape"/><feGaussianBlur stdDeviation=".269" result="effect1_foregroundBlur_656_1186"/></filter><filter id="G" x="199.531" y="35.343" width="5.402" height="9.407" filterUnits="userSpaceOnUse" color-interpolation-filters="sRGB"><feFlood flood-opacity="0" result="BackgroundImageFix"/><feBlend in="SourceGraphic" in2="BackgroundImageFix" result="shape"/><feGaussianBlur stdDeviation=".75" result="effect1_foregroundBlur_656_1186"/></filter><filter id="d" x="346.932" y="214.779" width="2.941" height="84.636" filterUnits="userSpaceOnUse" color-interpolation-filters="sRGB"><feFlood flood-opacity="0" result="BackgroundImageFix"/><feBlend in="SourceGraphic" in2="BackgroundImageFix" result="shape"/><feGaussianBlur stdDeviation=".135" result="effect1_foregroundBlur_656_1186"/></filter><filter id="I" x="201.049" y="36.765" width="3.348" height="5.801" filterUnits="userSpaceOnUse" color-interpolation-filters="sRGB"><feFlood flood-opacity="0" result="BackgroundImageFix"/><feBlend in="SourceGraphic" in2="BackgroundImageFix" result="shape"/><feGaussianBlur stdDeviation=".5" result="effect1_foregroundBlur_656_1186"/></filter><filter id="J" x="204.336" y="35.343" width="5.402" height="9.407" filterUnits="userSpaceOnUse" color-interpolation-filters="sRGB"><feFlood flood-opacity="0" result="BackgroundImageFix"/><feBlend in="SourceGraphic" in2="BackgroundImageFix" result="shape"/><feGaussianBlur stdDeviation=".75" result="effect1_foregroundBlur_656_1186"/></filter><filter id="K" x="204.936" y="36.821" width="4.201" height="6.45" filterUnits="userSpaceOnUse" color-interpolation-filters="sRGB"><feFlood flood-opacity="0" result="BackgroundImageFix"/><feBlend in="SourceGraphic" in2="BackgroundImageFix" result="shape"/><feGaussianBlur stdDeviation=".75" result="effect1_foregroundBlur_656_1186"/></filter><filter id="L" x="204.873" y="36.765" width="3.348" height="5.801" filterUnits="userSpaceOnUse" color-interpolation-filters="sRGB"><feFlood flood-opacity="0" result="BackgroundImageFix"/><feBlend in="SourceGraphic" in2="BackgroundImageFix" result="shape"/><feGaussianBlur stdDeviation=".5" result="effect1_foregroundBlur_656_1186"/></filter><linearGradient id="C" x1="1.201" y1="0" x2="1.201" y2="5.606" gradientUnits="userSpaceOnUse"><stop stop-color="#2D2E2A"/><stop offset=".76" stop-color="#565553"/></linearGradient><linearGradient id="f" x1=".801" y1="0" x2=".801" y2="5.606" gradientUnits="userSpaceOnUse"><stop stop-color="#2D2E2A"/><stop offset=".76" stop-color="#565553"/></linearGradient><linearGradient id="m" x1="1.6" y1="145.888" x2="1.6" y2="149.092" gradientUnits="userSpaceOnUse"><stop stop-color="#2D2E2A"/><stop offset=".76" stop-color="#565553"/></linearGradient><linearGradient id="o" x1=".801" y1="0" x2=".801" y2="3.204" gradientUnits="userSpaceOnUse"><stop stop-color="#2D2E2A"/><stop offset=".76" stop-color="#565553"/></linearGradient><linearGradient id="t" x1="2" y1="196.227" x2="2" y2="201.834" gradientUnits="userSpaceOnUse"><stop stop-color="#2D2E2A"/><stop offset=".76" stop-color="#565553"/></linearGradient><linearGradient id="v" x1="1.201" y1="0" x2="1.201" y2="5.606" gradientUnits="userSpaceOnUse"><stop stop-color="#2D2E2A"/><stop offset=".76" stop-color="#565553"/></linearGradient><linearGradient id="A" x1="2" y1="265.107" x2="2" y2="270.713" gradientUnits="userSpaceOnUse"><stop stop-color="#2D2E2A"/><stop offset=".76" stop-color="#565553"/></linearGradient><linearGradient id="h" x1="350.004" y1="298.746" x2="350.004" y2="304.352" gradientUnits="userSpaceOnUse"><stop stop-color="#2D2E2A"/><stop offset=".76" stop-color="#565553"/></linearGradient><clipPath id="a"><path fill="#fff" transform="translate(-.002)" d="M0 0h350.005v711H0z"/></clipPath><clipPath id="b"><path d="M350.004 215.049a.401.401 0 0 0-.401-.401h-2.002v84.899h2.002c.222 0 .401-.18.401-.401v-84.097z" fill="#fff"/></clipPath><clipPath id="i"><path d="M-.002 145.368a.4.4 0 0 1 .4-.4h2.804v24.828H.399a.4.4 0 0 1-.401-.4v-24.028z" fill="#fff"/></clipPath><clipPath id="p"><path d="M-.002 195.826a.4.4 0 0 1 .4-.4h2.003v54.463H.399a.4.4 0 0 1-.401-.401v-53.662z" fill="#fff"/></clipPath><clipPath id="w"><path d="M-.002 264.706a.4.4 0 0 1 .4-.4h2.003v54.463H.399c-.222 0-.401-.18-.401-.401v-53.662z" fill="#fff"/></clipPath><clipPath id="D"><rect x="2.4" width="345.199" height="711.222" rx="56.065" fill="#fff"/></clipPath></defs></svg>
