<svg width="83" height="35" fill="none" xmlns="http://www.w3.org/2000/svg"><path d="M60.245 15.745a4.123 4.123 0 0 1 3.736-2.396c1.654 0 3.078.981 3.736 2.396h-7.472zm11.804 0c-.801-3.744-4.109-6.55-8.068-6.55-4.56 0-8.256 3.72-8.256 8.306 0 4.588 3.696 8.306 8.256 8.306 2.28 0 4.343-.93 5.837-2.432L66.9 20.438a4.104 4.104 0 0 1-2.92 1.217 4.123 4.123 0 0 1-3.735-2.396h11.804a8.39 8.39 0 0 0 0-3.514zm-36.963-6.55v16.612c0 4.588-3.696 8.306-8.255 8.306-4.56 0-8.256-3.718-8.256-8.306h4.128c0 2.294 1.848 4.154 4.128 4.154 2.28 0 4.127-1.86 4.127-4.154v-1.114a8.175 8.175 0 0 1-4.127 1.114c-4.56 0-8.256-3.718-8.256-8.305V9.194h4.128v8.306c0 2.294 1.848 4.154 4.128 4.154 2.28 0 4.127-1.86 4.127-4.154V9.196h4.128zm-18.575 8.306v8.306h-4.127v-8.305c0-2.294-1.848-4.153-4.128-4.153-2.28 0-4.128 1.859-4.128 4.152v8.306H0V.89h4.128v9.42a8.176 8.176 0 0 1 4.128-1.115c4.559 0 8.255 3.72 8.255 8.306zm66.045-4.153c-2.28 0-4.128 1.86-4.128 4.153v8.306H74.3v-8.305c0-4.588 3.696-8.307 8.256-8.307v4.153zm-37.15 8.307c-2.28 0-4.128-1.86-4.128-4.154 0-2.293 1.848-4.153 4.128-4.153 2.28 0 4.127 1.86 4.127 4.153 0 2.294-1.848 4.154-4.127 4.154zm0-12.46c-4.56 0-8.256 3.72-8.256 8.306v16.612h4.128v-9.42a8.178 8.178 0 0 0 4.128 1.114c4.559 0 8.255-3.718 8.255-8.305 0-4.588-3.696-8.307-8.255-8.307zM63.2 31.08a1.59 1.59 0 0 1 1.515-1.118c.71 0 1.312.47 1.514 1.118H63.2zm4.055.479a2.545 2.545 0 0 0-2.54-2.556 2.548 2.548 0 0 0-2.54 2.556 2.548 2.548 0 0 0 2.54 2.555c.718 0 1.366-.3 1.828-.782l-.674-.678c-.29.309-.7.502-1.154.502a1.59 1.59 0 0 1-1.515-1.118h4.01c.029-.155.045-.315.045-.479zm4.486 1.13.673.677a2.524 2.524 0 0 1-1.796.748 2.548 2.548 0 0 1-2.54-2.555 2.548 2.548 0 0 1 2.54-2.556c.701 0 1.336.286 1.796.749l-.673.678a1.578 1.578 0 0 0-1.123-.468c-.877 0-1.587.715-1.587 1.597s.71 1.597 1.587 1.597c.439 0 .835-.179 1.123-.468zm-9.864.677a2.525 2.525 0 0 1-1.796.748 2.548 2.548 0 0 1-2.54-2.555v-4.213h.952v1.657h2.223v.959h-2.223v1.597c0 .882.711 1.597 1.588 1.597.438 0 .835-.179 1.123-.468l.673.678zm16.55-1.807v2.555h-.953v-2.555c0-.882-.71-1.597-1.587-1.597s-1.588.715-1.588 1.597v2.555h-.952v-6.768h.952v2.219a2.518 2.518 0 0 1 1.588-.562 2.548 2.548 0 0 1 2.54 2.556zM53.92 33.155a1.592 1.592 0 0 1-1.587-1.597c0-.882.71-1.597 1.587-1.597s1.588.715 1.588 1.597-.71 1.597-1.588 1.597zm1.588-5.81v2.219a2.518 2.518 0 0 0-1.588-.562 2.548 2.548 0 0 0-2.54 2.556 2.548 2.548 0 0 0 2.54 2.555c.601 0 1.153-.21 1.588-.56v.56h.953v-6.768h-.953zm-7.49 5.81a1.592 1.592 0 0 1-1.589-1.597c0-.882.711-1.597 1.588-1.597.877 0 1.587.715 1.587 1.597s-.71 1.597-1.587 1.597zm1.587-4.153v.562a2.519 2.519 0 0 0-1.588-.562 2.548 2.548 0 0 0-2.54 2.556 2.548 2.548 0 0 0 2.54 2.555c.6 0 1.152-.21 1.587-.56v.56h.953v-5.11h-.953z" fill="#1A1B1D"/></svg>