<svg width="650" height="482" viewBox="0 0 650 482" fill="none" xmlns="http://www.w3.org/2000/svg">
<circle cx="326.5" cy="241" r="240" stroke="#D1DEF2" stroke-width="2" stroke-linecap="round" stroke-dasharray="9 9"/>
<path d="M10.6855 85H2.59961V70.7227H10.6855V72.6953H4.94336V76.5723H10.3242V78.5352H4.94336V83.0176H10.6855V85ZM12.5996 80.6055V78.6621H17.6387V80.6055H12.5996ZM24.3379 85.1953C23.3158 85.1953 22.4303 84.9967 21.6816 84.5996C20.9329 84.2025 20.3568 83.5938 19.9531 82.7734C19.5495 81.9531 19.3477 80.9115 19.3477 79.6484C19.3477 78.3333 19.569 77.2591 20.0117 76.4258C20.4544 75.5924 21.0664 74.9772 21.8477 74.5801C22.6354 74.1829 23.5371 73.9844 24.5527 73.9844C25.1973 73.9844 25.7799 74.0495 26.3008 74.1797C26.8281 74.3034 27.2741 74.4564 27.6387 74.6387L26.9551 76.4746C26.5579 76.3118 26.151 76.1751 25.7344 76.0645C25.3177 75.9538 24.9173 75.8984 24.5332 75.8984C23.9017 75.8984 23.3743 76.0384 22.9512 76.3184C22.5345 76.5983 22.222 77.015 22.0137 77.5684C21.8118 78.1217 21.7109 78.8086 21.7109 79.6289C21.7109 80.4232 21.8151 81.0938 22.0234 81.6406C22.2318 82.181 22.541 82.5911 22.9512 82.8711C23.3613 83.1445 23.8659 83.2812 24.4648 83.2812C25.0573 83.2812 25.5879 83.2096 26.0566 83.0664C26.5254 82.9232 26.9681 82.7376 27.3848 82.5098V84.502C26.9746 84.7363 26.5352 84.9089 26.0664 85.0195C25.5977 85.1367 25.0215 85.1953 24.3379 85.1953ZM39.4941 79.5703C39.4941 80.4688 39.377 81.2663 39.1426 81.9629C38.9082 82.6595 38.5664 83.2487 38.1172 83.7305C37.668 84.2057 37.1276 84.5703 36.4961 84.8242C35.8646 85.0716 35.1517 85.1953 34.3574 85.1953C33.6152 85.1953 32.9349 85.0716 32.3164 84.8242C31.6979 84.5703 31.1608 84.2057 30.7051 83.7305C30.2559 83.2487 29.9076 82.6595 29.6602 81.9629C29.4128 81.2663 29.2891 80.4688 29.2891 79.5703C29.2891 78.3789 29.4941 77.3698 29.9043 76.543C30.321 75.7096 30.9134 75.0749 31.6816 74.6387C32.4499 74.2025 33.3646 73.9844 34.4258 73.9844C35.4219 73.9844 36.3008 74.2025 37.0625 74.6387C37.8242 75.0749 38.4199 75.7096 38.8496 76.543C39.2793 77.3763 39.4941 78.3854 39.4941 79.5703ZM31.6523 79.5703C31.6523 80.3581 31.7467 81.0319 31.9355 81.5918C32.1309 82.1517 32.4303 82.5814 32.834 82.8809C33.2376 83.1738 33.7585 83.3203 34.3965 83.3203C35.0345 83.3203 35.5553 83.1738 35.959 82.8809C36.3626 82.5814 36.6589 82.1517 36.8477 81.5918C37.0365 81.0319 37.1309 80.3581 37.1309 79.5703C37.1309 78.7826 37.0365 78.1152 36.8477 77.5684C36.6589 77.015 36.3626 76.5951 35.959 76.3086C35.5553 76.0156 35.0312 75.8691 34.3867 75.8691C33.4362 75.8691 32.7428 76.1882 32.3066 76.8262C31.8704 77.4642 31.6523 78.3789 31.6523 79.5703ZM54.3477 73.9844C55.5586 73.9844 56.4701 74.2969 57.082 74.9219C57.7005 75.5469 58.0098 76.5495 58.0098 77.9297V85H55.7148V78.3398C55.7148 77.5195 55.5553 76.901 55.2363 76.4844C54.9173 76.0677 54.4323 75.8594 53.7812 75.8594C52.8698 75.8594 52.2122 76.1523 51.8086 76.7383C51.4115 77.3177 51.2129 78.1608 51.2129 79.2676V85H48.918V78.3398C48.918 77.793 48.8464 77.3372 48.7031 76.9727C48.5664 76.6016 48.3548 76.3249 48.0684 76.1426C47.7819 75.9538 47.4206 75.8594 46.9844 75.8594C46.3529 75.8594 45.8483 76.0026 45.4707 76.2891C45.0996 76.5755 44.8327 76.9987 44.6699 77.5586C44.5072 78.112 44.4258 78.7923 44.4258 79.5996V85H42.1309V74.1895H43.918L44.2402 75.6445H44.3672C44.5885 75.2669 44.862 74.9577 45.1875 74.7168C45.5195 74.4694 45.8874 74.2871 46.291 74.1699C46.6947 74.0462 47.1146 73.9844 47.5508 73.9844C48.3581 73.9844 49.0384 74.1276 49.5918 74.4141C50.1452 74.694 50.5586 75.1237 50.832 75.7031H51.0078C51.3464 75.1172 51.8184 74.6842 52.4238 74.4043C53.0293 74.1243 53.6706 73.9844 54.3477 73.9844ZM73.4297 73.9844C74.6406 73.9844 75.5521 74.2969 76.1641 74.9219C76.7826 75.5469 77.0918 76.5495 77.0918 77.9297V85H74.7969V78.3398C74.7969 77.5195 74.6374 76.901 74.3184 76.4844C73.9993 76.0677 73.5143 75.8594 72.8633 75.8594C71.9518 75.8594 71.2943 76.1523 70.8906 76.7383C70.4935 77.3177 70.2949 78.1608 70.2949 79.2676V85H68V78.3398C68 77.793 67.9284 77.3372 67.7852 76.9727C67.6484 76.6016 67.4368 76.3249 67.1504 76.1426C66.8639 75.9538 66.5026 75.8594 66.0664 75.8594C65.4349 75.8594 64.9303 76.0026 64.5527 76.2891C64.1816 76.5755 63.9147 76.9987 63.752 77.5586C63.5892 78.112 63.5078 78.7923 63.5078 79.5996V85H61.2129V74.1895H63L63.3223 75.6445H63.4492C63.6706 75.2669 63.944 74.9577 64.2695 74.7168C64.6016 74.4694 64.9694 74.2871 65.373 74.1699C65.7767 74.0462 66.1966 73.9844 66.6328 73.9844C67.4401 73.9844 68.1204 74.1276 68.6738 74.4141C69.2272 74.694 69.6406 75.1237 69.9141 75.7031H70.0898C70.4284 75.1172 70.9004 74.6842 71.5059 74.4043C72.1113 74.1243 72.7526 73.9844 73.4297 73.9844ZM84.6016 73.9844C85.5651 73.9844 86.3919 74.1829 87.082 74.5801C87.7721 74.9772 88.3027 75.5404 88.6738 76.2695C89.0449 76.9987 89.2305 77.8711 89.2305 78.8867V80.1172H82.0137C82.0397 81.1654 82.3197 81.9727 82.8535 82.5391C83.3939 83.1055 84.1491 83.3887 85.1191 83.3887C85.8092 83.3887 86.4277 83.3236 86.9746 83.1934C87.528 83.0566 88.0977 82.8581 88.6836 82.5977V84.4629C88.1432 84.7168 87.5931 84.9023 87.0332 85.0195C86.4733 85.1367 85.8027 85.1953 85.0215 85.1953C83.9603 85.1953 83.026 84.9902 82.2188 84.5801C81.418 84.1634 80.7897 83.5449 80.334 82.7246C79.8848 81.9043 79.6602 80.8854 79.6602 79.668C79.6602 78.457 79.8652 77.4284 80.2754 76.582C80.6855 75.7357 81.2617 75.0911 82.0039 74.6484C82.7461 74.2057 83.612 73.9844 84.6016 73.9844ZM84.6016 75.7129C83.8789 75.7129 83.293 75.9473 82.8438 76.416C82.401 76.8848 82.1406 77.5716 82.0625 78.4766H86.9844C86.9779 77.9362 86.8867 77.4577 86.7109 77.041C86.5417 76.6243 86.2812 76.2988 85.9297 76.0645C85.5846 75.8301 85.1419 75.7129 84.6016 75.7129ZM97.2969 73.9844C97.4792 73.9844 97.6777 73.9941 97.8926 74.0137C98.1074 74.0332 98.293 74.0592 98.4492 74.0918L98.2344 76.2402C98.0977 76.2012 97.9284 76.1719 97.7266 76.1523C97.5312 76.1328 97.3555 76.123 97.1992 76.123C96.7891 76.123 96.3984 76.1914 96.0273 76.3281C95.6562 76.4583 95.3275 76.6602 95.041 76.9336C94.7546 77.2005 94.5299 77.5358 94.3672 77.9395C94.2044 78.3431 94.123 78.8118 94.123 79.3457V85H91.8184V74.1895H93.6152L93.9277 76.0938H94.0352C94.25 75.7096 94.5169 75.3581 94.8359 75.0391C95.1549 74.7201 95.5195 74.4661 95.9297 74.2773C96.3464 74.082 96.8021 73.9844 97.2969 73.9844ZM104.807 85.1953C103.785 85.1953 102.899 84.9967 102.15 84.5996C101.402 84.2025 100.826 83.5938 100.422 82.7734C100.018 81.9531 99.8164 80.9115 99.8164 79.6484C99.8164 78.3333 100.038 77.2591 100.48 76.4258C100.923 75.5924 101.535 74.9772 102.316 74.5801C103.104 74.1829 104.006 73.9844 105.021 73.9844C105.666 73.9844 106.249 74.0495 106.77 74.1797C107.297 74.3034 107.743 74.4564 108.107 74.6387L107.424 76.4746C107.027 76.3118 106.62 76.1751 106.203 76.0645C105.786 75.9538 105.386 75.8984 105.002 75.8984C104.37 75.8984 103.843 76.0384 103.42 76.3184C103.003 76.5983 102.691 77.015 102.482 77.5684C102.281 78.1217 102.18 78.8086 102.18 79.6289C102.18 80.4232 102.284 81.0938 102.492 81.6406C102.701 82.181 103.01 82.5911 103.42 82.8711C103.83 83.1445 104.335 83.2812 104.934 83.2812C105.526 83.2812 106.057 83.2096 106.525 83.0664C106.994 82.9232 107.437 82.7376 107.854 82.5098V84.502C107.443 84.7363 107.004 84.9089 106.535 85.0195C106.066 85.1367 105.49 85.1953 104.807 85.1953ZM114.699 73.9844C115.663 73.9844 116.49 74.1829 117.18 74.5801C117.87 74.9772 118.4 75.5404 118.771 76.2695C119.143 76.9987 119.328 77.8711 119.328 78.8867V80.1172H112.111C112.137 81.1654 112.417 81.9727 112.951 82.5391C113.492 83.1055 114.247 83.3887 115.217 83.3887C115.907 83.3887 116.525 83.3236 117.072 83.1934C117.626 83.0566 118.195 82.8581 118.781 82.5977V84.4629C118.241 84.7168 117.691 84.9023 117.131 85.0195C116.571 85.1367 115.9 85.1953 115.119 85.1953C114.058 85.1953 113.124 84.9902 112.316 84.5801C111.516 84.1634 110.887 83.5449 110.432 82.7246C109.982 81.9043 109.758 80.8854 109.758 79.668C109.758 78.457 109.963 77.4284 110.373 76.582C110.783 75.7357 111.359 75.0911 112.102 74.6484C112.844 74.2057 113.71 73.9844 114.699 73.9844ZM114.699 75.7129C113.977 75.7129 113.391 75.9473 112.941 76.416C112.499 76.8848 112.238 77.5716 112.16 78.4766H117.082C117.076 77.9362 116.984 77.4577 116.809 77.041C116.639 76.6243 116.379 76.2988 116.027 76.0645C115.682 75.8301 115.24 75.7129 114.699 75.7129Z" fill="#222325"/>
<circle cx="148.5" cy="80" r="12" fill="#D1DEF2"/>
<circle cx="148.5" cy="80" r="6" fill="#1763AC"/>
<path d="M41.6641 249V234.723H44.0078V249H41.6641ZM52.7285 249H50.375V236.715H46.1953V234.723H56.8984V236.715H52.7285V249Z" fill="#222325"/>
<circle cx="85.5" cy="244" r="12" fill="#D1DEF2"/>
<circle cx="85.5" cy="244" r="6" fill="#1763AC"/>
<path d="M38.7012 409H36.377V394.723H44.4434V396.695H38.7012V401.148H44.0723V403.111H38.7012V409ZM49.1016 398.189V409H46.8066V398.189H49.1016ZM47.9688 394.049C48.3203 394.049 48.623 394.143 48.877 394.332C49.1374 394.521 49.2676 394.846 49.2676 395.309C49.2676 395.764 49.1374 396.09 48.877 396.285C48.623 396.474 48.3203 396.568 47.9688 396.568C47.6042 396.568 47.2949 396.474 47.041 396.285C46.7936 396.09 46.6699 395.764 46.6699 395.309C46.6699 394.846 46.7936 394.521 47.041 394.332C47.2949 394.143 47.6042 394.049 47.9688 394.049ZM58.0273 397.984C59.2448 397.984 60.1921 398.3 60.8691 398.932C61.5527 399.557 61.8945 400.562 61.8945 401.949V409H59.5996V402.379C59.5996 401.539 59.4271 400.911 59.082 400.494C58.737 400.071 58.2031 399.859 57.4805 399.859C56.4323 399.859 55.7031 400.182 55.293 400.826C54.8893 401.471 54.6875 402.405 54.6875 403.629V409H52.3926V398.189H54.1797L54.502 399.654H54.6289C54.8633 399.277 55.153 398.967 55.498 398.727C55.8496 398.479 56.2402 398.294 56.6699 398.17C57.1061 398.046 57.5586 397.984 58.0273 397.984ZM69.3457 397.984C70.7129 397.984 71.7448 398.287 72.4414 398.893C73.1445 399.498 73.4961 400.442 73.4961 401.725V409H71.8652L71.4258 407.467H71.3477C71.0417 407.857 70.7259 408.18 70.4004 408.434C70.0749 408.688 69.6973 408.876 69.2676 409C68.8444 409.13 68.3268 409.195 67.7148 409.195C67.0703 409.195 66.4941 409.078 65.9863 408.844C65.4785 408.603 65.0781 408.238 64.7852 407.75C64.4922 407.262 64.3457 406.643 64.3457 405.895C64.3457 404.781 64.7591 403.945 65.5859 403.385C66.4193 402.825 67.6758 402.516 69.3555 402.457L71.2305 402.389V401.822C71.2305 401.074 71.0547 400.54 70.7031 400.221C70.3581 399.902 69.8698 399.742 69.2383 399.742C68.6979 399.742 68.1738 399.82 67.666 399.977C67.1582 400.133 66.6634 400.325 66.1816 400.553L65.4395 398.932C65.9668 398.652 66.5658 398.424 67.2363 398.248C67.9134 398.072 68.6165 397.984 69.3457 397.984ZM71.2207 403.834L69.8242 403.883C68.6784 403.922 67.8743 404.117 67.4121 404.469C66.9499 404.82 66.7188 405.302 66.7188 405.914C66.7188 406.448 66.8783 406.839 67.1973 407.086C67.5163 407.327 67.9362 407.447 68.457 407.447C69.2513 407.447 69.9089 407.223 70.4297 406.773C70.957 406.318 71.2207 405.65 71.2207 404.771V403.834ZM82.3438 397.984C83.5612 397.984 84.5085 398.3 85.1855 398.932C85.8691 399.557 86.2109 400.562 86.2109 401.949V409H83.916V402.379C83.916 401.539 83.7435 400.911 83.3984 400.494C83.0534 400.071 82.5195 399.859 81.7969 399.859C80.7487 399.859 80.0195 400.182 79.6094 400.826C79.2057 401.471 79.0039 402.405 79.0039 403.629V409H76.709V398.189H78.4961L78.8184 399.654H78.9453C79.1797 399.277 79.4694 398.967 79.8145 398.727C80.166 398.479 80.5566 398.294 80.9863 398.17C81.4225 398.046 81.875 397.984 82.3438 397.984ZM93.7793 409.195C92.7572 409.195 91.8717 408.997 91.123 408.6C90.3743 408.202 89.7982 407.594 89.3945 406.773C88.9909 405.953 88.7891 404.911 88.7891 403.648C88.7891 402.333 89.0104 401.259 89.4531 400.426C89.8958 399.592 90.5078 398.977 91.2891 398.58C92.0768 398.183 92.9785 397.984 93.9941 397.984C94.6387 397.984 95.2214 398.049 95.7422 398.18C96.2695 398.303 96.7155 398.456 97.0801 398.639L96.3965 400.475C95.9993 400.312 95.5924 400.175 95.1758 400.064C94.7591 399.954 94.3587 399.898 93.9746 399.898C93.3431 399.898 92.8158 400.038 92.3926 400.318C91.9759 400.598 91.6634 401.015 91.4551 401.568C91.2533 402.122 91.1523 402.809 91.1523 403.629C91.1523 404.423 91.2565 405.094 91.4648 405.641C91.6732 406.181 91.9824 406.591 92.3926 406.871C92.8027 407.145 93.3073 407.281 93.9062 407.281C94.4987 407.281 95.0293 407.21 95.498 407.066C95.9668 406.923 96.4095 406.738 96.8262 406.51V408.502C96.416 408.736 95.9766 408.909 95.5078 409.02C95.0391 409.137 94.4629 409.195 93.7793 409.195ZM101.66 398.189V409H99.3652V398.189H101.66ZM100.527 394.049C100.879 394.049 101.182 394.143 101.436 394.332C101.696 394.521 101.826 394.846 101.826 395.309C101.826 395.764 101.696 396.09 101.436 396.285C101.182 396.474 100.879 396.568 100.527 396.568C100.163 396.568 99.8535 396.474 99.5996 396.285C99.3522 396.09 99.2285 395.764 99.2285 395.309C99.2285 394.846 99.3522 394.521 99.5996 394.332C99.8535 394.143 100.163 394.049 100.527 394.049ZM109.189 397.984C110.557 397.984 111.589 398.287 112.285 398.893C112.988 399.498 113.34 400.442 113.34 401.725V409H111.709L111.27 407.467H111.191C110.885 407.857 110.57 408.18 110.244 408.434C109.919 408.688 109.541 408.876 109.111 409C108.688 409.13 108.171 409.195 107.559 409.195C106.914 409.195 106.338 409.078 105.83 408.844C105.322 408.603 104.922 408.238 104.629 407.75C104.336 407.262 104.189 406.643 104.189 405.895C104.189 404.781 104.603 403.945 105.43 403.385C106.263 402.825 107.52 402.516 109.199 402.457L111.074 402.389V401.822C111.074 401.074 110.898 400.54 110.547 400.221C110.202 399.902 109.714 399.742 109.082 399.742C108.542 399.742 108.018 399.82 107.51 399.977C107.002 400.133 106.507 400.325 106.025 400.553L105.283 398.932C105.811 398.652 106.41 398.424 107.08 398.248C107.757 398.072 108.46 397.984 109.189 397.984ZM111.064 403.834L109.668 403.883C108.522 403.922 107.718 404.117 107.256 404.469C106.794 404.82 106.562 405.302 106.562 405.914C106.562 406.448 106.722 406.839 107.041 407.086C107.36 407.327 107.78 407.447 108.301 407.447C109.095 407.447 109.753 407.223 110.273 406.773C110.801 406.318 111.064 405.65 111.064 404.771V403.834ZM118.857 409H116.553V393.805H118.857V409Z" fill="#222325"/>
<circle cx="148.5" cy="404" r="12" fill="#D1DEF2"/>
<circle cx="148.5" cy="404" r="6" fill="#1763AC"/>
<circle cx="508.5" cy="80" r="12" fill="#D1DEF2"/>
<circle cx="508.5" cy="80" r="6" fill="#1763AC"/>
<path d="M541.055 85H538.73V70.7227H546.797V72.6953H541.055V77.1484H546.426V79.1113H541.055V85ZM555.557 85L551.445 73.0762H551.357C551.377 73.3431 551.4 73.7077 551.426 74.1699C551.452 74.6322 551.475 75.127 551.494 75.6543C551.514 76.1816 551.523 76.6862 551.523 77.168V85H549.395V70.7227H552.686L556.641 82.1191H556.699L560.791 70.7227H564.072V85H561.836V77.0508C561.836 76.6146 561.842 76.1426 561.855 75.6348C561.875 75.127 561.895 74.6452 561.914 74.1895C561.94 73.7337 561.96 73.3691 561.973 73.0957H561.895L557.627 85H555.557ZM573.916 72.5098C573.232 72.5098 572.62 72.6335 572.08 72.8809C571.546 73.1283 571.094 73.4863 570.723 73.9551C570.352 74.4173 570.068 74.9805 569.873 75.6445C569.678 76.3021 569.58 77.0443 569.58 77.8711C569.58 78.9779 569.736 79.9316 570.049 80.7324C570.361 81.5267 570.837 82.1387 571.475 82.5684C572.113 82.9915 572.92 83.2031 573.896 83.2031C574.502 83.2031 575.091 83.1445 575.664 83.0273C576.237 82.9102 576.829 82.7507 577.441 82.5488V84.541C576.862 84.7689 576.276 84.9349 575.684 85.0391C575.091 85.1432 574.408 85.1953 573.633 85.1953C572.174 85.1953 570.964 84.8926 570 84.2871C569.043 83.6816 568.327 82.8288 567.852 81.7285C567.383 80.6283 567.148 79.3392 567.148 77.8613C567.148 76.7806 567.298 75.791 567.598 74.8926C567.897 73.9941 568.333 73.2194 568.906 72.5684C569.479 71.9108 570.186 71.4062 571.025 71.0547C571.872 70.6966 572.839 70.5176 573.926 70.5176C574.642 70.5176 575.345 70.599 576.035 70.7617C576.732 70.918 577.376 71.1426 577.969 71.4355L577.148 73.3691C576.654 73.1348 576.136 72.9329 575.596 72.7637C575.055 72.5944 574.495 72.5098 573.916 72.5098ZM586.27 77.2461H591.602V84.4141C590.853 84.6615 590.078 84.8535 589.277 84.9902C588.477 85.127 587.578 85.1953 586.582 85.1953C585.13 85.1953 583.9 84.9089 582.891 84.3359C581.888 83.7565 581.126 82.9199 580.605 81.8262C580.085 80.7259 579.824 79.401 579.824 77.8516C579.824 76.3607 580.114 75.0684 580.693 73.9746C581.273 72.8743 582.116 72.0247 583.223 71.4258C584.329 70.8203 585.671 70.5176 587.246 70.5176C588.021 70.5176 588.77 70.5957 589.492 70.752C590.221 70.9017 590.889 71.11 591.494 71.377L590.674 73.3105C590.192 73.0827 589.652 72.8906 589.053 72.7344C588.454 72.5781 587.832 72.5 587.188 72.5C586.165 72.5 585.283 72.7214 584.541 73.1641C583.805 73.6068 583.239 74.2318 582.842 75.0391C582.445 75.8398 582.246 76.7871 582.246 77.8809C582.246 78.9421 582.406 79.873 582.725 80.6738C583.044 81.4746 583.542 82.0996 584.219 82.5488C584.902 82.9915 585.785 83.2129 586.865 83.2129C587.406 83.2129 587.865 83.1836 588.242 83.125C588.62 83.0664 588.968 83.0013 589.287 82.9297V79.248H586.27V77.2461Z" fill="#222325"/>
<circle cx="566.5" cy="244" r="12" fill="#D1DEF2"/>
<circle cx="566.5" cy="244" r="6" fill="#1763AC"/>
<path d="M600.398 234.723C601.629 234.723 602.645 234.872 603.445 235.172C604.253 235.471 604.852 235.927 605.242 236.539C605.639 237.151 605.838 237.929 605.838 238.873C605.838 239.576 605.708 240.175 605.447 240.67C605.187 241.165 604.845 241.575 604.422 241.9C603.999 242.226 603.546 242.486 603.064 242.682L607.117 249H604.471L601.023 243.277H598.729V249H596.385V234.723H600.398ZM600.242 236.676H598.729V241.344H600.35C601.437 241.344 602.225 241.142 602.713 240.738C603.208 240.335 603.455 239.739 603.455 238.951C603.455 238.124 603.191 237.538 602.664 237.193C602.143 236.848 601.336 236.676 600.242 236.676ZM613.23 237.984C614.194 237.984 615.021 238.183 615.711 238.58C616.401 238.977 616.932 239.54 617.303 240.27C617.674 240.999 617.859 241.871 617.859 242.887V244.117H610.643C610.669 245.165 610.949 245.973 611.482 246.539C612.023 247.105 612.778 247.389 613.748 247.389C614.438 247.389 615.057 247.324 615.604 247.193C616.157 247.057 616.727 246.858 617.312 246.598V248.463C616.772 248.717 616.222 248.902 615.662 249.02C615.102 249.137 614.432 249.195 613.65 249.195C612.589 249.195 611.655 248.99 610.848 248.58C610.047 248.163 609.419 247.545 608.963 246.725C608.514 245.904 608.289 244.885 608.289 243.668C608.289 242.457 608.494 241.428 608.904 240.582C609.314 239.736 609.891 239.091 610.633 238.648C611.375 238.206 612.241 237.984 613.23 237.984ZM613.23 239.713C612.508 239.713 611.922 239.947 611.473 240.416C611.03 240.885 610.77 241.572 610.691 242.477H615.613C615.607 241.936 615.516 241.458 615.34 241.041C615.171 240.624 614.91 240.299 614.559 240.064C614.214 239.83 613.771 239.713 613.23 239.713ZM624.471 247.34C624.77 247.34 625.066 247.314 625.359 247.262C625.652 247.203 625.919 247.135 626.16 247.057V248.795C625.906 248.906 625.577 249 625.174 249.078C624.77 249.156 624.35 249.195 623.914 249.195C623.302 249.195 622.752 249.094 622.264 248.893C621.775 248.684 621.388 248.329 621.102 247.828C620.815 247.327 620.672 246.633 620.672 245.748V239.938H619.197V238.912L620.779 238.102L621.531 235.787H622.977V238.189H626.072V239.938H622.977V245.719C622.977 246.266 623.113 246.673 623.387 246.939C623.66 247.206 624.021 247.34 624.471 247.34ZM632.596 237.984C633.963 237.984 634.995 238.287 635.691 238.893C636.395 239.498 636.746 240.442 636.746 241.725V249H635.115L634.676 247.467H634.598C634.292 247.857 633.976 248.18 633.65 248.434C633.325 248.688 632.947 248.876 632.518 249C632.094 249.13 631.577 249.195 630.965 249.195C630.32 249.195 629.744 249.078 629.236 248.844C628.729 248.603 628.328 248.238 628.035 247.75C627.742 247.262 627.596 246.643 627.596 245.895C627.596 244.781 628.009 243.945 628.836 243.385C629.669 242.825 630.926 242.516 632.605 242.457L634.48 242.389V241.822C634.48 241.074 634.305 240.54 633.953 240.221C633.608 239.902 633.12 239.742 632.488 239.742C631.948 239.742 631.424 239.82 630.916 239.977C630.408 240.133 629.913 240.325 629.432 240.553L628.689 238.932C629.217 238.652 629.816 238.424 630.486 238.248C631.163 238.072 631.867 237.984 632.596 237.984ZM634.471 243.834L633.074 243.883C631.928 243.922 631.124 244.117 630.662 244.469C630.2 244.82 629.969 245.302 629.969 245.914C629.969 246.448 630.128 246.839 630.447 247.086C630.766 247.327 631.186 247.447 631.707 247.447C632.501 247.447 633.159 247.223 633.68 246.773C634.207 246.318 634.471 245.65 634.471 244.771V243.834ZM642.254 238.189V249H639.959V238.189H642.254ZM641.121 234.049C641.473 234.049 641.775 234.143 642.029 234.332C642.29 234.521 642.42 234.846 642.42 235.309C642.42 235.764 642.29 236.09 642.029 236.285C641.775 236.474 641.473 236.568 641.121 236.568C640.757 236.568 640.447 236.474 640.193 236.285C639.946 236.09 639.822 235.764 639.822 235.309C639.822 234.846 639.946 234.521 640.193 234.332C640.447 234.143 640.757 234.049 641.121 234.049ZM647.85 249H645.545V233.805H647.85V249Z" fill="#222325"/>
<circle cx="508.5" cy="404" r="12" fill="#D1DEF2"/>
<circle cx="508.5" cy="404" r="6" fill="#1763AC"/>
<path d="M550.098 409H547.764V402.555H541.182V409H538.838V394.723H541.182V400.562H547.764V394.723H550.098V409ZM557.949 397.984C558.913 397.984 559.74 398.183 560.43 398.58C561.12 398.977 561.65 399.54 562.021 400.27C562.393 400.999 562.578 401.871 562.578 402.887V404.117H555.361C555.387 405.165 555.667 405.973 556.201 406.539C556.742 407.105 557.497 407.389 558.467 407.389C559.157 407.389 559.775 407.324 560.322 407.193C560.876 407.057 561.445 406.858 562.031 406.598V408.463C561.491 408.717 560.941 408.902 560.381 409.02C559.821 409.137 559.15 409.195 558.369 409.195C557.308 409.195 556.374 408.99 555.566 408.58C554.766 408.163 554.137 407.545 553.682 406.725C553.232 405.904 553.008 404.885 553.008 403.668C553.008 402.457 553.213 401.428 553.623 400.582C554.033 399.736 554.609 399.091 555.352 398.648C556.094 398.206 556.96 397.984 557.949 397.984ZM557.949 399.713C557.227 399.713 556.641 399.947 556.191 400.416C555.749 400.885 555.488 401.572 555.41 402.477H560.332C560.326 401.936 560.234 401.458 560.059 401.041C559.889 400.624 559.629 400.299 559.277 400.064C558.932 399.83 558.49 399.713 557.949 399.713ZM569.404 397.984C570.771 397.984 571.803 398.287 572.5 398.893C573.203 399.498 573.555 400.442 573.555 401.725V409H571.924L571.484 407.467H571.406C571.1 407.857 570.785 408.18 570.459 408.434C570.133 408.688 569.756 408.876 569.326 409C568.903 409.13 568.385 409.195 567.773 409.195C567.129 409.195 566.553 409.078 566.045 408.844C565.537 408.603 565.137 408.238 564.844 407.75C564.551 407.262 564.404 406.643 564.404 405.895C564.404 404.781 564.818 403.945 565.645 403.385C566.478 402.825 567.734 402.516 569.414 402.457L571.289 402.389V401.822C571.289 401.074 571.113 400.54 570.762 400.221C570.417 399.902 569.928 399.742 569.297 399.742C568.757 399.742 568.232 399.82 567.725 399.977C567.217 400.133 566.722 400.325 566.24 400.553L565.498 398.932C566.025 398.652 566.624 398.424 567.295 398.248C567.972 398.072 568.675 397.984 569.404 397.984ZM571.279 403.834L569.883 403.883C568.737 403.922 567.933 404.117 567.471 404.469C567.008 404.82 566.777 405.302 566.777 405.914C566.777 406.448 566.937 406.839 567.256 407.086C567.575 407.327 567.995 407.447 568.516 407.447C569.31 407.447 569.967 407.223 570.488 406.773C571.016 406.318 571.279 405.65 571.279 404.771V403.834ZM579.072 409H576.768V393.805H579.072V409ZM586.377 407.34C586.676 407.34 586.973 407.314 587.266 407.262C587.559 407.203 587.826 407.135 588.066 407.057V408.795C587.812 408.906 587.484 409 587.08 409.078C586.676 409.156 586.257 409.195 585.82 409.195C585.208 409.195 584.658 409.094 584.17 408.893C583.682 408.684 583.294 408.329 583.008 407.828C582.721 407.327 582.578 406.633 582.578 405.748V399.938H581.104V398.912L582.686 398.102L583.438 395.787H584.883V398.189H587.979V399.938H584.883V405.719C584.883 406.266 585.02 406.673 585.293 406.939C585.566 407.206 585.928 407.34 586.377 407.34ZM592.559 393.805V397.623C592.559 398.02 592.546 398.408 592.52 398.785C592.5 399.163 592.477 399.456 592.451 399.664H592.578C592.806 399.286 593.086 398.977 593.418 398.736C593.75 398.489 594.121 398.303 594.531 398.18C594.948 398.056 595.391 397.994 595.859 397.994C596.686 397.994 597.389 398.134 597.969 398.414C598.548 398.688 598.991 399.114 599.297 399.693C599.609 400.273 599.766 401.025 599.766 401.949V409H597.471V402.379C597.471 401.539 597.298 400.911 596.953 400.494C596.608 400.071 596.074 399.859 595.352 399.859C594.655 399.859 594.102 400.006 593.691 400.299C593.288 400.585 592.998 401.012 592.822 401.578C592.646 402.138 592.559 402.822 592.559 403.629V409H590.264V393.805H592.559ZM607.334 409.195C606.312 409.195 605.426 408.997 604.678 408.6C603.929 408.202 603.353 407.594 602.949 406.773C602.546 405.953 602.344 404.911 602.344 403.648C602.344 402.333 602.565 401.259 603.008 400.426C603.451 399.592 604.062 398.977 604.844 398.58C605.632 398.183 606.533 397.984 607.549 397.984C608.193 397.984 608.776 398.049 609.297 398.18C609.824 398.303 610.27 398.456 610.635 398.639L609.951 400.475C609.554 400.312 609.147 400.175 608.73 400.064C608.314 399.954 607.913 399.898 607.529 399.898C606.898 399.898 606.37 400.038 605.947 400.318C605.531 400.598 605.218 401.015 605.01 401.568C604.808 402.122 604.707 402.809 604.707 403.629C604.707 404.423 604.811 405.094 605.02 405.641C605.228 406.181 605.537 406.591 605.947 406.871C606.357 407.145 606.862 407.281 607.461 407.281C608.053 407.281 608.584 407.21 609.053 407.066C609.521 406.923 609.964 406.738 610.381 406.51V408.502C609.971 408.736 609.531 408.909 609.062 409.02C608.594 409.137 608.018 409.195 607.334 409.195ZM617.158 397.984C618.525 397.984 619.557 398.287 620.254 398.893C620.957 399.498 621.309 400.442 621.309 401.725V409H619.678L619.238 407.467H619.16C618.854 407.857 618.538 408.18 618.213 408.434C617.887 408.688 617.51 408.876 617.08 409C616.657 409.13 616.139 409.195 615.527 409.195C614.883 409.195 614.307 409.078 613.799 408.844C613.291 408.603 612.891 408.238 612.598 407.75C612.305 407.262 612.158 406.643 612.158 405.895C612.158 404.781 612.572 403.945 613.398 403.385C614.232 402.825 615.488 402.516 617.168 402.457L619.043 402.389V401.822C619.043 401.074 618.867 400.54 618.516 400.221C618.171 399.902 617.682 399.742 617.051 399.742C616.51 399.742 615.986 399.82 615.479 399.977C614.971 400.133 614.476 400.325 613.994 400.553L613.252 398.932C613.779 398.652 614.378 398.424 615.049 398.248C615.726 398.072 616.429 397.984 617.158 397.984ZM619.033 403.834L617.637 403.883C616.491 403.922 615.687 404.117 615.225 404.469C614.762 404.82 614.531 405.302 614.531 405.914C614.531 406.448 614.691 406.839 615.01 407.086C615.329 407.327 615.749 407.447 616.27 407.447C617.064 407.447 617.721 407.223 618.242 406.773C618.77 406.318 619.033 405.65 619.033 404.771V403.834ZM630 397.984C630.182 397.984 630.381 397.994 630.596 398.014C630.811 398.033 630.996 398.059 631.152 398.092L630.938 400.24C630.801 400.201 630.632 400.172 630.43 400.152C630.234 400.133 630.059 400.123 629.902 400.123C629.492 400.123 629.102 400.191 628.73 400.328C628.359 400.458 628.031 400.66 627.744 400.934C627.458 401.201 627.233 401.536 627.07 401.939C626.908 402.343 626.826 402.812 626.826 403.346V409H624.521V398.189H626.318L626.631 400.094H626.738C626.953 399.71 627.22 399.358 627.539 399.039C627.858 398.72 628.223 398.466 628.633 398.277C629.049 398.082 629.505 397.984 630 397.984ZM637.461 397.984C638.424 397.984 639.251 398.183 639.941 398.58C640.632 398.977 641.162 399.54 641.533 400.27C641.904 400.999 642.09 401.871 642.09 402.887V404.117H634.873C634.899 405.165 635.179 405.973 635.713 406.539C636.253 407.105 637.008 407.389 637.979 407.389C638.669 407.389 639.287 407.324 639.834 407.193C640.387 407.057 640.957 406.858 641.543 406.598V408.463C641.003 408.717 640.452 408.902 639.893 409.02C639.333 409.137 638.662 409.195 637.881 409.195C636.82 409.195 635.885 408.99 635.078 408.58C634.277 408.163 633.649 407.545 633.193 406.725C632.744 405.904 632.52 404.885 632.52 403.668C632.52 402.457 632.725 401.428 633.135 400.582C633.545 399.736 634.121 399.091 634.863 398.648C635.605 398.206 636.471 397.984 637.461 397.984ZM637.461 399.713C636.738 399.713 636.152 399.947 635.703 400.416C635.26 400.885 635 401.572 634.922 402.477H639.844C639.837 401.936 639.746 401.458 639.57 401.041C639.401 400.624 639.141 400.299 638.789 400.064C638.444 399.83 638.001 399.713 637.461 399.713Z" fill="#222325"/>
<path d="M356.515 229.144C357.592 226.846 359.919 225.25 362.625 225.25C365.331 225.25 367.658 226.846 368.734 229.144H356.515ZM375.819 229.144C374.508 223.061 369.1 218.5 362.625 218.5C355.169 218.5 349.125 224.544 349.125 232C349.125 239.456 355.169 245.5 362.625 245.5C366.352 245.5 369.728 243.989 372.171 241.546L367.398 236.773C366.177 237.995 364.489 238.75 362.625 238.75C359.919 238.75 357.592 237.154 356.515 234.856H375.819C376.017 233.935 376.125 232.98 376.125 232C376.125 231.02 376.017 230.065 375.819 229.144ZM315.375 218.5V245.5C315.375 252.956 309.331 259 301.875 259C294.419 259 288.375 252.956 288.375 245.5H295.125C295.125 249.228 298.147 252.25 301.875 252.25C305.603 252.25 308.625 249.228 308.625 245.5V243.689C306.639 244.839 304.335 245.5 301.875 245.5C294.419 245.5 288.375 239.456 288.375 232V218.5H295.125V232C295.125 235.728 298.147 238.75 301.875 238.75C305.603 238.75 308.625 235.728 308.625 232V218.5H315.375ZM285 232L285 245.5H278.25L278.25 232C278.25 228.272 275.228 225.25 271.501 225.25C267.773 225.25 264.75 228.272 264.75 232H264.75V245.5H258V205H264.75V220.31C266.736 219.161 269.04 218.5 271.5 218.5C278.956 218.5 285 224.544 285 232ZM393 225.25C389.272 225.25 386.25 228.272 386.25 232V245.5H379.499V232C379.499 224.544 385.544 218.5 393 218.5L393 225.25ZM332.25 238.75C328.523 238.75 325.5 235.728 325.5 232C325.5 228.272 328.523 225.25 332.25 225.25C335.978 225.25 339 228.272 339 232C339 235.728 335.978 238.75 332.25 238.75ZM332.25 218.5C324.794 218.5 318.75 224.544 318.75 232V259H325.5V243.69C327.486 244.839 329.79 245.5 332.25 245.5C339.706 245.5 345.75 239.456 345.75 232C345.75 224.544 339.706 218.5 332.25 218.5ZM361.35 254.068C361.68 253.015 362.664 252.251 363.827 252.251C364.989 252.251 365.973 253.015 366.304 254.068H361.35ZM367.98 254.847C367.98 254.581 367.954 254.32 367.906 254.068C367.542 252.146 365.854 250.693 363.827 250.693C361.533 250.693 359.673 252.553 359.673 254.847C359.673 257.14 361.533 259 363.827 259C365.002 259 366.061 258.512 366.817 257.728L365.715 256.626C365.242 257.128 364.571 257.443 363.827 257.443C362.664 257.443 361.68 256.679 361.35 255.626H367.906C367.954 255.373 367.98 255.113 367.98 254.847ZM375.316 256.682L376.417 257.784C375.666 258.535 374.627 259 373.48 259C371.187 259 369.327 257.14 369.327 254.847C369.327 252.553 371.187 250.693 373.48 250.693C374.627 250.693 375.666 251.158 376.417 251.91L375.316 253.011C374.847 252.541 374.197 252.251 373.48 252.251C372.047 252.251 370.885 253.413 370.885 254.847C370.885 256.281 372.047 257.443 373.48 257.443C374.197 257.443 374.847 257.152 375.316 256.682ZM359.187 257.784C358.435 258.535 357.396 259 356.249 259C353.956 259 352.096 257.14 352.096 254.847V248H353.653V250.693H357.288V252.251H353.653V254.847C353.653 256.281 354.816 257.443 356.249 257.443C356.966 257.443 357.616 257.152 358.085 256.682L359.187 257.784ZM386.25 254.847V259H384.692V254.847C384.692 253.413 383.53 252.251 382.096 252.251C380.662 252.251 379.5 253.413 379.5 254.847V259H377.943V248H379.5V251.605C380.211 251.035 381.113 250.693 382.096 250.693C384.39 250.693 386.25 252.553 386.25 254.847ZM346.174 257.443C344.74 257.443 343.578 256.281 343.578 254.847C343.578 253.413 344.74 252.251 346.174 252.251C347.607 252.251 348.77 253.413 348.77 254.847C348.77 256.281 347.607 257.443 346.174 257.443ZM348.77 248V251.605C348.059 251.035 347.156 250.693 346.174 250.693C343.88 250.693 342.02 252.553 342.02 254.847C342.02 257.14 343.88 259 346.174 259C347.156 259 348.059 258.658 348.77 258.088V259H350.327V248H348.77ZM336.52 257.443C335.086 257.443 333.924 256.281 333.924 254.847C333.924 253.413 335.086 252.251 336.52 252.251C337.954 252.251 339.116 253.413 339.116 254.846V254.847C339.116 256.281 337.954 257.443 336.52 257.443ZM339.116 250.693V251.605C338.405 251.035 337.502 250.693 336.52 250.693C334.226 250.693 332.367 252.553 332.367 254.847C332.367 257.14 334.226 259 336.52 259C337.502 259 338.405 258.658 339.116 258.088V259H340.674V250.693H339.116Z" fill="#1A1B1D" fill-opacity="0.17"/>
</svg>
