<svg width="49" height="50" fill="none" xmlns="http://www.w3.org/2000/svg"><path d="M6.334 49.655c-2.512-4.144-4.213-8.472-5.102-12.984-.89-4.512-.968-8.945-.236-13.3.733-4.354 2.25-8.524 4.553-12.511C7.904 6.82 11.044 3.2 14.969 0l6.043 3.699c1.047.682 1.518 1.521 1.413 2.518-.104.997-.444 1.783-1.02 2.36-1.099 1.312-2.146 3.043-3.14 5.194-.994 2.151-1.7 4.564-2.12 7.24-.365 2.675-.313 5.535.158 8.578.47 3.042 1.648 6.085 3.532 9.128.942 1.521 1.204 2.859.785 4.013-.419 1.102-1.282 1.889-2.59 2.361L6.334 49.655zm26.06 0c-2.512-4.144-4.212-8.472-5.102-12.984-.89-4.512-.968-8.945-.235-13.3.732-4.354 2.25-8.524 4.552-12.511C33.964 6.82 37.104 3.2 41.03 0l6.044 3.699c1.046.682 1.517 1.521 1.413 2.518-.105.997-.445 1.783-1.02 2.36-1.1 1.312-2.146 3.043-3.14 5.194-.995 2.151-1.701 4.564-2.12 7.24-.366 2.675-.314 5.535.157 8.578.471 3.042 1.648 6.085 3.532 9.128.942 1.521 1.204 2.859.785 4.013-.418 1.102-1.282 1.889-2.59 2.361l-11.696 4.564z" fill="#E7F0F9"/></svg>