<svg width="16" height="17" fill="none" xmlns="http://www.w3.org/2000/svg"><g clip-path="url(#a)"><path fill-rule="evenodd" clip-rule="evenodd" d="M0 8.5a8 8 0 1 1 16 0 8 8 0 0 1-16 0zm8.9 1.601H7.191V9.99c.009-1.573.393-1.803 1.1-2.226.074-.044.152-.091.234-.142.584-.367 1.033-.83 1.033-1.507 0-.758-.594-1.25-1.333-1.25-.68 0-1.325.318-1.369 1.226H5.043C5.091 4.254 6.545 3.3 8.235 3.3c1.845 0 3.115 1.158 3.115 2.79 0 1.106-.555 1.83-1.444 2.362l-.19.115c-.632.38-.807.486-.816 1.422v.112zm.137 2.41a1.075 1.075 0 0 1-1.063 1.063c-.59 0-1.067-.474-1.062-1.063a1.054 1.054 0 0 1 1.062-1.053c.57 0 1.058.474 1.063 1.053z" fill="#D1DEF2"/></g><defs><clipPath id="a"><path fill="#fff" transform="translate(0 .5)" d="M0 0h16v16H0z"/></clipPath></defs></svg>