<svg width="16" height="17" fill="none" xmlns="http://www.w3.org/2000/svg"><g clip-path="url(#a)"><path fill-rule="evenodd" clip-rule="evenodd" d="M8.8 2.719c0-.345.275-.619.616-.619H11.2V.5H9.416A2.215 2.215 0 0 0 7.2 2.719V4.5H4.44A4 4 0 0 0 .459 8.113l-.447 4.59a2.733 2.733 0 0 0 5.37.935l.059-.232a1.2 1.2 0 0 1 1.163-.906h2.992a1.2 1.2 0 0 1 1.163.905l.078.31a2.63 2.63 0 0 0 5.17-.9l-.457-4.701A4 4 0 0 0 11.57 4.5h-2.77V2.719zM4.8 6.1a.8.8 0 0 1 .8.8v.8h.8a.8.8 0 0 1 0 1.6h-.8v.8a.8.8 0 0 1-1.6 0v-.8h-.8a.8.8 0 0 1 0-1.6H4v-.8a.8.8 0 0 1 .8-.8zm6 2.4a1.2 1.2 0 1 0 0-2.4 1.2 1.2 0 0 0 0 2.4zm2.4 3.2a1.2 1.2 0 1 0 0-2.4 1.2 1.2 0 0 0 0 2.4z" fill="#1763AC"/></g><defs><clipPath id="a"><path fill="#fff" transform="translate(0 .5)" d="M0 0h16v16H0z"/></clipPath></defs></svg>