<svg width="16" height="17" fill="none" xmlns="http://www.w3.org/2000/svg"><g clip-path="url(#a)" fill="#1763AC"><path fill-rule="evenodd" clip-rule="evenodd" d="M13.6 4.1c0 .447-.082.85-.245 1.2H14.8A1.2 1.2 0 0 1 16 6.5v2H0v-2a1.2 1.2 0 0 1 1.2-1.2h1.445A2.837 2.837 0 0 1 2.4 4.1c0-1.623 1.427-2.8 3.015-2.8.933 0 1.92.437 2.585 1.224.666-.787 1.652-1.223 2.585-1.223 1.588 0 3.015 1.176 3.015 2.8zM4 4.1c0-.589.552-1.2 1.415-1.2.84 0 1.785.696 1.785 1.867v.534h-.677c-.644 0-1.325-.01-1.844-.2-.242-.09-.399-.203-.497-.33C4.089 4.65 4 4.453 4 4.1zm5.477 1.2H8.8v-.533c0-1.17.945-1.866 1.785-1.866.863 0 1.415.61 1.415 1.2 0 .353-.09.549-.182.67-.098.127-.255.24-.497.33-.52.19-1.2.2-1.844.2z"/><path d="M7.2 16.5v-6.4H.8v5.2c0 .665.536 1.2 1.2 1.2h5.2zM8.8 16.5v-6.4h6.4v5.2c0 .665-.536 1.2-1.2 1.2H8.8z"/></g><defs><clipPath id="a"><path fill="#fff" transform="translate(0 .5)" d="M0 0h16v16H0z"/></clipPath></defs></svg>