<svg width="16" height="17" fill="none" xmlns="http://www.w3.org/2000/svg"><g clip-path="url(#a)" fill="#1763AC"><path d="M15.192 1.807a1.65 1.65 0 0 1 0 2.334l-3.395 3.395-2.334-2.334 1.017-1.016.013-.013 2.365-2.366a1.65 1.65 0 0 1 2.334 0z"/><path d="M5.904 8.83A3.853 3.853 0 0 1 1.02 3.96l2.08 2.081a1.238 1.238 0 0 0 1.751 0l.692-.692a1.238 1.238 0 0 0 0-1.75l-2.08-2.08A3.853 3.853 0 0 1 8.33 6.402l6.842 6.842a1.716 1.716 0 1 1-2.426 2.427L5.904 8.83z"/><path d="m7.037 12.296-2.712 2.712-3.5 1.166 1.167-3.5 2.711-2.711 2.334 2.333z"/></g><defs><clipPath id="a"><path fill="#fff" transform="translate(0 .5)" d="M0 0h16v16H0z"/></clipPath></defs></svg>