<svg width="48" height="48" fill="none" xmlns="http://www.w3.org/2000/svg"><rect width="48" height="48" rx="24" fill="#fff"/><path d="M34.584 26.6a3.6 3.6 0 1 1-2.368 0 1.209 1.209 0 0 1-.016-.2V24a4.799 4.799 0 0 0-4.798-4.799h-.705l1.552 1.552a1.2 1.2 0 1 1-1.697 1.697l-3.6-3.6a1.2 1.2 0 0 1 0-1.697l3.6-3.6a1.2 1.2 0 0 1 1.697 1.697L26.697 16.8h.705A7.198 7.198 0 0 1 34.6 24V26.4c0 .069-.006.135-.016.2zm-16.8-5.2c.012.066.016.133.016.2v2.401a4.8 4.8 0 0 0 4.8 4.8h.704l-1.552-1.552a1.2 1.2 0 0 1 1.697-1.697l3.6 3.6a1.2 1.2 0 0 1 0 1.697l-3.6 3.6a1.2 1.2 0 1 1-1.697-1.697l1.552-1.552h-.705a7.198 7.198 0 0 1-7.199-7.199v-2.4c0-.07.006-.135.017-.2a3.6 3.6 0 1 1 2.367 0zM17.8 18a1.2 1.2 0 1 0-2.401.002A1.2 1.2 0 0 0 17.8 18zm16.8 12a1.2 1.2 0 1 0-2.401.001 1.2 1.2 0 0 0 2.401 0z" fill="#1189C4"/></svg>