<svg width="48" height="48" fill="none" xmlns="http://www.w3.org/2000/svg"><rect width="48" height="48" rx="24" fill="#fff"/><path fill-rule="evenodd" clip-rule="evenodd" d="M32.186 27.22c-1.619 3.015-4.662 5.382-8.182 6.38-3.522-.998-6.565-3.365-8.184-6.38-1.613-3.003-1.85-6.643-.703-10.57 1.634-.106 5.262-.537 8.887-2.25 3.623 1.713 7.251 2.144 8.885 2.25 1.149 3.927.91 7.567-.703 10.57zM27.6 24a1.2 1.2 0 1 0 2.4 0 1.2 1.2 0 0 0-2.4 0zm-4.8 0a1.2 1.2 0 1 0 2.4 0 1.2 1.2 0 0 0-2.4 0zM18 24a1.2 1.2 0 1 0 2.4 0 1.2 1.2 0 0 0-2.4 0z" fill="#1189C4"/></svg>