<svg width="48" height="48" fill="none" xmlns="http://www.w3.org/2000/svg"><rect width="48" height="48" rx="24" fill="#fff"/><path d="M31 25.2a1.2 1.2 0 0 0 2.4 0V24h1.2a1.2 1.2 0 0 0 0-2.4h-1.2v-1.2a1.2 1.2 0 1 0-2.4 0v1.2h-1.2a1.2 1.2 0 1 0 0 2.4H31v1.2zM27.835 18.263a5.063 5.063 0 1 1-10.126 0 5.063 5.063 0 0 1 10.126 0zM13.803 29.363c1.663-1.308 4.97-3.423 8.97-3.423 3.998 0 7.306 2.115 8.968 3.423.742.583.974 1.57.68 2.467l-.4 1.224a2.531 2.531 0 0 1-2.406 1.746H15.93a2.531 2.531 0 0 1-2.406-1.746l-.4-1.224c-.293-.897-.061-1.884.68-2.467z" fill="#1189C4"/></svg>