<svg width="389" height="307" fill="none" xmlns="http://www.w3.org/2000/svg"><path d="M352.411.014a1 1 0 0 0-1.151.82l-1.486 8.877a1 1 0 0 0 1.973.33l1.32-7.89 7.89 1.321a1 1 0 0 0 .331-1.973L352.411.014zM37.568 1.58A1 1 0 0 0 35.94.419l1.628 1.162zM35.94.419a194.428 194.428 0 0 0-5.594 8.285l1.686 1.077a192.448 192.448 0 0 1 5.536-8.2L35.94.419zM20.474 26.084a192.827 192.827 0 0 0-8.024 18.305l1.87.707a190.839 190.839 0 0 1 7.942-18.116l-1.788-.896zM6.366 63.43A192.747 192.747 0 0 0 2.29 82.997l1.976.306A190.748 190.748 0 0 1 8.3 63.939l-1.934-.51zM.253 102.879A196.935 196.935 0 0 0 0 112.874h2c0-3.318.084-6.617.25-9.893l-1.997-.102zM0 112.874c0 3.658.101 7.292.301 10.901l1.997-.111A194.831 194.831 0 0 1 2 112.874H0zm2.725 32.563a192.583 192.583 0 0 0 4.845 21.248l1.921-.554a190.64 190.64 0 0 1-4.794-21.027l-1.972.333zm12.06 41.808a193.13 193.13 0 0 0 9.491 19.618l1.749-.971a191.068 191.068 0 0 1-9.393-19.415l-1.847.768zm21.127 38.045a194.9 194.9 0 0 0 13.622 17.01l1.489-1.335a193.137 193.137 0 0 1-13.482-16.836l-1.629 1.161zm29.053 32.397a195.1 195.1 0 0 0 17.048 13.573l1.157-1.631a193.24 193.24 0 0 1-16.874-13.435l-1.33 1.493zm35.506 25.161a193.983 193.983 0 0 0 19.638 9.447l.765-1.848a191.801 191.801 0 0 1-19.436-9.35l-.967 1.751zm40.212 16.625a193.697 193.697 0 0 0 21.253 4.818l.332-1.972a191.712 191.712 0 0 1-21.034-4.769l-.551 1.923zM183.6 306.7c3.608.199 7.242.3 10.9.3v-2c-3.621 0-7.219-.1-10.79-.297l-.11 1.997zm10.9.3c3.658 0 7.292-.101 10.9-.3l-.11-1.997c-3.571.197-7.169.297-10.79.297v2zm32.564-2.709a193.697 193.697 0 0 0 21.253-4.818l-.551-1.923a191.712 191.712 0 0 1-21.034 4.769l.332 1.972zm41.827-11.996a193.77 193.77 0 0 0 19.638-9.447l-.967-1.751a191.801 191.801 0 0 1-19.436 9.35l.765 1.848zm38.096-21.035a195.221 195.221 0 0 0 17.048-13.573l-1.331-1.493a193.159 193.159 0 0 1-16.874 13.435l1.157 1.631zm32.479-28.96a194.926 194.926 0 0 0 13.622-17.01l-1.629-1.161a193.103 193.103 0 0 1-13.482 16.836l1.489 1.335zm25.257-35.437a192.924 192.924 0 0 0 9.492-19.618l-1.847-.768a190.918 190.918 0 0 1-9.393 19.415l1.748.971zm16.707-40.178c2-6.931 3.623-14.022 4.845-21.248l-1.972-.333a190.739 190.739 0 0 1-4.794 21.027l1.921.554zm7.269-42.91c.2-3.609.301-7.243.301-10.901h-2c0 3.621-.1 7.219-.298 10.79l1.997.111zm.301-10.901c0-3.352-.085-6.684-.253-9.995l-1.998.102c.167 3.276.251 6.575.251 9.893h2zm-2.29-29.877a192.515 192.515 0 0 0-4.076-19.567l-1.934.509a190.825 190.825 0 0 1 4.034 19.364l1.976-.306zm-10.159-38.608a193.036 193.036 0 0 0-8.025-18.305l-1.788.896a190.742 190.742 0 0 1 7.942 18.116l1.871-.706zM358.654 8.704A194.057 194.057 0 0 0 353.06.42l-1.628 1.162a191.693 191.693 0 0 1 5.536 8.2l1.686-1.077zm-6.243-8.69a1 1 0 0 0-1.151.82l-1.486 8.877a1 1 0 0 0 1.973.33l1.32-7.89 7.89 1.321a1 1 0 0 0 .331-1.973L352.411.014zM37.568 1.58A1 1 0 0 0 35.94.419l1.628 1.162zM35.94.419a194.428 194.428 0 0 0-5.594 8.285l1.686 1.077a192.448 192.448 0 0 1 5.536-8.2L35.94.419zM20.474 26.084a192.827 192.827 0 0 0-8.024 18.305l1.87.707a190.839 190.839 0 0 1 7.942-18.116l-1.788-.896zM6.366 63.43A192.747 192.747 0 0 0 2.29 82.997l1.976.306A190.748 190.748 0 0 1 8.3 63.939l-1.934-.51zM.253 102.879A196.935 196.935 0 0 0 0 112.874h2c0-3.318.084-6.617.25-9.893l-1.997-.102zM0 112.874c0 3.658.101 7.292.301 10.901l1.997-.111A194.831 194.831 0 0 1 2 112.874H0zm2.725 32.563a192.583 192.583 0 0 0 4.845 21.248l1.921-.554a190.64 190.64 0 0 1-4.794-21.027l-1.972.333zm12.06 41.808a193.13 193.13 0 0 0 9.491 19.618l1.749-.971a191.068 191.068 0 0 1-9.393-19.415l-1.847.768zm21.127 38.045a194.9 194.9 0 0 0 13.622 17.01l1.489-1.335a193.137 193.137 0 0 1-13.482-16.836l-1.629 1.161zm29.053 32.397a195.1 195.1 0 0 0 17.048 13.573l1.157-1.631a193.24 193.24 0 0 1-16.874-13.435l-1.33 1.493zm35.506 25.161a193.983 193.983 0 0 0 19.638 9.447l.765-1.848a191.801 191.801 0 0 1-19.436-9.35l-.967 1.751zm40.212 16.625a193.697 193.697 0 0 0 21.253 4.818l.332-1.972a191.712 191.712 0 0 1-21.034-4.769l-.551 1.923zM183.6 306.7c3.608.199 7.242.3 10.9.3v-2c-3.621 0-7.219-.1-10.79-.297l-.11 1.997zm10.9.3c3.658 0 7.292-.101 10.9-.3l-.11-1.997c-3.571.197-7.169.297-10.79.297v2zm32.564-2.709a193.697 193.697 0 0 0 21.253-4.818l-.551-1.923a191.712 191.712 0 0 1-21.034 4.769l.332 1.972zm41.827-11.996a193.77 193.77 0 0 0 19.638-9.447l-.967-1.751a191.801 191.801 0 0 1-19.436 9.35l.765 1.848zm38.096-21.035a195.221 195.221 0 0 0 17.048-13.573l-1.331-1.493a193.159 193.159 0 0 1-16.874 13.435l1.157 1.631zm32.479-28.96a194.926 194.926 0 0 0 13.622-17.01l-1.629-1.161a193.103 193.103 0 0 1-13.482 16.836l1.489 1.335zm25.257-35.437a192.924 192.924 0 0 0 9.492-19.618l-1.847-.768a190.918 190.918 0 0 1-9.393 19.415l1.748.971zm16.707-40.178c2-6.931 3.623-14.022 4.845-21.248l-1.972-.333a190.739 190.739 0 0 1-4.794 21.027l1.921.554zm7.269-42.91c.2-3.609.301-7.243.301-10.901h-2c0 3.621-.1 7.219-.298 10.79l1.997.111zm.301-10.901c0-3.352-.085-6.684-.253-9.995l-1.998.102c.167 3.276.251 6.575.251 9.893h2zm-2.29-29.877a192.515 192.515 0 0 0-4.076-19.567l-1.934.509a190.825 190.825 0 0 1 4.034 19.364l1.976-.306zm-10.159-38.608a193.036 193.036 0 0 0-8.025-18.305l-1.788.896a190.742 190.742 0 0 1 7.942 18.116l1.871-.706zM358.654 8.704A194.057 194.057 0 0 0 353.06.42l-1.628 1.162a191.693 191.693 0 0 1 5.536 8.2l1.686-1.077z" fill="#63ACD0"/></svg>