<svg width="20" height="18" fill="none" xmlns="http://www.w3.org/2000/svg"><path d="M10 0c-.922 0-1.835.184-2.686.542a6.996 6.996 0 0 0-2.275 1.541A7.08 7.08 0 0 0 3.524 4.39 7.14 7.14 0 0 0 3 7.106c0 2.817 3.455 7.588 5.517 10.18A1.912 1.912 0 0 0 10 18a1.893 1.893 0 0 0 1.483-.714C13.544 14.714 17 9.923 17 7.106a7.139 7.139 0 0 0-.524-2.717 7.082 7.082 0 0 0-1.515-2.306A6.995 6.995 0 0 0 12.686.542 6.936 6.936 0 0 0 10 0zm.49 16.482a.637.637 0 0 1-.76.172.637.637 0 0 1-.22-.172C6.233 12.354 4.273 8.85 4.273 7.106c0-1.535.603-3.007 1.677-4.092A5.697 5.697 0 0 1 10 1.318c1.519 0 2.976.61 4.05 1.696a5.82 5.82 0 0 1 1.677 4.092c0 1.743-1.96 5.248-5.237 9.376zM10 3.215a3.79 3.79 0 0 0-2.121.65 3.85 3.85 0 0 0-1.406 1.732 3.896 3.896 0 0 0-.218 2.23A3.871 3.871 0 0 0 7.3 9.802c.534.54 1.214.907 1.955 1.056.74.15 1.508.073 2.206-.22a3.828 3.828 0 0 0 1.714-1.42 3.888 3.888 0 0 0-.475-4.872 3.798 3.798 0 0 0-2.7-1.13zm0 6.431c-.503 0-.996-.15-1.414-.433a2.567 2.567 0 0 1-.938-1.155A2.598 2.598 0 0 1 8.2 5.255a2.52 2.52 0 0 1 2.774-.558 2.55 2.55 0 0 1 1.142.948 2.592 2.592 0 0 1-.316 3.248 2.532 2.532 0 0 1-1.8.753z" fill="#486DCB"/></svg>