<svg width="20" height="16" fill="none" xmlns="http://www.w3.org/2000/svg"><path d="M14.652 9.911c-.328-.34-.724-.523-1.143-.523-.416 0-.815.179-1.157.52l-1.069 1.064c-.087-.047-.175-.091-.26-.135-.122-.061-.237-.118-.335-.18-1-.634-1.91-1.461-2.783-2.532-.423-.534-.707-.983-.913-1.439.277-.253.534-.516.785-.77.094-.094.189-.192.284-.286.71-.71.71-1.628 0-2.337l-.924-.922a14.097 14.097 0 0 1-.314-.321c-.203-.21-.416-.426-.636-.628-.328-.324-.72-.497-1.133-.497-.412 0-.811.173-1.15.497l-.006.007-1.15 1.158c-.433.432-.68.959-.734 1.57-.081.986.21 1.905.433 2.506.548 1.476 1.366 2.843 2.587 4.309a15.91 15.91 0 0 0 5.3 4.143c.777.368 1.815.804 2.975.878.071.004.146.007.213.007.781 0 1.438-.28 1.952-.838.003-.006.01-.01.013-.016.176-.213.379-.406.592-.612.145-.138.294-.283.44-.435.334-.348.51-.753.51-1.169 0-.418-.179-.82-.52-1.158l-1.857-1.86zm1.21 3.556c-.003 0-.003.004 0 0-.131.142-.267.27-.412.412-.22.21-.443.43-.653.676-.341.364-.744.537-1.271.537-.051 0-.105 0-.156-.004-1.004-.064-1.938-.456-2.638-.79a15.018 15.018 0 0 1-4.991-3.904c-1.154-1.388-1.925-2.67-2.435-4.049-.315-.84-.43-1.496-.379-2.114a1.55 1.55 0 0 1 .467-1.002l1.153-1.152c.166-.155.341-.24.514-.24.213 0 .385.129.494.237l.01.01c.206.192.402.391.609.604.104.108.213.216.32.328l.924.922c.359.358.359.689 0 1.047-.098.097-.193.195-.29.29-.285.29-.555.56-.85.824-.006.007-.013.01-.017.017-.29.29-.236.574-.175.766l.01.03c.24.582.578 1.129 1.092 1.78l.003.004c.934 1.148 1.918 2.043 3.004 2.728.138.088.28.159.415.226.122.061.237.119.335.18.014.006.027.016.04.023a.734.734 0 0 0 .336.085c.28 0 .456-.176.514-.233l1.156-1.155c.115-.115.298-.254.511-.254.21 0 .382.132.487.247l.007.007 1.863 1.86c.348.345.348.7.004 1.057zm-5.214-9.661a4.29 4.29 0 0 1 2.333 1.209 4.303 4.303 0 0 1 1.21 2.33c.038.223.23.378.45.378a.456.456 0 0 0 .453-.534 5.206 5.206 0 0 0-1.463-2.82 5.219 5.219 0 0 0-2.824-1.461.459.459 0 0 0-.528.371.451.451 0 0 0 .369.527zm7.345 3.252a8.564 8.564 0 0 0-2.411-4.643 8.585 8.585 0 0 0-4.65-2.408.455.455 0 1 0-.149.898 7.688 7.688 0 0 1 4.156 2.151 7.647 7.647 0 0 1 2.154 4.15c.038.223.23.379.45.379.027 0 .051-.004.078-.007a.447.447 0 0 0 .372-.52z" fill="#486DCB"/></svg>