<svg width="1168" height="330" fill="none" xmlns="http://www.w3.org/2000/svg"><circle cx="46" cy="169" r="9" stroke="#D1DEF2" stroke-width="2"/><circle cx="46" cy="169" r="9" stroke="#D1DEF2" stroke-width="2"/><path stroke="#D1DEF2" stroke-width="2" stroke-linecap="round" stroke-dasharray="9 9" d="m1.215 1.724 39.509 156.061M41.223 179.711l39.488 149.066M214.969 2.414 52.414 158.031M470.182 2.154 179.154 51.818"/><circle cx="166" cy="50" r="7" fill="#fff" stroke="#D1DEF2" stroke-width="2"/><path stroke="#D1DEF2" stroke-width="2" stroke-linecap="round" stroke-dasharray="9 9" d="M55.256 176.35 534.35 328.744"/><circle cx="10" cy="10" r="9" transform="matrix(-1 0 0 1 1132 159)" stroke="#D1DEF2" stroke-width="2"/><circle cx="10" cy="10" r="9" transform="matrix(-1 0 0 1 1132 159)" stroke="#D1DEF2" stroke-width="2"/><path stroke="#D1DEF2" stroke-width="2" stroke-linecap="round" stroke-dasharray="9 9" d="m1166.785 1.724-39.51 156.061M1126.777 179.71l-39.487 149.067M953.03 2.414l162.556 155.617M697.818 2.154l291.028 49.664"/><circle cx="8" cy="8" r="7" transform="matrix(-1 0 0 1 1010 42)" fill="#fff" stroke="#D1DEF2" stroke-width="2"/><path stroke="#D1DEF2" stroke-width="2" stroke-linecap="round" stroke-dasharray="9 9" d="M1112.744 176.35 633.65 328.744"/></svg>