<svg width="32" height="32" fill="none" xmlns="http://www.w3.org/2000/svg"><rect width="32" height="32" rx="3" fill="#E7F0F9"/><path d="M20.125 10.75c-.621 0-1.125.504-1.125 1.125v9c0 .621.504 1.125 1.125 1.125h.75c.621 0 1.125-.504 1.125-1.125v-9c0-.621-.504-1.125-1.125-1.125h-.75zM14.5 14.875c0-.621.504-1.125 1.125-1.125h.75c.621 0 1.125.504 1.125 1.125v6c0 .621-.504 1.125-1.125 1.125h-.75a1.125 1.125 0 0 1-1.125-1.125v-6zM10 17.875c0-.621.504-1.125 1.125-1.125h.75c.621 0 1.125.504 1.125 1.125v3c0 .621-.504 1.125-1.125 1.125h-.75A1.125 1.125 0 0 1 10 20.875v-3z" fill="#486DCB"/></svg>