<svg width="32" height="32" fill="none" xmlns="http://www.w3.org/2000/svg"><rect width="32" height="32" rx="3" fill="#E7F0F9"/><g clip-path="url(#a)"><path fill-rule="evenodd" clip-rule="evenodd" d="M12.837 13.056a1.875 1.875 0 1 0-1.437.431l.59 1.967a4.125 4.125 0 1 0 5.555 5.555l1.968.59a1.875 1.875 0 1 0 .431-1.436l-1.968-.59a4.106 4.106 0 0 0-.702-2.785l3.415-3.417a1.875 1.875 0 1 0-1.06-1.06l-3.416 3.415a4.107 4.107 0 0 0-2.786-.702l-.59-1.968zm3.663 6.069a2.625 2.625 0 1 1-5.25 0 2.625 2.625 0 0 1 5.25 0z" fill="#486DCB"/></g><defs><clipPath id="a"><path fill="#fff" transform="translate(8.5 8.5)" d="M0 0h15v15H0z"/></clipPath></defs></svg>