<svg width="32" height="32" fill="none" xmlns="http://www.w3.org/2000/svg"><rect width="32" height="32" rx="3" fill="#E7F0F9"/><path fill-rule="evenodd" clip-rule="evenodd" d="M10.375 9.25c-.621 0-1.125.504-1.125 1.125v8.25c0 .621.504 1.125 1.125 1.125h3.375c0 .394-.01.595-.108.79-.09.179-.312.457-.977.79a.75.75 0 0 0 .351 1.42h5.968a.754.754 0 0 0 .746-.578.751.751 0 0 0-.408-.85c-.655-.33-.875-.604-.964-.782-.097-.195-.108-.396-.108-.79h3.375c.621 0 1.125-.504 1.125-1.125v-8.25c0-.621-.504-1.125-1.125-1.125h-11.25zm6.662 12a2.449 2.449 0 0 1-.02-.04c-.268-.535-.267-1.065-.267-1.42v-.04h-1.5v.04c0 .355.001.885-.267 1.42a2.449 2.449 0 0 1-.02.04h2.074zm4.213-4.5h-10.5v1.5h10.5v-1.5z" fill="#486DCB"/></svg>