<svg width="540" height="398" fill="none" xmlns="http://www.w3.org/2000/svg"><path d="m121.621 15 4.128-11.2h1.424l4.112 11.2h-1.424l-1.024-2.88h-4.768l-1.04 2.88h-1.408zm2.848-3.968h3.968l-1.984-5.536-1.984 5.536zM132.87 15V7.064h1.216l.08 1.424a2.882 2.882 0 0 1 1.104-1.184 3.11 3.11 0 0 1 1.632-.432c.938 0 1.685.288 2.24.864.565.565.848 1.44.848 2.624V15h-1.344v-4.496c0-.821-.171-1.44-.512-1.856-.342-.416-.854-.624-1.536-.624-.683 0-1.254.25-1.712.752-.448.49-.672 1.195-.672 2.112V15h-1.344zm11.812.192c-.544 0-1.04-.09-1.488-.272a2.423 2.423 0 0 1-1.072-.816c-.256-.373-.384-.827-.384-1.36 0-.619.16-1.11.48-1.472.32-.373.741-.64 1.264-.8a5.583 5.583 0 0 1 1.712-.256h2.144c0-.555-.096-.992-.288-1.312a1.603 1.603 0 0 0-.72-.688 2.33 2.33 0 0 0-.992-.208c-.523 0-.976.128-1.36.384-.374.245-.608.63-.704 1.152h-1.376c.053-.576.245-1.061.576-1.456.33-.395.746-.693 1.248-.896a4.158 4.158 0 0 1 1.616-.32c.8 0 1.445.15 1.936.448.49.288.848.677 1.072 1.168.224.49.336 1.035.336 1.632v2.432c0 .395.048.693.144.896.096.203.341.325.736.368V15c-.352 0-.672-.043-.96-.128a1.847 1.847 0 0 1-.736-.448 1.91 1.91 0 0 1-.416-.832 3.507 3.507 0 0 1-1.104 1.136c-.459.31-1.014.464-1.664.464zm.208-1.136c.533 0 .981-.133 1.344-.4.362-.277.634-.63.816-1.056.192-.427.288-.87.288-1.328v-.016h-2.032c-.374 0-.726.043-1.056.128a1.536 1.536 0 0 0-.8.432c-.203.203-.304.49-.304.864 0 .48.17.832.512 1.056.341.213.752.32 1.232.32zm6.292.944V3.8h1.344V15h-1.344zm4.411 3.52 1.76-3.84-3.408-7.616h1.456l2.624 6.176 2.784-6.176h1.392l-5.2 11.456h-1.408zm7.483-3.52v-1.104l4.416-5.712h-4.336v-1.12h5.84v1.104l-4.416 5.712h4.496V15h-6zm11.346.192c-.736 0-1.403-.17-2-.512a3.686 3.686 0 0 1-1.392-1.44c-.341-.63-.512-1.365-.512-2.208 0-.832.16-1.557.48-2.176a3.556 3.556 0 0 1 1.376-1.456c.597-.352 1.291-.528 2.08-.528.747 0 1.397.165 1.952.496.555.33.987.779 1.296 1.344.32.555.48 1.179.48 1.872v.352c0 .085-.005.219-.016.4h-6.32c.032.523.155.992.368 1.408.224.405.523.725.896.96.384.235.821.352 1.312.352.555 0 1.019-.128 1.392-.384s.645-.603.816-1.04h1.328c-.139.49-.368.928-.688 1.312-.32.384-.72.688-1.2.912-.469.224-1.019.336-1.648.336zm-2.56-4.896h4.992c-.032-.715-.277-1.275-.736-1.68-.459-.405-1.024-.608-1.696-.608-.64 0-1.211.197-1.712.592-.491.384-.773.95-.848 1.696zM119.723 34V22.8h3.44c1.323 0 2.405.23 3.248.688.853.448 1.483 1.093 1.888 1.936.416.832.624 1.835.624 3.008 0 1.152-.208 2.144-.624 2.976-.405.832-1.035 1.472-1.888 1.92-.843.448-1.925.672-3.248.672h-3.44zm1.344-1.12h2.064c1.067 0 1.92-.17 2.56-.512a3.092 3.092 0 0 0 1.408-1.52c.288-.672.432-1.477.432-2.416 0-1.525-.352-2.656-1.056-3.392-.704-.747-1.819-1.12-3.344-1.12h-2.064v8.96zm13.285 1.312c-.736 0-1.403-.17-2-.512a3.686 3.686 0 0 1-1.392-1.44c-.342-.63-.512-1.365-.512-2.208 0-.832.16-1.557.48-2.176a3.55 3.55 0 0 1 1.376-1.456c.597-.352 1.29-.528 2.08-.528.746 0 1.397.165 1.952.496.554.33.986.779 1.296 1.344.32.555.48 1.179.48 1.872v.352c0 .085-.006.219-.016.4h-6.32c.032.523.154.992.368 1.408.224.405.522.725.896.96.384.235.821.352 1.312.352.554 0 1.018-.128 1.392-.384.373-.256.645-.603.816-1.04h1.328c-.139.49-.368.928-.688 1.312-.32.384-.72.688-1.2.912-.47.224-1.019.336-1.648.336zm-2.56-4.896h4.992c-.032-.715-.278-1.275-.736-1.68-.459-.405-1.024-.608-1.696-.608-.64 0-1.211.197-1.712.592-.491.384-.774.95-.848 1.696zM139.893 34v-7.936h1.216l.096 1.152a2.686 2.686 0 0 1 1.024-.992 2.94 2.94 0 0 1 1.44-.352c.629 0 1.168.128 1.616.384.459.256.811.645 1.056 1.168.277-.48.656-.859 1.136-1.136a3.169 3.169 0 0 1 1.584-.416c.64 0 1.189.128 1.648.384.469.245.832.63 1.088 1.152.256.512.384 1.163.384 1.952V34h-1.328v-4.496c0-.821-.165-1.44-.496-1.856-.331-.416-.805-.624-1.424-.624-.64 0-1.173.25-1.6.752-.416.49-.624 1.195-.624 2.112V34h-1.344v-4.496c0-.821-.165-1.44-.496-1.856-.331-.416-.805-.624-1.424-.624-.629 0-1.157.25-1.584.752-.416.49-.624 1.195-.624 2.112V34h-1.344zm16.953.192c-.544 0-1.04-.09-1.488-.272a2.423 2.423 0 0 1-1.072-.816c-.256-.373-.384-.827-.384-1.36 0-.619.16-1.11.48-1.472.32-.373.741-.64 1.264-.8a5.583 5.583 0 0 1 1.712-.256h2.144c0-.555-.096-.992-.288-1.312a1.603 1.603 0 0 0-.72-.688 2.33 2.33 0 0 0-.992-.208c-.523 0-.976.128-1.36.384-.374.245-.608.63-.704 1.152h-1.376c.053-.576.245-1.061.576-1.456.33-.395.746-.693 1.248-.896a4.158 4.158 0 0 1 1.616-.32c.8 0 1.445.15 1.936.448.49.288.848.677 1.072 1.168.224.49.336 1.035.336 1.632v2.432c0 .395.048.693.144.896.096.203.341.325.736.368V34c-.352 0-.672-.043-.96-.128a1.847 1.847 0 0 1-.736-.448 1.91 1.91 0 0 1-.416-.832 3.507 3.507 0 0 1-1.104 1.136c-.459.31-1.014.464-1.664.464zm.208-1.136c.533 0 .981-.133 1.344-.4.362-.277.634-.63.816-1.056.192-.427.288-.87.288-1.328v-.016h-2.032c-.374 0-.726.043-1.056.128a1.536 1.536 0 0 0-.8.432c-.203.203-.304.49-.304.864 0 .48.17.832.512 1.056.341.213.752.32 1.232.32zm6.292.944v-7.936h1.216l.08 1.424a2.882 2.882 0 0 1 1.104-1.184 3.11 3.11 0 0 1 1.632-.432c.939 0 1.686.288 2.24.864.566.565.848 1.44.848 2.624V34h-1.344v-4.496c0-.821-.17-1.44-.512-1.856-.341-.416-.853-.624-1.536-.624-.682 0-1.253.25-1.712.752-.448.49-.672 1.195-.672 2.112V34h-1.344zm12.772.192c-.811 0-1.509-.187-2.096-.56a3.776 3.776 0 0 1-1.36-1.504c-.32-.63-.48-1.333-.48-2.112 0-.768.155-1.467.464-2.096.32-.63.773-1.125 1.36-1.488.587-.373 1.296-.56 2.128-.56.651 0 1.227.133 1.728.4.501.267.891.64 1.168 1.12V22.8h1.344V34h-1.216l-.128-1.312c-.256.384-.624.73-1.104 1.04-.48.31-1.083.464-1.808.464zm.144-1.168c.587 0 1.083-.133 1.488-.4a2.59 2.59 0 0 0 .912-1.088c.213-.459.32-.96.32-1.504 0-.576-.107-1.088-.32-1.536a2.482 2.482 0 0 0-.928-1.056c-.405-.267-.896-.4-1.472-.4-.512 0-.971.123-1.376.368a2.702 2.702 0 0 0-.976 1.04c-.235.437-.352.965-.352 1.584 0 .619.123 1.152.368 1.6.245.448.571.795.976 1.04a2.72 2.72 0 0 0 1.36.352zM6.464 224l4.128-11.2h1.424l4.112 11.2h-1.424l-1.024-2.88H8.912L7.872 224H6.464zm2.848-3.968h3.968l-1.984-5.536-1.984 5.536zm11.564 4.16c-.81 0-1.51-.187-2.096-.56a3.778 3.778 0 0 1-1.36-1.504c-.32-.629-.48-1.333-.48-2.112 0-.768.154-1.467.464-2.096a3.67 3.67 0 0 1 1.36-1.488c.587-.373 1.296-.56 2.128-.56.65 0 1.227.133 1.728.4.501.267.89.64 1.168 1.12V212.8h1.344V224h-1.216l-.128-1.312c-.256.384-.624.731-1.104 1.04-.48.309-1.083.464-1.808.464zm.144-1.168c.587 0 1.082-.133 1.488-.4.405-.277.71-.64.912-1.088.213-.459.32-.96.32-1.504 0-.576-.107-1.088-.32-1.536a2.482 2.482 0 0 0-.928-1.056c-.405-.267-.896-.4-1.472-.4-.512 0-.97.123-1.376.368a2.7 2.7 0 0 0-.976 1.04c-.235.437-.352.965-.352 1.584 0 .619.123 1.152.368 1.6a2.7 2.7 0 0 0 .976 1.04c.416.235.87.352 1.36.352zm8.59.976-3.007-7.936h1.408l2.384 6.64 2.4-6.64h1.376L31.163 224H29.61zm9.218.192a3.962 3.962 0 0 1-2-.512 3.686 3.686 0 0 1-1.392-1.44c-.341-.629-.512-1.365-.512-2.208 0-.832.16-1.557.48-2.176.33-.629.79-1.115 1.376-1.456.598-.352 1.29-.528 2.08-.528.747 0 1.398.165 1.952.496.555.331.987.779 1.296 1.344.32.555.48 1.179.48 1.872v.352c0 .085-.005.219-.016.4h-6.32c.032.523.155.992.368 1.408.224.405.523.725.896.96.384.235.822.352 1.312.352.555 0 1.019-.128 1.392-.384a2.2 2.2 0 0 0 .816-1.04h1.328a3.519 3.519 0 0 1-.688 1.312c-.32.384-.72.688-1.2.912-.47.224-1.018.336-1.648.336zm-2.56-4.896h4.992c-.032-.715-.277-1.275-.736-1.68-.458-.405-1.024-.608-1.696-.608-.64 0-1.21.197-1.712.592-.49.384-.773.949-.848 1.696zM44.37 224v-7.936h1.216l.112 1.52a2.874 2.874 0 0 1 1.12-1.248c.501-.309 1.12-.464 1.856-.464v1.408h-.368c-.875 0-1.526.235-1.952.704-.427.469-.64 1.141-.64 2.016v4H44.37zm8.948 0c-.725 0-1.296-.176-1.712-.528-.416-.352-.624-.987-.624-1.904V217.2h-1.376v-1.136h1.376v-1.904h1.344v1.904h2.224v1.136h-2.224v4.368c0 .501.102.843.304 1.024.203.171.56.256 1.072.256h.848V224h-1.232zm3.868-9.696a.942.942 0 0 1-.672-.256.942.942 0 0 1-.256-.672.87.87 0 0 1 .256-.64.942.942 0 0 1 .672-.256c.256 0 .474.085.656.256a.843.843 0 0 1 .272.64c0 .267-.091.491-.272.672a.921.921 0 0 1-.656.256zM56.514 224v-7.936h1.344V224h-1.344zm6.724.192c-.63 0-1.195-.107-1.696-.32a3.135 3.135 0 0 1-1.216-.928 3.056 3.056 0 0 1-.56-1.424h1.376c.085.416.304.779.656 1.088.362.299.848.448 1.456.448.565 0 .981-.117 1.248-.352.266-.245.4-.533.4-.864 0-.32-.08-.565-.24-.736-.15-.171-.374-.299-.672-.384a9.047 9.047 0 0 0-1.072-.272 9.25 9.25 0 0 1-1.312-.384 2.978 2.978 0 0 1-1.056-.688c-.278-.288-.416-.667-.416-1.136 0-.469.117-.88.352-1.232.234-.352.565-.629.992-.832.437-.203.95-.304 1.536-.304.842 0 1.53.213 2.064.64.544.416.858 1.013.944 1.792h-1.328c-.054-.405-.23-.72-.528-.944-.288-.235-.678-.352-1.168-.352-.48 0-.854.101-1.12.304a.97.97 0 0 0-.384.8.74.74 0 0 0 .224.544c.15.149.362.277.64.384.288.107.624.203 1.008.288.533.107 1.018.24 1.456.4.437.16.79.395 1.056.704.266.299.4.731.4 1.296.01.469-.112.891-.368 1.264-.246.373-.598.667-1.056.88-.448.213-.987.32-1.616.32zm8.528 0a3.962 3.962 0 0 1-2-.512 3.686 3.686 0 0 1-1.392-1.44c-.342-.629-.512-1.365-.512-2.208 0-.832.16-1.557.48-2.176.33-.629.79-1.115 1.376-1.456.597-.352 1.29-.528 2.08-.528.746 0 1.397.165 1.952.496.554.331.986.779 1.296 1.344.32.555.48 1.179.48 1.872v.352c0 .085-.006.219-.016.4h-6.32c.032.523.154.992.368 1.408.224.405.522.725.896.96.384.235.821.352 1.312.352.554 0 1.018-.128 1.392-.384a2.2 2.2 0 0 0 .816-1.04h1.328a3.519 3.519 0 0 1-.688 1.312c-.32.384-.72.688-1.2.912-.47.224-1.019.336-1.648.336zm-2.56-4.896h4.992c-.032-.715-.278-1.275-.736-1.68-.459-.405-1.024-.608-1.696-.608-.64 0-1.21.197-1.712.592-.49.384-.774.949-.848 1.696zM77.307 224v-7.936h1.216l.112 1.52a2.874 2.874 0 0 1 1.12-1.248c.502-.309 1.12-.464 1.856-.464v1.408h-.368c-.874 0-1.525.235-1.952.704-.426.469-.64 1.141-.64 2.016v4h-1.344zm-63.584 19v-11.2h3.44c1.323 0 2.405.229 3.248.688.853.448 1.483 1.093 1.888 1.936.416.832.624 1.835.624 3.008 0 1.152-.208 2.144-.624 2.976-.405.832-1.035 1.472-1.888 1.92-.843.448-1.925.672-3.248.672h-3.44zm1.344-1.12h2.064c1.067 0 1.92-.171 2.56-.512a3.095 3.095 0 0 0 1.408-1.52c.288-.672.432-1.477.432-2.416 0-1.525-.352-2.656-1.056-3.392-.704-.747-1.819-1.12-3.344-1.12h-2.064v8.96zm13.285 1.312a3.962 3.962 0 0 1-2-.512 3.686 3.686 0 0 1-1.392-1.44c-.342-.629-.512-1.365-.512-2.208 0-.832.16-1.557.48-2.176.33-.629.789-1.115 1.376-1.456.597-.352 1.29-.528 2.08-.528.746 0 1.397.165 1.952.496a3.49 3.49 0 0 1 1.296 1.344c.32.555.48 1.179.48 1.872v.352c0 .085-.006.219-.016.4h-6.32c.032.523.154.992.368 1.408.224.405.522.725.896.96.384.235.821.352 1.312.352.554 0 1.018-.128 1.392-.384a2.2 2.2 0 0 0 .816-1.04h1.328a3.519 3.519 0 0 1-.688 1.312c-.32.384-.72.688-1.2.912-.47.224-1.019.336-1.648.336zm-2.56-4.896h4.992c-.032-.715-.278-1.275-.736-1.68-.459-.405-1.024-.608-1.696-.608-.64 0-1.211.197-1.712.592-.491.384-.774.949-.848 1.696zM33.893 243v-7.936h1.216l.096 1.152a2.688 2.688 0 0 1 1.024-.992 2.934 2.934 0 0 1 1.44-.352c.63 0 1.168.128 1.616.384.459.256.81.645 1.056 1.168.277-.48.656-.859 1.136-1.136a3.17 3.17 0 0 1 1.584-.416c.64 0 1.19.128 1.648.384.47.245.832.629 1.088 1.152.256.512.384 1.163.384 1.952V243h-1.328v-4.496c0-.821-.165-1.44-.496-1.856-.33-.416-.805-.624-1.424-.624-.64 0-1.173.251-1.6.752-.416.491-.624 1.195-.624 2.112V243h-1.344v-4.496c0-.821-.165-1.44-.496-1.856-.33-.416-.805-.624-1.424-.624-.63 0-1.157.251-1.584.752-.416.491-.624 1.195-.624 2.112V243h-1.344zm16.953.192c-.544 0-1.04-.091-1.488-.272a2.422 2.422 0 0 1-1.072-.816c-.256-.373-.384-.827-.384-1.36 0-.619.16-1.109.48-1.472.32-.373.74-.64 1.264-.8a5.575 5.575 0 0 1 1.712-.256h2.144c0-.555-.096-.992-.288-1.312a1.599 1.599 0 0 0-.72-.688 2.322 2.322 0 0 0-.992-.208c-.523 0-.976.128-1.36.384-.374.245-.608.629-.704 1.152h-1.376c.053-.576.245-1.061.576-1.456.33-.395.746-.693 1.248-.896a4.166 4.166 0 0 1 1.616-.32c.8 0 1.445.149 1.936.448.49.288.848.677 1.072 1.168.224.491.336 1.035.336 1.632v2.432c0 .395.048.693.144.896.096.203.34.325.736.368V243c-.352 0-.672-.043-.96-.128a1.847 1.847 0 0 1-.736-.448c-.192-.213-.331-.491-.416-.832a3.498 3.498 0 0 1-1.104 1.136c-.46.309-1.014.464-1.664.464zm.208-1.136c.533 0 .98-.133 1.344-.4a2.57 2.57 0 0 0 .816-1.056c.192-.427.288-.869.288-1.328v-.016H51.47c-.374 0-.726.043-1.056.128-.331.075-.598.219-.8.432-.203.203-.304.491-.304.864 0 .48.17.832.512 1.056.34.213.752.32 1.232.32zm6.292.944v-7.936h1.216l.08 1.424a2.884 2.884 0 0 1 1.104-1.184 3.11 3.11 0 0 1 1.632-.432c.939 0 1.685.288 2.24.864.565.565.848 1.44.848 2.624V243h-1.344v-4.496c0-.821-.17-1.44-.512-1.856-.341-.416-.853-.624-1.536-.624-.682 0-1.253.251-1.712.752-.448.491-.672 1.195-.672 2.112V243h-1.344zm12.772.192c-.81 0-1.51-.187-2.096-.56a3.778 3.778 0 0 1-1.36-1.504c-.32-.629-.48-1.333-.48-2.112 0-.768.155-1.467.464-2.096a3.67 3.67 0 0 1 1.36-1.488c.587-.373 1.296-.56 2.128-.56.65 0 1.227.133 1.728.4.501.267.89.64 1.168 1.12V231.8h1.344V243h-1.216l-.128-1.312c-.256.384-.624.731-1.104 1.04-.48.309-1.083.464-1.808.464zm.144-1.168c.587 0 1.083-.133 1.488-.4.405-.277.71-.64.912-1.088.213-.459.32-.96.32-1.504 0-.576-.107-1.088-.32-1.536a2.482 2.482 0 0 0-.928-1.056c-.405-.267-.896-.4-1.472-.4-.512 0-.97.123-1.376.368a2.7 2.7 0 0 0-.976 1.04c-.235.437-.352.965-.352 1.584 0 .619.123 1.152.368 1.6a2.7 2.7 0 0 0 .976 1.04c.416.235.87.352 1.36.352z" fill="#6B6B6B"/><path fill-rule="evenodd" clip-rule="evenodd" d="M350.387 272.484c-33.194 3.592-65.34 8.324-96.137 14.314l1.121-.352c8.845-3.74 15.702-30.327 15.702-62.569 0-32.128-6.808-58.64-15.608-62.528L254.39 161c30.754 5.977 62.853 10.7 95.997 14.286 8.761 0 15.863 21.759 15.863 48.599 0 26.841-7.102 48.599-15.863 48.599z" fill="#E0CB15"/><path clip-rule="evenodd" d="M254.25 286.798c30.797-5.99 62.943-10.722 96.137-14.314 8.761 0 15.863-21.758 15.863-48.599 0-26.84-7.102-48.599-15.863-48.599-33.144-3.586-65.243-8.309-95.997-14.286l1.075.349c8.8 3.888 15.608 30.4 15.608 62.528 0 32.242-6.857 58.829-15.702 62.569l-1.121.352z" stroke="#fff" stroke-width="2.644" stroke-linecap="round" stroke-linejoin="round"/><path fill-rule="evenodd" clip-rule="evenodd" d="M256.296 288.523c-26.521 8.497-50.961 18.683-72.846 30.741l.568-.317c8.146-5.893 14.351-46.624 14.351-95.791 0-49.047-6.25-89.609-14.367-95.656l-.612-.349c21.963 12.108 46.502 22.329 73.136 30.848l.698.227c7.418 3.935 13.145 31.556 13.145 64.876 0 33.534-5.726 61.49-13.214 65.144l-.859.277z" fill="#3CC583"/><path fill-rule="evenodd" clip-rule="evenodd" d="M111.363 69.37c-.974-1.411-1.973-2.146-2.993-2.146-9.941 0-18 69.844-18 156s8.059 156 18 156c.861 0 1.709-.524 2.537-1.538l.453-.605c18.869-22.8 43.263-41.933 72.09-57.817l.568-.317c8.146-5.893 14.351-46.624 14.351-95.791 0-49.047-6.25-89.609-14.367-95.656l-.612-.349c-28.801-15.877-53.172-34.998-72.027-57.781z" fill="#1EABDA"/><path d="M262.504 94V82.8h3.44c1.323 0 2.406.23 3.248.688.854.448 1.483 1.093 1.888 1.936.416.832.624 1.835.624 3.008 0 1.152-.208 2.144-.624 2.976-.405.832-1.034 1.472-1.888 1.92-.842.448-1.925.672-3.248.672h-3.44zm1.344-1.12h2.064c1.067 0 1.92-.17 2.56-.512a3.092 3.092 0 0 0 1.408-1.52c.288-.672.432-1.477.432-2.416 0-1.525-.352-2.656-1.056-3.392-.704-.747-1.818-1.12-3.344-1.12h-2.064v8.96zm13.285 1.312c-.736 0-1.403-.17-2-.512a3.686 3.686 0 0 1-1.392-1.44c-.341-.63-.512-1.365-.512-2.208 0-.832.16-1.557.48-2.176a3.556 3.556 0 0 1 1.376-1.456c.597-.352 1.291-.528 2.08-.528.747 0 1.397.165 1.952.496.555.33.987.779 1.296 1.344.32.555.48 1.179.48 1.872v.352c0 .085-.005.219-.016.4h-6.32c.032.523.155.992.368 1.408.224.405.523.725.896.96.384.235.821.352 1.312.352.555 0 1.019-.128 1.392-.384s.645-.603.816-1.04h1.328c-.139.49-.368.928-.688 1.312-.32.384-.72.688-1.2.912-.469.224-1.019.336-1.648.336zm-2.56-4.896h4.992c-.032-.715-.277-1.275-.736-1.68-.459-.405-1.024-.608-1.696-.608-.64 0-1.211.197-1.712.592-.491.384-.773.95-.848 1.696zM282.674 94V82.8h1.344V94h-1.344zm4.363-9.696a.945.945 0 0 1-.672-.256.946.946 0 0 1-.256-.672c0-.256.086-.47.256-.64a.945.945 0 0 1 .672-.256c.256 0 .475.085.656.256a.84.84 0 0 1 .272.64.91.91 0 0 1-.272.672.922.922 0 0 1-.656.256zM286.365 94v-7.936h1.344V94h-1.344zm5.972 0-3.008-7.936h1.408l2.384 6.64 2.4-6.64h1.376L293.889 94h-1.552zm9.218.192c-.736 0-1.403-.17-2-.512a3.686 3.686 0 0 1-1.392-1.44c-.342-.63-.512-1.365-.512-2.208 0-.832.16-1.557.48-2.176a3.55 3.55 0 0 1 1.376-1.456c.597-.352 1.29-.528 2.08-.528.746 0 1.397.165 1.952.496.554.33.986.779 1.296 1.344.32.555.48 1.179.48 1.872v.352c0 .085-.006.219-.016.4h-6.32c.032.523.154.992.368 1.408.224.405.522.725.896.96.384.235.821.352 1.312.352.554 0 1.018-.128 1.392-.384.373-.256.645-.603.816-1.04h1.328c-.139.49-.368.928-.688 1.312-.32.384-.72.688-1.2.912-.47.224-1.019.336-1.648.336zm-2.56-4.896h4.992c-.032-.715-.278-1.275-.736-1.68-.459-.405-1.024-.608-1.696-.608-.64 0-1.211.197-1.712.592-.491.384-.774.95-.848 1.696zM307.096 94v-7.936h1.216l.112 1.52a2.883 2.883 0 0 1 1.12-1.248c.502-.31 1.12-.464 1.856-.464v1.408h-.368c-.874 0-1.525.235-1.952.704-.426.47-.64 1.141-.64 2.016v4h-1.344zm13.155 0-4-11.2h1.376l3.392 9.936 1.712-4.864-1.776-5.072h1.376l1.28 3.968 1.28-3.968h1.376l-1.776 5.072 1.712 4.864 3.392-9.936h1.376l-4 11.2h-1.536l-1.824-5.104L321.787 94h-1.536zm12.708-9.696a.942.942 0 0 1-.672-.256.942.942 0 0 1-.256-.672c0-.256.085-.47.256-.64a.942.942 0 0 1 .672-.256c.256 0 .475.085.656.256.181.17.272.384.272.64 0 .267-.091.49-.272.672a.922.922 0 0 1-.656.256zM332.287 94v-7.936h1.344V94h-1.344zm3.684 0v-7.936h1.216l.08 1.424a2.882 2.882 0 0 1 1.104-1.184 3.11 3.11 0 0 1 1.632-.432c.939 0 1.686.288 2.24.864.566.565.848 1.44.848 2.624V94h-1.344v-4.496c0-.821-.17-1.44-.512-1.856-.341-.416-.853-.624-1.536-.624-.682 0-1.253.25-1.712.752-.448.49-.672 1.195-.672 2.112V94h-1.344zm9.172 0v-7.936h1.216l.08 1.424a2.882 2.882 0 0 1 1.104-1.184 3.11 3.11 0 0 1 1.632-.432c.939 0 1.685.288 2.24.864.565.565.848 1.44.848 2.624V94h-1.344v-4.496c0-.821-.171-1.44-.512-1.856-.341-.416-.853-.624-1.536-.624s-1.253.25-1.712.752c-.448.49-.672 1.195-.672 2.112V94h-1.344zm9.988-9.696a.942.942 0 0 1-.672-.256.942.942 0 0 1-.256-.672c0-.256.085-.47.256-.64a.942.942 0 0 1 .672-.256c.256 0 .475.085.656.256.181.17.272.384.272.64 0 .267-.091.49-.272.672a.922.922 0 0 1-.656.256zM354.459 94v-7.936h1.344V94h-1.344zm3.684 0v-7.936h1.216l.08 1.424a2.882 2.882 0 0 1 1.104-1.184 3.11 3.11 0 0 1 1.632-.432c.939 0 1.685.288 2.24.864.565.565.848 1.44.848 2.624V94h-1.344v-4.496c0-.821-.171-1.44-.512-1.856-.341-.416-.853-.624-1.536-.624s-1.253.25-1.712.752c-.448.49-.672 1.195-.672 2.112V94h-1.344zm12.324 3.712c-.629 0-1.232-.08-1.808-.24-.576-.16-1.045-.432-1.408-.816-.352-.373-.528-.875-.528-1.504 0-.437.101-.8.304-1.088.203-.288.469-.507.8-.656a1.98 1.98 0 0 1-.624-.56c-.16-.224-.24-.48-.24-.768 0-.64.288-1.157.864-1.552a3.1 3.1 0 0 1-.512-.816 2.873 2.873 0 0 1-.176-1.024c0-.587.133-1.088.4-1.504a2.69 2.69 0 0 1 1.12-.976c.48-.224 1.024-.336 1.632-.336.448 0 .869.064 1.264.192h2.704V87.2h-1.232a2.3 2.3 0 0 1 .304.704c.075.245.112.507.112.784 0 .608-.144 1.12-.432 1.536a2.707 2.707 0 0 1-1.136.96c-.469.213-.997.32-1.584.32-.299 0-.571-.032-.816-.096a4.113 4.113 0 0 1-.736-.272c-.277.139-.416.352-.416.64 0 .533.448.8 1.344.8h1.328c.597 0 1.125.08 1.584.24.459.15.816.4 1.072.752.267.341.4.81.4 1.408 0 .608-.171 1.115-.512 1.52a3.12 3.12 0 0 1-1.328.912 4.953 4.953 0 0 1-1.744.304zm-.032-1.12c.64 0 1.184-.123 1.632-.368.448-.235.672-.597.672-1.088 0-.917-.555-1.376-1.664-1.376h-1.36c-.523 0-.933.112-1.232.336-.299.235-.448.581-.448 1.04 0 .352.112.635.336.848.224.213.517.368.88.464.363.096.757.144 1.184.144zm-.176-6.208c.555 0 1.008-.16 1.36-.48.352-.32.528-.725.528-1.216 0-.49-.176-.896-.528-1.216-.352-.32-.805-.48-1.36-.48s-1.003.16-1.344.48c-.331.32-.496.725-.496 1.216 0 .49.16.896.48 1.216.331.32.784.48 1.36.48zM308.363 113l4.128-11.2h1.424l4.112 11.2h-1.424l-1.024-2.88h-4.768l-1.04 2.88h-1.408zm2.848-3.968h3.968l-1.984-5.536-1.984 5.536zm11.563 4.16c-.81 0-1.509-.187-2.096-.56a3.783 3.783 0 0 1-1.36-1.504c-.32-.629-.48-1.333-.48-2.112 0-.768.155-1.467.464-2.096a3.675 3.675 0 0 1 1.36-1.488c.587-.373 1.296-.56 2.128-.56.651 0 1.227.133 1.728.4.502.267.891.64 1.168 1.12V101.8h1.344V113h-1.216l-.128-1.312c-.256.384-.624.731-1.104 1.04-.48.309-1.082.464-1.808.464zm.144-1.168c.587 0 1.083-.133 1.488-.4.406-.277.71-.64.912-1.088.214-.459.32-.96.32-1.504 0-.576-.106-1.088-.32-1.536a2.475 2.475 0 0 0-.928-1.056c-.405-.267-.896-.4-1.472-.4-.512 0-.97.123-1.376.368-.405.245-.73.592-.976 1.04-.234.437-.352.965-.352 1.584 0 .619.123 1.152.368 1.6.246.448.571.795.976 1.04.416.235.87.352 1.36.352zM384.624 220.192c-.854 0-1.622-.144-2.304-.432a5.12 5.12 0 0 1-1.744-1.232 5.434 5.434 0 0 1-1.104-1.84 6.892 6.892 0 0 1-.368-2.288c0-.821.122-1.584.368-2.288a5.434 5.434 0 0 1 1.104-1.84 4.973 4.973 0 0 1 1.728-1.216c.682-.299 1.456-.448 2.32-.448.853 0 1.616.144 2.288.432a4.77 4.77 0 0 1 1.744 1.2 5.23 5.23 0 0 1 1.104 1.84c.256.704.384 1.477.384 2.32a6.88 6.88 0 0 1-.384 2.336 5.434 5.434 0 0 1-1.104 1.84 5.05 5.05 0 0 1-1.744 1.2c-.672.277-1.435.416-2.288.416zm0-1.184c.874 0 1.621-.197 2.24-.592a3.763 3.763 0 0 0 1.408-1.632c.33-.693.496-1.488.496-2.384 0-.917-.166-1.717-.496-2.4a3.66 3.66 0 0 0-1.408-1.616c-.619-.384-1.366-.576-2.24-.576-.864 0-1.606.197-2.224.592a3.857 3.857 0 0 0-1.424 1.632c-.331.683-.496 1.472-.496 2.368 0 .885.165 1.68.496 2.384.33.693.805 1.237 1.424 1.632.618.395 1.36.592 2.224.592zm7.378 4.512v-11.456h1.216l.128 1.312c.256-.384.619-.731 1.088-1.04.48-.309 1.088-.464 1.824-.464.8 0 1.494.181 2.08.544.587.363 1.04.859 1.36 1.488.32.629.48 1.344.48 2.144 0 .789-.16 1.499-.48 2.128a3.631 3.631 0 0 1-1.376 1.488c-.586.352-1.28.528-2.08.528-.65 0-1.232-.133-1.744-.4a2.784 2.784 0 0 1-1.152-1.12v4.848h-1.344zm4.096-4.496c.544 0 1.019-.123 1.424-.368.406-.256.72-.608.944-1.056.235-.459.352-.981.352-1.568 0-.565-.112-1.072-.336-1.52a2.456 2.456 0 0 0-.928-1.072c-.405-.267-.89-.4-1.456-.4-.533 0-1.008.128-1.424.384a2.591 2.591 0 0 0-.96 1.04c-.224.448-.336.971-.336 1.568 0 .555.112 1.061.336 1.52.224.448.539.805.944 1.072.406.267.886.4 1.44.4zm8.775.976c-.726 0-1.296-.176-1.712-.528-.416-.352-.624-.987-.624-1.904V213.2h-1.376v-1.136h1.376v-1.904h1.344v1.904h2.224v1.136h-2.224v4.368c0 .501.101.843.304 1.024.202.171.56.256 1.072.256h.848V220h-1.232zm3.867-9.696a.944.944 0 0 1-.672-.256.945.945 0 0 1-.256-.672c0-.256.086-.469.256-.64a.944.944 0 0 1 .672-.256.92.92 0 0 1 .656.256.84.84 0 0 1 .272.64.91.91 0 0 1-.272.672.92.92 0 0 1-.656.256zm-.672 9.696v-7.936h1.344V220h-1.344zm3.684 0v-7.936h1.216l.096 1.152a2.693 2.693 0 0 1 1.024-.992 2.936 2.936 0 0 1 1.44-.352c.63 0 1.168.128 1.616.384.459.256.811.645 1.056 1.168.278-.48.656-.859 1.136-1.136a3.172 3.172 0 0 1 1.584-.416c.64 0 1.19.128 1.648.384.47.245.832.629 1.088 1.152.256.512.384 1.163.384 1.952V220h-1.328v-4.496c0-.821-.165-1.44-.496-1.856-.33-.416-.805-.624-1.424-.624-.64 0-1.173.251-1.6.752-.416.491-.624 1.195-.624 2.112V220h-1.344v-4.496c0-.821-.165-1.44-.496-1.856-.33-.416-.805-.624-1.424-.624-.629 0-1.157.251-1.584.752-.416.491-.624 1.195-.624 2.112V220h-1.344zm15.129-9.696a.94.94 0 0 1-.672-.256.94.94 0 0 1-.256-.672c0-.256.085-.469.256-.64a.94.94 0 0 1 .672-.256.92.92 0 0 1 .656.256.844.844 0 0 1 .272.64.913.913 0 0 1-.272.672.92.92 0 0 1-.656.256zm-.672 9.696v-7.936h1.344V220h-1.344zm3.14 0v-1.104l4.416-5.712h-4.336v-1.12h5.84v1.104l-4.416 5.712h4.496V220h-6zm11.346.192a3.964 3.964 0 0 1-2-.512 3.696 3.696 0 0 1-1.392-1.44c-.341-.629-.512-1.365-.512-2.208 0-.832.16-1.557.48-2.176a3.563 3.563 0 0 1 1.376-1.456c.598-.352 1.291-.528 2.08-.528.747 0 1.398.165 1.952.496.555.331.987.779 1.296 1.344.32.555.48 1.179.48 1.872v.352c0 .085-.005.219-.016.4h-6.32c.032.523.155.992.368 1.408.224.405.523.725.896.96.384.235.822.352 1.312.352.555 0 1.019-.128 1.392-.384a2.19 2.19 0 0 0 .816-1.04h1.328a3.509 3.509 0 0 1-.688 1.312c-.32.384-.72.688-1.2.912-.469.224-1.018.336-1.648.336zm-2.56-4.896h4.992c-.032-.715-.277-1.275-.736-1.68-.458-.405-1.024-.608-1.696-.608-.64 0-1.21.197-1.712.592-.49.384-.773.949-.848 1.696zm11.702 4.896c-.811 0-1.51-.187-2.096-.56a3.776 3.776 0 0 1-1.36-1.504c-.32-.629-.48-1.333-.48-2.112 0-.768.154-1.467.464-2.096a3.668 3.668 0 0 1 1.36-1.488c.586-.373 1.296-.56 2.128-.56.65 0 1.226.133 1.728.4.501.267.89.64 1.168 1.12V208.8h1.344V220h-1.216l-.128-1.312c-.256.384-.624.731-1.104 1.04-.48.309-1.083.464-1.808.464zm.144-1.168c.586 0 1.082-.133 1.488-.4.405-.277.709-.64.912-1.088.213-.459.32-.96.32-1.504 0-.576-.107-1.088-.32-1.536a2.488 2.488 0 0 0-.928-1.056c-.406-.267-.896-.4-1.472-.4-.512 0-.971.123-1.376.368a2.692 2.692 0 0 0-.976 1.04c-.235.437-.352.965-.352 1.584 0 .619.122 1.152.368 1.6.245.448.57.795.976 1.04.416.235.869.352 1.36.352zm9.913.976 4.128-11.2h1.424l4.112 11.2h-1.424l-1.024-2.88h-4.768l-1.04 2.88h-1.408zm2.848-3.968h3.968l-1.984-5.536-1.984 5.536zm11.564 4.16c-.811 0-1.51-.187-2.096-.56a3.776 3.776 0 0 1-1.36-1.504c-.32-.629-.48-1.333-.48-2.112 0-.768.154-1.467.464-2.096a3.668 3.668 0 0 1 1.36-1.488c.586-.373 1.296-.56 2.128-.56.65 0 1.226.133 1.728.4.501.267.89.64 1.168 1.12V208.8h1.344V220h-1.216l-.128-1.312c-.256.384-.624.731-1.104 1.04-.48.309-1.083.464-1.808.464zm.144-1.168c.586 0 1.082-.133 1.488-.4.405-.277.709-.64.912-1.088.213-.459.32-.96.32-1.504 0-.576-.107-1.088-.32-1.536a2.488 2.488 0 0 0-.928-1.056c-.406-.267-.896-.4-1.472-.4-.512 0-.971.123-1.376.368a2.692 2.692 0 0 0-.976 1.04c-.235.437-.352.965-.352 1.584 0 .619.122 1.152.368 1.6.245.448.57.795.976 1.04.416.235.869.352 1.36.352zM382.653 239v-11.2h3.696c.789 0 1.466.117 2.032.352.565.235 1.002.587 1.312 1.056.309.469.464 1.056.464 1.76 0 .725-.166 1.323-.496 1.792-.32.469-.768.816-1.344 1.04-.566.224-1.222.336-1.968.336h-2.352V239h-1.344zm1.344-6h2.32c.896 0 1.53-.171 1.904-.512.373-.352.56-.859.56-1.52 0-.672-.187-1.179-.56-1.52-.374-.352-1.008-.528-1.904-.528h-2.32V233zm10.941 6.192a3.961 3.961 0 0 1-2-.512 3.682 3.682 0 0 1-1.392-1.44c-.342-.629-.512-1.365-.512-2.208 0-.832.16-1.557.48-2.176a3.55 3.55 0 0 1 1.376-1.456c.597-.352 1.29-.528 2.08-.528.746 0 1.397.165 1.952.496a3.5 3.5 0 0 1 1.296 1.344c.32.555.48 1.179.48 1.872v.352c0 .085-.006.219-.016.4h-6.32c.032.523.154.992.368 1.408.224.405.522.725.896.96.384.235.821.352 1.312.352.554 0 1.018-.128 1.392-.384.373-.256.645-.603.816-1.04h1.328a3.523 3.523 0 0 1-.688 1.312c-.32.384-.72.688-1.2.912-.47.224-1.019.336-1.648.336zm-2.56-4.896h4.992c-.032-.715-.278-1.275-.736-1.68-.459-.405-1.024-.608-1.696-.608a2.69 2.69 0 0 0-1.712.592c-.491.384-.774.949-.848 1.696zm8.101 4.704v-7.936h1.216l.112 1.52a2.873 2.873 0 0 1 1.12-1.248c.501-.309 1.12-.464 1.856-.464v1.408h-.368c-.875 0-1.525.235-1.952.704-.427.469-.64 1.141-.64 2.016v4h-1.344zm6.245 0v-6.8h-1.2v-1.136h1.2v-1.056c0-.768.192-1.328.575-1.68.385-.352.945-.528 1.681-.528h.8v1.152h-.592c-.406 0-.694.085-.864.256-.171.16-.256.437-.256.832v1.024h1.952v1.136h-1.952v6.8h-1.344zm8.247.192c-.725 0-1.392-.16-2-.48a3.736 3.736 0 0 1-1.456-1.424c-.363-.629-.544-1.387-.544-2.272 0-.843.176-1.573.528-2.192a3.848 3.848 0 0 1 1.456-1.44c.619-.341 1.312-.512 2.08-.512.736 0 1.408.16 2.016.48.619.32 1.115.789 1.488 1.408.373.619.56 1.371.56 2.256 0 .811-.176 1.531-.528 2.16a3.875 3.875 0 0 1-1.472 1.488c-.619.352-1.328.528-2.128.528zm0-1.168c.523 0 .992-.123 1.408-.368a2.78 2.78 0 0 0 .992-1.056c.245-.448.368-.976.368-1.584 0-.576-.107-1.088-.32-1.536a2.482 2.482 0 0 0-.928-1.056c-.405-.256-.896-.384-1.472-.384-.587 0-1.083.133-1.488.4a2.52 2.52 0 0 0-.896 1.072 3.602 3.602 0 0 0-.304 1.504c0 .704.128 1.28.384 1.728.256.437.587.763.992.976.405.203.827.304 1.264.304zm5.992.976v-7.936h1.216l.112 1.52a2.88 2.88 0 0 1 1.12-1.248c.502-.309 1.12-.464 1.856-.464v1.408h-.368c-.874 0-1.525.235-1.952.704-.426.469-.64 1.141-.64 2.016v4h-1.344zm5.813 0v-7.936h1.216l.096 1.152a2.686 2.686 0 0 1 1.024-.992 2.936 2.936 0 0 1 1.44-.352c.629 0 1.168.128 1.616.384.459.256.811.645 1.056 1.168a3.05 3.05 0 0 1 1.136-1.136 3.172 3.172 0 0 1 1.584-.416c.64 0 1.189.128 1.648.384.469.245.832.629 1.088 1.152.256.512.384 1.163.384 1.952V239h-1.328v-4.496c0-.821-.165-1.44-.496-1.856-.331-.416-.805-.624-1.424-.624-.64 0-1.173.251-1.6.752-.416.491-.624 1.195-.624 2.112V239h-1.344v-4.496c0-.821-.165-1.44-.496-1.856-.331-.416-.805-.624-1.424-.624-.629 0-1.157.251-1.584.752-.416.491-.624 1.195-.624 2.112V239h-1.344zm16.952.192c-.544 0-1.04-.091-1.488-.272a2.425 2.425 0 0 1-1.072-.816c-.256-.373-.384-.827-.384-1.36 0-.619.16-1.109.48-1.472.32-.373.742-.64 1.264-.8a5.578 5.578 0 0 1 1.712-.256h2.144c0-.555-.096-.992-.288-1.312a1.595 1.595 0 0 0-.72-.688 2.319 2.319 0 0 0-.992-.208c-.522 0-.976.128-1.36.384-.373.245-.608.629-.704 1.152h-1.376c.054-.576.246-1.061.576-1.456a3.131 3.131 0 0 1 1.248-.896 4.167 4.167 0 0 1 1.616-.32c.8 0 1.446.149 1.936.448a2.57 2.57 0 0 1 1.072 1.168c.224.491.336 1.035.336 1.632v2.432c0 .395.048.693.144.896.096.203.342.325.736.368V239c-.352 0-.672-.043-.96-.128a1.85 1.85 0 0 1-.736-.448c-.192-.213-.33-.491-.416-.832a3.484 3.484 0 0 1-1.104 1.136c-.458.309-1.013.464-1.664.464zm.208-1.136c.534 0 .982-.133 1.344-.4.363-.277.635-.629.816-1.056.192-.427.288-.869.288-1.328v-.016h-2.032c-.373 0-.725.043-1.056.128-.33.075-.597.219-.8.432-.202.203-.304.491-.304.864 0 .48.171.832.512 1.056.342.213.752.32 1.232.32zm6.293.944v-7.936h1.216l.08 1.424a2.884 2.884 0 0 1 1.104-1.184 3.11 3.11 0 0 1 1.632-.432c.939 0 1.685.288 2.24.864.565.565.848 1.44.848 2.624V239h-1.344v-4.496c0-.821-.171-1.44-.512-1.856-.341-.416-.853-.624-1.536-.624s-1.253.251-1.712.752c-.448.491-.672 1.195-.672 2.112V239h-1.344zm12.82.192a4.081 4.081 0 0 1-2.032-.512 3.767 3.767 0 0 1-1.424-1.44c-.352-.629-.528-1.365-.528-2.208 0-.821.171-1.541.512-2.16a3.744 3.744 0 0 1 1.408-1.472c.597-.352 1.285-.528 2.064-.528.939 0 1.728.245 2.368.736.651.491 1.061 1.147 1.232 1.968h-1.376a1.736 1.736 0 0 0-.784-1.136c-.416-.277-.901-.416-1.456-.416-.565 0-1.04.139-1.424.416a2.653 2.653 0 0 0-.88 1.104 3.817 3.817 0 0 0-.288 1.488c0 .587.112 1.109.336 1.568.224.459.528.816.912 1.072.395.256.843.384 1.344.384.555 0 1.04-.133 1.456-.4a1.8 1.8 0 0 0 .784-1.168h1.376a3.176 3.176 0 0 1-.656 1.408 3.51 3.51 0 0 1-1.248.96c-.501.224-1.067.336-1.696.336zm9.045 0a3.961 3.961 0 0 1-2-.512 3.682 3.682 0 0 1-1.392-1.44c-.341-.629-.512-1.365-.512-2.208 0-.832.16-1.557.48-2.176a3.556 3.556 0 0 1 1.376-1.456c.597-.352 1.291-.528 2.08-.528.747 0 1.397.165 1.952.496.555.331.987.779 1.296 1.344.32.555.48 1.179.48 1.872v.352c0 .085-.005.219-.016.4h-6.32c.032.523.155.992.368 1.408.224.405.523.725.896.96.384.235.821.352 1.312.352.555 0 1.019-.128 1.392-.384s.645-.603.816-1.04h1.328a3.523 3.523 0 0 1-.688 1.312c-.32.384-.72.688-1.2.912-.469.224-1.019.336-1.648.336zm-2.56-4.896h4.992c-.032-.715-.277-1.275-.736-1.68-.459-.405-1.024-.608-1.696-.608a2.69 2.69 0 0 0-1.712.592c-.491.384-.773.949-.848 1.696z" fill="#6B6B6B"/><path d="M318.37 161.95V133M324.87 155.9l-6.5 6.5-6.5-6.5" stroke="#E0CB15" stroke-width="2" stroke-linecap="round" stroke-linejoin="round"/><path clip-rule="evenodd" d="M183.45 319.264c21.885-12.058 46.325-22.244 72.846-30.741l.859-.277c7.488-3.654 13.214-31.61 13.214-65.144 0-33.32-5.727-60.941-13.145-64.876l-.698-.227c-26.634-8.519-51.173-18.74-73.136-30.848l.612.349c8.117 6.047 14.367 46.609 14.367 95.656 0 49.167-6.205 89.898-14.351 95.791l-.568.317z" stroke="#fff" stroke-width="2" stroke-linecap="round" stroke-linejoin="round"/><path d="M222.37 303v52.16" stroke="#3CC583" stroke-width="2" stroke-linecap="round" stroke-linejoin="round"/><path d="M198.864 375v-11.2h1.568l3.872 7.776 3.84-7.776h1.584V375h-1.344v-8.768L204.8 373.4h-1.008l-3.584-7.152V375h-1.344zm15.794.192c-.544 0-1.04-.091-1.488-.272a2.425 2.425 0 0 1-1.072-.816c-.256-.373-.384-.827-.384-1.36 0-.619.16-1.109.48-1.472.32-.373.741-.64 1.264-.8a5.574 5.574 0 0 1 1.712-.256h2.144c0-.555-.096-.992-.288-1.312a1.595 1.595 0 0 0-.72-.688 2.322 2.322 0 0 0-.992-.208c-.523 0-.976.128-1.36.384-.373.245-.608.629-.704 1.152h-1.376c.053-.576.245-1.061.576-1.456a3.131 3.131 0 0 1 1.248-.896 4.167 4.167 0 0 1 1.616-.32c.8 0 1.445.149 1.936.448a2.57 2.57 0 0 1 1.072 1.168c.224.491.336 1.035.336 1.632v2.432c0 .395.048.693.144.896.096.203.341.325.736.368V375c-.352 0-.672-.043-.96-.128a1.85 1.85 0 0 1-.736-.448 1.91 1.91 0 0 1-.416-.832 3.504 3.504 0 0 1-1.104 1.136c-.459.309-1.013.464-1.664.464zm.208-1.136c.533 0 .981-.133 1.344-.4.363-.277.635-.629.816-1.056.192-.427.288-.869.288-1.328v-.016h-2.032c-.373 0-.725.043-1.056.128a1.544 1.544 0 0 0-.8.432c-.203.203-.304.491-.304.864 0 .48.171.832.512 1.056.341.213.752.32 1.232.32zm9.21.944c-.725 0-1.296-.176-1.712-.528-.416-.352-.624-.987-.624-1.904V368.2h-1.376v-1.136h1.376v-1.904h1.344v1.904h2.224v1.136h-2.224v4.368c0 .501.101.843.304 1.024.203.171.56.256 1.072.256h.848V375h-1.232zm6.481.192a4.081 4.081 0 0 1-2.032-.512 3.76 3.76 0 0 1-1.424-1.44c-.352-.629-.528-1.365-.528-2.208 0-.821.17-1.541.512-2.16.341-.629.81-1.12 1.408-1.472.597-.352 1.285-.528 2.064-.528.938 0 1.728.245 2.368.736.65.491 1.061 1.147 1.232 1.968h-1.376a1.736 1.736 0 0 0-.784-1.136c-.416-.277-.902-.416-1.456-.416-.566 0-1.04.139-1.424.416a2.645 2.645 0 0 0-.88 1.104 3.817 3.817 0 0 0-.288 1.488c0 .587.112 1.109.336 1.568.224.459.528.816.912 1.072.394.256.842.384 1.344.384.554 0 1.04-.133 1.456-.4a1.8 1.8 0 0 0 .784-1.168h1.376a3.187 3.187 0 0 1-.656 1.408 3.51 3.51 0 0 1-1.248.96c-.502.224-1.067.336-1.696.336zm5.477-.192v-11.2h1.344v4.624a2.77 2.77 0 0 1 1.136-1.136 3.199 3.199 0 0 1 1.6-.416c.917 0 1.653.288 2.208.864.554.565.832 1.44.832 2.624V375h-1.328v-4.496c0-.821-.171-1.44-.512-1.856-.331-.416-.827-.624-1.488-.624-.694 0-1.275.251-1.744.752-.47.491-.704 1.195-.704 2.112V375h-1.344zm-46.491 19v-11.2h1.344V394h-1.344zm3.639 0v-7.936h1.216l.08 1.424a2.884 2.884 0 0 1 1.104-1.184 3.11 3.11 0 0 1 1.632-.432c.939 0 1.685.288 2.24.864.565.565.848 1.44.848 2.624V394h-1.344v-4.496c0-.821-.171-1.44-.512-1.856-.341-.416-.853-.624-1.536-.624s-1.253.251-1.712.752c-.448.491-.672 1.195-.672 2.112V394h-1.344zm11.304 0-3.008-7.936h1.408l2.384 6.64 2.4-6.64h1.376L206.038 394h-1.552zm9.217.192a3.964 3.964 0 0 1-2-.512 3.696 3.696 0 0 1-1.392-1.44c-.341-.629-.512-1.365-.512-2.208 0-.832.16-1.557.48-2.176a3.563 3.563 0 0 1 1.376-1.456c.598-.352 1.291-.528 2.08-.528.747 0 1.398.165 1.952.496.555.331.987.779 1.296 1.344.32.555.48 1.179.48 1.872v.352c0 .085-.005.219-.016.4h-6.32c.032.523.155.992.368 1.408.224.405.523.725.896.96.384.235.822.352 1.312.352.555 0 1.019-.128 1.392-.384a2.19 2.19 0 0 0 .816-1.04h1.328a3.509 3.509 0 0 1-.688 1.312c-.32.384-.72.688-1.2.912-.469.224-1.018.336-1.648.336zm-2.56-4.896h4.992c-.032-.715-.277-1.275-.736-1.68-.458-.405-1.024-.608-1.696-.608-.64 0-1.21.197-1.712.592-.49.384-.773.949-.848 1.696zm8.102 4.704v-7.936h1.216l.08 1.424a2.884 2.884 0 0 1 1.104-1.184 3.11 3.11 0 0 1 1.632-.432c.938 0 1.685.288 2.24.864.565.565.848 1.44.848 2.624V394h-1.344v-4.496c0-.821-.171-1.44-.512-1.856-.342-.416-.854-.624-1.536-.624-.683 0-1.254.251-1.712.752-.448.491-.672 1.195-.672 2.112V394h-1.344zm12.308 0c-.726 0-1.296-.176-1.712-.528-.416-.352-.624-.987-.624-1.904V387.2h-1.377v-1.136h1.377v-1.904h1.344v1.904h2.224v1.136h-2.224v4.368c0 .501.101.843.304 1.024.202.171.56.256 1.072.256h.848V394h-1.232zm6.496.192c-.725 0-1.392-.16-2-.48a3.736 3.736 0 0 1-1.456-1.424c-.362-.629-.544-1.387-.544-2.272 0-.843.176-1.573.528-2.192a3.848 3.848 0 0 1 1.456-1.44c.619-.341 1.312-.512 2.08-.512.736 0 1.408.16 2.016.48.619.32 1.115.789 1.488 1.408.374.619.56 1.371.56 2.256 0 .811-.176 1.531-.528 2.16a3.868 3.868 0 0 1-1.472 1.488c-.618.352-1.328.528-2.128.528zm0-1.168c.523 0 .992-.123 1.408-.368a2.78 2.78 0 0 0 .992-1.056c.246-.448.368-.976.368-1.584 0-.576-.106-1.088-.32-1.536a2.475 2.475 0 0 0-.928-1.056c-.405-.256-.896-.384-1.472-.384-.586 0-1.082.133-1.488.4a2.527 2.527 0 0 0-.896 1.072 3.618 3.618 0 0 0-.304 1.504c0 .704.128 1.28.384 1.728.256.437.587.763.992.976.406.203.827.304 1.264.304zm5.993.976v-7.936h1.216l.112 1.52a2.867 2.867 0 0 1 1.12-1.248c.501-.309 1.12-.464 1.856-.464v1.408h-.368c-.875 0-1.526.235-1.952.704-.427.469-.64 1.141-.64 2.016v4h-1.344zm6.676 3.52 1.76-3.84-3.408-7.616h1.456l2.624 6.176 2.784-6.176h1.392l-5.2 11.456h-1.408z" fill="#6B6B6B"/><path d="m228.87 309-6.5-6.5-6.5 6.5" stroke="#3CC583" stroke-width="2" stroke-linecap="round" stroke-linejoin="round"/><path d="M110.444 378.197c16.34-19.808 41.215-41.835 73.432-59.077 7.257-5.513 14.495-38.826 14.495-95.886 0-57.259-7.613-92.324-15.032-96.269-34.582-18.392-59.77-42.527-72.872-58.696M90.37 223.225c0 86.157 8.059 156 18 156s18-69.843 18-156c0-86.156-8.059-156-18-156s-18 69.844-18 156z" stroke="#fff" stroke-width="2" stroke-linecap="round" stroke-linejoin="round"/><path d="M150.37 42.75v61.23M143.87 98l6.5 6.5 6.5-6.5" stroke="#63ACD0" stroke-width="2" stroke-linecap="round" stroke-linejoin="round"/><path d="m142.37 228 7.31-8.04a5.718 5.718 0 0 1 6.298-1.232l2.784 1.334a6.984 6.984 0 0 0 6.732-.77l3.752-3a23.482 23.482 0 0 1 6.984-3.572l6.14-1.72m-29.992 7.436V244m10-23.468V244m10-29.674V244m-30-16h40m-18.064-8h18.064m-40 16h40m-36-34h32s4 0 4 4v34s0 4-4 4h-32s-4 0-4-4v-34s0-4 4-4zM228.37 246a13.955 13.955 0 0 0 3-8m9 8a13.955 13.955 0 0 1-3-8m-12.002 8h18m-31.998-14h46m-4-28h2a2 2 0 0 1 2 2v30a2 2 0 0 1-2 2h-42a2 2 0 0 1-2-2v-30a2 2 0 0 1 2-2h2m11 10a4 4 0 0 0-4 4v6a4 4 0 0 0 8 0v-6a4 4 0 0 0-4-4zm0 0-5-3v-7l5 3 5-3v7l-5 3zm16-4a4 4 0 0 0-4 4v6a4 4 0 0 0 8 0v-6a4 4 0 0 0-4-4zm0 0-5-3v-7l5 3 5-3v7l-5 3z" stroke="#fff" stroke-width="2" stroke-linecap="round" stroke-linejoin="round"/><path d="M316.49 220.333C309.663 200.28 307.957 199 303.477 199v6.613l-11.307 5.76c-1.067.64-1.92 1.707-1.92 2.987v1.28c0 3.627 2.987 6.613 6.613 6.613h3.2v16m0-8.106 16.427-9.6m12.16 7.04v19.2m0-19.2-4.693-6.4m4.693 6.4 4.907-6.4m-14.507 16h19.2m0-7.894c0-.853-.64-1.706-1.707-1.706h-16c-.853 0-1.706.64-1.706 1.706v16c0 .854.64 1.707 1.706 1.707h16c.854 0 1.707-.64 1.707-1.707v-16z" stroke="#fff" stroke-width="2.133" stroke-linecap="round" stroke-linejoin="round"/></svg>