<svg width="484" height="356" fill="none" xmlns="http://www.w3.org/2000/svg"><path fill-rule="evenodd" clip-rule="evenodd" d="M187.25 159.25c0 33.689 27.311 61 61 61s61-27.311 61-61-27.311-61-61-61-61 27.311-61 61z" fill="#F4F6FB"/><path fill-rule="evenodd" clip-rule="evenodd" d="M246.732 99.22a1.53 1.53 0 0 0 1.501-1.52l.001-28.798c0-1.444-2.085-2.242-3.312-1.481a11.941 11.941 0 0 1-6.358 1.795c-6.627-.023-11.981-5.415-11.958-12.042.023-6.628 5.415-11.981 12.042-11.958 2.303.008 4.452.664 6.275 1.795 1.227.76 3.312-.038 3.312-1.482l.001-28.851c0-.829-.674-1.501-1.502-1.493-59.951.618-115.53 38.93-135.299 99.056a.502.502 0 0 0 .322.633l28.357 9.213c1.377.448 1.489 2.695.381 3.627a11.942 11.942 0 0 0-3.665 5.429c-2.07 6.296 1.356 13.078 7.651 15.148 6.296 2.07 13.078-1.356 15.148-7.652.732-2.224.777-4.51.252-6.626-.349-1.406 1.062-3.158 2.44-2.71l27.42 8.909a1.532 1.532 0 0 0 1.909-.96c8.471-24.043 30.835-39.427 55.082-40.033z" fill="#F49945"/><path fill-rule="evenodd" clip-rule="evenodd" d="M190.689 142.143a1.531 1.531 0 0 0-.981-1.897l-27.388-8.9c-1.373-.446-2.777 1.29-2.433 2.692.519 2.11.471 4.386-.258 6.602-2.07 6.295-8.851 9.721-15.147 7.651-6.296-2.07-9.722-8.852-7.652-15.147a11.945 11.945 0 0 1 3.646-5.414c1.103-.931.988-3.161-.385-3.607l-27.439-8.917a1.49 1.49 0 0 0-1.884.967c-17.938 57.208 1.324 121.906 52.398 159.286a.5.5 0 0 0 .701-.11l17.526-24.122c.851-1.172 3.023-.583 3.567.759a11.94 11.94 0 0 0 4.031 5.163c5.348 3.914 12.856 2.752 16.77-2.596 3.915-5.348 2.752-12.857-2.596-16.771a11.944 11.944 0 0 0-6.224-2.287c-1.444-.103-2.675-1.986-1.824-3.158l16.947-23.325c.487-.67.335-1.608-.323-2.112-20.248-15.485-27.969-41.509-21.052-64.757z" fill="#E0CB15"/><path fill-rule="evenodd" clip-rule="evenodd" d="M214.193 208.708a1.53 1.53 0 0 0-2.107.346l-16.928 23.298c-.849 1.168.369 3.04 1.809 3.145 2.166.159 4.316.908 6.198 2.286 5.349 3.914 6.511 11.422 2.597 16.77-3.914 5.348-11.423 6.511-16.771 2.597a11.942 11.942 0 0 1-4.021-5.141c-.546-1.337-2.702-1.917-3.551-.748l-16.959 23.341a1.49 1.49 0 0 0 .338 2.09c48.864 34.738 116.348 36.412 167.682-.611a.501.501 0 0 0 .112-.701l-17.526-24.122c-.851-1.172.379-3.056 1.824-3.159a11.937 11.937 0 0 0 6.156-2.237c5.376-3.877 6.59-11.377 2.714-16.753-3.877-5.375-11.377-6.59-16.753-2.713a11.943 11.943 0 0 0-4.098 5.213c-.544 1.342-2.716 1.93-3.567.758l-16.947-23.325c-.487-.67-1.426-.815-2.108-.345-20.986 14.472-48.121 13.773-68.094.011z" fill="#92BD39"/><path fill-rule="evenodd" clip-rule="evenodd" d="M284.764 206.924a1.53 1.53 0 0 0-.322 2.111l16.926 23.299c.849 1.168 3.005.589 3.551-.748a11.938 11.938 0 0 1 4.088-5.189c5.376-3.877 12.876-2.662 16.753 2.713 3.876 5.375 2.662 12.875-2.714 16.752a11.936 11.936 0 0 1-6.131 2.236c-1.44.106-2.658 1.977-1.809 3.146l16.958 23.342a1.49 1.49 0 0 0 2.092.324c48.138-35.738 70.584-99.402 51.236-159.664a.502.502 0 0 0-.633-.323l-28.357 9.214c-1.377.447-2.788-1.305-2.44-2.711.519-2.09.481-4.345-.226-6.546-2.026-6.311-8.783-9.784-15.094-7.758-6.31 2.026-9.783 8.784-7.757 15.094a11.945 11.945 0 0 0 3.692 5.509c1.108.932.996 3.179-.381 3.627l-27.421 8.909c-.788.256-1.216 1.105-.98 1.899 7.279 24.43-1.771 50.021-21.031 64.764z" fill="#3CC583"/><path fill-rule="evenodd" clip-rule="evenodd" d="M304.874 139.256a1.531 1.531 0 0 0 1.908.959l27.389-8.899c1.373-.446 1.488-2.676.385-3.607a11.948 11.948 0 0 1-3.671-5.493c-2.026-6.31 1.447-13.068 7.757-15.094s13.068 1.447 15.094 7.758c.704 2.192.744 4.439.231 6.522-.344 1.402 1.06 3.139 2.433 2.692l27.44-8.914a1.49 1.49 0 0 0 .955-1.89c-19.113-56.826-72.725-97.846-136.016-98.067a.501.501 0 0 0-.503.502V45.54c0 1.448-2.103 2.25-3.332 1.483a11.942 11.942 0 0 0-6.296-1.808c-6.627-.023-12.018 5.33-12.041 11.958-.024 6.627 5.33 12.019 11.958 12.042a11.941 11.941 0 0 0 6.379-1.809c1.229-.766 3.332.035 3.332 1.484v28.831c0 .829.675 1.498 1.503 1.519 25.484.626 47.026 17.142 55.095 40.015z" fill="#1EABDA"/><path clip-rule="evenodd" d="M188.25 159.25c0 33.137 26.863 60 60 60s60-26.863 60-60-26.863-60-60-60-60 26.863-60 60z" stroke="#484848" stroke-width="2" stroke-linecap="round" stroke-linejoin="round"/><path clip-rule="evenodd" d="M246.732 99.22a1.53 1.53 0 0 0 1.501-1.52l.001-28.798c0-1.444-2.085-2.242-3.312-1.481a11.941 11.941 0 0 1-6.358 1.795c-6.627-.023-11.981-5.415-11.958-12.042.023-6.628 5.415-11.981 12.042-11.958 2.303.008 4.452.664 6.275 1.795 1.227.76 3.312-.038 3.312-1.482l.001-28.851c0-.829-.674-1.501-1.502-1.493-59.951.618-115.53 38.93-135.299 99.056a.502.502 0 0 0 .322.633l28.357 9.214c1.377.447 1.489 2.694.381 3.627a11.942 11.942 0 0 0-3.665 5.429c-2.07 6.295 1.356 13.077 7.651 15.147 6.296 2.07 13.078-1.355 15.148-7.651a11.94 11.94 0 0 0 .252-6.627c-.349-1.405 1.062-3.158 2.44-2.71l27.42 8.91a1.532 1.532 0 0 0 1.909-.96c8.471-24.043 30.835-39.428 55.082-40.034z" stroke="#fff" stroke-width="2" stroke-linecap="round" stroke-linejoin="round"/><path clip-rule="evenodd" d="M190.689 142.143a1.531 1.531 0 0 0-.981-1.897l-27.388-8.9c-1.373-.446-2.777 1.29-2.433 2.692.519 2.11.471 4.386-.258 6.602-2.07 6.295-8.851 9.721-15.147 7.651-6.296-2.07-9.722-8.852-7.652-15.147a11.945 11.945 0 0 1 3.646-5.414c1.103-.931.988-3.161-.385-3.607l-27.439-8.917a1.49 1.49 0 0 0-1.884.967c-17.938 57.208 1.324 121.906 52.398 159.287a.5.5 0 0 0 .701-.111l17.526-24.122c.851-1.171 3.023-.583 3.567.759a11.943 11.943 0 0 0 4.031 5.164c5.348 3.914 12.856 2.751 16.771-2.597 3.914-5.348 2.751-12.856-2.597-16.77a11.927 11.927 0 0 0-6.224-2.287c-1.444-.103-2.675-1.987-1.824-3.159l16.947-23.325c.487-.67.335-1.608-.323-2.112-20.248-15.485-27.969-41.509-21.052-64.757z" stroke="#fff" stroke-width="2" stroke-linecap="round" stroke-linejoin="round"/><path clip-rule="evenodd" d="M214.193 208.708a1.53 1.53 0 0 0-2.107.346l-16.928 23.298c-.849 1.168.369 3.04 1.809 3.145 2.166.159 4.316.908 6.198 2.286 5.349 3.914 6.511 11.422 2.597 16.77-3.914 5.348-11.423 6.511-16.771 2.597a11.942 11.942 0 0 1-4.021-5.141c-.546-1.337-2.702-1.917-3.551-.748l-16.959 23.341a1.49 1.49 0 0 0 .338 2.09c48.864 34.738 116.348 36.412 167.682-.611a.501.501 0 0 0 .112-.701l-17.526-24.122c-.851-1.172.379-3.056 1.824-3.159a11.937 11.937 0 0 0 6.156-2.237c5.375-3.877 6.59-11.377 2.713-16.753-3.876-5.375-11.377-6.59-16.752-2.713a11.943 11.943 0 0 0-4.098 5.213c-.544 1.342-2.716 1.93-3.567.758l-16.947-23.325c-.487-.67-1.427-.815-2.109-.345-20.985 14.472-48.12 13.773-68.093.011z" stroke="#fff" stroke-width="2" stroke-linecap="round" stroke-linejoin="round"/><path clip-rule="evenodd" d="M284.764 206.924a1.53 1.53 0 0 0-.322 2.111l16.926 23.299c.849 1.168 3.005.588 3.551-.748a11.947 11.947 0 0 1 4.088-5.19c5.376-3.876 12.876-2.662 16.753 2.714 3.876 5.375 2.662 12.875-2.714 16.752a11.945 11.945 0 0 1-6.131 2.236c-1.44.105-2.658 1.977-1.809 3.145l16.958 23.342a1.49 1.49 0 0 0 2.092.325c48.138-35.739 70.584-99.402 51.236-159.664a.502.502 0 0 0-.633-.323l-28.357 9.214c-1.377.447-2.788-1.305-2.44-2.711.519-2.09.481-4.345-.226-6.546-2.026-6.311-8.783-9.784-15.094-7.758-6.31 2.026-9.783 8.784-7.757 15.094a11.945 11.945 0 0 0 3.692 5.509c1.108.932.996 3.179-.381 3.627l-27.421 8.909c-.788.256-1.216 1.105-.98 1.899 7.279 24.43-1.771 50.021-21.031 64.764z" stroke="#fff" stroke-width="2" stroke-linecap="round" stroke-linejoin="round"/><path clip-rule="evenodd" d="M304.874 139.256a1.531 1.531 0 0 0 1.908.959l27.389-8.899c1.373-.446 1.489-2.676.386-3.607a11.942 11.942 0 0 1-3.672-5.493c-2.026-6.31 1.447-13.068 7.757-15.094s13.068 1.447 15.094 7.758c.704 2.192.744 4.439.232 6.522-.345 1.402 1.059 3.139 2.432 2.693l27.441-8.915a1.49 1.49 0 0 0 .954-1.89c-19.113-56.826-72.725-97.846-136.016-98.067a.501.501 0 0 0-.503.502V45.54c0 1.448-2.103 2.25-3.332 1.483a11.942 11.942 0 0 0-6.296-1.808c-6.627-.023-12.018 5.33-12.041 11.958-.024 6.627 5.33 12.019 11.958 12.042a11.941 11.941 0 0 0 6.379-1.809c1.229-.766 3.332.035 3.332 1.484v28.831c0 .829.675 1.498 1.503 1.519 25.484.626 47.026 17.142 55.095 40.015z" stroke="#fff" stroke-width="2" stroke-linecap="round" stroke-linejoin="round"/><path d="m184.058 93.764-22-6 10.986-2.878m11.014 8.878 22-6-10.986-2.878m-11.014 8.878v4.122m-22-1v-8.872m44 0v8.872m-26.634-21.054-1.616.81a10.493 10.493 0 0 0-2.484 1.832 1.307 1.307 0 0 1-2.26-.834 6.97 6.97 0 0 1 4.226-7.22m11.402 5.412 1.616.81c.913.485 1.75 1.102 2.484 1.832a1.305 1.305 0 0 0 2.26-.834 6.973 6.973 0 0 0-4.226-7.22m.232-6.786c0 3.866-1.166 14-7 14s-7-10.124-7-14c0-7 7-10.5 7-10.5s7 3.5 7 10.5zm-9.746-.25a2.745 2.745 0 1 0 5.492 0 2.747 2.747 0 0 0-5.492 0zm5.546 20.14c0 1.546-1.254 5.286-2.8 5.286-1.546 0-2.8-3.74-2.8-5.286a2.8 2.8 0 1 1 5.6 0zM322.971 53.632c0 2.486-3.358 4.5-7.5 4.5-4.142 0-7.5-2.014-7.5-4.5m15 0c0-2.486-3.358-4.5-7.5-4.5-4.142 0-7.5 2.014-7.5 4.5m15 0v9c0 2.483-3.358 4.5-7.5 4.5-4.142 0-7.5-2.017-7.5-4.5v-9m15 27c0 2.486-3.358 4.5-7.5 4.5-4.142 0-7.5-2.014-7.5-4.5m15 0c0-2.487-3.358-4.5-7.5-4.5-4.142 0-7.5 2.013-7.5 4.5m15 0v9c0 2.483-3.358 4.5-7.5 4.5-4.142 0-7.5-2.017-7.5-4.5v-9m-29.36-5h23.86m-23.86-8h23.86m-14.5-8.453a41.282 41.282 0 0 0 .964 25.078m4.536-25.078a41.037 41.037 0 0 1 1.5 11.037 41.022 41.022 0 0 1-2.456 14.041m3.956-30.626v-3h6m-6 39v3h6m-11.75-8.25c7.041 0 12.75-5.708 12.75-12.75 0-7.041-5.709-12.75-12.75-12.75-7.042 0-12.75 5.709-12.75 12.75 0 7.042 5.708 12.75 12.75 12.75z" stroke="#fff" stroke-width="2" stroke-linecap="round" stroke-linejoin="round"/><path d="M238.5 149.946c0 2.651-5.373 4.8-12 4.8s-12-2.149-12-4.8m24 0c0-2.651-5.373-4.8-12-4.8s-12 2.149-12 4.8m24 0v19.2c0 2.7-5.4 4.8-12 4.8s-12-2.1-12-4.8v-19.2m67.234-20.74c0 2.297-3.438 4.16-7.68 4.16-4.241 0-7.68-1.863-7.68-4.16m15.36 0c0-2.298-3.438-4.16-7.68-4.16-4.241 0-7.68 1.862-7.68 4.16m15.36 0v10.88c0 2.24-3.52 4.16-7.68 4.16s-7.68-1.92-7.68-4.16v-10.88m15.36 24.92c0 2.298-3.438 4.16-7.68 4.16-4.241 0-7.68-1.862-7.68-4.16m15.36 0c0-2.297-3.438-4.16-7.68-4.16-4.241 0-7.68 1.863-7.68 4.16m15.36 0v10.88c0 2.24-3.52 4.16-7.68 4.16s-7.68-1.92-7.68-4.16v-10.88m15.36 24.28c0 2.298-3.438 4.16-7.68 4.16-4.241 0-7.68-1.862-7.68-4.16m15.36 0c0-2.298-3.438-4.16-7.68-4.16-4.241 0-7.68 1.862-7.68 4.16m15.36 0v10.88c0 2.24-3.52 4.16-7.68 4.16s-7.68-1.92-7.68-4.16v-10.88m-7.187-44.06h-6v49.8h6m0-24.9h-13.5m-31.187.393c0 2.538 5.189 4.613 12 4.613s12-2.075 12-4.613" stroke="#1189C4" stroke-width="2" stroke-linecap="round" stroke-linejoin="round"/><path d="M339.238 196.903h-12.52a4 4 0 0 1-4-4v-25.016a4 4 0 0 1 4-4h30.018a4 4 0 0 1 4 4v13.618m-38.018-9.806h38.02m-38.02 16.608h16.736m-16.736-8.29h22.022m-6.492-8.318v25.204m11.132-25.204v8.318m17.338 27.776-7-7.282m-6.844 2.96c5.462-.114 9.799-4.632 9.69-10.094.109-5.462-4.228-9.98-9.69-10.094-5.462.114-9.8 4.632-9.69 10.094-.11 5.462 4.228 9.98 9.69 10.094zM158.982 198.42c.347.969.523 1.991.52 3.02a9.02 9.02 0 0 1-17.35 3.475 9.02 9.02 0 0 1 14.71-9.835m8.32-2.22c4.597 7.724 2.404 17.691-5.01 22.771-7.415 5.081-17.501 3.529-23.045-3.546-5.544-7.075-4.64-17.239 2.067-23.224 6.706-5.984 16.908-5.731 23.308.579m-29 29 4.98-4.98m24.04 0 4.98 4.98m3-37-20 20m14.86-14.86-.72-7.78 6.36-6.36 2.14 6.36 6.36 2.14-6.36 6.36-7.78-.72zM236.504 236.829v42m0-42-4 4m4-4 4 4m-4 38h42m-42 0s6.128-.444 13.584-6.8m28.416 6.8-4-4m4 4-4 4m-4.956-40.584a14.027 14.027 0 0 1 8.956-3.416m-23.106 27.252a35.194 35.194 0 0 0 4.106-8.252 42.675 42.675 0 0 1 4.708-9.722m-15.708 20.73a4 4 0 1 0 8 0 4 4 0 0 0-8 0zm14-24a4 4 0 1 0 8 0 4 4 0 0 0-8 0z" stroke="#fff" stroke-width="2" stroke-linecap="round" stroke-linejoin="round"/><path d="M65.916 19.442c-1.13 0-2.096-.25-2.896-.752a4.932 4.932 0 0 1-1.824-2.08c-.416-.875-.624-1.861-.624-2.96 0-1.088.203-2.07.608-2.944a4.932 4.932 0 0 1 1.824-2.08c.8-.512 1.771-.768 2.912-.768 1.28 0 2.32.31 3.12.928.811.608 1.328 1.461 1.552 2.56H69.1c-.17-.693-.522-1.248-1.056-1.664-.522-.427-1.232-.64-2.128-.64-.885 0-1.621.208-2.208.624a3.762 3.762 0 0 0-1.328 1.648c-.288.693-.432 1.472-.432 2.336 0 .885.15 1.675.448 2.368a3.87 3.87 0 0 0 1.344 1.648c.587.395 1.312.592 2.176.592.896 0 1.606-.203 2.128-.608a2.927 2.927 0 0 0 1.056-1.648h1.488c-.224 1.077-.741 1.92-1.552 2.528-.8.608-1.84.912-3.12.912zm9.164 0c-.544 0-1.04-.09-1.488-.272a2.427 2.427 0 0 1-1.072-.816c-.256-.373-.384-.827-.384-1.36 0-.619.16-1.11.48-1.472.32-.373.741-.64 1.264-.8a5.585 5.585 0 0 1 1.712-.256h2.144c0-.555-.096-.992-.288-1.312a1.596 1.596 0 0 0-.72-.688 2.326 2.326 0 0 0-.992-.208c-.523 0-.976.128-1.36.384-.373.245-.608.63-.704 1.152h-1.376c.053-.576.245-1.061.576-1.456.33-.395.747-.693 1.248-.896a4.16 4.16 0 0 1 1.616-.32c.8 0 1.445.15 1.936.448.49.288.848.677 1.072 1.168.224.49.336 1.035.336 1.632v2.432c0 .395.048.693.144.896.096.203.341.325.736.368v1.184c-.352 0-.672-.043-.96-.128a1.851 1.851 0 0 1-.736-.448 1.914 1.914 0 0 1-.416-.832 3.499 3.499 0 0 1-1.104 1.136c-.459.31-1.013.464-1.664.464zm.208-1.136c.533 0 .981-.133 1.344-.4.363-.277.635-.63.816-1.056.192-.427.288-.87.288-1.328v-.016h-2.032c-.373 0-.725.043-1.056.128a1.54 1.54 0 0 0-.8.432c-.203.203-.304.49-.304.864 0 .48.17.832.512 1.056.341.213.752.32 1.232.32zm6.293.944v-7.936h1.216l.096 1.152a2.688 2.688 0 0 1 1.024-.992 2.937 2.937 0 0 1 1.44-.352c.629 0 1.168.128 1.616.384.458.256.81.645 1.056 1.168.277-.48.656-.859 1.136-1.136a3.167 3.167 0 0 1 1.584-.416c.64 0 1.189.128 1.648.384.469.245.832.63 1.088 1.152.256.512.384 1.163.384 1.952v4.64H92.54v-4.496c0-.821-.166-1.44-.496-1.856-.331-.416-.806-.624-1.424-.624-.64 0-1.174.25-1.6.752-.416.49-.624 1.195-.624 2.112v4.112h-1.344v-4.496c0-.821-.166-1.44-.496-1.856-.331-.416-.806-.624-1.424-.624-.63 0-1.158.25-1.584.752-.416.49-.624 1.195-.624 2.112v4.112H81.58zm14.312 3.52V11.314h1.216l.128 1.312c.256-.384.619-.73 1.088-1.04.48-.31 1.088-.464 1.824-.464.8 0 1.493.181 2.08.544.587.363 1.04.859 1.36 1.488.32.63.48 1.344.48 2.144 0 .79-.16 1.499-.48 2.128a3.634 3.634 0 0 1-1.376 1.488c-.587.352-1.28.528-2.08.528-.65 0-1.232-.133-1.744-.4a2.777 2.777 0 0 1-1.152-1.12v4.848h-1.344zm4.096-4.496c.544 0 1.019-.123 1.424-.368.405-.256.72-.608.944-1.056.235-.459.352-.981.352-1.568 0-.565-.112-1.072-.336-1.52a2.464 2.464 0 0 0-.928-1.072c-.405-.267-.891-.4-1.456-.4-.533 0-1.008.128-1.424.384a2.588 2.588 0 0 0-.96 1.04c-.224.448-.336.97-.336 1.568 0 .555.112 1.061.336 1.52.224.448.539.805.944 1.072.405.267.885.4 1.44.4zm8.591 1.168c-.544 0-1.04-.09-1.488-.272a2.429 2.429 0 0 1-1.072-.816c-.256-.373-.384-.827-.384-1.36 0-.619.16-1.11.48-1.472.32-.373.741-.64 1.264-.8a5.583 5.583 0 0 1 1.712-.256h2.144c0-.555-.096-.992-.288-1.312a1.593 1.593 0 0 0-.72-.688 2.327 2.327 0 0 0-.992-.208c-.523 0-.976.128-1.36.384-.373.245-.608.63-.704 1.152h-1.376c.053-.576.245-1.061.576-1.456a3.131 3.131 0 0 1 1.248-.896 4.162 4.162 0 0 1 1.616-.32c.8 0 1.445.15 1.936.448.491.288.848.677 1.072 1.168.224.49.336 1.035.336 1.632v2.432c0 .395.048.693.144.896.096.203.341.325.736.368v1.184c-.352 0-.672-.043-.96-.128a1.853 1.853 0 0 1-.736-.448 1.91 1.91 0 0 1-.416-.832 3.507 3.507 0 0 1-1.104 1.136c-.459.31-1.013.464-1.664.464zm.208-1.136c.533 0 .981-.133 1.344-.4.363-.277.635-.63.816-1.056.192-.427.288-.87.288-1.328v-.016h-2.032c-.373 0-.725.043-1.056.128a1.54 1.54 0 0 0-.8.432c-.203.203-.304.49-.304.864 0 .48.171.832.512 1.056.341.213.752.32 1.232.32zm7.109-8.752a.942.942 0 0 1-.672-.256.942.942 0 0 1-.256-.672c0-.256.085-.47.256-.64a.942.942 0 0 1 .672-.256c.256 0 .474.085.656.256.181.17.272.384.272.64 0 .267-.091.49-.272.672a.924.924 0 0 1-.656.256zm-.672 9.696v-7.936h1.344v7.936h-1.344zm6.836 3.712c-.63 0-1.232-.08-1.808-.24-.576-.16-1.046-.432-1.408-.816-.352-.373-.528-.875-.528-1.504 0-.437.101-.8.304-1.088.202-.288.469-.507.8-.656a1.98 1.98 0 0 1-.624-.56c-.16-.224-.24-.48-.24-.768 0-.64.288-1.157.864-1.552a3.075 3.075 0 0 1-.512-.816 2.852 2.852 0 0 1-.176-1.024c0-.587.133-1.088.4-1.504.277-.427.65-.752 1.12-.976.48-.224 1.024-.336 1.632-.336.448 0 .869.064 1.264.192h2.704v1.136h-1.232c.138.213.24.448.304.704.074.245.112.507.112.784 0 .608-.144 1.12-.432 1.536a2.713 2.713 0 0 1-1.136.96 3.79 3.79 0 0 1-1.584.32c-.299 0-.571-.032-.816-.096a4.085 4.085 0 0 1-.736-.272c-.278.139-.416.352-.416.64 0 .533.448.8 1.344.8h1.328c.597 0 1.125.08 1.584.24.458.15.816.4 1.072.752.266.341.4.81.4 1.408 0 .608-.171 1.115-.512 1.52-.342.405-.784.71-1.328.912a4.957 4.957 0 0 1-1.744.304zm-.032-1.12c.64 0 1.184-.123 1.632-.368.448-.235.672-.597.672-1.088 0-.917-.555-1.376-1.664-1.376h-1.36c-.523 0-.934.112-1.232.336-.299.235-.448.581-.448 1.04 0 .352.112.635.336.848.224.213.517.368.88.464.362.096.757.144 1.184.144zm-.176-6.208c.554 0 1.008-.16 1.36-.48.352-.32.528-.725.528-1.216 0-.49-.176-.896-.528-1.216-.352-.32-.806-.48-1.36-.48-.555 0-1.003.16-1.344.48-.331.32-.496.725-.496 1.216 0 .49.16.896.48 1.216.33.32.784.48 1.36.48zm5.524 3.616v-7.936h1.216l.08 1.424a2.882 2.882 0 0 1 1.104-1.184 3.11 3.11 0 0 1 1.632-.432c.939 0 1.686.288 2.24.864.566.565.848 1.44.848 2.624v4.64h-1.344v-4.496c0-.821-.17-1.44-.512-1.856-.341-.416-.853-.624-1.536-.624-.682 0-1.253.25-1.712.752-.448.49-.672 1.195-.672 2.112v4.112h-1.344zm-62.888 19v-11.2h6.928v1.104h-5.584v3.632h4.88v1.088h-4.88v4.272h5.584v1.104h-6.928zm8.15 0 2.753-3.968-2.752-3.968h1.456l2.224 3.28 2.24-3.28H80l-2.752 3.968L80 38.25h-1.44l-2.24-3.28-2.224 3.28H72.64zm11.994.192a3.96 3.96 0 0 1-2-.512 3.691 3.691 0 0 1-1.392-1.44c-.341-.63-.512-1.365-.512-2.208 0-.832.16-1.557.48-2.176.33-.63.79-1.115 1.376-1.456.597-.352 1.29-.528 2.08-.528.747 0 1.397.165 1.952.496.555.33.987.779 1.296 1.344.32.555.48 1.179.48 1.872v.352c0 .085-.005.219-.016.4h-6.32c.032.523.155.992.368 1.408.224.405.523.725.896.96.384.235.821.352 1.312.352.555 0 1.019-.128 1.392-.384s.645-.603.816-1.04h1.328a3.52 3.52 0 0 1-.688 1.312c-.32.384-.72.688-1.2.912-.47.224-1.019.336-1.648.336zm-2.56-4.896h4.992c-.032-.715-.277-1.275-.736-1.68-.459-.405-1.024-.608-1.696-.608-.64 0-1.21.197-1.712.592-.49.384-.773.95-.848 1.696zm11.75 4.896c-.747 0-1.425-.17-2.033-.512a3.77 3.77 0 0 1-1.424-1.44c-.352-.63-.528-1.365-.528-2.208 0-.821.171-1.541.512-2.16.342-.63.811-1.12 1.408-1.472.598-.352 1.286-.528 2.064-.528.939 0 1.728.245 2.368.736.651.49 1.062 1.147 1.232 1.968h-1.376a1.735 1.735 0 0 0-.784-1.136c-.416-.277-.901-.416-1.456-.416-.565 0-1.04.139-1.424.416a2.654 2.654 0 0 0-.88 1.104 3.815 3.815 0 0 0-.288 1.488c0 .587.112 1.11.336 1.568.224.459.528.816.912 1.072.395.256.843.384 1.344.384.555 0 1.04-.133 1.456-.4a1.8 1.8 0 0 0 .784-1.168h1.376a3.176 3.176 0 0 1-.656 1.408c-.33.405-.746.725-1.248.96-.501.224-1.066.336-1.696.336zm8.388 0c-.618 0-1.162-.123-1.632-.368-.458-.256-.816-.64-1.072-1.152-.256-.523-.384-1.179-.384-1.968v-4.64h1.344v4.496c0 .821.171 1.44.512 1.856.342.416.854.624 1.536.624.683 0 1.248-.245 1.696-.736.459-.501.688-1.21.688-2.128v-4.112h1.344v7.936h-1.216l-.08-1.424a2.882 2.882 0 0 1-1.104 1.184 3.11 3.11 0 0 1-1.632.432zm9.381-.192c-.726 0-1.296-.176-1.712-.528-.416-.352-.624-.987-.624-1.904V31.45h-1.376v-1.136h1.376V28.41h1.344v1.904h2.224v1.136H110.6v4.368c0 .501.101.843.304 1.024.202.17.56.256 1.072.256h.848v1.152h-1.232zm3.867-9.696a.942.942 0 0 1-.672-.256.942.942 0 0 1-.256-.672c0-.256.085-.47.256-.64a.942.942 0 0 1 .672-.256c.256 0 .475.085.656.256.181.17.272.384.272.64 0 .267-.091.49-.272.672a.922.922 0 0 1-.656.256zm-.672 9.696v-7.936h1.344v7.936h-1.344zm7.348.192c-.725 0-1.392-.16-2-.48a3.736 3.736 0 0 1-1.456-1.424c-.362-.63-.544-1.387-.544-2.272 0-.843.176-1.573.528-2.192a3.852 3.852 0 0 1 1.456-1.44c.619-.341 1.312-.512 2.08-.512.736 0 1.408.16 2.016.48.619.32 1.115.79 1.488 1.408.374.619.56 1.37.56 2.256 0 .81-.176 1.53-.528 2.16a3.864 3.864 0 0 1-1.472 1.488c-.618.352-1.328.528-2.128.528zm0-1.168c.523 0 .992-.123 1.408-.368a2.78 2.78 0 0 0 .992-1.056c.246-.448.368-.976.368-1.584 0-.576-.106-1.088-.32-1.536a2.475 2.475 0 0 0-.928-1.056c-.405-.256-.896-.384-1.472-.384-.586 0-1.082.133-1.488.4a2.525 2.525 0 0 0-.896 1.072c-.202.448-.304.95-.304 1.504 0 .704.128 1.28.384 1.728.256.437.587.763.992.976.406.203.827.304 1.264.304zm5.992.976v-7.936h1.216l.08 1.424a2.882 2.882 0 0 1 1.104-1.184 3.11 3.11 0 0 1 1.632-.432c.939 0 1.686.288 2.24.864.566.565.848 1.44.848 2.624v4.64h-1.344v-4.496c0-.821-.17-1.44-.512-1.856-.341-.416-.853-.624-1.536-.624-.682 0-1.253.25-1.712.752-.448.49-.672 1.195-.672 2.112v4.112h-1.344zM379.239 15.25V4.05h3.44c1.322 0 2.405.23 3.248.688a4.204 4.204 0 0 1 1.888 1.936c.416.832.624 1.835.624 3.008 0 1.152-.208 2.144-.624 2.976-.406.832-1.035 1.472-1.888 1.92-.843.448-1.926.672-3.248.672h-3.44zm1.344-1.12h2.064c1.066 0 1.92-.17 2.56-.512a3.097 3.097 0 0 0 1.408-1.52c.288-.672.432-1.477.432-2.416 0-1.525-.352-2.656-1.056-3.392-.704-.747-1.819-1.12-3.344-1.12h-2.064v8.96zm12.356 1.312c-.544 0-1.04-.09-1.488-.272a2.429 2.429 0 0 1-1.072-.816c-.256-.373-.384-.827-.384-1.36 0-.619.16-1.11.48-1.472.32-.373.742-.64 1.264-.8a5.588 5.588 0 0 1 1.712-.256h2.144c0-.555-.096-.992-.288-1.312a1.593 1.593 0 0 0-.72-.688 2.324 2.324 0 0 0-.992-.208c-.522 0-.976.128-1.36.384-.373.245-.608.63-.704 1.152h-1.376c.054-.576.246-1.061.576-1.456a3.131 3.131 0 0 1 1.248-.896 4.161 4.161 0 0 1 1.616-.32c.8 0 1.446.15 1.936.448.491.288.848.677 1.072 1.168.224.49.336 1.035.336 1.632v2.432c0 .395.048.693.144.896.096.203.342.325.736.368v1.184c-.352 0-.672-.043-.96-.128a1.853 1.853 0 0 1-.736-.448c-.192-.213-.33-.49-.416-.832a3.487 3.487 0 0 1-1.104 1.136c-.458.31-1.013.464-1.664.464zm.208-1.136c.534 0 .982-.133 1.344-.4.363-.277.635-.63.816-1.056.192-.427.288-.87.288-1.328v-.016h-2.032c-.373 0-.725.043-1.056.128-.33.075-.597.219-.8.432-.202.203-.304.49-.304.864 0 .48.171.832.512 1.056.342.213.752.32 1.232.32zm9.21.944c-.725 0-1.296-.176-1.712-.528-.416-.352-.624-.987-.624-1.904V8.45h-1.376V7.314h1.376V5.41h1.344v1.904h2.224V8.45h-2.224v4.368c0 .501.102.843.304 1.024.203.17.56.256 1.072.256h.848v1.152h-1.232zm5.692.192c-.544 0-1.04-.09-1.488-.272a2.423 2.423 0 0 1-1.072-.816c-.256-.373-.384-.827-.384-1.36 0-.619.16-1.11.48-1.472.32-.373.741-.64 1.264-.8a5.583 5.583 0 0 1 1.712-.256h2.144c0-.555-.096-.992-.288-1.312a1.603 1.603 0 0 0-.72-.688 2.33 2.33 0 0 0-.992-.208c-.523 0-.976.128-1.36.384-.374.245-.608.63-.704 1.152h-1.376c.053-.576.245-1.061.576-1.456.33-.395.746-.693 1.248-.896a4.158 4.158 0 0 1 1.616-.32c.8 0 1.445.15 1.936.448.49.288.848.677 1.072 1.168.224.49.336 1.035.336 1.632v2.432c0 .395.048.693.144.896.096.203.341.325.736.368v1.184c-.352 0-.672-.043-.96-.128a1.847 1.847 0 0 1-.736-.448 1.91 1.91 0 0 1-.416-.832 3.507 3.507 0 0 1-1.104 1.136c-.459.31-1.014.464-1.664.464zm.208-1.136c.533 0 .981-.133 1.344-.4.362-.277.634-.63.816-1.056.192-.427.288-.87.288-1.328v-.016h-2.032c-.374 0-.726.043-1.056.128a1.536 1.536 0 0 0-.8.432c-.203.203-.304.49-.304.864 0 .48.17.832.512 1.056.341.213.752.32 1.232.32zm-44.005 20.136c-1.13 0-2.096-.25-2.896-.752a4.932 4.932 0 0 1-1.824-2.08c-.416-.875-.624-1.861-.624-2.96 0-1.088.203-2.07.608-2.944a4.932 4.932 0 0 1 1.824-2.08c.8-.512 1.771-.768 2.912-.768 1.28 0 2.32.31 3.12.928.811.608 1.328 1.461 1.552 2.56h-1.488c-.17-.693-.522-1.248-1.056-1.664-.522-.427-1.232-.64-2.128-.64-.885 0-1.621.208-2.208.624a3.77 3.77 0 0 0-1.328 1.648c-.288.693-.432 1.472-.432 2.336 0 .885.15 1.675.448 2.368a3.88 3.88 0 0 0 1.344 1.648c.587.395 1.312.592 2.176.592.896 0 1.606-.203 2.128-.608a2.92 2.92 0 0 0 1.056-1.648h1.488c-.224 1.077-.741 1.92-1.552 2.528-.8.608-1.84.912-3.12.912zm10.188 0c-.725 0-1.392-.16-2-.48a3.736 3.736 0 0 1-1.456-1.424c-.363-.63-.544-1.387-.544-2.272 0-.843.176-1.573.528-2.192a3.852 3.852 0 0 1 1.456-1.44c.619-.341 1.312-.512 2.08-.512.736 0 1.408.16 2.016.48.619.32 1.115.79 1.488 1.408.373.619.56 1.37.56 2.256 0 .81-.176 1.53-.528 2.16a3.87 3.87 0 0 1-1.472 1.488c-.619.352-1.328.528-2.128.528zm0-1.168c.523 0 .992-.123 1.408-.368a2.78 2.78 0 0 0 .992-1.056c.245-.448.368-.976.368-1.584 0-.576-.107-1.088-.32-1.536a2.482 2.482 0 0 0-.928-1.056c-.405-.256-.896-.384-1.472-.384-.587 0-1.083.133-1.488.4a2.518 2.518 0 0 0-.896 1.072c-.203.448-.304.95-.304 1.504 0 .704.128 1.28.384 1.728.256.437.587.763.992.976.405.203.827.304 1.264.304zm5.992.976v-11.2h1.344v11.2h-1.344zm3.547 0v-11.2h1.344v11.2h-1.344zm7.115.192c-.736 0-1.403-.17-2-.512a3.686 3.686 0 0 1-1.392-1.44c-.341-.63-.512-1.365-.512-2.208 0-.832.16-1.557.48-2.176a3.556 3.556 0 0 1 1.376-1.456c.597-.352 1.291-.528 2.08-.528.747 0 1.397.165 1.952.496.555.33.987.779 1.296 1.344.32.555.48 1.179.48 1.872v.352c0 .085-.005.219-.016.4h-6.32c.032.523.155.992.368 1.408.224.405.523.725.896.96.384.235.821.352 1.312.352.555 0 1.019-.128 1.392-.384s.645-.603.816-1.04h1.328c-.139.49-.368.928-.688 1.312-.32.384-.72.688-1.2.912-.469.224-1.019.336-1.648.336zm-2.56-4.896h4.992c-.032-.715-.277-1.275-.736-1.68-.459-.405-1.024-.608-1.696-.608-.64 0-1.211.197-1.712.592-.491.384-.773.95-.848 1.696zm11.749 4.896a4.08 4.08 0 0 1-2.032-.512 3.771 3.771 0 0 1-1.424-1.44c-.352-.63-.528-1.365-.528-2.208 0-.821.171-1.541.512-2.16a3.75 3.75 0 0 1 1.408-1.472c.598-.352 1.286-.528 2.064-.528.939 0 1.728.245 2.368.736.651.49 1.062 1.147 1.232 1.968h-1.376a1.732 1.732 0 0 0-.784-1.136c-.416-.277-.901-.416-1.456-.416-.565 0-1.04.139-1.424.416a2.657 2.657 0 0 0-.88 1.104 3.815 3.815 0 0 0-.288 1.488c0 .587.112 1.11.336 1.568.224.459.528.816.912 1.072.395.256.843.384 1.344.384.555 0 1.04-.133 1.456-.4.416-.277.678-.667.784-1.168h1.376a3.165 3.165 0 0 1-.656 1.408c-.33.405-.746.725-1.248.96-.501.224-1.066.336-1.696.336zm8.457-.192c-.725 0-1.296-.176-1.712-.528-.416-.352-.624-.987-.624-1.904V27.45h-1.376v-1.136h1.376V24.41h1.344v1.904h2.224v1.136h-2.224v4.368c0 .501.101.843.304 1.024.203.17.56.256 1.072.256h.848v1.152h-1.232zm3.868-9.696a.942.942 0 0 1-.672-.256.942.942 0 0 1-.256-.672c0-.256.085-.47.256-.64a.942.942 0 0 1 .672-.256c.256 0 .474.085.656.256.181.17.272.384.272.64 0 .267-.091.49-.272.672a.924.924 0 0 1-.656.256zm-.672 9.696v-7.936h1.344v7.936h-1.344zm7.348.192c-.726 0-1.392-.16-2-.48a3.73 3.73 0 0 1-1.456-1.424c-.363-.63-.544-1.387-.544-2.272 0-.843.176-1.573.528-2.192a3.845 3.845 0 0 1 1.456-1.44c.618-.341 1.312-.512 2.08-.512.736 0 1.408.16 2.016.48.618.32 1.114.79 1.488 1.408.373.619.56 1.37.56 2.256 0 .81-.176 1.53-.528 2.16a3.87 3.87 0 0 1-1.472 1.488c-.619.352-1.328.528-2.128.528zm0-1.168c.522 0 .992-.123 1.408-.368.416-.256.746-.608.992-1.056.245-.448.368-.976.368-1.584 0-.576-.107-1.088-.32-1.536a2.488 2.488 0 0 0-.928-1.056c-.406-.256-.896-.384-1.472-.384-.587 0-1.083.133-1.488.4a2.51 2.51 0 0 0-.896 1.072c-.203.448-.304.95-.304 1.504 0 .704.128 1.28.384 1.728.256.437.586.763.992.976a2.79 2.79 0 0 0 1.264.304zm5.992.976v-7.936h1.216l.08 1.424a2.882 2.882 0 0 1 1.104-1.184 3.11 3.11 0 0 1 1.632-.432c.939 0 1.685.288 2.24.864.565.565.848 1.44.848 2.624v4.64h-1.344v-4.496c0-.821-.171-1.44-.512-1.856-.341-.416-.853-.624-1.536-.624s-1.253.25-1.712.752c-.448.49-.672 1.195-.672 2.112v4.112h-1.344zM423.239 185.25v-11.2h3.44c1.322 0 2.405.229 3.248.688a4.203 4.203 0 0 1 1.888 1.936c.416.832.624 1.835.624 3.008 0 1.152-.208 2.144-.624 2.976-.406.832-1.035 1.472-1.888 1.92-.843.448-1.926.672-3.248.672h-3.44zm1.344-1.12h2.064c1.066 0 1.92-.171 2.56-.512a3.098 3.098 0 0 0 1.408-1.52c.288-.672.432-1.477.432-2.416 0-1.525-.352-2.656-1.056-3.392-.704-.747-1.819-1.12-3.344-1.12h-2.064v8.96zm12.356 1.312c-.544 0-1.04-.091-1.488-.272a2.425 2.425 0 0 1-1.072-.816c-.256-.373-.384-.827-.384-1.36 0-.619.16-1.109.48-1.472.32-.373.742-.64 1.264-.8a5.578 5.578 0 0 1 1.712-.256h2.144c0-.555-.096-.992-.288-1.312a1.595 1.595 0 0 0-.72-.688 2.319 2.319 0 0 0-.992-.208c-.522 0-.976.128-1.36.384-.373.245-.608.629-.704 1.152h-1.376c.054-.576.246-1.061.576-1.456a3.131 3.131 0 0 1 1.248-.896 4.167 4.167 0 0 1 1.616-.32c.8 0 1.446.149 1.936.448a2.57 2.57 0 0 1 1.072 1.168c.224.491.336 1.035.336 1.632v2.432c0 .395.048.693.144.896.096.203.342.325.736.368v1.184c-.352 0-.672-.043-.96-.128a1.85 1.85 0 0 1-.736-.448c-.192-.213-.33-.491-.416-.832a3.484 3.484 0 0 1-1.104 1.136c-.458.309-1.013.464-1.664.464zm.208-1.136c.534 0 .982-.133 1.344-.4.363-.277.635-.629.816-1.056.192-.427.288-.869.288-1.328v-.016h-2.032c-.373 0-.725.043-1.056.128-.33.075-.597.219-.8.432-.202.203-.304.491-.304.864 0 .48.171.832.512 1.056.342.213.752.32 1.232.32zm9.21.944c-.725 0-1.296-.176-1.712-.528-.416-.352-.624-.987-.624-1.904v-4.368h-1.376v-1.136h1.376v-1.904h1.344v1.904h2.224v1.136h-2.224v4.368c0 .501.102.843.304 1.024.203.171.56.256 1.072.256h.848v1.152h-1.232zm5.692.192c-.544 0-1.04-.091-1.488-.272a2.42 2.42 0 0 1-1.072-.816c-.256-.373-.384-.827-.384-1.36 0-.619.16-1.109.48-1.472.32-.373.741-.64 1.264-.8a5.574 5.574 0 0 1 1.712-.256h2.144c0-.555-.096-.992-.288-1.312a1.605 1.605 0 0 0-.72-.688 2.325 2.325 0 0 0-.992-.208c-.523 0-.976.128-1.36.384-.374.245-.608.629-.704 1.152h-1.376c.053-.576.245-1.061.576-1.456.33-.395.746-.693 1.248-.896a4.164 4.164 0 0 1 1.616-.32c.8 0 1.445.149 1.936.448.49.288.848.677 1.072 1.168.224.491.336 1.035.336 1.632v2.432c0 .395.048.693.144.896.096.203.341.325.736.368v1.184c-.352 0-.672-.043-.96-.128a1.843 1.843 0 0 1-.736-.448 1.91 1.91 0 0 1-.416-.832 3.504 3.504 0 0 1-1.104 1.136c-.459.309-1.014.464-1.664.464zm.208-1.136c.533 0 .981-.133 1.344-.4a2.58 2.58 0 0 0 .816-1.056c.192-.427.288-.869.288-1.328v-.016h-2.032a4.22 4.22 0 0 0-1.056.128 1.54 1.54 0 0 0-.8.432c-.203.203-.304.491-.304.864 0 .48.17.832.512 1.056.341.213.752.32 1.232.32zm-42.394 19.944 4.128-11.2h1.424l4.112 11.2h-1.424l-1.024-2.88h-4.768l-1.04 2.88h-1.408zm2.848-3.968h3.968l-1.984-5.536-1.984 5.536zm8.401 3.968v-7.936h1.216l.08 1.424a2.884 2.884 0 0 1 1.104-1.184 3.11 3.11 0 0 1 1.632-.432c.938 0 1.685.288 2.24.864.565.565.848 1.44.848 2.624v4.64h-1.344v-4.496c0-.821-.171-1.44-.512-1.856-.342-.416-.854-.624-1.536-.624-.683 0-1.254.251-1.712.752-.448.491-.672 1.195-.672 2.112v4.112h-1.344zm11.812.192c-.544 0-1.04-.091-1.488-.272a2.42 2.42 0 0 1-1.072-.816c-.256-.373-.384-.827-.384-1.36 0-.619.16-1.109.48-1.472.32-.373.741-.64 1.264-.8a5.574 5.574 0 0 1 1.712-.256h2.144c0-.555-.096-.992-.288-1.312a1.605 1.605 0 0 0-.72-.688 2.325 2.325 0 0 0-.992-.208c-.523 0-.976.128-1.36.384-.374.245-.608.629-.704 1.152h-1.376c.053-.576.245-1.061.576-1.456.33-.395.746-.693 1.248-.896a4.164 4.164 0 0 1 1.616-.32c.8 0 1.445.149 1.936.448.49.288.848.677 1.072 1.168.224.491.336 1.035.336 1.632v2.432c0 .395.048.693.144.896.096.203.341.325.736.368v1.184c-.352 0-.672-.043-.96-.128a1.843 1.843 0 0 1-.736-.448 1.91 1.91 0 0 1-.416-.832 3.504 3.504 0 0 1-1.104 1.136c-.459.309-1.014.464-1.664.464zm.208-1.136c.533 0 .981-.133 1.344-.4a2.58 2.58 0 0 0 .816-1.056c.192-.427.288-.869.288-1.328v-.016h-2.032a4.22 4.22 0 0 0-1.056.128 1.54 1.54 0 0 0-.8.432c-.203.203-.304.491-.304.864 0 .48.17.832.512 1.056.341.213.752.32 1.232.32zm6.292.944v-11.2h1.344v11.2h-1.344zm4.411 3.52 1.76-3.84-3.408-7.616h1.456l2.624 6.176 2.784-6.176h1.392l-5.2 11.456h-1.408zm10.598-3.328c-.629 0-1.195-.107-1.696-.32a3.136 3.136 0 0 1-1.216-.928 3.057 3.057 0 0 1-.56-1.424h1.376c.085.416.304.779.656 1.088.363.299.848.448 1.456.448.565 0 .981-.117 1.248-.352.267-.245.4-.533.4-.864 0-.32-.08-.565-.24-.736-.149-.171-.373-.299-.672-.384a9.027 9.027 0 0 0-1.072-.272 9.266 9.266 0 0 1-1.312-.384 2.973 2.973 0 0 1-1.056-.688c-.277-.288-.416-.667-.416-1.136 0-.469.117-.88.352-1.232s.565-.629.992-.832c.437-.203.949-.304 1.536-.304.843 0 1.531.213 2.064.64.544.416.859 1.013.944 1.792h-1.328c-.053-.405-.229-.72-.528-.944-.288-.235-.677-.352-1.168-.352-.48 0-.853.101-1.12.304a.97.97 0 0 0-.384.8c0 .213.075.395.224.544.149.149.363.277.64.384.288.107.624.203 1.008.288.533.107 1.019.24 1.456.4.437.16.789.395 1.056.704.267.299.4.731.4 1.296.011.469-.112.891-.368 1.264-.245.373-.597.667-1.056.88-.448.213-.987.32-1.616.32zm5.776-9.888a.94.94 0 0 1-.672-.256.94.94 0 0 1-.256-.672c0-.256.085-.469.256-.64a.94.94 0 0 1 .672-.256.92.92 0 0 1 .656.256.844.844 0 0 1 .272.64.913.913 0 0 1-.272.672.92.92 0 0 1-.656.256zm-.672 9.696v-7.936h1.344v7.936h-1.344zm6.724.192c-.629 0-1.194-.107-1.696-.32a3.143 3.143 0 0 1-1.216-.928 3.067 3.067 0 0 1-.56-1.424h1.376c.086.416.304.779.656 1.088.363.299.848.448 1.456.448.566 0 .982-.117 1.248-.352.267-.245.4-.533.4-.864 0-.32-.08-.565-.24-.736-.149-.171-.373-.299-.672-.384a9.027 9.027 0 0 0-1.072-.272 9.266 9.266 0 0 1-1.312-.384 2.99 2.99 0 0 1-1.056-.688c-.277-.288-.416-.667-.416-1.136 0-.469.118-.88.352-1.232.235-.352.566-.629.992-.832.438-.203.95-.304 1.536-.304.843 0 1.531.213 2.064.64.544.416.859 1.013.944 1.792h-1.328c-.053-.405-.229-.72-.528-.944-.288-.235-.677-.352-1.168-.352-.48 0-.853.101-1.12.304a.97.97 0 0 0-.384.8c0 .213.075.395.224.544.15.149.363.277.64.384.288.107.624.203 1.008.288.534.107 1.019.24 1.456.4.438.16.79.395 1.056.704.267.299.4.731.4 1.296.011.469-.112.891-.368 1.264-.245.373-.597.667-1.056.88-.448.213-.986.32-1.616.32zM212.918 332.25v-11.2h3.696c.79 0 1.467.117 2.032.352.566.235 1.003.587 1.312 1.056.31.469.464 1.056.464 1.76 0 .725-.165 1.323-.496 1.792-.32.469-.768.816-1.344 1.04-.565.224-1.221.336-1.968.336h-2.352v4.864h-1.344zm1.344-6h2.32c.896 0 1.531-.171 1.904-.512.374-.352.56-.859.56-1.52 0-.672-.186-1.179-.56-1.52-.373-.352-1.008-.528-1.904-.528h-2.32v4.08zm7.842 6v-7.936h1.216l.112 1.52a2.873 2.873 0 0 1 1.12-1.248c.501-.309 1.12-.464 1.856-.464v1.408h-.368c-.875 0-1.525.235-1.952.704-.427.469-.64 1.141-.64 2.016v4h-1.344zm9.084.192a3.961 3.961 0 0 1-2-.512 3.682 3.682 0 0 1-1.392-1.44c-.342-.629-.512-1.365-.512-2.208 0-.832.16-1.557.48-2.176a3.55 3.55 0 0 1 1.376-1.456c.597-.352 1.29-.528 2.08-.528.746 0 1.397.165 1.952.496a3.5 3.5 0 0 1 1.296 1.344c.32.555.48 1.179.48 1.872v.352c0 .085-.006.219-.016.4h-6.32c.032.523.154.992.368 1.408.224.405.522.725.896.96.384.235.821.352 1.312.352.554 0 1.018-.128 1.392-.384.373-.256.645-.603.816-1.04h1.328a3.523 3.523 0 0 1-.688 1.312c-.32.384-.72.688-1.2.912-.47.224-1.019.336-1.648.336zm-2.56-4.896h4.992c-.032-.715-.278-1.275-.736-1.68-.459-.405-1.024-.608-1.696-.608a2.69 2.69 0 0 0-1.712.592c-.491.384-.774.949-.848 1.696zm11.701 4.896c-.811 0-1.509-.187-2.096-.56a3.776 3.776 0 0 1-1.36-1.504c-.32-.629-.48-1.333-.48-2.112 0-.768.155-1.467.464-2.096a3.668 3.668 0 0 1 1.36-1.488c.587-.373 1.296-.56 2.128-.56.651 0 1.227.133 1.728.4.501.267.891.64 1.168 1.12v-4.592h1.344v11.2h-1.216l-.128-1.312c-.256.384-.624.731-1.104 1.04-.48.309-1.083.464-1.808.464zm.144-1.168c.587 0 1.083-.133 1.488-.4.405-.277.709-.64.912-1.088.213-.459.32-.96.32-1.504 0-.576-.107-1.088-.32-1.536a2.482 2.482 0 0 0-.928-1.056c-.405-.267-.896-.4-1.472-.4-.512 0-.971.123-1.376.368a2.7 2.7 0 0 0-.976 1.04c-.235.437-.352.965-.352 1.584 0 .619.123 1.152.368 1.6a2.7 2.7 0 0 0 .976 1.04c.416.235.869.352 1.36.352zm7.119-8.72a.94.94 0 0 1-.672-.256.94.94 0 0 1-.256-.672c0-.256.085-.469.256-.64a.94.94 0 0 1 .672-.256.92.92 0 0 1 .656.256.844.844 0 0 1 .272.64.913.913 0 0 1-.272.672.92.92 0 0 1-.656.256zm-.672 9.696v-7.936h1.344v7.936h-1.344zm7.332.192a4.081 4.081 0 0 1-2.032-.512 3.767 3.767 0 0 1-1.424-1.44c-.352-.629-.528-1.365-.528-2.208 0-.821.171-1.541.512-2.16a3.744 3.744 0 0 1 1.408-1.472c.597-.352 1.285-.528 2.064-.528.939 0 1.728.245 2.368.736.651.491 1.061 1.147 1.232 1.968h-1.376a1.736 1.736 0 0 0-.784-1.136c-.416-.277-.901-.416-1.456-.416-.565 0-1.04.139-1.424.416a2.653 2.653 0 0 0-.88 1.104 3.817 3.817 0 0 0-.288 1.488c0 .587.112 1.109.336 1.568.224.459.528.816.912 1.072.395.256.843.384 1.344.384.555 0 1.04-.133 1.456-.4a1.8 1.8 0 0 0 .784-1.168h1.376a3.176 3.176 0 0 1-.656 1.408 3.51 3.51 0 0 1-1.248.96c-.501.224-1.067.336-1.696.336zm8.457-.192c-.726 0-1.296-.176-1.712-.528-.416-.352-.624-.987-.624-1.904v-4.368h-1.376v-1.136h1.376v-1.904h1.344v1.904h2.224v1.136h-2.224v4.368c0 .501.101.843.304 1.024.202.171.56.256 1.072.256h.848v1.152h-1.232zm3.867-9.696a.944.944 0 0 1-.672-.256.945.945 0 0 1-.256-.672c0-.256.086-.469.256-.64a.944.944 0 0 1 .672-.256.92.92 0 0 1 .656.256.84.84 0 0 1 .272.64.91.91 0 0 1-.272.672.92.92 0 0 1-.656.256zm-.672 9.696v-7.936h1.344v7.936h-1.344zm5.972 0-3.008-7.936h1.408l2.384 6.64 2.4-6.64h1.376l-3.008 7.936h-1.552zm9.218.192a3.961 3.961 0 0 1-2-.512 3.682 3.682 0 0 1-1.392-1.44c-.341-.629-.512-1.365-.512-2.208 0-.832.16-1.557.48-2.176a3.556 3.556 0 0 1 1.376-1.456c.597-.352 1.291-.528 2.08-.528.747 0 1.397.165 1.952.496.555.331.987.779 1.296 1.344.32.555.48 1.179.48 1.872v.352c0 .085-.005.219-.016.4h-6.32c.032.523.155.992.368 1.408.224.405.523.725.896.96.384.235.821.352 1.312.352.555 0 1.019-.128 1.392-.384s.645-.603.816-1.04h1.328a3.523 3.523 0 0 1-.688 1.312c-.32.384-.72.688-1.2.912-.469.224-1.019.336-1.648.336zm-2.56-4.896h4.992c-.032-.715-.277-1.275-.736-1.68-.459-.405-1.024-.608-1.696-.608a2.69 2.69 0 0 0-1.712.592c-.491.384-.773.949-.848 1.696zm-60.131 23.704v-11.2h1.568l3.872 7.776 3.84-7.776h1.584v11.2h-1.344v-8.768l-3.584 7.168h-1.008l-3.584-7.152v8.752h-1.344zm16.818.192c-.725 0-1.392-.16-2-.48a3.736 3.736 0 0 1-1.456-1.424c-.363-.629-.544-1.387-.544-2.272 0-.843.176-1.573.528-2.192a3.848 3.848 0 0 1 1.456-1.44c.619-.341 1.312-.512 2.08-.512.736 0 1.408.16 2.016.48.619.32 1.115.789 1.488 1.408.373.619.56 1.371.56 2.256 0 .811-.176 1.531-.528 2.16a3.875 3.875 0 0 1-1.472 1.488c-.619.352-1.328.528-2.128.528zm0-1.168c.523 0 .992-.123 1.408-.368a2.78 2.78 0 0 0 .992-1.056c.245-.448.368-.976.368-1.584 0-.576-.107-1.088-.32-1.536a2.482 2.482 0 0 0-.928-1.056c-.405-.256-.896-.384-1.472-.384-.587 0-1.083.133-1.488.4a2.52 2.52 0 0 0-.896 1.072 3.602 3.602 0 0 0-.304 1.504c0 .704.128 1.28.384 1.728.256.437.587.763.992.976.405.203.827.304 1.264.304zm9.592 1.168c-.81 0-1.509-.187-2.096-.56a3.783 3.783 0 0 1-1.36-1.504c-.32-.629-.48-1.333-.48-2.112 0-.768.155-1.467.464-2.096a3.675 3.675 0 0 1 1.36-1.488c.587-.373 1.296-.56 2.128-.56.651 0 1.227.133 1.728.4.502.267.891.64 1.168 1.12v-4.592h1.344v11.2h-1.216l-.128-1.312c-.256.384-.624.731-1.104 1.04-.48.309-1.082.464-1.808.464zm.144-1.168c.587 0 1.083-.133 1.488-.4.406-.277.71-.64.912-1.088.214-.459.32-.96.32-1.504 0-.576-.106-1.088-.32-1.536a2.475 2.475 0 0 0-.928-1.056c-.405-.267-.896-.4-1.472-.4-.512 0-.97.123-1.376.368-.405.245-.73.592-.976 1.04-.234.437-.352.965-.352 1.584 0 .619.123 1.152.368 1.6.246.448.571.795.976 1.04.416.235.87.352 1.36.352zm9.871 1.168a3.964 3.964 0 0 1-2-.512 3.696 3.696 0 0 1-1.392-1.44c-.341-.629-.512-1.365-.512-2.208 0-.832.16-1.557.48-2.176a3.563 3.563 0 0 1 1.376-1.456c.598-.352 1.291-.528 2.08-.528.747 0 1.398.165 1.952.496.555.331.987.779 1.296 1.344.32.555.48 1.179.48 1.872v.352c0 .085-.005.219-.016.4h-6.32c.032.523.155.992.368 1.408.224.405.523.725.896.96.384.235.822.352 1.312.352.555 0 1.019-.128 1.392-.384a2.19 2.19 0 0 0 .816-1.04h1.328a3.509 3.509 0 0 1-.688 1.312c-.32.384-.72.688-1.2.912-.469.224-1.018.336-1.648.336zm-2.56-4.896h4.992c-.032-.715-.277-1.275-.736-1.68-.458-.405-1.024-.608-1.696-.608-.64 0-1.21.197-1.712.592-.49.384-.773.949-.848 1.696zm8.102 4.704v-11.2h1.344v11.2h-1.344zm4.363-9.696a.94.94 0 0 1-.672-.256.94.94 0 0 1-.256-.672c0-.256.085-.469.256-.64a.94.94 0 0 1 .672-.256c.256 0 .474.085.656.256a.844.844 0 0 1 .272.64.913.913 0 0 1-.272.672.923.923 0 0 1-.656.256zm-.672 9.696v-7.936h1.344v7.936h-1.344zm3.684 0v-7.936h1.216l.08 1.424a2.884 2.884 0 0 1 1.104-1.184 3.11 3.11 0 0 1 1.632-.432c.938 0 1.685.288 2.24.864.565.565.848 1.44.848 2.624v4.64h-1.344v-4.496c0-.821-.171-1.44-.512-1.856-.342-.416-.854-.624-1.536-.624-.683 0-1.254.251-1.712.752-.448.491-.672 1.195-.672 2.112v4.112h-1.344zm12.324 3.712c-.63 0-1.232-.08-1.808-.24-.576-.16-1.046-.432-1.408-.816-.352-.373-.528-.875-.528-1.504 0-.437.101-.8.304-1.088a1.92 1.92 0 0 1 .8-.656 1.976 1.976 0 0 1-.624-.56c-.16-.224-.24-.48-.24-.768 0-.64.288-1.157.864-1.552a3.065 3.065 0 0 1-.512-.816 2.852 2.852 0 0 1-.176-1.024c0-.587.133-1.088.4-1.504.277-.427.65-.752 1.12-.976.48-.224 1.024-.336 1.632-.336.448 0 .869.064 1.264.192h2.704v1.136h-1.232c.138.213.24.448.304.704.074.245.112.507.112.784 0 .608-.144 1.12-.432 1.536a2.713 2.713 0 0 1-1.136.96c-.47.213-.998.32-1.584.32-.299 0-.571-.032-.816-.096a4.108 4.108 0 0 1-.736-.272c-.278.139-.417.352-.417.64 0 .533.449.8 1.345.8h1.328c.597 0 1.125.08 1.584.24.458.149.816.4 1.072.752.266.341.4.811.4 1.408 0 .608-.171 1.115-.512 1.52a3.131 3.131 0 0 1-1.328.912 4.95 4.95 0 0 1-1.744.304zm-.033-1.12c.641 0 1.185-.123 1.633-.368.448-.235.672-.597.672-1.088 0-.917-.555-1.376-1.664-1.376h-1.36c-.523 0-.934.112-1.232.336-.299.235-.448.581-.448 1.04 0 .352.112.635.336.848.224.213.517.368.88.464a4.61 4.61 0 0 0 1.183.144zm-.175-6.208c.554 0 1.008-.16 1.36-.48.352-.32.528-.725.528-1.216s-.176-.896-.528-1.216c-.352-.32-.806-.48-1.36-.48-.555 0-1.003.16-1.344.48-.331.32-.496.725-.496 1.216s.16.896.48 1.216c.33.32.784.48 1.36.48zM.824 199.25l4.128-11.2h1.424l4.112 11.2H9.064l-1.024-2.88H3.272l-1.04 2.88H.824zm2.848-3.968H7.64l-1.984-5.536-1.984 5.536zm11.563 4.16c-.81 0-1.51-.187-2.096-.56a3.778 3.778 0 0 1-1.36-1.504c-.32-.629-.48-1.333-.48-2.112 0-.768.155-1.467.464-2.096a3.67 3.67 0 0 1 1.36-1.488c.587-.373 1.296-.56 2.128-.56.65 0 1.227.133 1.728.4.502.267.89.64 1.168 1.12v-4.592h1.344v11.2h-1.216l-.128-1.312c-.256.384-.624.731-1.104 1.04-.48.309-1.082.464-1.808.464zm.144-1.168c.587 0 1.083-.133 1.488-.4.406-.277.71-.64.912-1.088.214-.459.32-.96.32-1.504 0-.576-.106-1.088-.32-1.536a2.482 2.482 0 0 0-.928-1.056c-.405-.267-.896-.4-1.472-.4-.512 0-.97.123-1.376.368a2.7 2.7 0 0 0-.976 1.04c-.234.437-.352.965-.352 1.584 0 .619.123 1.152.368 1.6a2.7 2.7 0 0 0 .976 1.04c.416.235.87.352 1.36.352zm8.591.976-3.008-7.936h1.408l2.384 6.64 2.4-6.64h1.376l-3.008 7.936H23.97zm9.218.192a3.963 3.963 0 0 1-2-.512 3.687 3.687 0 0 1-1.392-1.44c-.342-.629-.512-1.365-.512-2.208 0-.832.16-1.557.48-2.176.33-.629.789-1.115 1.376-1.456.597-.352 1.29-.528 2.08-.528.746 0 1.397.165 1.952.496a3.49 3.49 0 0 1 1.296 1.344c.32.555.48 1.179.48 1.872v.352c0 .085-.006.219-.016.4h-6.32c.032.523.154.992.368 1.408.224.405.522.725.896.96.384.235.821.352 1.312.352.554 0 1.018-.128 1.392-.384.373-.256.645-.603.816-1.04h1.328a3.517 3.517 0 0 1-.688 1.312c-.32.384-.72.688-1.2.912-.47.224-1.019.336-1.648.336zm-2.56-4.896h4.992c-.032-.715-.278-1.275-.736-1.68-.459-.405-1.024-.608-1.696-.608-.64 0-1.211.197-1.712.592-.491.384-.774.949-.848 1.696zm8.101 4.704v-7.936h1.216l.112 1.52a2.873 2.873 0 0 1 1.12-1.248c.501-.309 1.12-.464 1.856-.464v1.408h-.368c-.875 0-1.525.235-1.952.704-.427.469-.64 1.141-.64 2.016v4h-1.344zm8.949 0c-.726 0-1.296-.176-1.712-.528-.416-.352-.624-.987-.624-1.904v-4.368h-1.377v-1.136h1.377v-1.904h1.343v1.904h2.224v1.136h-2.224v4.368c0 .501.102.843.304 1.024.203.171.56.256 1.073.256h.848v1.152h-1.232zm3.867-9.696a.942.942 0 0 1-.672-.256.942.942 0 0 1-.256-.672c0-.256.085-.469.256-.64a.942.942 0 0 1 .672-.256c.256 0 .475.085.656.256a.843.843 0 0 1 .272.64c0 .267-.09.491-.272.672a.921.921 0 0 1-.656.256zm-.672 9.696v-7.936h1.344v7.936h-1.344zm6.724.192c-.63 0-1.194-.107-1.696-.32a3.136 3.136 0 0 1-1.216-.928 3.058 3.058 0 0 1-.56-1.424h1.376c.086.416.304.779.656 1.088.363.299.848.448 1.456.448.566 0 .981-.117 1.248-.352.267-.245.4-.533.4-.864 0-.32-.08-.565-.24-.736-.15-.171-.373-.299-.672-.384a9.042 9.042 0 0 0-1.072-.272 9.254 9.254 0 0 1-1.312-.384 2.98 2.98 0 0 1-1.056-.688c-.277-.288-.416-.667-.416-1.136 0-.469.117-.88.352-1.232s.566-.629.992-.832c.438-.203.95-.304 1.536-.304.843 0 1.53.213 2.064.64.544.416.859 1.013.944 1.792h-1.328c-.053-.405-.23-.72-.528-.944-.288-.235-.677-.352-1.168-.352-.48 0-.853.101-1.12.304a.97.97 0 0 0-.384.8.74.74 0 0 0 .224.544c.15.149.363.277.64.384.288.107.624.203 1.008.288.533.107 1.019.24 1.456.4.438.16.79.395 1.056.704.267.299.4.731.4 1.296.01.469-.112.891-.368 1.264-.245.373-.597.667-1.056.88-.448.213-.986.32-1.616.32zm5.776-9.888a.942.942 0 0 1-.672-.256.942.942 0 0 1-.256-.672.87.87 0 0 1 .256-.64.942.942 0 0 1 .672-.256c.256 0 .475.085.656.256a.843.843 0 0 1 .272.64c0 .267-.09.491-.272.672a.921.921 0 0 1-.656.256zm-.672 9.696v-7.936h1.344v7.936h-1.344zm3.684 0v-7.936h1.216l.08 1.424a2.884 2.884 0 0 1 1.104-1.184 3.11 3.11 0 0 1 1.632-.432c.939 0 1.686.288 2.24.864.566.565.848 1.44.848 2.624v4.64h-1.344v-4.496c0-.821-.17-1.44-.512-1.856-.341-.416-.853-.624-1.536-.624-.682 0-1.253.251-1.712.752-.448.491-.672 1.195-.672 2.112v4.112h-1.344zm12.324 3.712c-.63 0-1.232-.08-1.808-.24-.576-.16-1.045-.432-1.408-.816-.352-.373-.528-.875-.528-1.504 0-.437.102-.8.304-1.088.203-.288.47-.507.8-.656a1.976 1.976 0 0 1-.624-.56c-.16-.224-.24-.48-.24-.768 0-.64.288-1.157.864-1.552a3.083 3.083 0 0 1-.512-.816 2.867 2.867 0 0 1-.176-1.024c0-.587.133-1.088.4-1.504.277-.427.65-.752 1.12-.976.48-.224 1.024-.336 1.632-.336.448 0 .87.064 1.264.192h2.704v1.136H81.27c.139.213.24.448.304.704.075.245.112.507.112.784 0 .608-.144 1.12-.432 1.536a2.709 2.709 0 0 1-1.136.96 3.79 3.79 0 0 1-1.584.32c-.299 0-.57-.032-.816-.096a4.14 4.14 0 0 1-.736-.272c-.277.139-.416.352-.416.64 0 .533.448.8 1.344.8h1.328c.598 0 1.126.08 1.584.24.459.149.816.4 1.072.752.267.341.4.811.4 1.408 0 .608-.17 1.115-.512 1.52a3.127 3.127 0 0 1-1.328.912 4.947 4.947 0 0 1-1.744.304zm-.032-1.12c.64 0 1.184-.123 1.632-.368.448-.235.672-.597.672-1.088 0-.917-.554-1.376-1.664-1.376h-1.36c-.522 0-.933.112-1.232.336-.298.235-.448.581-.448 1.04 0 .352.112.635.336.848.224.213.517.368.88.464.363.096.758.144 1.184.144zm-.176-6.208c.555 0 1.008-.16 1.36-.48.352-.32.528-.725.528-1.216s-.176-.896-.528-1.216c-.352-.32-.805-.48-1.36-.48s-1.002.16-1.344.48c-.33.32-.496.725-.496 1.216s.16.896.48 1.216c.33.32.784.48 1.36.48zm-61.304 22.808c-.757 0-1.445-.139-2.064-.416a3.495 3.495 0 0 1-1.456-1.2c-.352-.533-.528-1.179-.528-1.936h1.408c0 .747.246 1.339.736 1.776.491.427 1.126.64 1.904.64.683 0 1.248-.165 1.696-.496.459-.331.688-.8.688-1.408 0-.416-.074-.747-.224-.992a1.57 1.57 0 0 0-.64-.624 5.84 5.84 0 0 0-1.088-.48l-1.552-.528a6.91 6.91 0 0 1-1.376-.656 2.656 2.656 0 0 1-.864-.896c-.202-.363-.304-.795-.304-1.296-.01-.661.139-1.216.448-1.664.32-.459.747-.805 1.28-1.04a4.314 4.314 0 0 1 1.792-.368c.662 0 1.254.123 1.776.368.534.235.96.587 1.28 1.056.32.459.486 1.019.496 1.68h-1.408c0-.565-.202-1.029-.608-1.392-.405-.373-.933-.56-1.584-.56-.576-.021-1.066.123-1.472.432-.405.309-.608.763-.608 1.36 0 .395.08.709.24.944.171.224.459.421.864.592.406.171.966.379 1.68.624.512.171.971.352 1.376.544.406.181.747.4 1.024.656.278.245.491.544.64.896.15.341.224.763.224 1.264 0 .672-.176 1.243-.528 1.712-.341.459-.8.811-1.376 1.056a4.83 4.83 0 0 1-1.872.352zm8.738-.192c-.725 0-1.296-.176-1.712-.528-.416-.352-.624-.987-.624-1.904v-4.368h-1.376v-1.136H23.6v-1.904h1.344v1.904h2.224v1.136h-2.224v4.368c0 .501.102.843.304 1.024.203.171.56.256 1.072.256h.848v1.152h-1.232zm3.052 0v-7.936h1.216l.112 1.52a2.873 2.873 0 0 1 1.12-1.248c.501-.309 1.12-.464 1.856-.464v1.408h-.368c-.875 0-1.526.235-1.952.704-.427.469-.64 1.141-.64 2.016v4h-1.344zm8.452.192c-.544 0-1.04-.091-1.488-.272a2.423 2.423 0 0 1-1.072-.816c-.256-.373-.384-.827-.384-1.36 0-.619.16-1.109.48-1.472.32-.373.742-.64 1.264-.8a5.575 5.575 0 0 1 1.712-.256h2.144c0-.555-.096-.992-.288-1.312a1.598 1.598 0 0 0-.72-.688 2.322 2.322 0 0 0-.992-.208c-.522 0-.976.128-1.36.384-.373.245-.608.629-.704 1.152h-1.376c.054-.576.246-1.061.576-1.456.331-.395.747-.693 1.248-.896a4.166 4.166 0 0 1 1.616-.32c.8 0 1.446.149 1.936.448.491.288.848.677 1.072 1.168.224.491.336 1.035.336 1.632v2.432c0 .395.048.693.144.896.096.203.342.325.736.368v1.184c-.352 0-.672-.043-.96-.128a1.848 1.848 0 0 1-.736-.448c-.192-.213-.33-.491-.416-.832a3.498 3.498 0 0 1-1.104 1.136c-.458.309-1.013.464-1.664.464zm.208-1.136c.534 0 .982-.133 1.344-.4.363-.277.635-.629.816-1.056.192-.427.288-.869.288-1.328v-.016h-2.032c-.373 0-.725.043-1.056.128-.33.075-.597.219-.8.432-.202.203-.304.491-.304.864 0 .48.171.832.512 1.056.342.213.752.32 1.232.32zm9.21.944c-.725 0-1.296-.176-1.712-.528-.416-.352-.624-.987-.624-1.904v-4.368h-1.376v-1.136h1.376v-1.904h1.344v1.904h2.224v1.136h-2.224v4.368c0 .501.102.843.304 1.024.203.171.56.256 1.072.256h.848v1.152h-1.232zm6.4.192a3.963 3.963 0 0 1-2-.512 3.687 3.687 0 0 1-1.391-1.44c-.341-.629-.512-1.365-.512-2.208 0-.832.16-1.557.48-2.176.33-.629.79-1.115 1.376-1.456.597-.352 1.29-.528 2.08-.528.747 0 1.397.165 1.952.496a3.49 3.49 0 0 1 1.296 1.344c.32.555.48 1.179.48 1.872v.352c0 .085-.005.219-.016.4h-6.32c.032.523.155.992.368 1.408.224.405.523.725.896.96.384.235.821.352 1.312.352.555 0 1.019-.128 1.392-.384s.645-.603.816-1.04h1.328a3.517 3.517 0 0 1-.688 1.312c-.32.384-.72.688-1.2.912-.47.224-1.019.336-1.648.336zm-2.56-4.896h4.993c-.032-.715-.277-1.275-.736-1.68-.459-.405-1.024-.608-1.696-.608-.64 0-1.21.197-1.712.592-.49.384-.773.949-.848 1.696zm11.254 8.416c-.629 0-1.232-.08-1.808-.24-.576-.16-1.045-.432-1.408-.816-.352-.373-.528-.875-.528-1.504 0-.437.102-.8.304-1.088.203-.288.47-.507.8-.656a1.976 1.976 0 0 1-.624-.56c-.16-.224-.24-.48-.24-.768 0-.64.288-1.157.864-1.552a3.083 3.083 0 0 1-.512-.816 2.867 2.867 0 0 1-.176-1.024c0-.587.134-1.088.4-1.504.278-.427.651-.752 1.12-.976.48-.224 1.024-.336 1.632-.336.448 0 .87.064 1.264.192h2.704v1.136h-1.232c.139.213.24.448.304.704.075.245.112.507.112.784 0 .608-.144 1.12-.432 1.536a2.709 2.709 0 0 1-1.136.96 3.79 3.79 0 0 1-1.584.32c-.298 0-.57-.032-.816-.096a4.136 4.136 0 0 1-.736-.272c-.277.139-.416.352-.416.64 0 .533.448.8 1.344.8h1.328c.598 0 1.126.08 1.584.24.459.149.816.4 1.072.752.267.341.4.811.4 1.408 0 .608-.17 1.115-.512 1.52a3.127 3.127 0 0 1-1.328.912 4.947 4.947 0 0 1-1.744.304zm-.032-1.12c.64 0 1.184-.123 1.632-.368.448-.235.672-.597.672-1.088 0-.917-.554-1.376-1.664-1.376H61.2c-.522 0-.933.112-1.232.336-.298.235-.448.581-.448 1.04 0 .352.112.635.336.848.224.213.518.368.88.464.363.096.758.144 1.184.144zm-.176-6.208c.555 0 1.008-.16 1.36-.48.352-.32.528-.725.528-1.216s-.176-.896-.528-1.216c-.352-.32-.805-.48-1.36-.48-.554 0-1.002.16-1.344.48-.33.32-.496.725-.496 1.216s.16.896.48 1.216c.331.32.784.48 1.36.48zm6.39 7.136 1.76-3.84-3.409-7.616h1.456l2.624 6.176 2.784-6.176h1.392l-5.2 11.456h-1.408z" fill="#6B6B6B"/></svg>