<svg width="521" height="415" fill="none" xmlns="http://www.w3.org/2000/svg"><path fill-rule="evenodd" clip-rule="evenodd" d="M260.098 295.004s-1.31-.814-3.595-1.963v95.793c0 9.914-8.062 17.976-17.976 17.976-9.913 0-17.975-8.062-17.975-17.976a3.595 3.595 0 0 0-3.596-3.595 3.594 3.594 0 0 0-3.595 3.595c0 13.877 11.289 25.166 25.166 25.166s25.166-11.289 25.166-25.166v-95.793c-2.285 1.149-3.595 1.963-3.595 1.963z" fill="#666"/><path fill-rule="evenodd" clip-rule="evenodd" d="M389.524 293.003s-15.189-9.437-32.356-9.437-32.356 9.437-32.356 9.437c0-110.766-64.712-129.425-64.712-129.425 72.199 0 129.424 57.945 129.424 129.425z" fill="#E0CB15"/><path d="M98.32 303.789c0-102.462 69.457-172.567 161.78-172.567 92.323 0 161.781 70.105 161.781 172.567" stroke="#959595" stroke-width="1.798" stroke-linecap="round" stroke-linejoin="round"/><path fill-rule="evenodd" clip-rule="evenodd" d="M413.793 260.647a3.595 3.595 0 1 0 7.19 0 3.595 3.595 0 0 0-7.19 0zM461.257 198.548c22.305-8.15 46.975 3.397 55.087 25.78 8.122 22.383-3.384 47.139-25.69 55.28-20.039 7.314-41.969-1.258-52.105-19.301l-13.073-2.795 8.229-10.576c-3.788-20.361 7.521-41.082 27.552-48.397v.009zm-15.589 51.596c6.089 16.785 24.588 25.447 41.315 19.337 16.727-6.11 25.359-24.675 19.27-41.46-6.089-16.785-24.589-25.447-41.316-19.337-16.726 6.11-25.358 24.675-19.269 41.46z" fill="#E0CB15"/><path d="M440.463 164v-11.2h3.888c.779 0 1.451.128 2.016.384.576.245 1.024.608 1.344 1.088.32.48.48 1.067.48 1.76 0 .8-.213 1.44-.64 1.92-.427.48-1.008.811-1.744.992l3.12 5.056h-2.416l-2.752-4.72h-1.248V164h-2.048zm2.048-6.464h1.792c.48 0 .848-.064 1.104-.192.267-.139.448-.32.544-.544.107-.224.16-.48.16-.768a1.76 1.76 0 0 0-.16-.768c-.096-.224-.277-.4-.544-.528-.256-.128-.624-.192-1.104-.192h-1.792v2.992zm10.393 6.656c-.832 0-1.552-.181-2.16-.544a3.751 3.751 0 0 1-1.392-1.488c-.33-.629-.496-1.339-.496-2.128 0-.843.171-1.573.512-2.192a3.627 3.627 0 0 1 1.424-1.44c.608-.352 1.312-.528 2.112-.528.79 0 1.478.171 2.064.512a3.596 3.596 0 0 1 1.392 1.408c.342.597.512 1.285.512 2.064 0 .139-.005.277-.016.416-.01.128-.026.251-.048.368h-5.888c.032.373.128.704.288.992.171.277.395.496.672.656.288.149.614.224.976.224.374 0 .694-.08.96-.24a1.64 1.64 0 0 0 .656-.736h2.192a3.957 3.957 0 0 1-.72 1.312c-.33.405-.752.731-1.264.976-.501.245-1.093.368-1.776.368zm-1.968-4.912h3.824c-.01-.533-.208-.955-.592-1.264a2.017 2.017 0 0 0-1.328-.464c-.437 0-.842.139-1.216.416-.373.267-.602.704-.688 1.312zm9.452 4.912c-.469 0-.907-.096-1.312-.288a2.561 2.561 0 0 1-.992-.816c-.245-.363-.368-.789-.368-1.28 0-.587.144-1.067.432-1.44.288-.373.683-.651 1.184-.832a5.111 5.111 0 0 1 1.712-.272h1.888c0-.363-.059-.667-.176-.912a1.16 1.16 0 0 0-.496-.56c-.213-.139-.48-.208-.8-.208-.373 0-.709.085-1.008.256-.288.16-.464.432-.528.816h-2.048a2.677 2.677 0 0 1 .592-1.488 3.332 3.332 0 0 1 1.312-.96 4.375 4.375 0 0 1 1.712-.336c.747 0 1.376.139 1.888.416a2.85 2.85 0 0 1 1.2 1.184c.277.501.416 1.099.416 1.792v2.416c.021.235.107.395.256.48.149.085.347.128.592.128V164c-.501 0-.923-.048-1.264-.144a2.18 2.18 0 0 1-.816-.416 2.51 2.51 0 0 1-.544-.72c-.245.416-.629.768-1.152 1.056a3.474 3.474 0 0 1-1.68.416zm.592-1.648c.352 0 .672-.08.96-.24a1.89 1.89 0 0 0 .72-.672c.181-.288.272-.619.272-.992v-.064h-1.76c-.235 0-.459.037-.672.112a1.058 1.058 0 0 0-.512.32c-.128.139-.192.331-.192.576 0 .331.112.576.336.736.235.149.517.224.848.224zm5.851 1.456v-11.2h2.048V164h-2.048zm3.644-3.776v-1.712h5.2v1.712h-5.2zM479.29 164v-9.456h-3.264V152.8h8.592v1.744h-3.28V164h-2.048zm7.504-8.96a1.32 1.32 0 0 1-.944-.384 1.318 1.318 0 0 1-.384-.944c0-.373.128-.688.384-.944a1.32 1.32 0 0 1 .944-.384c.374 0 .688.128.944.384s.384.571.384.944c0 .363-.128.677-.384.944-.256.256-.57.384-.944.384zM485.77 164v-7.936h2.048V164h-2.048zm3.545 0v-7.936h2.032v.912a2.434 2.434 0 0 1 1.024-.832 3.256 3.256 0 0 1 1.312-.272c.598 0 1.152.128 1.664.384.523.245.928.635 1.216 1.168a2.835 2.835 0 0 1 1.104-1.136 3.084 3.084 0 0 1 1.568-.416c.608 0 1.158.128 1.648.384.502.245.896.624 1.184 1.136.288.512.432 1.152.432 1.92V164h-2.032v-4.4c0-.597-.144-1.072-.432-1.424-.288-.352-.73-.528-1.328-.528-.586 0-1.029.176-1.328.528-.298.352-.448.827-.448 1.424v4.4h-2.032v-4.4c0-.608-.154-1.083-.464-1.424-.298-.352-.73-.528-1.296-.528-.48 0-.901.155-1.264.464-.352.299-.528.795-.528 1.488v4.4h-2.032zm18.292.192c-.832 0-1.552-.181-2.16-.544a3.751 3.751 0 0 1-1.392-1.488c-.33-.629-.496-1.339-.496-2.128 0-.843.171-1.573.512-2.192a3.627 3.627 0 0 1 1.424-1.44c.608-.352 1.312-.528 2.112-.528.79 0 1.478.171 2.064.512a3.596 3.596 0 0 1 1.392 1.408c.342.597.512 1.285.512 2.064 0 .139-.005.277-.016.416-.01.128-.026.251-.048.368h-5.888c.032.373.128.704.288.992.171.277.395.496.672.656.288.149.614.224.976.224.374 0 .694-.08.96-.24a1.64 1.64 0 0 0 .656-.736h2.192a3.957 3.957 0 0 1-.72 1.312c-.33.405-.752.731-1.264.976-.501.245-1.093.368-1.776.368zm-1.968-4.912h3.824c-.01-.533-.208-.955-.592-1.264a2.017 2.017 0 0 0-1.328-.464c-.437 0-.842.139-1.216.416-.373.267-.602.704-.688 1.312zM446.212 185l4.096-11.2h2.304l4.096 11.2h-2.176l-.88-2.544h-4.4l-.896 2.544h-2.144zm3.616-4.192h3.248l-1.632-4.656-1.616 4.656zm7.909 4.192v-7.936h2.032v.928a2.483 2.483 0 0 1 1.104-.832c.47-.192.939-.288 1.408-.288.918 0 1.67.299 2.256.896.587.587.88 1.44.88 2.56V185h-2.032v-4.4c0-.597-.154-1.077-.464-1.44-.298-.373-.741-.56-1.328-.56-.586 0-1.04.187-1.36.56-.309.363-.464.843-.464 1.44v4.4h-2.032zm11.417.192c-.47 0-.907-.096-1.312-.288a2.554 2.554 0 0 1-.992-.816c-.246-.363-.368-.789-.368-1.28 0-.587.144-1.067.432-1.44.288-.373.682-.651 1.184-.832a5.107 5.107 0 0 1 1.712-.272h1.888c0-.363-.059-.667-.176-.912a1.16 1.16 0 0 0-.496-.56c-.214-.139-.48-.208-.8-.208-.374 0-.71.085-1.008.256-.288.16-.464.432-.528.816h-2.048a2.67 2.67 0 0 1 .592-1.488 3.325 3.325 0 0 1 1.312-.96 4.375 4.375 0 0 1 1.712-.336c.746 0 1.376.139 1.888.416a2.86 2.86 0 0 1 1.2 1.184c.277.501.416 1.099.416 1.792v2.416c.021.235.106.395.256.48.149.085.346.128.592.128V185c-.502 0-.923-.048-1.264-.144a2.18 2.18 0 0 1-.816-.416 2.492 2.492 0 0 1-.544-.72c-.246.416-.63.768-1.152 1.056a3.474 3.474 0 0 1-1.68.416zm.592-1.648c.352 0 .672-.08.96-.24.298-.16.538-.384.72-.672.181-.288.272-.619.272-.992v-.064h-1.76c-.235 0-.459.037-.672.112a1.054 1.054 0 0 0-.512.32c-.128.139-.192.331-.192.576 0 .331.112.576.336.736.234.149.517.224.848.224zm5.851 1.456v-11.2h2.048V185h-2.048zm4.236 3.52 1.744-3.888-3.216-7.568h2.288l2.048 5.408 2.096-5.408h2.16l-4.96 11.456h-2.16zm10.824-3.328a4.411 4.411 0 0 1-1.68-.32 3.427 3.427 0 0 1-1.296-.944 2.416 2.416 0 0 1-.544-1.424h2.048c.053.341.219.608.496.8.288.192.608.288.96.288.299 0 .576-.064.832-.192.267-.139.4-.352.4-.64 0-.224-.096-.4-.288-.528a2.44 2.44 0 0 0-.672-.304 17.869 17.869 0 0 0-.704-.192 11.153 11.153 0 0 1-1.456-.448c-.437-.181-.784-.427-1.04-.736-.256-.32-.384-.741-.384-1.264 0-.512.144-.949.432-1.312a2.722 2.722 0 0 1 1.168-.816 4.31 4.31 0 0 1 1.584-.288c.885 0 1.632.224 2.24.672.608.448.939 1.109.992 1.984h-1.936c-.032-.341-.176-.597-.432-.768-.245-.181-.555-.272-.928-.272-.299 0-.565.053-.8.16-.235.107-.352.309-.352.608 0 .213.096.389.288.528.192.128.421.235.688.32.267.075.501.139.704.192.555.139 1.04.299 1.456.48.427.181.763.427 1.008.736s.373.725.384 1.248c0 .523-.149.965-.448 1.328-.288.363-.672.64-1.152.832a4.41 4.41 0 0 1-1.568.272zm5.434-9.152a1.32 1.32 0 0 1-.944-.384 1.318 1.318 0 0 1-.384-.944c0-.373.128-.688.384-.944a1.32 1.32 0 0 1 .944-.384c.374 0 .688.128.944.384s.384.571.384.944c0 .363-.128.677-.384.944-.256.256-.57.384-.944.384zm-1.024 8.96v-7.936h2.048V185h-2.048zm6.793.192a4.411 4.411 0 0 1-1.68-.32 3.443 3.443 0 0 1-1.296-.944 2.423 2.423 0 0 1-.544-1.424h2.048c.054.341.219.608.496.8.288.192.608.288.96.288.299 0 .576-.064.832-.192.267-.139.4-.352.4-.64 0-.224-.096-.4-.288-.528a2.44 2.44 0 0 0-.672-.304c-.256-.075-.49-.139-.704-.192a11.201 11.201 0 0 1-1.456-.448c-.437-.181-.784-.427-1.04-.736-.256-.32-.384-.741-.384-1.264 0-.512.144-.949.432-1.312a2.722 2.722 0 0 1 1.168-.816 4.31 4.31 0 0 1 1.584-.288c.886 0 1.632.224 2.24.672.608.448.939 1.109.992 1.984h-1.936c-.032-.341-.176-.597-.432-.768-.245-.181-.554-.272-.928-.272-.298 0-.565.053-.8.16-.234.107-.352.309-.352.608 0 .213.096.389.288.528.192.128.422.235.688.32.267.075.502.139.704.192.555.139 1.04.299 1.456.48.427.181.763.427 1.008.736.246.309.374.725.384 1.248 0 .523-.149.965-.448 1.328-.288.363-.672.64-1.152.832a4.407 4.407 0 0 1-1.568.272z" fill="#E0CB15"/><path fill-rule="evenodd" clip-rule="evenodd" d="M324.812 293.003s-15.189-9.437-32.356-9.437-32.356 9.437-32.356 9.437V163.578s64.712 18.659 64.712 129.425zM321.217 143.805a3.594 3.594 0 1 0 7.189.001 3.594 3.594 0 0 0-7.189-.001zM319.807 66.526c11.916-20.642 38.292-27.717 58.925-15.796 20.633 11.912 27.705 38.308 15.789 58.95-10.703 18.538-33.07 26.126-52.472 18.835l-11.845 6.302-.467-13.413c-16.005-13.162-20.624-36.34-9.93-54.878zm21.181 49.6c15.475 8.937 35.263 3.632 44.196-11.849s3.631-35.278-11.844-44.215c-15.475-8.936-35.263-3.632-44.196 11.85-8.933 15.481-3.63 35.278 11.844 44.214z" fill="#92BD39"/><path fill-rule="evenodd" clip-rule="evenodd" d="M260.098 293.003s-15.189-9.437-32.356-9.437-32.356 9.437-32.356 9.437c0-110.766 64.712-129.425 64.712-129.425v129.425zM191.792 143.805a3.595 3.595 0 1 0 7.19 0 3.595 3.595 0 0 0-7.19 0zM200.392 66.526c-11.916-20.642-38.291-27.717-58.925-15.796-20.633 11.912-27.705 38.308-15.789 58.95 10.703 18.538 33.071 26.126 52.472 18.835l11.845 6.302.467-13.413c16.005-13.162 20.624-36.34 9.93-54.878zm-21.181 49.6c-15.475 8.937-35.263 3.632-44.196-11.849-8.932-15.481-3.63-35.278 11.844-44.215 15.475-8.936 35.264-3.632 44.196 11.85 8.933 15.481 3.631 35.278-11.844 44.214z" fill="#3CC583"/><path d="M122.196 16V4.8h2.432l3.184 7.232 3.136-7.232h2.432V16h-2.048V8.448l-2.736 6.128h-1.616l-2.736-6.128V16h-2.048zm13.234 0V4.8h3.888c.779 0 1.451.128 2.016.384.576.245 1.024.608 1.344 1.088.32.48.48 1.067.48 1.76 0 .8-.213 1.44-.64 1.92-.426.48-1.008.81-1.744.992l3.12 5.056h-2.416l-2.752-4.72h-1.248V16h-2.048zm2.048-6.464h1.792c.48 0 .848-.064 1.104-.192.267-.139.448-.32.544-.544.107-.224.16-.48.16-.768a1.76 1.76 0 0 0-.16-.768c-.096-.224-.277-.4-.544-.528-.256-.128-.624-.192-1.104-.192h-1.792v2.992zm12.556 6.656c-1.152 0-2.134-.25-2.944-.752a4.914 4.914 0 0 1-1.856-2.048c-.427-.875-.64-1.867-.64-2.976 0-1.11.208-2.101.624-2.976a4.793 4.793 0 0 1 1.84-2.064c.81-.512 1.802-.768 2.976-.768 1.344 0 2.442.336 3.296 1.008.864.661 1.402 1.595 1.616 2.8h-2.256c-.139-.608-.438-1.083-.896-1.424-.448-.352-1.046-.528-1.792-.528-.683 0-1.275.16-1.776.48-.491.32-.87.773-1.136 1.36-.267.587-.4 1.29-.4 2.112 0 .81.133 1.515.4 2.112.266.587.645 1.04 1.136 1.36.501.31 1.093.464 1.776.464.746 0 1.344-.16 1.792-.48.458-.33.757-.784.896-1.36h2.256c-.214 1.152-.752 2.053-1.616 2.704-.854.65-1.952.976-3.296.976zm10.111-3.968v-1.712h8.64v1.712h-8.64zm19.567 3.968a5.963 5.963 0 0 1-2.16-.4 5.624 5.624 0 0 1-1.824-1.152 5.412 5.412 0 0 1-1.264-1.824c-.31-.715-.464-1.52-.464-2.416 0-.896.154-1.701.464-2.416a5.413 5.413 0 0 1 1.264-1.824 5.623 5.623 0 0 1 1.824-1.152 5.964 5.964 0 0 1 2.16-.4c.757 0 1.477.133 2.16.4a5.441 5.441 0 0 1 3.104 2.976c.309.715.464 1.52.464 2.416 0 .896-.155 1.701-.464 2.416a5.44 5.44 0 0 1-3.104 2.976c-.683.267-1.403.4-2.16.4zm0-1.856a3.82 3.82 0 0 0 1.728-.416c.554-.288 1.008-.725 1.36-1.312.352-.587.528-1.323.528-2.208 0-.896-.176-1.637-.528-2.224-.352-.587-.806-1.019-1.36-1.296a3.706 3.706 0 0 0-1.728-.432A3.67 3.67 0 0 0 178 6.88c-.555.277-1.008.71-1.36 1.296-.352.587-.528 1.328-.528 2.224 0 .885.176 1.621.528 2.208.352.587.805 1.024 1.36 1.312a3.783 3.783 0 0 0 1.712.416zM187.118 16V4.8h2.432l3.184 7.232L195.87 4.8h2.432V16h-2.048V8.448l-2.736 6.128h-1.616l-2.736-6.128V16h-2.048zm-68.293 21.192c-.779 0-1.488-.133-2.128-.4a3.458 3.458 0 0 1-1.504-1.184c-.374-.533-.571-1.195-.592-1.984h2.16c.021.523.208.96.56 1.312.362.352.858.528 1.488.528.544 0 .976-.128 1.296-.384.32-.256.48-.603.48-1.04 0-.224-.038-.421-.112-.592-.064-.17-.192-.33-.384-.48-.192-.15-.464-.293-.816-.432-.342-.15-.795-.315-1.36-.496-.736-.245-1.328-.528-1.776-.848-.448-.32-.774-.677-.976-1.072a3.026 3.026 0 0 1-.288-1.312c0-.704.165-1.29.496-1.76.341-.48.794-.837 1.36-1.072a4.808 4.808 0 0 1 1.904-.368c.704 0 1.338.123 1.904.368.576.245 1.04.608 1.392 1.088.352.48.533 1.072.544 1.776h-2.192a1.48 1.48 0 0 0-.48-1.056c-.299-.299-.715-.448-1.248-.448-.427 0-.79.112-1.088.336-.299.224-.448.555-.448.992 0 .32.117.592.352.816.245.224.57.421.976.592.416.16.874.33 1.376.512.277.096.586.219.928.368a4.3 4.3 0 0 1 1.008.608c.32.245.581.56.784.944.213.373.32.837.32 1.392 0 .683-.176 1.27-.528 1.76-.342.49-.811.87-1.408 1.136-.587.267-1.254.4-2 .4zm5.597-.192V25.8h3.824c1.334 0 2.422.235 3.264.704.854.47 1.478 1.125 1.872 1.968.406.843.608 1.819.608 2.928 0 1.195-.224 2.213-.672 3.056a4.39 4.39 0 0 1-1.936 1.904c-.853.427-1.898.64-3.136.64h-3.824zm2.048-1.76h1.68c.95 0 1.696-.155 2.24-.464.544-.31.928-.752 1.152-1.328.235-.576.352-1.259.352-2.048 0-1.333-.309-2.31-.928-2.928-.608-.619-1.546-.928-2.816-.928h-1.68v7.696zm17.698-9.44-3.968 4.304L144.504 37h-2.416l-3.264-5.408-1.104 1.232V37h-2.048V25.8h2.048v4.304l3.952-4.304h2.496zm9.125 11.392c-.778 0-1.488-.133-2.128-.4a3.47 3.47 0 0 1-1.504-1.184c-.373-.533-.57-1.195-.592-1.984h2.16a1.9 1.9 0 0 0 .56 1.312c.363.352.859.528 1.488.528.544 0 .976-.128 1.296-.384.32-.256.48-.603.48-1.04a1.46 1.46 0 0 0-.112-.592c-.064-.17-.192-.33-.384-.48-.192-.15-.464-.293-.816-.432-.341-.15-.794-.315-1.36-.496-.736-.245-1.328-.528-1.776-.848-.448-.32-.773-.677-.976-1.072a3.026 3.026 0 0 1-.288-1.312c0-.704.166-1.29.496-1.76.342-.48.795-.837 1.36-1.072a4.812 4.812 0 0 1 1.904-.368c.704 0 1.339.123 1.904.368.576.245 1.04.608 1.392 1.088.352.48.534 1.072.544 1.776h-2.192a1.473 1.473 0 0 0-.48-1.056c-.298-.299-.714-.448-1.248-.448-.426 0-.789.112-1.088.336-.298.224-.448.555-.448.992 0 .32.118.592.352.816.246.224.571.421.976.592.416.16.875.33 1.376.512.278.096.587.219.928.368a4.3 4.3 0 0 1 1.008.608c.32.245.582.56.784.944.214.373.32.837.32 1.392 0 .683-.176 1.27-.528 1.76-.341.49-.81.87-1.408 1.136-.586.267-1.253.4-2 .4zm8.398 0c-.682 0-1.264-.144-1.744-.432a2.966 2.966 0 0 1-1.104-1.216c-.256-.523-.384-1.115-.384-1.776v-4.704h2.032v4.4c0 .587.15 1.067.448 1.44.31.373.758.56 1.344.56.608 0 1.062-.181 1.36-.544.299-.363.448-.848.448-1.456v-4.4h2.048V37h-2.048v-.928a2.55 2.55 0 0 1-1.056.832 3.234 3.234 0 0 1-1.344.288zm5.881 3.328V29.064h2.032v1.104a2.932 2.932 0 0 1 1.152-.96 3.482 3.482 0 0 1 1.52-.336c.768 0 1.424.187 1.968.56.554.373.976.875 1.264 1.504.298.619.448 1.307.448 2.064 0 .757-.15 1.456-.448 2.096a3.77 3.77 0 0 1-1.28 1.536c-.544.373-1.195.56-1.952.56-.672 0-1.232-.139-1.68-.416-.438-.277-.763-.565-.976-.864v4.608h-2.048zm4.16-5.12c.426 0 .8-.107 1.12-.32.32-.224.57-.517.752-.88a2.65 2.65 0 0 0 .272-1.2c0-.501-.102-.923-.304-1.264a1.958 1.958 0 0 0-.784-.8 2.105 2.105 0 0 0-1.056-.272c-.406 0-.768.101-1.088.304-.32.203-.576.485-.768.848a2.61 2.61 0 0 0-.272 1.216c0 .437.09.837.272 1.2.181.363.432.65.752.864.32.203.688.304 1.104.304zm5.402 5.12V29.064h2.032v1.104a2.932 2.932 0 0 1 1.152-.96 3.482 3.482 0 0 1 1.52-.336c.768 0 1.424.187 1.968.56.555.373.976.875 1.264 1.504.299.619.448 1.307.448 2.064a4.89 4.89 0 0 1-.448 2.096 3.763 3.763 0 0 1-1.28 1.536c-.544.373-1.195.56-1.952.56-.672 0-1.232-.139-1.68-.416-.437-.277-.763-.565-.976-.864v4.608h-2.048zm4.16-5.12c.427 0 .8-.107 1.12-.32.32-.224.571-.517.752-.88a2.65 2.65 0 0 0 .272-1.2c0-.501-.101-.923-.304-1.264a1.952 1.952 0 0 0-.784-.8 2.105 2.105 0 0 0-1.056-.272 1.99 1.99 0 0 0-1.088.304c-.32.203-.576.485-.768.848a2.622 2.622 0 0 0-.272 1.216c0 .437.091.837.272 1.2.181.363.432.65.752.864.32.203.688.304 1.104.304zm9.275 1.792c-.8 0-1.515-.17-2.144-.512a3.785 3.785 0 0 1-1.456-1.472c-.352-.63-.528-1.355-.528-2.176 0-.864.186-1.605.56-2.224.384-.63.89-1.11 1.52-1.44a4.532 4.532 0 0 1 2.112-.496c.8 0 1.514.176 2.144.528a3.79 3.79 0 0 1 1.488 1.44c.373.619.56 1.35.56 2.192 0 .8-.182 1.515-.544 2.144a3.954 3.954 0 0 1-1.504 1.488c-.63.352-1.366.528-2.208.528zm.032-1.776c.426 0 .794-.107 1.104-.32.32-.224.57-.517.752-.88a2.75 2.75 0 0 0 .272-1.216c0-.501-.102-.928-.304-1.28a1.985 1.985 0 0 0-.768-.8 2.105 2.105 0 0 0-1.056-.272c-.416 0-.784.101-1.104.304-.31.203-.555.485-.736.848-.171.352-.256.763-.256 1.232 0 .47.09.885.272 1.248.192.363.448.645.768.848.32.192.672.288 1.056.288zM196.009 37v-7.936h2.032v1.184c.277-.448.629-.79 1.056-1.024a2.905 2.905 0 0 1 1.424-.352v2.144h-.544c-.651 0-1.136.155-1.456.464-.32.31-.48.827-.48 1.552V37h-2.032zm8.745 0c-.853 0-1.499-.208-1.936-.624-.427-.416-.64-1.04-.64-1.872v-3.728h-1.024v-1.712h1.024v-1.936h2.048v1.936h1.808v1.712h-1.808v3.744c0 .299.08.501.24.608.16.107.368.16.624.16h.944V37h-1.28z" fill="#3CC583"/><path fill-rule="evenodd" clip-rule="evenodd" d="M195.387 293.003s-15.189-9.437-32.356-9.437-32.356 9.437-32.356 9.437c0-71.48 57.225-129.425 129.425-129.425 0 0-64.713 18.659-64.713 129.425zM99.217 260.647a3.594 3.594 0 1 0 7.189.001 3.594 3.594 0 0 0-7.19-.001zM58.942 198.548c-22.306-8.15-46.975 3.397-55.087 25.78-8.122 22.383 3.384 47.139 25.69 55.28 20.04 7.314 41.969-1.258 52.105-19.301l13.073-2.795-8.229-10.576c3.788-20.361-7.521-41.082-27.552-48.397v.009zm15.59 51.596c-6.09 16.785-24.59 25.447-41.316 19.337-16.727-6.11-25.359-24.675-19.27-41.46 6.09-16.785 24.589-25.447 41.316-19.337 16.726 6.11 25.358 24.675 19.27 41.46z" fill="#1EABDA"/><path clip-rule="evenodd" d="M260.098 294.004s-1.31-.814-3.595-1.963v96.793c0 9.913-8.062 17.975-17.976 17.975-9.913 0-17.975-8.062-17.975-17.975a3.594 3.594 0 0 0-3.596-3.595 3.594 3.594 0 0 0-3.595 3.595c0 13.877 11.289 25.166 25.166 25.166s25.166-11.289 25.166-25.166v-96.793c-2.285 1.149-3.595 1.963-3.595 1.963zM389.524 293.003s-15.189-9.437-32.356-9.437-32.356 9.437-32.356 9.437c0-110.766-64.712-129.425-64.712-129.425 72.199 0 129.424 57.945 129.424 129.425zM413.793 260.647a3.595 3.595 0 1 0 7.19 0 3.595 3.595 0 0 0-7.19 0zM461.257 198.548c22.305-8.15 46.975 3.397 55.087 25.78 8.122 22.383-3.384 47.139-25.69 55.28-20.039 7.314-41.969-1.258-52.105-19.301l-13.073-2.795 8.229-10.576c-3.788-20.361 7.521-41.082 27.552-48.397v.009zm-15.589 51.596c6.089 16.785 24.588 25.447 41.315 19.337 16.727-6.11 25.359-24.675 19.27-41.46-6.089-16.785-24.589-25.447-41.316-19.337-16.726 6.11-25.358 24.675-19.269 41.46z" stroke="#fff" stroke-width="1.798" stroke-linecap="round" stroke-linejoin="round"/><path clip-rule="evenodd" d="M324.812 293.003s-15.189-9.437-32.356-9.437-32.356 9.437-32.356 9.437V163.578s64.712 18.659 64.712 129.425zM321.217 143.805a3.594 3.594 0 1 0 7.189.001 3.594 3.594 0 0 0-7.189-.001zM319.807 66.526c11.916-20.642 38.292-27.717 58.925-15.796 20.633 11.912 27.705 38.308 15.789 58.95-10.703 18.538-33.07 26.126-52.472 18.835l-11.845 6.302-.467-13.413c-16.005-13.162-20.624-36.34-9.93-54.878zm21.181 49.6c15.475 8.937 35.263 3.632 44.196-11.849s3.631-35.278-11.844-44.215c-15.475-8.936-35.263-3.632-44.196 11.85-8.933 15.481-3.63 35.278 11.844 44.214z" stroke="#fff" stroke-width="1.798" stroke-linecap="round" stroke-linejoin="round"/><path d="M316.862 16.192c-1.152 0-2.134-.25-2.944-.752a4.914 4.914 0 0 1-1.856-2.048c-.427-.875-.64-1.867-.64-2.976 0-1.11.208-2.101.624-2.976a4.793 4.793 0 0 1 1.84-2.064c.81-.512 1.802-.768 2.976-.768 1.344 0 2.442.336 3.296 1.008.864.661 1.402 1.595 1.616 2.8h-2.256c-.139-.608-.438-1.083-.896-1.424-.448-.352-1.046-.528-1.792-.528-.683 0-1.275.16-1.776.48-.491.32-.87.773-1.136 1.36-.267.587-.4 1.29-.4 2.112 0 .81.133 1.515.4 2.112.266.587.645 1.04 1.136 1.36.501.31 1.093.464 1.776.464.746 0 1.344-.16 1.792-.48.458-.33.757-.784.896-1.36h2.256c-.214 1.152-.752 2.053-1.616 2.704-.854.65-1.952.976-3.296.976zm10.152 0c-.8 0-1.515-.17-2.144-.512a3.785 3.785 0 0 1-1.456-1.472c-.352-.63-.528-1.355-.528-2.176 0-.864.187-1.605.56-2.224.384-.63.891-1.11 1.52-1.44a4.532 4.532 0 0 1 2.112-.496c.8 0 1.515.176 2.144.528a3.791 3.791 0 0 1 1.488 1.44c.373.619.56 1.35.56 2.192 0 .8-.181 1.515-.544 2.144a3.954 3.954 0 0 1-1.504 1.488c-.629.352-1.365.528-2.208.528zm.032-1.776c.427 0 .795-.107 1.104-.32.32-.224.571-.517.752-.88a2.75 2.75 0 0 0 .272-1.216c0-.501-.101-.928-.304-1.28a1.985 1.985 0 0 0-.768-.8 2.105 2.105 0 0 0-1.056-.272c-.416 0-.784.101-1.104.304a2.122 2.122 0 0 0-.736.848c-.171.352-.256.763-.256 1.232 0 .47.091.885.272 1.248.192.363.448.645.768.848.32.192.672.288 1.056.288zm5.33 1.584V4.8h2.048V16h-2.048zm3.5 0V4.8h2.048V16h-2.048zm5.932.192c-.469 0-.906-.096-1.312-.288a2.561 2.561 0 0 1-.992-.816c-.245-.363-.368-.79-.368-1.28 0-.587.144-1.067.432-1.44.288-.373.683-.65 1.184-.832a5.104 5.104 0 0 1 1.712-.272h1.888c0-.363-.058-.667-.176-.912a1.154 1.154 0 0 0-.496-.56c-.213-.139-.48-.208-.8-.208-.373 0-.709.085-1.008.256-.288.16-.464.432-.528.816h-2.048a2.684 2.684 0 0 1 .592-1.488 3.34 3.34 0 0 1 1.312-.96 4.378 4.378 0 0 1 1.712-.336c.747 0 1.376.139 1.888.416.523.277.923.672 1.2 1.184.278.501.416 1.099.416 1.792v2.416c.022.235.107.395.256.48.15.085.347.128.592.128V16c-.501 0-.922-.048-1.264-.144a2.191 2.191 0 0 1-.816-.416 2.528 2.528 0 0 1-.544-.72c-.245.416-.629.768-1.152 1.056a3.471 3.471 0 0 1-1.68.416zm.592-1.648c.352 0 .672-.08.96-.24a1.89 1.89 0 0 0 .72-.672c.182-.288.272-.619.272-.992v-.064h-1.76c-.234 0-.458.037-.672.112-.213.064-.384.17-.512.32-.128.139-.192.33-.192.576 0 .33.112.576.336.736.235.15.518.224.848.224zm10.555 1.648a3.756 3.756 0 0 1-1.504-.304 2.9 2.9 0 0 1-1.152-.976V16h-2.048V4.8h2.032v4.384a2.759 2.759 0 0 1 1.152-.976c.47-.224.976-.336 1.52-.336.758 0 1.408.187 1.952.56.555.363.982.859 1.28 1.488.299.619.448 1.312.448 2.08a4.89 4.89 0 0 1-.448 2.096 3.755 3.755 0 0 1-1.28 1.536c-.544.373-1.194.56-1.952.56zm-.544-1.792c.427 0 .8-.107 1.12-.32.32-.213.571-.501.752-.864.182-.373.272-.779.272-1.216 0-.501-.101-.923-.304-1.264a1.952 1.952 0 0 0-.784-.8 2.105 2.105 0 0 0-1.056-.272c-.416 0-.784.101-1.104.304a2.13 2.13 0 0 0-.736.848 2.622 2.622 0 0 0-.272 1.216c0 .47.091.885.272 1.248.192.352.448.63.768.832.32.192.678.288 1.072.288zm9.275 1.792c-.8 0-1.515-.17-2.144-.512a3.785 3.785 0 0 1-1.456-1.472c-.352-.63-.528-1.355-.528-2.176 0-.864.186-1.605.56-2.224.384-.63.89-1.11 1.52-1.44a4.532 4.532 0 0 1 2.112-.496c.8 0 1.514.176 2.144.528a3.791 3.791 0 0 1 1.488 1.44c.373.619.56 1.35.56 2.192 0 .8-.182 1.515-.544 2.144a3.954 3.954 0 0 1-1.504 1.488c-.63.352-1.366.528-2.208.528zm.032-1.776c.426 0 .794-.107 1.104-.32.32-.224.57-.517.752-.88a2.75 2.75 0 0 0 .272-1.216c0-.501-.102-.928-.304-1.28a1.985 1.985 0 0 0-.768-.8 2.105 2.105 0 0 0-1.056-.272c-.416 0-.784.101-1.104.304-.31.203-.555.485-.736.848-.171.352-.256.763-.256 1.232 0 .47.09.885.272 1.248.192.363.448.645.768.848.32.192.672.288 1.056.288zM367.126 16V8.064h2.032v1.184c.278-.448.63-.79 1.056-1.024a2.908 2.908 0 0 1 1.424-.352v2.144h-.544c-.65 0-1.136.155-1.456.464-.32.31-.48.827-.48 1.552V16h-2.032zm7.745.192c-.47 0-.907-.096-1.312-.288a2.554 2.554 0 0 1-.992-.816c-.246-.363-.368-.79-.368-1.28 0-.587.144-1.067.432-1.44.288-.373.682-.65 1.184-.832a5.1 5.1 0 0 1 1.712-.272h1.888c0-.363-.059-.667-.176-.912a1.159 1.159 0 0 0-.496-.56c-.214-.139-.48-.208-.8-.208-.374 0-.71.085-1.008.256-.288.16-.464.432-.528.816h-2.048a2.67 2.67 0 0 1 .592-1.488 3.325 3.325 0 0 1 1.312-.96 4.375 4.375 0 0 1 1.712-.336c.746 0 1.376.139 1.888.416.522.277.922.672 1.2 1.184.277.501.416 1.099.416 1.792v2.416c.021.235.106.395.256.48.149.085.346.128.592.128V16c-.502 0-.923-.048-1.264-.144a2.176 2.176 0 0 1-.816-.416 2.492 2.492 0 0 1-.544-.72c-.246.416-.63.768-1.152 1.056a3.471 3.471 0 0 1-1.68.416zm.592-1.648c.352 0 .672-.08.96-.24.298-.16.538-.384.72-.672.181-.288.272-.619.272-.992v-.064h-1.76c-.235 0-.459.037-.672.112-.214.064-.384.17-.512.32-.128.139-.192.33-.192.576 0 .33.112.576.336.736.234.15.517.224.848.224zm8.58 1.456c-.853 0-1.499-.208-1.936-.624-.427-.416-.64-1.04-.64-1.872V9.776h-1.024V8.064h1.024V6.128h2.048v1.936h1.808v1.712h-1.808v3.744c0 .299.08.501.24.608.16.107.368.16.624.16h.944V16h-1.28zm3.594-8.96c-.363 0-.678-.128-.944-.384a1.318 1.318 0 0 1-.384-.944c0-.373.128-.688.384-.944.266-.256.581-.384.944-.384.373 0 .688.128.944.384s.384.57.384.944c0 .363-.128.677-.384.944a1.284 1.284 0 0 1-.944.384zM386.613 16V8.064h2.048V16h-2.048zm7.417.192c-.8 0-1.515-.17-2.144-.512a3.785 3.785 0 0 1-1.456-1.472c-.352-.63-.528-1.355-.528-2.176 0-.864.186-1.605.56-2.224.384-.63.89-1.11 1.52-1.44a4.532 4.532 0 0 1 2.112-.496c.8 0 1.514.176 2.144.528a3.791 3.791 0 0 1 1.488 1.44c.373.619.56 1.35.56 2.192 0 .8-.182 1.515-.544 2.144a3.954 3.954 0 0 1-1.504 1.488c-.63.352-1.366.528-2.208.528zm.032-1.776c.426 0 .794-.107 1.104-.32.32-.224.57-.517.752-.88A2.75 2.75 0 0 0 396.19 12c0-.501-.102-.928-.304-1.28a1.985 1.985 0 0 0-.768-.8 2.105 2.105 0 0 0-1.056-.272c-.416 0-.784.101-1.104.304-.31.203-.555.485-.736.848-.171.352-.256.763-.256 1.232 0 .47.09.885.272 1.248.192.363.448.645.768.848.32.192.672.288 1.056.288zM399.47 16V8.064h2.032v.928c.277-.373.645-.65 1.104-.832a3.694 3.694 0 0 1 1.408-.288c.917 0 1.669.299 2.256.896.587.587.88 1.44.88 2.56V16h-2.032v-4.4c0-.597-.155-1.077-.464-1.44-.299-.373-.741-.56-1.328-.56-.587 0-1.04.187-1.36.56-.309.363-.464.843-.464 1.44V16h-2.032zm-83.673 21-2.368-7.936h2.064l1.424 6.032 1.536-6.032h2.16l1.504 6.016 1.424-6.016h1.952l-2.352 7.92h-2.192l-1.472-5.536L318.005 37h-2.208zm11.457-8.96c-.363 0-.678-.128-.944-.384a1.318 1.318 0 0 1-.384-.944c0-.373.128-.688.384-.944.266-.256.581-.384.944-.384.373 0 .688.128.944.384s.384.57.384.944c0 .363-.128.677-.384.944a1.284 1.284 0 0 1-.944.384zM326.23 37v-7.936h2.048V37h-2.048zm6.665 0c-.854 0-1.499-.208-1.936-.624-.427-.416-.64-1.04-.64-1.872v-3.728h-1.024v-1.712h1.024v-1.936h2.048v1.936h1.808v1.712h-1.808v3.744c0 .299.08.501.24.608.16.107.368.16.624.16h.944V37h-1.28zm2.489 0V25.8h2.032v4.192c.277-.373.645-.65 1.104-.832a3.694 3.694 0 0 1 1.408-.288c.917 0 1.669.299 2.256.896.587.587.88 1.44.88 2.56V37h-2.032v-4.4c0-.597-.155-1.077-.464-1.44-.299-.373-.741-.56-1.328-.56-.587 0-1.04.187-1.36.56-.309.363-.464.843-.464 1.44V37h-2.032zm15.99 0-4.096-11.2h2.192l3.168 9.104 3.184-9.104h2.16L353.886 37h-2.512zm9.786.192c-.832 0-1.552-.181-2.16-.544a3.747 3.747 0 0 1-1.392-1.488c-.33-.63-.496-1.339-.496-2.128 0-.843.171-1.573.512-2.192a3.63 3.63 0 0 1 1.424-1.44c.608-.352 1.312-.528 2.112-.528.79 0 1.478.17 2.064.512.598.341 1.062.81 1.392 1.408.342.597.512 1.285.512 2.064 0 .139-.005.277-.016.416-.01.128-.026.25-.048.368h-5.888c.032.373.128.704.288.992.171.277.395.496.672.656.288.15.614.224.976.224.374 0 .694-.08.96-.24.278-.16.496-.405.656-.736h2.192c-.149.47-.389.907-.72 1.312-.33.405-.752.73-1.264.976-.501.245-1.093.368-1.776.368zm-1.968-4.912h3.824c-.01-.533-.208-.955-.592-1.264a2.015 2.015 0 0 0-1.328-.464 2 2 0 0 0-1.216.416c-.373.267-.602.704-.688 1.312zm7.02 4.72v-7.936h2.032v1.184c.278-.448.63-.79 1.056-1.024a2.908 2.908 0 0 1 1.424-.352v2.144h-.544c-.65 0-1.136.155-1.456.464-.32.31-.48.827-.48 1.552V37h-2.032zm6.573-8.96c-.363 0-.677-.128-.944-.384a1.318 1.318 0 0 1-.384-.944c0-.373.128-.688.384-.944.267-.256.581-.384.944-.384.373 0 .688.128.944.384s.384.57.384.944c0 .363-.128.677-.384.944a1.284 1.284 0 0 1-.944.384zM371.761 37v-7.936h2.048V37h-2.048zm3.753 0v-6.224h-.928v-1.712h.928v-.608c0-.96.24-1.643.72-2.048.491-.405 1.152-.608 1.984-.608h.672v1.744h-.352c-.352 0-.603.07-.752.208-.149.139-.224.373-.224.704v.608h1.424v1.712h-1.424V37h-2.048zm4.768 0v-7.936h2.048V37h-2.048zm1.024-8.96c-.363 0-.677-.128-.944-.384a1.318 1.318 0 0 1-.384-.944c0-.373.128-.688.384-.944.267-.256.581-.384.944-.384.373 0 .688.128.944.384s.384.57.384.944c0 .363-.128.677-.384.944a1.284 1.284 0 0 1-.944.384zm6.339 9.152c-.832 0-1.552-.181-2.16-.544a3.734 3.734 0 0 1-1.392-1.488c-.331-.63-.496-1.339-.496-2.128 0-.843.17-1.573.512-2.192a3.624 3.624 0 0 1 1.424-1.44c.608-.352 1.312-.528 2.112-.528.789 0 1.477.17 2.064.512.597.341 1.061.81 1.392 1.408.341.597.512 1.285.512 2.064a4.063 4.063 0 0 1-.064.784h-5.888c.032.373.128.704.288.992.17.277.394.496.672.656.288.15.613.224.976.224.373 0 .693-.08.96-.24.277-.16.496-.405.656-.736h2.192c-.15.47-.39.907-.72 1.312-.331.405-.752.73-1.264.976-.502.245-1.094.368-1.776.368zm-1.968-4.912h3.824c-.011-.533-.208-.955-.592-1.264a2.017 2.017 0 0 0-1.328-.464c-.438 0-.843.139-1.216.416-.374.267-.603.704-.688 1.312zm7.02 4.72v-7.936h2.032v1.184c.277-.448.629-.79 1.056-1.024a2.902 2.902 0 0 1 1.424-.352v2.144h-.544c-.651 0-1.136.155-1.456.464-.32.31-.48.827-.48 1.552V37h-2.032zm8.716.192a4.405 4.405 0 0 1-1.68-.32 3.44 3.44 0 0 1-1.296-.944 2.424 2.424 0 0 1-.544-1.424h2.048c.054.341.219.608.496.8.288.192.608.288.96.288.299 0 .576-.064.832-.192.267-.139.4-.352.4-.64 0-.224-.096-.4-.288-.528a2.43 2.43 0 0 0-.672-.304c-.256-.075-.49-.139-.704-.192a11.248 11.248 0 0 1-1.456-.448c-.437-.181-.784-.427-1.04-.736-.256-.32-.384-.741-.384-1.264 0-.512.144-.95.432-1.312a2.727 2.727 0 0 1 1.168-.816 4.31 4.31 0 0 1 1.584-.288c.886 0 1.632.224 2.24.672.608.448.939 1.11.992 1.984h-1.936c-.032-.341-.176-.597-.432-.768-.245-.181-.554-.272-.928-.272-.298 0-.565.053-.8.16-.234.107-.352.31-.352.608 0 .213.096.39.288.528.192.128.422.235.688.32.267.075.502.139.704.192.555.139 1.04.299 1.456.48.427.181.763.427 1.008.736.246.31.374.725.384 1.248 0 .523-.149.965-.448 1.328-.288.363-.672.64-1.152.832a4.4 4.4 0 0 1-1.568.272z" fill="#92BD39"/><path clip-rule="evenodd" d="M260.098 293.003s-15.189-9.437-32.356-9.437-32.356 9.437-32.356 9.437c0-110.766 64.712-129.425 64.712-129.425v129.425zM191.792 143.805a3.595 3.595 0 1 0 7.19 0 3.595 3.595 0 0 0-7.19 0zM200.392 66.526c-11.916-20.642-38.291-27.717-58.925-15.796-20.633 11.912-27.705 38.308-15.789 58.95 10.703 18.538 33.071 26.126 52.472 18.835l11.845 6.302.467-13.413c16.005-13.162 20.624-36.34 9.93-54.878zm-21.181 49.6c-15.475 8.937-35.263 3.632-44.196-11.849-8.932-15.481-3.63-35.278 11.844-44.215 15.475-8.936 35.264-3.632 44.196 11.85 8.933 15.481 3.631 35.278-11.844 44.214z" stroke="#fff" stroke-width="1.798" stroke-linecap="round" stroke-linejoin="round"/><path clip-rule="evenodd" d="M195.387 293.003s-15.189-9.437-32.356-9.437-32.356 9.437-32.356 9.437c0-71.48 57.225-129.425 129.425-129.425 0 0-64.713 18.659-64.713 129.425zM99.217 260.647a3.594 3.594 0 1 0 7.189.001 3.594 3.594 0 0 0-7.19-.001zM58.942 198.548c-22.306-8.15-46.975 3.397-55.087 25.78-8.122 22.383 3.384 47.139 25.69 55.28 20.04 7.314 41.969-1.258 52.105-19.301l13.073-2.795-8.229-10.576c3.788-20.361-7.521-41.082-27.552-48.397v.009zm15.59 51.596c-6.09 16.785-24.59 25.447-41.316 19.337-16.727-6.11-25.359-24.675-19.27-41.46 6.09-16.785 24.589-25.447 41.316-19.337 16.726 6.11 25.358 24.675 19.27 41.46z" stroke="#fff" stroke-width="1.798" stroke-linecap="round" stroke-linejoin="round"/><path d="M1.376 165v-11.2h2.048V165H1.376zm3.79 0v-7.936h2.031v.928a2.476 2.476 0 0 1 1.104-.832c.47-.192.939-.288 1.408-.288.918 0 1.67.299 2.256.896.587.587.88 1.44.88 2.56V165h-2.032v-4.4c0-.597-.154-1.077-.464-1.44-.298-.373-.741-.56-1.328-.56-.586 0-1.04.187-1.36.56-.309.363-.464.843-.464 1.44v4.4H5.165zm12.408.192c-.768 0-1.43-.187-1.984-.56a3.837 3.837 0 0 1-1.264-1.52 5.088 5.088 0 0 1-.432-2.112c0-.768.149-1.461.448-2.08a3.562 3.562 0 0 1 1.28-1.488c.554-.373 1.205-.56 1.952-.56.512 0 .997.107 1.456.32.469.213.864.523 1.184.928v-4.32h2.064V165h-2.064v-1.136c-.267.437-.64.768-1.12.992-.48.224-.987.336-1.52.336zm.528-1.792c.426 0 .794-.101 1.104-.304.32-.203.57-.48.752-.832.181-.363.272-.773.272-1.232 0-.565-.112-1.019-.336-1.36a2.04 2.04 0 0 0-.832-.768 2.23 2.23 0 0 0-.976-.24c-.416 0-.784.101-1.104.304a2.15 2.15 0 0 0-.736.832c-.182.341-.272.741-.272 1.2 0 .448.09.853.272 1.216.181.363.432.651.752.864.32.213.688.32 1.104.32zm9.402 1.792c-.832 0-1.552-.181-2.16-.544a3.747 3.747 0 0 1-1.392-1.488c-.33-.629-.496-1.339-.496-2.128 0-.843.17-1.573.512-2.192a3.622 3.622 0 0 1 1.424-1.44c.608-.352 1.312-.528 2.112-.528.79 0 1.477.171 2.064.512a3.605 3.605 0 0 1 1.392 1.408c.341.597.512 1.285.512 2.064 0 .139-.005.277-.016.416-.01.128-.026.251-.048.368H25.52c.032.373.128.704.288.992.17.277.395.496.672.656.288.149.613.224.976.224.373 0 .694-.08.96-.24.277-.16.496-.405.656-.736h2.192c-.15.469-.39.907-.72 1.312-.33.405-.752.731-1.264.976-.501.245-1.093.368-1.776.368zm-1.968-4.912h3.824c-.01-.533-.208-.955-.592-1.264a2.018 2.018 0 0 0-1.328-.464 2 2 0 0 0-1.216.416c-.373.267-.602.704-.688 1.312zm7.02 8.24v-11.456h2.032v1.104c.31-.427.693-.747 1.152-.96.47-.224.976-.336 1.52-.336.768 0 1.424.187 1.968.56.555.373.976.875 1.264 1.504.299.619.448 1.307.448 2.064 0 .757-.15 1.456-.448 2.096a3.762 3.762 0 0 1-1.28 1.536c-.544.373-1.195.56-1.952.56-.672 0-1.232-.139-1.68-.416-.437-.277-.763-.565-.976-.864v4.608h-2.048zm4.16-5.12c.427 0 .8-.107 1.12-.32.32-.224.57-.517.752-.88.181-.363.272-.763.272-1.2 0-.501-.101-.923-.304-1.264a1.952 1.952 0 0 0-.784-.8 2.108 2.108 0 0 0-1.056-.272c-.405 0-.768.101-1.088.304-.32.203-.576.485-.768.848a2.618 2.618 0 0 0-.272 1.216c0 .437.09.837.272 1.2.181.363.432.651.752.864.32.203.688.304 1.104.304zm9.194 1.792c-.832 0-1.552-.181-2.16-.544a3.747 3.747 0 0 1-1.392-1.488c-.33-.629-.496-1.339-.496-2.128 0-.843.171-1.573.512-2.192a3.623 3.623 0 0 1 1.424-1.44c.608-.352 1.312-.528 2.112-.528.79 0 1.478.171 2.064.512a3.604 3.604 0 0 1 1.392 1.408c.342.597.512 1.285.512 2.064 0 .139-.005.277-.016.416-.01.128-.026.251-.048.368h-5.888c.032.373.128.704.288.992.171.277.395.496.672.656.288.149.614.224.976.224.374 0 .694-.08.96-.24.278-.16.496-.405.656-.736h2.192c-.149.469-.389.907-.72 1.312-.33.405-.752.731-1.264.976-.5.245-1.093.368-1.776.368zm-1.968-4.912h3.824c-.01-.533-.208-.955-.592-1.264a2.018 2.018 0 0 0-1.328-.464 2 2 0 0 0-1.216.416c-.373.267-.602.704-.688 1.312zm7.02 4.72v-7.936h2.032v.928a2.475 2.475 0 0 1 1.104-.832c.47-.192.939-.288 1.408-.288.917 0 1.67.299 2.256.896.587.587.88 1.44.88 2.56V165H56.61v-4.4c0-.597-.154-1.077-.464-1.44-.299-.373-.741-.56-1.328-.56-.587 0-1.04.187-1.36.56-.31.363-.464.843-.464 1.44v4.4h-2.032zm12.409.192c-.768 0-1.43-.187-1.984-.56a3.837 3.837 0 0 1-1.264-1.52A5.088 5.088 0 0 1 59.69 161c0-.768.149-1.461.448-2.08a3.562 3.562 0 0 1 1.28-1.488c.554-.373 1.205-.56 1.952-.56.512 0 .997.107 1.456.32.469.213.864.523 1.184.928v-4.32h2.064V165H66.01v-1.136c-.267.437-.64.768-1.12.992-.48.224-.987.336-1.52.336zm.528-1.792c.426 0 .794-.101 1.104-.304.32-.203.57-.48.752-.832.18-.363.272-.773.272-1.232 0-.565-.112-1.019-.336-1.36a2.04 2.04 0 0 0-.832-.768 2.23 2.23 0 0 0-.976-.24c-.416 0-.784.101-1.104.304-.31.203-.555.48-.736.832-.182.341-.272.741-.272 1.2 0 .448.09.853.272 1.216.18.363.432.651.752.864.32.213.688.32 1.104.32zm9.402 1.792c-.832 0-1.552-.181-2.16-.544a3.746 3.746 0 0 1-1.392-1.488c-.33-.629-.496-1.339-.496-2.128 0-.843.17-1.573.512-2.192a3.622 3.622 0 0 1 1.424-1.44c.608-.352 1.312-.528 2.112-.528.79 0 1.477.171 2.064.512a3.605 3.605 0 0 1 1.392 1.408c.341.597.512 1.285.512 2.064 0 .139-.005.277-.016.416-.01.128-.027.251-.048.368h-5.888c.032.373.128.704.288.992.17.277.395.496.672.656.288.149.613.224.976.224.373 0 .693-.08.96-.24.277-.16.496-.405.656-.736h2.192c-.15.469-.39.907-.72 1.312-.33.405-.752.731-1.264.976-.501.245-1.093.368-1.776.368zm-1.968-4.912h3.824c-.01-.533-.208-.955-.592-1.264a2.018 2.018 0 0 0-1.328-.464 2 2 0 0 0-1.216.416c-.373.267-.603.704-.688 1.312zm7.02 4.72v-7.936h2.032v.928a2.475 2.475 0 0 1 1.104-.832c.47-.192.938-.288 1.408-.288.917 0 1.67.299 2.256.896.587.587.88 1.44.88 2.56V165H84v-4.4c0-.597-.155-1.077-.464-1.44-.299-.373-.742-.56-1.328-.56-.587 0-1.04.187-1.36.56-.31.363-.464.843-.464 1.44v4.4h-2.032zm12.104 0c-.853 0-1.498-.208-1.936-.624-.427-.416-.64-1.04-.64-1.872v-3.728h-1.024v-1.712h1.024v-1.936h2.048v1.936h1.808v1.712H89.93v3.744c0 .299.08.501.24.608.16.107.368.16.624.16h.944V165h-1.28zm-78.31 21-4.096-11.2h2.192l3.168 9.104 3.184-9.104h2.16L14.659 186h-2.512zm9.787.192c-.832 0-1.552-.181-2.16-.544a3.746 3.746 0 0 1-1.392-1.488c-.33-.629-.496-1.339-.496-2.128 0-.843.17-1.573.512-2.192a3.622 3.622 0 0 1 1.424-1.44c.608-.352 1.312-.528 2.112-.528.79 0 1.477.171 2.064.512a3.605 3.605 0 0 1 1.392 1.408c.341.597.512 1.285.512 2.064 0 .139-.006.277-.016.416-.01.128-.027.251-.048.368H19.95c.032.373.128.704.288.992.17.277.395.496.672.656.288.149.613.224.976.224.373 0 .693-.08.96-.24.277-.16.496-.405.656-.736h2.192c-.15.469-.39.907-.72 1.312-.33.405-.752.731-1.264.976-.502.245-1.094.368-1.776.368zm-1.968-4.912h3.824c-.01-.533-.208-.955-.592-1.264a2.018 2.018 0 0 0-1.328-.464 2 2 0 0 0-1.216.416c-.373.267-.603.704-.688 1.312zm7.02 4.72v-7.936h2.032v1.184c.277-.448.629-.789 1.056-1.024a2.902 2.902 0 0 1 1.424-.352v2.144h-.544c-.651 0-1.136.155-1.456.464-.32.309-.48.827-.48 1.552V186h-2.032zm6.572-8.96c-.362 0-.677-.128-.944-.384a1.318 1.318 0 0 1-.384-.944c0-.373.128-.688.384-.944.267-.256.582-.384.944-.384.374 0 .688.128.944.384s.384.571.384.944c0 .363-.128.677-.384.944-.256.256-.57.384-.944.384zM32.534 186v-7.936h2.048V186h-2.048zm3.753 0v-6.224h-.928v-1.712h.928v-.608c0-.96.24-1.643.72-2.048.491-.405 1.152-.608 1.984-.608h.672v1.744h-.352c-.352 0-.602.069-.752.208-.149.139-.224.373-.224.704v.608h1.424v1.712h-1.424V186h-2.048zm4.768 0v-7.936h2.048V186h-2.048zm1.024-8.96c-.362 0-.677-.128-.944-.384a1.318 1.318 0 0 1-.384-.944c0-.373.128-.688.384-.944.267-.256.582-.384.944-.384.374 0 .688.128.944.384s.384.571.384.944c0 .363-.128.677-.384.944-.256.256-.57.384-.944.384zm6.275 9.152c-.8 0-1.498-.176-2.096-.528a3.77 3.77 0 0 1-1.392-1.472c-.33-.629-.496-1.349-.496-2.16 0-.8.16-1.515.48-2.144.33-.629.795-1.12 1.392-1.472.598-.363 1.302-.544 2.112-.544.96 0 1.77.24 2.432.72.672.48 1.126 1.189 1.36 2.128h-2.192a1.56 1.56 0 0 0-.56-.784c-.266-.224-.618-.336-1.056-.336-.437 0-.794.112-1.072.336a2.032 2.032 0 0 0-.624.896 3.587 3.587 0 0 0-.192 1.2c0 .437.064.843.192 1.216.139.363.347.656.624.88.278.213.635.32 1.072.32.416 0 .758-.091 1.024-.272.267-.192.464-.469.592-.832h2.192a3.584 3.584 0 0 1-.752 1.536c-.352.427-.79.752-1.312.976-.512.224-1.088.336-1.728.336zm7.407 0c-.469 0-.906-.096-1.312-.288a2.558 2.558 0 0 1-.992-.816c-.245-.363-.368-.789-.368-1.28 0-.587.144-1.067.432-1.44.288-.373.683-.651 1.184-.832a5.11 5.11 0 0 1 1.712-.272h1.888c0-.363-.058-.667-.176-.912a1.159 1.159 0 0 0-.496-.56c-.213-.139-.48-.208-.8-.208-.373 0-.709.085-1.008.256-.288.16-.464.432-.528.816H53.25c.054-.576.251-1.072.592-1.488a3.332 3.332 0 0 1 1.312-.96 4.376 4.376 0 0 1 1.712-.336c.747 0 1.376.139 1.888.416.523.277.923.672 1.2 1.184.278.501.416 1.099.416 1.792v2.416c.022.235.107.395.256.48.15.085.347.128.592.128V186c-.501 0-.922-.048-1.264-.144a2.185 2.185 0 0 1-.816-.416 2.508 2.508 0 0 1-.544-.72c-.245.416-.629.768-1.152 1.056a3.474 3.474 0 0 1-1.68.416zm.592-1.648c.352 0 .672-.08.96-.24.299-.16.539-.384.72-.672.182-.288.272-.619.272-.992v-.064h-1.76a2.01 2.01 0 0 0-.672.112 1.056 1.056 0 0 0-.512.32c-.128.139-.192.331-.192.576 0 .331.112.576.336.736.235.149.518.224.848.224zm8.58 1.456c-.853 0-1.498-.208-1.935-.624-.427-.416-.64-1.04-.64-1.872v-3.728h-1.024v-1.712h1.024v-1.936h2.048v1.936h1.808v1.712h-1.808v3.744c0 .299.08.501.24.608.16.107.368.16.624.16h.944V186h-1.28zm3.594-8.96c-.362 0-.677-.128-.944-.384a1.318 1.318 0 0 1-.384-.944c0-.373.128-.688.384-.944.267-.256.582-.384.944-.384.373 0 .688.128.944.384s.384.571.384.944c0 .363-.128.677-.384.944-.256.256-.57.384-.944.384zM67.503 186v-7.936h2.048V186h-2.048zm7.417.192c-.8 0-1.514-.171-2.144-.512a3.79 3.79 0 0 1-1.456-1.472c-.352-.629-.528-1.355-.528-2.176 0-.864.187-1.605.56-2.224a3.867 3.867 0 0 1 1.52-1.44 4.528 4.528 0 0 1 2.112-.496c.8 0 1.515.176 2.144.528.63.341 1.126.821 1.488 1.44.374.619.56 1.349.56 2.192 0 .8-.181 1.515-.544 2.144a3.956 3.956 0 0 1-1.504 1.488c-.63.352-1.365.528-2.208.528zm.032-1.776c.427 0 .795-.107 1.104-.32.32-.224.57-.517.752-.88.181-.373.272-.779.272-1.216 0-.501-.101-.928-.304-1.28a1.984 1.984 0 0 0-.768-.8 2.108 2.108 0 0 0-1.056-.272c-.416 0-.784.101-1.104.304-.31.203-.555.485-.736.848-.17.352-.256.763-.256 1.232s.09.885.272 1.248c.192.363.448.645.768.848.32.192.672.288 1.056.288zM80.361 186v-7.936h2.032v.928a2.476 2.476 0 0 1 1.104-.832c.469-.192.938-.288 1.408-.288.917 0 1.669.299 2.256.896.586.587.88 1.44.88 2.56V186h-2.032v-4.4c0-.597-.155-1.077-.464-1.44-.299-.373-.742-.56-1.328-.56-.587 0-1.04.187-1.36.56-.31.363-.464.843-.464 1.44v4.4H80.36z" fill="#1EABDA"/><path d="M154.043 100.664h17.975m.899-11.983c-.342-.873-1.409-1.497-2.497-1.497-1.379 0-2.497 1.006-2.497 2.247v4.494c0 1.24 1.118 2.246 2.499 2.246 1.086 0 2.152-.625 2.495-1.499m-21.346 1.498V80.8a.805.805 0 0 1 1.553-.303l4.05 9.97a.502.502 0 0 0 .927-.003l4.05-9.97a.807.807 0 0 1 1.553.303V96.17m-19.548-28.761h37.749s1.797 0 1.797 1.797v37.749s0 1.798-1.797 1.798h-37.749s-1.798 0-1.798-1.798V69.206s0-1.797 1.798-1.797z" stroke="#3CC583" stroke-width="1.798" stroke-linecap="round" stroke-linejoin="round"/><path d="M368.852 106.056v-8.987m0 8.987a2.696 2.696 0 1 1-5.392 0v-19.97c-1.331 1.923-1.888 8.286-8.988 8.286a2.697 2.697 0 1 1 0-5.392 2.732 2.732 0 0 0 2.822-2.32 8.09 8.09 0 0 1 7.963-6.668h7.19a5.393 5.393 0 0 1 5.393 5.392v8.988c0 .993-.805 1.798-1.797 1.798h-1.798m-5.393 9.886a2.696 2.696 0 1 0 5.393 0V96.17m0 0v-9.887m-37.749.899v-1.798a5.393 5.393 0 0 1 5.393-5.392h6.399a3.594 3.594 0 0 0 2.768-1.295l3.596-4.386m-5.573 20.061h-11.684a.899.899 0 0 1-.899-.899v-1.797c0-.496.402-.899.899-.899h10.785m-8.089 3.595v14.381m23.369-36.85a4.494 4.494 0 1 0 8.987 0 4.494 4.494 0 0 0-8.987 0zm-23.369 0a4.494 4.494 0 1 0 8.988 0 4.494 4.494 0 0 0-8.988 0zm18.875 2.696h-3.595a.899.899 0 0 1-.899-.899v-5.392c0-.497.402-.9.899-.9h3.595c.496 0 .898.403.898.9V73.7a.898.898 0 0 1-.898.899z" stroke="#92BD39" stroke-width="1.798" stroke-linecap="round" stroke-linejoin="round"/><path d="M54.278 230.088 43.43 245.785l-8.23-8.233m-8.784-13.261v13.728a22.083 22.083 0 0 0 14.071 20.615l1.919.744a5.51 5.51 0 0 0 3.972 0l1.918-.744a22.083 22.083 0 0 0 14.071-20.615v-13.728a2.76 2.76 0 0 0-1.6-2.527 39.794 39.794 0 0 0-16.375-3.36 39.794 39.794 0 0 0-16.376 3.36 2.76 2.76 0 0 0-1.6 2.527z" stroke="#1EABDA" stroke-width="1.798" stroke-linecap="round" stroke-linejoin="round"/><path d="m457.832 243.57 6.57-7.226a5.138 5.138 0 0 1 5.661-1.107l2.502 1.199a6.275 6.275 0 0 0 6.05-.692l3.373-2.697a21.09 21.09 0 0 1 6.277-3.21l5.518-1.546m-26.956 6.683v22.977m8.988-21.093v21.093m8.988-26.671v26.671m-26.964-14.381h35.952m-16.236-7.19h16.236m-35.952 14.38h35.952m-32.357-30.558h28.761s3.596 0 3.596 3.595v30.559s0 3.595-3.596 3.595h-28.761s-3.595 0-3.595-3.595v-30.559s0-3.595 3.595-3.595z" stroke="#E0CB15" stroke-width="1.798" stroke-linecap="round" stroke-linejoin="round"/></svg>