<svg width="577" height="338" fill="none" xmlns="http://www.w3.org/2000/svg"><g clip-path="url(#a)"><path fill-rule="evenodd" clip-rule="evenodd" d="M326.585 156.636c10.142 24.485-1.486 52.557-25.971 62.699-24.485 10.142-52.556-1.486-62.699-25.971-10.142-24.485 1.486-52.556 25.971-62.699 24.485-10.142 52.557 1.486 62.699 25.971z" fill="#fff"/><path fill-rule="evenodd" clip-rule="evenodd" d="M226.417 33.818c5.071 12.243-.742 26.278-12.985 31.35-12.243 5.07-26.278-.743-31.349-12.986-5.071-12.243.742-26.278 12.985-31.35 12.243-5.07 26.278.743 31.349 12.986z" fill="url(#b)"/><path fill-rule="evenodd" clip-rule="evenodd" d="M117.068 197.167c-12.243-5.071-18.056-19.106-12.985-31.349 5.071-12.243 19.106-18.056 31.349-12.985 12.243 5.071 18.056 19.106 12.985 31.349-5.071 12.243-19.106 18.056-31.349 12.985z" fill="url(#c)"/><path fill-rule="evenodd" clip-rule="evenodd" d="M213.432 329.167c-12.243 5.071-26.278-.742-31.349-12.985-5.071-12.243.742-26.278 12.985-31.349 12.243-5.071 26.278.742 31.349 12.985 5.071 12.243-.742 26.278-12.985 31.349z" fill="url(#d)"/><path fill-rule="evenodd" clip-rule="evenodd" d="M382.417 316.182c-5.071 12.243-19.106 18.056-31.349 12.985-12.243-5.071-18.056-19.106-12.985-31.349 5.071-12.243 19.106-18.056 31.349-12.985 12.243 5.071 18.056 19.106 12.985 31.349z" fill="url(#e)"/><path fill-rule="evenodd" clip-rule="evenodd" d="M460.417 165.818c5.071 12.243-.742 26.278-12.985 31.349-12.243 5.071-26.278-.742-31.349-12.985-5.071-12.243.742-26.278 12.985-31.349 12.243-5.071 26.278.742 31.349 12.985z" fill="url(#f)"/><path fill-rule="evenodd" clip-rule="evenodd" d="M351.068 65.167c-12.243-5.07-18.056-19.106-12.985-31.349 5.071-12.243 19.106-18.056 31.349-12.985 12.243 5.07 18.056 19.106 12.985 31.349-5.071 12.243-19.106 18.056-31.349 12.985z" fill="url(#g)"/><path d="M427.824 153.389C405.271 130.931 348.597 115 282.25 115c-66.348 0-123.022 15.931-145.575 38.389m291.149 43.222C405.271 219.069 348.598 235 282.25 235c-66.348 0-123.022-15.931-145.575-38.389M336.778 38.002C306.013 46.018 263.627 87.256 230.288 145c-32.24 55.842-46.882 111.295-40.177 142.608M374.388 62.39c6.706 31.312-7.935 86.766-40.177 142.61-33.339 57.745-75.727 98.984-106.492 106.998m109.061 0c-30.765-8.014-73.153-49.253-106.492-106.998-32.241-55.844-46.882-111.297-40.177-142.61m37.61-24.388c30.765 8.016 73.152 49.254 106.49 106.998 32.241 55.842 46.882 111.295 40.177 142.608" stroke="#959595" stroke-width="2" stroke-linecap="round" stroke-linejoin="round" stroke-dasharray="5 7"/><path clip-rule="evenodd" d="M326.585 156.636c10.142 24.485-1.486 52.557-25.971 62.699-24.485 10.142-52.556-1.486-62.699-25.971-10.142-24.485 1.486-52.556 25.971-62.699 24.485-10.142 52.557 1.486 62.699 25.971zM226.417 33.818c5.071 12.243-.742 26.278-12.985 31.35-12.243 5.07-26.278-.743-31.349-12.986-5.071-12.243.742-26.278 12.985-31.35 12.243-5.07 26.278.743 31.349 12.986zM117.068 197.167c-12.243-5.071-18.056-19.106-12.985-31.349 5.071-12.243 19.106-18.056 31.349-12.985 12.243 5.071 18.056 19.106 12.985 31.349-5.071 12.243-19.106 18.056-31.349 12.985zM213.432 329.167c-12.243 5.071-26.278-.742-31.349-12.985-5.071-12.243.742-26.278 12.985-31.349 12.243-5.071 26.278.742 31.349 12.985 5.071 12.243-.742 26.278-12.985 31.349zM382.417 316.182c-5.071 12.243-19.106 18.056-31.349 12.985-12.243-5.071-18.056-19.106-12.985-31.349 5.071-12.243 19.106-18.056 31.349-12.985 12.243 5.071 18.056 19.106 12.985 31.349zM460.417 165.818c5.071 12.243-.742 26.278-12.985 31.349-12.243 5.071-26.278-.742-31.349-12.985-5.071-12.243.742-26.278 12.985-31.349 12.243-5.071 26.278.742 31.349 12.985zM351.068 65.167c-12.243-5.07-18.056-19.106-12.985-31.349 5.071-12.243 19.106-18.056 31.349-12.985 12.243 5.07 18.056 19.106 12.985 31.349-5.071 12.243-19.106 18.056-31.349 12.985z" stroke="#fff" stroke-width="2" stroke-linecap="round" stroke-linejoin="round"/><path d="M358.536 42.331a7.697 7.697 0 0 0-9.429 7.526v2.572h9.429m-5.571-16.715a3.857 3.857 0 1 0 7.714 0 3.857 3.857 0 0 0-7.714 0zm13.577 18.378a.859.859 0 0 1-.583 0 7.682 7.682 0 0 1-4.852-7.132v-2.246a.808.808 0 0 1 .858-.857h8.571a.805.805 0 0 1 .857.857v2.246a7.68 7.68 0 0 1-4.851 7.132zM194.25 45.5l3.655-4.02a2.86 2.86 0 0 1 3.149-.616l1.392.667a3.49 3.49 0 0 0 3.366-.385l1.876-1.5a11.747 11.747 0 0 1 3.492-1.786l3.07-.86m-14.996 3.718V53.5m5-11.734V53.5m5-14.837V53.5m-15-8h20m-9.032-4h9.032m-20 8h20m-18-17h16s2 0 2 2v17s0 2-2 2h-16s-2 0-2-2v-17s0-2 2-2zM122.41 173.286l7.68-3.857m-7.68 7.285 7.68 3.857m7.303-2.142-6.857 7.714-3.429-2.572m-12-8.571a3.857 3.857 0 1 0 7.715 0 3.857 3.857 0 0 0-7.715 0zm14.572-7.286a3.857 3.857 0 1 0 7.713 0 3.857 3.857 0 0 0-7.713 0zM427 163.75v22.5m15.5-22.5v7.5m-8-7.5v2.5m0 11v2.5m0 4v2.5m-3.8 0v-7.6c0-1.1.4-2.1 1.2-2.8l7.6-7.6m0 0h-2.9m2.9 0v2.8m4.15 9.8v-1.5m0 4c.2 0 .4.2.4.4s-.2.4-.4.4-.4-.2-.4-.4.2-.4.4-.4zm.75-8.2c-.2-.3-.5-.5-.8-.5-.3 0-.7.2-.8.5l-4.9 10s-.1.2-.1.3c0 .4.4.8.8.8h10.1c.4 0 .8-.4.8-.8 0-.1-.1-.3-.1-.3l-5-10zM198.603 309.75l5.663 4 5.598-4m-11.261 0 5.663-4m-5.663 4h-4.829a1.023 1.023 0 0 0-1.024 1.024v6.463m11.516-11.487 5.598 4m-5.598-4v-8.987m5.598 12.987h4.862a1.023 1.023 0 0 1 1.024 1.024v6.463m-5.984-12.459 5-5m0 5-5-5m-16 3 1.956 2 4-5M354.643 308.786a5.893 5.893 0 0 0-5.893 5.893v2.678c0 .592.479 1.071 1.071 1.072h9.643c.592 0 1.072-.48 1.072-1.072v-2.678a5.893 5.893 0 0 0-5.893-5.893zm0 0v-2.143m0 0a1.606 1.606 0 1 1-.001-3.213 1.606 1.606 0 0 1 .001 3.213zm-5.893 9.101h11.786m11.214-13.114a6.694 6.694 0 0 1-3.632 5.87l-2.676 1.433-2.675-1.433a6.695 6.695 0 0 1-3.633-5.87v-7.059l.21.263a3.672 3.672 0 0 0 2.628 1.342 3.74 3.74 0 0 0 2.8-.981l.666-.624.666.624a3.74 3.74 0 0 0 2.8.981 3.673 3.673 0 0 0 2.636-1.342l.21-.263v7.059zm-3 .057a3.51 3.51 0 0 1-1.9 3.079l-1.405.752-1.4-.752a3.51 3.51 0 0 1-1.907-3.079v-3.455a8.936 8.936 0 0 0 6.622 0l-.01 3.455zm-16.357 9.742a.25.25 0 1 0 .5 0 .25.25 0 0 0-.5 0zm4-.007a.25.25 0 1 0 .5 0 .25.25 0 0 0-.5 0z" stroke="#fff" stroke-width="2" stroke-linecap="round" stroke-linejoin="round"/><path d="M292.25 172c0 5.523-4.477 10-10 10s-10-4.477-10-10 4.477-10 10-10m-4 9 3.24 2.43a1 1 0 0 0 1.368-.16L292.25 162m-31-3.45v15.274a24.622 24.622 0 0 0 16.438 22.936l2.242.828a6.73 6.73 0 0 0 4.64 0l2.242-.828a24.622 24.622 0 0 0 16.438-22.936V158.55a3.065 3.065 0 0 0-1.868-2.812A48.473 48.473 0 0 0 282.25 152a48.473 48.473 0 0 0-19.132 3.738 3.065 3.065 0 0 0-1.868 2.812z" stroke="#1189C4" stroke-width="2" stroke-linecap="round" stroke-linejoin="round"/><path d="M90.315 16.192c-1.152 0-2.134-.25-2.944-.752a4.92 4.92 0 0 1-1.856-2.048c-.427-.875-.64-1.867-.64-2.976 0-1.11.208-2.101.624-2.976a4.795 4.795 0 0 1 1.84-2.064c.81-.512 1.802-.768 2.976-.768 1.344 0 2.442.336 3.296 1.008.864.661 1.402 1.595 1.616 2.8H92.97c-.139-.608-.438-1.083-.896-1.424-.448-.352-1.046-.528-1.792-.528-.683 0-1.275.16-1.776.48-.49.32-.87.773-1.136 1.36-.267.587-.4 1.29-.4 2.112 0 .81.133 1.515.4 2.112.266.587.645 1.04 1.136 1.36.501.31 1.093.464 1.776.464.746 0 1.344-.16 1.792-.48.458-.33.757-.784.896-1.36h2.256c-.214 1.152-.752 2.053-1.616 2.704-.854.65-1.952.976-3.296.976zm10.152 0c-.8 0-1.515-.17-2.144-.512a3.787 3.787 0 0 1-1.456-1.472c-.352-.63-.528-1.355-.528-2.176 0-.864.187-1.605.56-2.224.384-.63.89-1.11 1.52-1.44a4.532 4.532 0 0 1 2.112-.496c.8 0 1.515.176 2.144.528a3.791 3.791 0 0 1 1.488 1.44c.373.619.56 1.35.56 2.192 0 .8-.181 1.515-.544 2.144a3.954 3.954 0 0 1-1.504 1.488c-.629.352-1.365.528-2.208.528zm.032-1.776c.427 0 .795-.107 1.104-.32.32-.224.571-.517.752-.88a2.75 2.75 0 0 0 .272-1.216c0-.501-.101-.928-.304-1.28a1.985 1.985 0 0 0-.768-.8 2.105 2.105 0 0 0-1.056-.272c-.416 0-.784.101-1.104.304-.31.203-.555.485-.736.848-.17.352-.256.763-.256 1.232 0 .47.09.885.272 1.248.192.363.448.645.768.848.32.192.672.288 1.056.288zM105.908 16V8.064h2.032v.928c.277-.373.645-.65 1.104-.832a3.69 3.69 0 0 1 1.408-.288c.917 0 1.669.299 2.256.896.586.587.88 1.44.88 2.56V16h-2.032v-4.4c0-.597-.155-1.077-.464-1.44-.299-.373-.742-.56-1.328-.56-.587 0-1.04.187-1.36.56-.31.363-.464.843-.464 1.44V16h-2.032zm12.104 0c-.853 0-1.499-.208-1.936-.624-.427-.416-.64-1.04-.64-1.872V9.776h-1.024V8.064h1.024V6.128h2.048v1.936h1.808v1.712h-1.808v3.744c0 .299.08.501.24.608.16.107.368.16.624.16h.944V16h-1.28zm3.593-8.96a1.32 1.32 0 0 1-.944-.384 1.318 1.318 0 0 1-.384-.944c0-.373.128-.688.384-.944a1.32 1.32 0 0 1 .944-.384c.374 0 .688.128.944.384s.384.57.384.944c0 .363-.128.677-.384.944-.256.256-.57.384-.944.384zM120.581 16V8.064h2.048V16h-2.048zm3.545 0V8.064h2.032v.928c.278-.373.646-.65 1.104-.832.47-.192.939-.288 1.408-.288.918 0 1.67.299 2.256.896.587.587.88 1.44.88 2.56V16h-2.032v-4.4c0-.597-.154-1.077-.464-1.44-.298-.373-.741-.56-1.328-.56-.586 0-1.04.187-1.36.56-.309.363-.464.843-.464 1.44V16h-2.032zm12.089.192c-.683 0-1.264-.144-1.744-.432a2.966 2.966 0 0 1-1.104-1.216c-.256-.523-.384-1.115-.384-1.776V8.064h2.032v4.4c0 .587.149 1.067.448 1.44.309.373.757.56 1.344.56.608 0 1.061-.181 1.36-.544.298-.363.448-.848.448-1.456v-4.4h2.048V16h-2.048v-.928c-.267.363-.619.64-1.056.832a3.241 3.241 0 0 1-1.344.288zm9.752 0c-.8 0-1.515-.17-2.144-.512a3.785 3.785 0 0 1-1.456-1.472c-.352-.63-.528-1.355-.528-2.176 0-.864.187-1.605.56-2.224.384-.63.891-1.11 1.52-1.44a4.532 4.532 0 0 1 2.112-.496c.8 0 1.515.176 2.144.528a3.791 3.791 0 0 1 1.488 1.44c.373.619.56 1.35.56 2.192 0 .8-.181 1.515-.544 2.144a3.954 3.954 0 0 1-1.504 1.488c-.629.352-1.365.528-2.208.528zm.032-1.776c.427 0 .795-.107 1.104-.32.32-.224.571-.517.752-.88a2.75 2.75 0 0 0 .272-1.216c0-.501-.101-.928-.304-1.28a1.985 1.985 0 0 0-.768-.8 2.105 2.105 0 0 0-1.056-.272c-.416 0-.784.101-1.104.304a2.122 2.122 0 0 0-.736.848c-.171.352-.256.763-.256 1.232 0 .47.091.885.272 1.248.192.363.448.645.768.848.32.192.672.288 1.056.288zm8.513 1.776c-.683 0-1.264-.144-1.744-.432a2.966 2.966 0 0 1-1.104-1.216c-.256-.523-.384-1.115-.384-1.776V8.064h2.032v4.4c0 .587.149 1.067.448 1.44.309.373.757.56 1.344.56.608 0 1.061-.181 1.36-.544.298-.363.448-.848.448-1.456v-4.4h2.048V16h-2.048v-.928c-.267.363-.619.64-1.056.832a3.241 3.241 0 0 1-1.344.288zm9.128 0a4.405 4.405 0 0 1-1.68-.32 3.424 3.424 0 0 1-1.296-.944 2.417 2.417 0 0 1-.544-1.424h2.048c.053.341.219.608.496.8.288.192.608.288.96.288.299 0 .576-.064.832-.192.267-.139.4-.352.4-.64 0-.224-.096-.4-.288-.528a2.43 2.43 0 0 0-.672-.304 18.977 18.977 0 0 0-.704-.192 11.2 11.2 0 0 1-1.456-.448c-.437-.181-.784-.427-1.04-.736-.256-.32-.384-.741-.384-1.264 0-.512.144-.95.432-1.312a2.728 2.728 0 0 1 1.168-.816 4.31 4.31 0 0 1 1.584-.288c.885 0 1.632.224 2.24.672.608.448.939 1.11.992 1.984h-1.936c-.032-.341-.176-.597-.432-.768-.245-.181-.555-.272-.928-.272-.299 0-.565.053-.8.16-.235.107-.352.31-.352.608 0 .213.096.39.288.528.192.128.421.235.688.32.267.075.501.139.704.192.555.139 1.04.299 1.456.48.427.181.763.427 1.008.736.245.31.373.725.384 1.248 0 .523-.149.965-.448 1.328-.288.363-.672.64-1.152.832a4.404 4.404 0 0 1-1.568.272zM77.149 37V25.8h2.432l3.184 7.232 3.136-7.232h2.432V37h-2.048v-7.552l-2.736 6.128h-1.616l-2.736-6.128V37h-2.048zm16.568.192c-.8 0-1.515-.17-2.144-.512a3.787 3.787 0 0 1-1.456-1.472c-.352-.63-.528-1.355-.528-2.176 0-.864.187-1.605.56-2.224.384-.63.89-1.11 1.52-1.44a4.532 4.532 0 0 1 2.112-.496c.8 0 1.515.176 2.144.528.63.341 1.125.821 1.488 1.44.373.619.56 1.35.56 2.192 0 .8-.181 1.515-.544 2.144a3.952 3.952 0 0 1-1.504 1.488c-.63.352-1.365.528-2.208.528zm.032-1.776c.427 0 .795-.107 1.104-.32.32-.224.57-.517.752-.88.181-.373.272-.779.272-1.216 0-.501-.101-.928-.304-1.28a1.985 1.985 0 0 0-.768-.8 2.105 2.105 0 0 0-1.056-.272c-.416 0-.784.101-1.104.304-.31.203-.555.485-.736.848-.17.352-.256.763-.256 1.232 0 .47.09.885.272 1.248.192.363.448.645.768.848.32.192.672.288 1.056.288zM99.158 37v-7.936h2.032v.928c.277-.373.645-.65 1.104-.832a3.69 3.69 0 0 1 1.408-.288c.917 0 1.669.299 2.256.896.586.587.88 1.44.88 2.56V37h-2.032v-4.4c0-.597-.155-1.077-.464-1.44-.299-.373-.742-.56-1.328-.56-.587 0-1.04.187-1.36.56-.31.363-.464.843-.464 1.44V37h-2.032zm10.088-8.96c-.363 0-.677-.128-.944-.384a1.318 1.318 0 0 1-.384-.944c0-.373.128-.688.384-.944.267-.256.581-.384.944-.384.373 0 .688.128.944.384s.384.57.384.944c0 .363-.128.677-.384.944a1.284 1.284 0 0 1-.944.384zM108.222 37v-7.936h2.048V37h-2.048zm6.665 0c-.853 0-1.499-.208-1.936-.624-.427-.416-.64-1.04-.64-1.872v-3.728h-1.024v-1.712h1.024v-1.936h2.048v1.936h1.808v1.712h-1.808v3.744c0 .299.08.501.24.608.16.107.368.16.624.16h.944V37h-1.28zm6.158.192c-.8 0-1.515-.17-2.144-.512a3.785 3.785 0 0 1-1.456-1.472c-.352-.63-.528-1.355-.528-2.176 0-.864.187-1.605.56-2.224.384-.63.891-1.11 1.52-1.44a4.532 4.532 0 0 1 2.112-.496c.8 0 1.515.176 2.144.528a3.79 3.79 0 0 1 1.488 1.44c.373.619.56 1.35.56 2.192 0 .8-.181 1.515-.544 2.144a3.954 3.954 0 0 1-1.504 1.488c-.629.352-1.365.528-2.208.528zm.032-1.776c.427 0 .795-.107 1.104-.32.32-.224.571-.517.752-.88a2.75 2.75 0 0 0 .272-1.216c0-.501-.101-.928-.304-1.28a1.985 1.985 0 0 0-.768-.8 2.105 2.105 0 0 0-1.056-.272c-.416 0-.784.101-1.104.304a2.122 2.122 0 0 0-.736.848c-.171.352-.256.763-.256 1.232 0 .47.091.885.272 1.248.192.363.448.645.768.848.32.192.672.288 1.056.288zM126.486 37v-7.936h2.032v1.184c.277-.448.629-.79 1.056-1.024a2.902 2.902 0 0 1 1.424-.352v2.144h-.544c-.651 0-1.136.155-1.456.464-.32.31-.48.827-.48 1.552V37h-2.032zm6.572-8.96a1.32 1.32 0 0 1-.944-.384 1.318 1.318 0 0 1-.384-.944c0-.373.128-.688.384-.944a1.32 1.32 0 0 1 .944-.384c.374 0 .688.128.944.384s.384.57.384.944c0 .363-.128.677-.384.944-.256.256-.57.384-.944.384zM132.034 37v-7.936h2.048V37h-2.048zm3.545 0v-7.936h2.032v.928c.278-.373.646-.65 1.104-.832.47-.192.939-.288 1.408-.288.918 0 1.67.299 2.256.896.587.587.88 1.44.88 2.56V37h-2.032v-4.4c0-.597-.154-1.077-.464-1.44-.298-.373-.741-.56-1.328-.56-.586 0-1.04.187-1.36.56-.309.363-.464.843-.464 1.44V37h-2.032zm12.364 3.712c-.726 0-1.376-.08-1.952-.24-.576-.16-1.035-.421-1.376-.784-.331-.352-.496-.816-.496-1.392 0-.373.08-.699.24-.976.16-.267.405-.501.736-.704a1.621 1.621 0 0 1-.624-.608 1.69 1.69 0 0 1-.208-.848c0-.704.33-1.248.992-1.632a2.667 2.667 0 0 1-.544-.832 2.648 2.648 0 0 1-.192-.992c0-.576.138-1.072.416-1.488a2.754 2.754 0 0 1 1.152-.992c.49-.235 1.05-.352 1.68-.352.458 0 .88.064 1.264.192h2.848V30.6h-1.104c.064.181.117.363.16.544.053.181.08.368.08.56 0 .555-.144 1.045-.432 1.472a2.996 2.996 0 0 1-1.168 1.008c-.48.235-1.03.352-1.648.352-.267 0-.512-.021-.736-.064a3.026 3.026 0 0 1-.656-.24.586.586 0 0 0-.352.56c0 .47.389.704 1.168.704h1.456c.64 0 1.184.09 1.632.272.458.17.805.443 1.04.816.234.373.352.848.352 1.424a2.21 2.21 0 0 1-.496 1.44c-.331.405-.779.715-1.344.928a5.089 5.089 0 0 1-1.888.336zm0-1.6c.512 0 .944-.085 1.296-.256.362-.16.544-.405.544-.736 0-.63-.438-.944-1.312-.944h-1.152c-.427 0-.758.08-.992.24-.224.16-.336.395-.336.704 0 .245.09.437.272.576.181.15.421.256.72.32.298.064.618.096.96.096zm-.192-6.176c.405 0 .736-.112.992-.336.266-.235.4-.533.4-.896 0-.352-.134-.645-.4-.88-.256-.235-.587-.352-.992-.352-.406 0-.736.117-.992.352a1.165 1.165 0 0 0-.368.88c0 .363.117.661.352.896.245.224.581.336 1.008.336zm12.541 4.256c-.502 0-.982-.075-1.44-.224a3.826 3.826 0 0 1-1.2-.688 3.35 3.35 0 0 1-.816-1.072 3.31 3.31 0 0 1-.304-1.44c0-.373.058-.73.176-1.072.117-.341.282-.667.496-.976.224-.31.496-.587.816-.832l.144-.112-.144-.208a3.916 3.916 0 0 1-.48-.912 3.167 3.167 0 0 1-.144-.944c0-.619.144-1.157.432-1.616.298-.47.704-.832 1.216-1.088.522-.267 1.12-.4 1.792-.4.672 0 1.264.133 1.776.4.522.256.928.624 1.216 1.104.298.48.448 1.056.448 1.728h-2.032c0-.224-.048-.443-.144-.656a1.226 1.226 0 0 0-.464-.528c-.214-.139-.491-.208-.832-.208-.31 0-.566.064-.768.192a1.2 1.2 0 0 0-.448.48 1.31 1.31 0 0 0-.144.592c0 .395.144.773.432 1.136.298.363.704.8 1.216 1.312l1.936 1.936 1.6-2.576h2.176l-2.448 3.904L166.932 37h-2.576l-1.088-1.088-.16.16a3.755 3.755 0 0 1-1.296.848c-.48.181-.987.272-1.52.272zm.128-1.872c.277 0 .538-.048.784-.144.245-.107.506-.288.784-.544l-2.576-2.56c-.299.235-.512.48-.64.736a1.767 1.767 0 0 0-.192.8c0 .32.085.608.256.864.17.256.394.464.672.624.288.15.592.224.912.224zM99.446 58V46.8h3.888c.779 0 1.451.128 2.016.384.576.245 1.024.608 1.344 1.088.32.48.48 1.067.48 1.76 0 .8-.213 1.44-.64 1.92-.427.48-1.008.81-1.744.992L107.91 58h-2.416l-2.752-4.72h-1.248V58h-2.048zm2.048-6.464h1.792c.48 0 .848-.064 1.104-.192.267-.139.448-.32.544-.544.107-.224.16-.48.16-.768a1.76 1.76 0 0 0-.16-.768c-.096-.224-.277-.4-.544-.528-.256-.128-.624-.192-1.104-.192h-1.792v2.992zm10.393 6.656c-.832 0-1.552-.181-2.16-.544a3.747 3.747 0 0 1-1.392-1.488c-.331-.63-.496-1.339-.496-2.128 0-.843.171-1.573.512-2.192a3.624 3.624 0 0 1 1.424-1.44c.608-.352 1.312-.528 2.112-.528.789 0 1.477.17 2.064.512.597.341 1.061.81 1.392 1.408.341.597.512 1.285.512 2.064a4.063 4.063 0 0 1-.064.784h-5.888c.032.373.128.704.288.992.171.277.395.496.672.656.288.15.613.224.976.224.373 0 .693-.08.96-.24.277-.16.496-.405.656-.736h2.192c-.149.47-.389.907-.72 1.312-.331.405-.752.73-1.264.976-.501.245-1.093.368-1.776.368zm-1.968-4.912h3.824c-.011-.533-.208-.955-.592-1.264a2.015 2.015 0 0 0-1.328-.464c-.437 0-.843.139-1.216.416-.373.267-.603.704-.688 1.312zm7.02 8.24V50.064h2.032v1.104a2.932 2.932 0 0 1 1.152-.96 3.482 3.482 0 0 1 1.52-.336c.768 0 1.424.187 1.968.56.554.373.976.875 1.264 1.504.298.619.448 1.307.448 2.064 0 .757-.15 1.456-.448 2.096a3.77 3.77 0 0 1-1.28 1.536c-.544.373-1.195.56-1.952.56-.672 0-1.232-.139-1.68-.416-.438-.277-.763-.565-.976-.864v4.608h-2.048zm4.16-5.12c.426 0 .8-.107 1.12-.32.32-.224.57-.517.752-.88a2.65 2.65 0 0 0 .272-1.2c0-.501-.102-.923-.304-1.264a1.958 1.958 0 0 0-.784-.8 2.105 2.105 0 0 0-1.056-.272c-.406 0-.768.101-1.088.304-.32.203-.576.485-.768.848a2.61 2.61 0 0 0-.272 1.216c0 .437.09.837.272 1.2.181.363.432.65.752.864.32.203.688.304 1.104.304zm9.274 1.792c-.8 0-1.514-.17-2.144-.512a3.792 3.792 0 0 1-1.456-1.472c-.352-.63-.528-1.355-.528-2.176 0-.864.187-1.605.56-2.224.384-.63.891-1.11 1.52-1.44a4.532 4.532 0 0 1 2.112-.496c.8 0 1.515.176 2.144.528.63.341 1.126.821 1.488 1.44.374.619.56 1.35.56 2.192 0 .8-.181 1.515-.544 2.144a3.947 3.947 0 0 1-1.504 1.488c-.629.352-1.365.528-2.208.528zm.032-1.776c.427 0 .795-.107 1.104-.32.32-.224.571-.517.752-.88.182-.373.272-.779.272-1.216 0-.501-.101-.928-.304-1.28a1.985 1.985 0 0 0-.768-.8 2.105 2.105 0 0 0-1.056-.272c-.416 0-.784.101-1.104.304a2.13 2.13 0 0 0-.736.848c-.17.352-.256.763-.256 1.232 0 .47.091.885.272 1.248.192.363.448.645.768.848.32.192.672.288 1.056.288zM135.814 58v-7.936h2.032v1.184c.277-.448.629-.79 1.056-1.024a2.902 2.902 0 0 1 1.424-.352v2.144h-.544c-.651 0-1.136.155-1.456.464-.32.31-.48.827-.48 1.552V58h-2.032zm8.745 0c-.854 0-1.499-.208-1.936-.624-.427-.416-.64-1.04-.64-1.872v-3.728h-1.024v-1.712h1.024v-1.936h2.048v1.936h1.808v1.712h-1.808v3.744c0 .299.08.501.24.608.16.107.368.16.624.16h.944V58h-1.28zm3.593-8.96c-.363 0-.677-.128-.944-.384a1.318 1.318 0 0 1-.384-.944c0-.373.128-.688.384-.944.267-.256.581-.384.944-.384.373 0 .688.128.944.384s.384.57.384.944c0 .363-.128.677-.384.944a1.284 1.284 0 0 1-.944.384zM147.128 58v-7.936h2.048V58h-2.048zm3.545 0v-7.936h2.032v.928c.277-.373.645-.65 1.104-.832a3.694 3.694 0 0 1 1.408-.288c.917 0 1.669.299 2.256.896.587.587.88 1.44.88 2.56V58h-2.032v-4.4c0-.597-.155-1.077-.464-1.44-.299-.373-.741-.56-1.328-.56-.587 0-1.04.187-1.36.56-.309.363-.464.843-.464 1.44V58h-2.032zm12.363 3.712c-.725 0-1.375-.08-1.951-.24-.576-.16-1.035-.421-1.376-.784-.331-.352-.496-.816-.496-1.392 0-.373.08-.699.24-.976.16-.267.405-.501.736-.704a1.621 1.621 0 0 1-.624-.608 1.69 1.69 0 0 1-.208-.848c0-.704.33-1.248.992-1.632a2.667 2.667 0 0 1-.544-.832 2.648 2.648 0 0 1-.192-.992c0-.576.138-1.072.416-1.488a2.754 2.754 0 0 1 1.152-.992c.49-.235 1.05-.352 1.68-.352.458 0 .88.064 1.264.192h2.848V51.6h-1.104c.064.181.117.363.16.544.053.181.08.368.08.56 0 .555-.144 1.045-.432 1.472a2.996 2.996 0 0 1-1.168 1.008c-.48.235-1.03.352-1.648.352-.267 0-.512-.021-.736-.064a3.026 3.026 0 0 1-.656-.24.586.586 0 0 0-.352.56c0 .47.389.704 1.168.704h1.456c.64 0 1.184.09 1.632.272.458.17.805.443 1.04.816.234.373.352.848.352 1.424a2.21 2.21 0 0 1-.496 1.44c-.331.405-.779.715-1.344.928a5.09 5.09 0 0 1-1.889.336zm0-1.6c.513 0 .945-.085 1.297-.256.362-.16.544-.405.544-.736 0-.63-.438-.944-1.312-.944h-1.152c-.427 0-.758.08-.992.24-.224.16-.336.395-.336.704 0 .245.09.437.272.576.181.15.421.256.72.32.298.064.618.096.959.096zm-.191-6.176c.405 0 .736-.112.992-.336.266-.235.4-.533.4-.896 0-.352-.134-.645-.4-.88-.256-.235-.587-.352-.992-.352-.406 0-.736.117-.992.352a1.165 1.165 0 0 0-.368.88c0 .363.117.661.352.896.245.224.581.336 1.008.336z" fill="#FE8480"/><path d="M15.554 158v-9.456H12.29V146.8h8.592v1.744h-3.28V158h-2.048zm6.4 0v-11.2h2.032v4.192a2.475 2.475 0 0 1 1.104-.832c.47-.192.939-.288 1.408-.288.918 0 1.67.299 2.256.896.587.587.88 1.44.88 2.56V158h-2.032v-4.4c0-.597-.154-1.077-.464-1.44-.298-.373-.741-.56-1.328-.56-.586 0-1.04.187-1.36.56-.309.363-.464.843-.464 1.44v4.4h-2.032zm10.089-8.96c-.363 0-.678-.128-.944-.384a1.318 1.318 0 0 1-.384-.944c0-.373.128-.688.384-.944.266-.256.581-.384.944-.384.373 0 .688.128.944.384s.384.571.384.944c0 .363-.128.677-.384.944-.256.256-.57.384-.944.384zM31.019 158v-7.936h2.048V158h-2.048zm3.545 0v-7.936h2.032v1.184c.277-.448.63-.789 1.056-1.024a2.901 2.901 0 0 1 1.424-.352v2.144h-.544c-.65 0-1.136.155-1.456.464-.32.309-.48.827-.48 1.552V158h-2.032zm8.736.192c-.768 0-1.43-.187-1.984-.56a3.837 3.837 0 0 1-1.264-1.52A5.088 5.088 0 0 1 39.62 154c0-.768.15-1.461.448-2.08a3.562 3.562 0 0 1 1.28-1.488c.555-.373 1.206-.56 1.952-.56.512 0 .998.107 1.456.32.47.213.864.523 1.184.928v-4.32h2.064V158H45.94v-1.136c-.266.437-.64.768-1.12.992-.48.224-.986.336-1.52.336zm.528-1.792c.427 0 .795-.101 1.104-.304.32-.203.57-.48.752-.832.182-.363.272-.773.272-1.232 0-.565-.112-1.019-.336-1.36a2.04 2.04 0 0 0-.832-.768 2.23 2.23 0 0 0-.976-.24c-.416 0-.784.101-1.104.304-.31.203-.554.48-.736.832-.181.341-.272.741-.272 1.2 0 .448.09.853.272 1.216.182.363.432.651.752.864.32.213.688.32 1.104.32zm5.755-2.176v-1.712h5.2v1.712h-5.2zM56.665 158v-11.2h4.144c.778 0 1.461.133 2.048.4a3.169 3.169 0 0 1 1.408 1.136c.341.501.512 1.109.512 1.824 0 .715-.171 1.328-.512 1.84-.342.501-.811.885-1.408 1.152-.587.256-1.27.384-2.048.384h-2.096V158h-2.048zm2.048-6.208h2.048c.714 0 1.216-.149 1.504-.448.288-.309.432-.704.432-1.184 0-.469-.144-.853-.432-1.152-.288-.309-.79-.464-1.504-.464h-2.048v3.248zm9.017 6.4c-.47 0-.907-.096-1.312-.288a2.559 2.559 0 0 1-.992-.816c-.245-.363-.368-.789-.368-1.28 0-.587.144-1.067.432-1.44.288-.373.683-.651 1.184-.832a5.11 5.11 0 0 1 1.712-.272h1.888c0-.363-.058-.667-.176-.912a1.158 1.158 0 0 0-.496-.56c-.213-.139-.48-.208-.8-.208-.373 0-.71.085-1.008.256-.288.16-.464.432-.528.816h-2.048c.053-.576.25-1.072.592-1.488a3.333 3.333 0 0 1 1.312-.96 4.376 4.376 0 0 1 1.712-.336c.747 0 1.376.139 1.888.416.523.277.923.672 1.2 1.184.278.501.416 1.099.416 1.792v2.416c.022.235.107.395.256.48.15.085.347.128.592.128V158c-.501 0-.923-.048-1.264-.144a2.186 2.186 0 0 1-.816-.416 2.512 2.512 0 0 1-.544-.72c-.245.416-.63.768-1.152 1.056a3.474 3.474 0 0 1-1.68.416zm.592-1.648c.352 0 .672-.08.96-.24.299-.16.539-.384.72-.672.181-.288.272-.619.272-.992v-.064h-1.76c-.234 0-.459.037-.672.112a1.057 1.057 0 0 0-.512.32c-.128.139-.192.331-.192.576 0 .331.112.576.336.736.235.149.517.224.848.224zM74.173 158v-7.936h2.032v1.184c.278-.448.63-.789 1.056-1.024a2.902 2.902 0 0 1 1.424-.352v2.144h-.544c-.65 0-1.136.155-1.456.464-.32.309-.48.827-.48 1.552V158h-2.032zm8.745 0c-.853 0-1.499-.208-1.936-.624-.427-.416-.64-1.04-.64-1.872v-3.728h-1.024v-1.712h1.024v-1.936h2.048v1.936h1.808v1.712H82.39v3.744c0 .299.08.501.24.608.16.107.368.16.624.16h.944V158h-1.28zm3.225 3.52 1.745-3.888-3.217-7.568h2.288l2.048 5.408 2.096-5.408h2.16l-4.96 11.456h-2.16zM16.773 179l-4.096-11.2h2.192l3.168 9.104 3.184-9.104h2.16L19.284 179h-2.512zm9.787.192c-.832 0-1.552-.181-2.16-.544a3.746 3.746 0 0 1-1.392-1.488c-.33-.629-.496-1.339-.496-2.128 0-.843.17-1.573.512-2.192a3.622 3.622 0 0 1 1.424-1.44c.608-.352 1.312-.528 2.112-.528.79 0 1.477.171 2.064.512a3.605 3.605 0 0 1 1.392 1.408c.341.597.512 1.285.512 2.064 0 .139-.006.277-.016.416-.01.128-.027.251-.048.368h-5.888c.032.373.128.704.288.992.17.277.395.496.672.656.288.149.613.224.976.224.373 0 .693-.08.96-.24.277-.16.496-.405.656-.736h2.192c-.15.469-.39.907-.72 1.312-.33.405-.752.731-1.264.976-.502.245-1.094.368-1.776.368zm-1.968-4.912h3.824c-.01-.533-.208-.955-.592-1.264a2.018 2.018 0 0 0-1.328-.464 2 2 0 0 0-1.216.416c-.373.267-.603.704-.688 1.312zm7.02 4.72v-7.936h2.032v1.184c.277-.448.629-.789 1.056-1.024a2.902 2.902 0 0 1 1.424-.352v2.144h-.544c-.651 0-1.136.155-1.456.464-.32.309-.48.827-.48 1.552V179H31.61zm6.572-8.96c-.362 0-.677-.128-.944-.384a1.318 1.318 0 0 1-.384-.944c0-.373.128-.688.384-.944.267-.256.582-.384.944-.384.374 0 .688.128.944.384s.384.571.384.944c0 .363-.128.677-.384.944-.256.256-.57.384-.944.384zM37.16 179v-7.936h2.048V179H37.16zm3.753 0v-6.224h-.928v-1.712h.928v-.608c0-.96.24-1.643.72-2.048.491-.405 1.152-.608 1.984-.608h.672v1.744h-.352c-.352 0-.602.069-.752.208-.149.139-.224.373-.224.704v.608h1.424v1.712H42.96V179h-2.048zm4.768 0v-7.936h2.048V179H45.68zm1.024-8.96c-.362 0-.677-.128-.944-.384a1.318 1.318 0 0 1-.384-.944c0-.373.128-.688.384-.944.267-.256.582-.384.944-.384.374 0 .688.128.944.384s.384.571.384.944c0 .363-.128.677-.384.944-.256.256-.57.384-.944.384zm6.275 9.152c-.8 0-1.498-.176-2.096-.528a3.77 3.77 0 0 1-1.392-1.472c-.33-.629-.496-1.349-.496-2.16 0-.8.16-1.515.48-2.144.33-.629.795-1.12 1.392-1.472.598-.363 1.302-.544 2.112-.544.96 0 1.77.24 2.432.72.672.48 1.126 1.189 1.36 2.128H54.58a1.56 1.56 0 0 0-.56-.784c-.266-.224-.618-.336-1.056-.336-.437 0-.794.112-1.072.336a2.032 2.032 0 0 0-.624.896 3.587 3.587 0 0 0-.192 1.2c0 .437.064.843.192 1.216.139.363.347.656.624.88.278.213.635.32 1.072.32.416 0 .758-.091 1.024-.272.267-.192.464-.469.592-.832h2.192a3.584 3.584 0 0 1-.752 1.536c-.352.427-.79.752-1.312.976-.512.224-1.088.336-1.728.336zm7.407 0c-.469 0-.906-.096-1.312-.288a2.558 2.558 0 0 1-.992-.816c-.245-.363-.368-.789-.368-1.28 0-.587.144-1.067.432-1.44.288-.373.683-.651 1.184-.832a5.11 5.11 0 0 1 1.712-.272h1.888c0-.363-.058-.667-.176-.912a1.159 1.159 0 0 0-.496-.56c-.213-.139-.48-.208-.8-.208-.373 0-.709.085-1.008.256-.288.16-.464.432-.528.816h-2.048c.054-.576.251-1.072.592-1.488a3.332 3.332 0 0 1 1.312-.96 4.376 4.376 0 0 1 1.712-.336c.747 0 1.376.139 1.888.416.523.277.923.672 1.2 1.184.278.501.416 1.099.416 1.792v2.416c.022.235.107.395.256.48.15.085.347.128.592.128V179c-.501 0-.922-.048-1.264-.144a2.185 2.185 0 0 1-.816-.416 2.508 2.508 0 0 1-.544-.72c-.245.416-.629.768-1.152 1.056a3.474 3.474 0 0 1-1.68.416zm.592-1.648c.352 0 .672-.08.96-.24.299-.16.539-.384.72-.672.182-.288.272-.619.272-.992v-.064h-1.76a2.01 2.01 0 0 0-.672.112 1.056 1.056 0 0 0-.512.32c-.128.139-.192.331-.192.576 0 .331.112.576.336.736.235.149.518.224.848.224zm8.58 1.456c-.853 0-1.498-.208-1.935-.624-.427-.416-.64-1.04-.64-1.872v-3.728h-1.024v-1.712h1.024v-1.936h2.048v1.936h1.808v1.712H69.03v3.744c0 .299.08.501.24.608.16.107.368.16.624.16h.944V179h-1.28zm3.594-8.96c-.362 0-.677-.128-.944-.384a1.318 1.318 0 0 1-.384-.944c0-.373.128-.688.384-.944.267-.256.582-.384.944-.384.373 0 .688.128.944.384s.384.571.384.944c0 .363-.128.677-.384.944-.256.256-.57.384-.944.384zM72.128 179v-7.936h2.048V179h-2.048zm7.417.192c-.8 0-1.514-.171-2.144-.512a3.79 3.79 0 0 1-1.456-1.472c-.352-.629-.528-1.355-.528-2.176 0-.864.187-1.605.56-2.224a3.867 3.867 0 0 1 1.52-1.44 4.528 4.528 0 0 1 2.112-.496c.8 0 1.515.176 2.144.528.63.341 1.126.821 1.488 1.44.374.619.56 1.349.56 2.192 0 .8-.181 1.515-.544 2.144a3.956 3.956 0 0 1-1.504 1.488c-.63.352-1.365.528-2.208.528zm.032-1.776c.427 0 .795-.107 1.104-.32.32-.224.57-.517.752-.88.181-.373.272-.779.272-1.216 0-.501-.101-.928-.304-1.28a1.984 1.984 0 0 0-.768-.8 2.108 2.108 0 0 0-1.056-.272c-.416 0-.784.101-1.104.304-.31.203-.555.485-.736.848-.17.352-.256.763-.256 1.232s.09.885.272 1.248c.192.363.448.645.768.848.32.192.672.288 1.056.288zM84.986 179v-7.936h2.032v.928a2.476 2.476 0 0 1 1.104-.832c.469-.192.938-.288 1.408-.288.917 0 1.669.299 2.256.896.586.587.88 1.44.88 2.56V179h-2.032v-4.4c0-.597-.155-1.077-.464-1.44-.299-.373-.742-.56-1.328-.56-.587 0-1.04.187-1.36.56-.31.363-.464.843-.464 1.44v4.4h-2.032zm-45.2 21.192c-.78 0-1.489-.133-2.129-.4a3.464 3.464 0 0 1-1.503-1.184c-.374-.533-.571-1.195-.593-1.984h2.16c.022.523.209.96.56 1.312.363.352.86.528 1.489.528.543 0 .975-.128 1.295-.384.32-.256.48-.603.48-1.04 0-.224-.037-.421-.111-.592-.064-.171-.192-.331-.384-.48-.192-.149-.464-.293-.816-.432a14.775 14.775 0 0 0-1.36-.496c-.736-.245-1.329-.528-1.777-.848-.447-.32-.773-.677-.976-1.072a3.026 3.026 0 0 1-.288-1.312c0-.704.166-1.291.497-1.76.34-.48.794-.837 1.36-1.072a4.816 4.816 0 0 1 1.904-.368c.703 0 1.338.123 1.904.368a3.28 3.28 0 0 1 1.392 1.088c.352.48.533 1.072.544 1.776h-2.192a1.48 1.48 0 0 0-.48-1.056c-.3-.299-.715-.448-1.248-.448-.427 0-.79.112-1.089.336-.298.224-.447.555-.447.992 0 .32.117.592.352.816.245.224.57.421.976.592.416.16.874.331 1.376.512.277.096.586.219.927.368a4.29 4.29 0 0 1 1.008.608c.32.245.582.56.785.944.213.373.32.837.32 1.392 0 .683-.177 1.269-.529 1.76-.34.491-.81.869-1.407 1.136-.587.267-1.254.4-2 .4zm8.397 0c-.682 0-1.264-.144-1.744-.432a2.968 2.968 0 0 1-1.104-1.216c-.256-.523-.384-1.115-.384-1.776v-4.704h2.032v4.4c0 .587.15 1.067.448 1.44.31.373.758.56 1.344.56.608 0 1.062-.181 1.36-.544.299-.363.448-.848.448-1.456v-4.4h2.048V200h-2.048v-.928c-.266.363-.618.64-1.056.832a3.24 3.24 0 0 1-1.344.288zm5.88 3.328v-11.456h2.033v1.104a2.93 2.93 0 0 1 1.152-.96c.47-.224.976-.336 1.52-.336.768 0 1.424.187 1.968.56.554.373.976.875 1.264 1.504.298.619.448 1.307.448 2.064 0 .757-.15 1.456-.448 2.096a3.764 3.764 0 0 1-1.28 1.536c-.544.373-1.195.56-1.952.56-.672 0-1.232-.139-1.68-.416-.438-.277-.763-.565-.976-.864v4.608h-2.048zm4.16-5.12c.427 0 .8-.107 1.12-.32.32-.224.571-.517.753-.88.181-.363.272-.763.272-1.2 0-.501-.102-.923-.304-1.264a1.953 1.953 0 0 0-.784-.8 2.108 2.108 0 0 0-1.056-.272c-.406 0-.768.101-1.088.304-.32.203-.576.485-.768.848a2.617 2.617 0 0 0-.272 1.216c0 .437.09.837.272 1.2.181.363.432.651.752.864.32.203.688.304 1.104.304zm5.403 5.12v-11.456h2.032v1.104a2.93 2.93 0 0 1 1.152-.96c.47-.224.976-.336 1.52-.336.768 0 1.424.187 1.968.56.555.373.976.875 1.264 1.504.299.619.448 1.307.448 2.064 0 .757-.15 1.456-.448 2.096a3.764 3.764 0 0 1-1.28 1.536c-.544.373-1.194.56-1.952.56-.672 0-1.232-.139-1.68-.416-.437-.277-.762-.565-.976-.864v4.608h-2.048zm4.16-5.12c.427 0 .8-.107 1.12-.32.32-.224.57-.517.752-.88.182-.363.272-.763.272-1.2 0-.501-.101-.923-.304-1.264a1.953 1.953 0 0 0-.784-.8 2.108 2.108 0 0 0-1.056-.272c-.405 0-.768.101-1.088.304-.32.203-.576.485-.768.848a2.617 2.617 0 0 0-.272 1.216c0 .437.09.837.272 1.2.182.363.432.651.752.864.32.203.688.304 1.104.304zm9.275 1.792c-.8 0-1.515-.171-2.144-.512a3.79 3.79 0 0 1-1.456-1.472c-.352-.629-.528-1.355-.528-2.176 0-.864.186-1.605.56-2.224a3.866 3.866 0 0 1 1.52-1.44 4.528 4.528 0 0 1 2.112-.496c.8 0 1.514.176 2.144.528.63.341 1.125.821 1.488 1.44.373.619.56 1.349.56 2.192 0 .8-.182 1.515-.544 2.144a3.956 3.956 0 0 1-1.504 1.488c-.63.352-1.366.528-2.208.528zm.032-1.776c.426 0 .794-.107 1.104-.32.32-.224.57-.517.752-.88.181-.373.272-.779.272-1.216 0-.501-.102-.928-.304-1.28a1.984 1.984 0 0 0-.768-.8 2.108 2.108 0 0 0-1.056-.272c-.416 0-.784.101-1.104.304-.31.203-.555.485-.736.848-.17.352-.256.763-.256 1.232s.09.885.272 1.248c.192.363.448.645.768.848.32.192.672.288 1.056.288zM82.5 200v-7.936h2.032v1.184c.278-.448.63-.789 1.056-1.024a2.901 2.901 0 0 1 1.424-.352v2.144h-.544c-.65 0-1.136.155-1.456.464-.32.309-.48.827-.48 1.552V200h-2.032zm8.745 0c-.853 0-1.498-.208-1.936-.624-.426-.416-.64-1.04-.64-1.872v-3.728h-1.024v-1.712h1.024v-1.936h2.048v1.936h1.808v1.712h-1.808v3.744c0 .299.08.501.24.608.16.107.368.16.624.16h.944V200h-1.28z" fill="#FA9C46"/><path d="M128.067 291.192c-.779 0-1.488-.133-2.128-.4a3.458 3.458 0 0 1-1.504-1.184c-.374-.533-.571-1.195-.592-1.984h2.16c.021.523.208.96.56 1.312.362.352.858.528 1.488.528.544 0 .976-.128 1.296-.384.32-.256.48-.603.48-1.04 0-.224-.038-.421-.112-.592-.064-.171-.192-.331-.384-.48-.192-.149-.464-.293-.816-.432a14.885 14.885 0 0 0-1.36-.496c-.736-.245-1.328-.528-1.776-.848-.448-.32-.774-.677-.976-1.072a3.026 3.026 0 0 1-.288-1.312c0-.704.165-1.291.496-1.76.341-.48.794-.837 1.36-1.072a4.813 4.813 0 0 1 1.904-.368c.704 0 1.338.123 1.904.368a3.28 3.28 0 0 1 1.392 1.088c.352.48.533 1.072.544 1.776h-2.192a1.482 1.482 0 0 0-.48-1.056c-.299-.299-.715-.448-1.248-.448-.427 0-.79.112-1.088.336-.299.224-.448.555-.448.992 0 .32.117.592.352.816.245.224.57.421.976.592.416.16.874.331 1.376.512.277.096.586.219.928.368a4.29 4.29 0 0 1 1.008.608c.32.245.581.56.784.944.213.373.32.837.32 1.392 0 .683-.176 1.269-.528 1.76-.342.491-.811.869-1.408 1.136-.587.267-1.254.4-2 .4zm5.294-.192v-7.936h2.032v.912a2.428 2.428 0 0 1 1.024-.832 3.253 3.253 0 0 1 1.312-.272 3.67 3.67 0 0 1 1.664.384c.522.245.928.635 1.216 1.168a2.822 2.822 0 0 1 1.104-1.136 3.081 3.081 0 0 1 1.568-.416 3.51 3.51 0 0 1 1.648.384c.501.245.896.624 1.184 1.136.288.512.432 1.152.432 1.92V291h-2.032v-4.4c0-.597-.144-1.072-.432-1.424-.288-.352-.731-.528-1.328-.528-.587 0-1.03.176-1.328.528-.299.352-.448.827-.448 1.424v4.4h-2.032v-4.4c0-.608-.155-1.083-.464-1.424-.299-.352-.731-.528-1.296-.528-.48 0-.902.155-1.264.464-.352.299-.528.795-.528 1.488v4.4h-2.032zm16.932.192c-.47 0-.907-.096-1.312-.288a2.554 2.554 0 0 1-.992-.816c-.246-.363-.368-.789-.368-1.28 0-.587.144-1.067.432-1.44.288-.373.682-.651 1.184-.832a5.107 5.107 0 0 1 1.712-.272h1.888c0-.363-.059-.667-.176-.912a1.16 1.16 0 0 0-.496-.56c-.214-.139-.48-.208-.8-.208-.374 0-.71.085-1.008.256-.288.16-.464.432-.528.816h-2.048a2.67 2.67 0 0 1 .592-1.488 3.325 3.325 0 0 1 1.312-.96 4.375 4.375 0 0 1 1.712-.336c.746 0 1.376.139 1.888.416a2.86 2.86 0 0 1 1.2 1.184c.277.501.416 1.099.416 1.792v2.416c.021.235.106.395.256.48.149.085.346.128.592.128V291c-.502 0-.923-.048-1.264-.144a2.18 2.18 0 0 1-.816-.416 2.492 2.492 0 0 1-.544-.72c-.246.416-.63.768-1.152 1.056a3.474 3.474 0 0 1-1.68.416zm.592-1.648c.352 0 .672-.08.96-.24.298-.16.538-.384.72-.672.181-.288.272-.619.272-.992v-.064h-1.76c-.235 0-.459.037-.672.112a1.054 1.054 0 0 0-.512.32c-.128.139-.192.331-.192.576 0 .331.112.576.336.736.234.149.517.224.848.224zm5.851 1.456v-7.936h2.032v1.184a2.85 2.85 0 0 1 1.056-1.024 2.899 2.899 0 0 1 1.424-.352v2.144h-.544c-.651 0-1.136.155-1.456.464-.32.309-.48.827-.48 1.552V291h-2.032zm8.745 0c-.854 0-1.499-.208-1.936-.624-.427-.416-.64-1.04-.64-1.872v-3.728h-1.024v-1.712h1.024v-1.936h2.048v1.936h1.808v1.712h-1.808v3.744c0 .299.08.501.24.608.16.107.368.16.624.16h.944V291h-1.28zm-64.004 21v-11.2h7.184v1.744h-5.136v2.672h4.4v1.744h-4.4v3.296h5.136V312h-7.184zm7.961 0 2.624-3.984-2.657-3.952h2.305l1.632 2.448 1.488-2.448h2.176l-2.64 3.952 2.672 3.984h-2.288l-1.664-2.464-1.472 2.464h-2.176zm11.573.192c-.8 0-1.499-.176-2.097-.528a3.766 3.766 0 0 1-1.391-1.472c-.331-.629-.496-1.349-.496-2.16 0-.8.16-1.515.48-2.144.33-.629.794-1.12 1.392-1.472.597-.363 1.301-.544 2.112-.544.96 0 1.77.24 2.432.72.672.48 1.125 1.189 1.36 2.128h-2.192a1.561 1.561 0 0 0-.56-.784c-.267-.224-.619-.336-1.056-.336-.438 0-.795.112-1.072.336a2.023 2.023 0 0 0-.624.896 3.587 3.587 0 0 0-.192 1.2c0 .437.064.843.192 1.216.138.363.346.656.624.88.277.213.634.32 1.072.32.416 0 .757-.091 1.024-.272.266-.192.464-.469.592-.832h2.192a3.594 3.594 0 0 1-.752 1.536c-.352.427-.79.752-1.312.976-.512.224-1.088.336-1.728.336zm4.975-.192v-11.2h2.048V312h-2.048zm6.604.192c-.683 0-1.264-.144-1.744-.432a2.968 2.968 0 0 1-1.104-1.216c-.256-.523-.384-1.115-.384-1.776v-4.704h2.032v4.4c0 .587.149 1.067.448 1.44.309.373.757.56 1.344.56.608 0 1.061-.181 1.36-.544.298-.363.448-.848.448-1.456v-4.4h2.048V312h-2.048v-.928a2.56 2.56 0 0 1-1.056.832 3.241 3.241 0 0 1-1.344.288zm9.128 0a4.411 4.411 0 0 1-1.68-.32 3.427 3.427 0 0 1-1.296-.944 2.416 2.416 0 0 1-.544-1.424h2.048c.053.341.219.608.496.8.288.192.608.288.96.288.299 0 .576-.064.832-.192.267-.139.4-.352.4-.64 0-.224-.096-.4-.288-.528a2.44 2.44 0 0 0-.672-.304 17.869 17.869 0 0 0-.704-.192 11.153 11.153 0 0 1-1.456-.448c-.437-.181-.784-.427-1.04-.736-.256-.32-.384-.741-.384-1.264 0-.512.144-.949.432-1.312a2.722 2.722 0 0 1 1.168-.816 4.31 4.31 0 0 1 1.584-.288c.885 0 1.632.224 2.24.672.608.448.939 1.109.992 1.984h-1.936c-.032-.341-.176-.597-.432-.768-.245-.181-.555-.272-.928-.272-.299 0-.565.053-.8.16-.235.107-.352.309-.352.608 0 .213.096.389.288.528.192.128.421.235.688.32.267.075.501.139.704.192.555.139 1.04.299 1.456.48.427.181.763.427 1.008.736s.373.725.384 1.248c0 .523-.149.965-.448 1.328-.288.363-.672.64-1.152.832a4.41 4.41 0 0 1-1.568.272zm5.434-9.152c-.363 0-.677-.128-.944-.384a1.318 1.318 0 0 1-.384-.944c0-.373.128-.688.384-.944.267-.256.581-.384.944-.384.373 0 .688.128.944.384s.384.571.384.944c0 .363-.128.677-.384.944a1.284 1.284 0 0 1-.944.384zm-1.024 8.96v-7.936h2.048V312h-2.048zm7.417.192c-.8 0-1.515-.171-2.144-.512a3.787 3.787 0 0 1-1.456-1.472c-.352-.629-.528-1.355-.528-2.176 0-.864.187-1.605.56-2.224a3.87 3.87 0 0 1 1.52-1.44 4.528 4.528 0 0 1 2.112-.496c.8 0 1.515.176 2.144.528a3.787 3.787 0 0 1 1.488 1.44c.373.619.56 1.349.56 2.192 0 .8-.181 1.515-.544 2.144a3.958 3.958 0 0 1-1.504 1.488c-.629.352-1.365.528-2.208.528zm.032-1.776c.427 0 .795-.107 1.104-.32.32-.224.571-.517.752-.88a2.75 2.75 0 0 0 .272-1.216c0-.501-.101-.928-.304-1.28a1.984 1.984 0 0 0-.768-.8 2.108 2.108 0 0 0-1.056-.272c-.416 0-.784.101-1.104.304a2.122 2.122 0 0 0-.736.848c-.171.352-.256.763-.256 1.232s.091.885.272 1.248c.192.363.448.645.768.848.32.192.672.288 1.056.288zm5.409 1.584v-7.936h2.032v.928a2.472 2.472 0 0 1 1.104-.832 3.69 3.69 0 0 1 1.408-.288c.917 0 1.669.299 2.256.896.586.587.88 1.44.88 2.56V312h-2.032v-4.4c0-.597-.155-1.077-.464-1.44-.299-.373-.742-.56-1.328-.56-.587 0-1.04.187-1.36.56-.31.363-.464.843-.464 1.44v4.4h-2.032zm-40.857 21.192c-.778 0-1.488-.133-2.128-.4a3.47 3.47 0 0 1-1.504-1.184c-.373-.533-.57-1.195-.592-1.984h2.16c.022.523.208.96.56 1.312.363.352.859.528 1.488.528.544 0 .976-.128 1.296-.384.32-.256.48-.603.48-1.04a1.46 1.46 0 0 0-.112-.592c-.064-.171-.192-.331-.384-.48-.192-.149-.464-.293-.816-.432a14.665 14.665 0 0 0-1.36-.496c-.736-.245-1.328-.528-1.776-.848-.448-.32-.773-.677-.976-1.072a3.026 3.026 0 0 1-.288-1.312c0-.704.166-1.291.496-1.76.342-.48.795-.837 1.36-1.072a4.817 4.817 0 0 1 1.904-.368c.704 0 1.339.123 1.904.368a3.28 3.28 0 0 1 1.392 1.088c.352.48.534 1.072.544 1.776h-2.192a1.474 1.474 0 0 0-.48-1.056c-.298-.299-.714-.448-1.248-.448-.426 0-.789.112-1.088.336-.298.224-.448.555-.448.992 0 .32.118.592.352.816.246.224.571.421.976.592.416.16.875.331 1.376.512.278.096.587.219.928.368a4.29 4.29 0 0 1 1.008.608c.32.245.582.56.784.944.214.373.32.837.32 1.392 0 .683-.176 1.269-.528 1.76-.341.491-.81.869-1.408 1.136-.586.267-1.253.4-2 .4zm6.03 3.328 1.744-3.888-3.216-7.568h2.288l2.048 5.408 2.096-5.408h2.16l-4.96 11.456h-2.16zm10.825-3.328a4.404 4.404 0 0 1-1.68-.32 3.427 3.427 0 0 1-1.296-.944 2.416 2.416 0 0 1-.544-1.424h2.048c.053.341.218.608.496.8.288.192.608.288.96.288.298 0 .576-.064.832-.192.266-.139.4-.352.4-.64 0-.224-.096-.4-.288-.528a2.44 2.44 0 0 0-.672-.304 17.869 17.869 0 0 0-.704-.192 11.106 11.106 0 0 1-1.456-.448c-.438-.181-.784-.427-1.04-.736-.256-.32-.384-.741-.384-1.264 0-.512.144-.949.432-1.312a2.716 2.716 0 0 1 1.168-.816 4.303 4.303 0 0 1 1.584-.288c.885 0 1.632.224 2.24.672.608.448.938 1.109.992 1.984h-1.936c-.032-.341-.176-.597-.432-.768-.246-.181-.555-.272-.928-.272-.299 0-.566.053-.8.16-.235.107-.352.309-.352.608 0 .213.096.389.288.528.192.128.421.235.688.32.266.075.501.139.704.192.554.139 1.04.299 1.456.48.426.181.762.427 1.008.736.245.309.373.725.384 1.248 0 .523-.15.965-.448 1.328-.288.363-.672.64-1.152.832a4.41 4.41 0 0 1-1.568.272zm7.356-.192c-.853 0-1.499-.208-1.936-.624-.427-.416-.64-1.04-.64-1.872v-3.728h-1.024v-1.712h1.024v-1.936h2.048v1.936h1.808v1.712h-1.808v3.744c0 .299.08.501.24.608.16.107.368.16.624.16h.944V333h-1.28zm6.078.192c-.832 0-1.552-.181-2.16-.544a3.751 3.751 0 0 1-1.392-1.488c-.33-.629-.496-1.339-.496-2.128 0-.843.171-1.573.512-2.192a3.627 3.627 0 0 1 1.424-1.44c.608-.352 1.312-.528 2.112-.528.79 0 1.478.171 2.064.512a3.596 3.596 0 0 1 1.392 1.408c.342.597.512 1.285.512 2.064 0 .139-.005.277-.016.416-.01.128-.026.251-.048.368h-5.888c.032.373.128.704.288.992.171.277.395.496.672.656.288.149.614.224.976.224.374 0 .694-.08.96-.24a1.64 1.64 0 0 0 .656-.736h2.192a3.957 3.957 0 0 1-.72 1.312c-.33.405-.752.731-1.264.976-.501.245-1.093.368-1.776.368zm-1.968-4.912h3.824c-.01-.533-.208-.955-.592-1.264a2.017 2.017 0 0 0-1.328-.464c-.437 0-.842.139-1.216.416-.373.267-.602.704-.688 1.312zm7.02 4.72v-7.936h2.032v.912a2.434 2.434 0 0 1 1.024-.832 3.253 3.253 0 0 1 1.312-.272 3.67 3.67 0 0 1 1.664.384c.523.245.928.635 1.216 1.168a2.835 2.835 0 0 1 1.104-1.136 3.084 3.084 0 0 1 1.568-.416 3.51 3.51 0 0 1 1.648.384c.501.245.896.624 1.184 1.136.288.512.432 1.152.432 1.92V333h-2.032v-4.4c0-.597-.144-1.072-.432-1.424-.288-.352-.731-.528-1.328-.528-.587 0-1.029.176-1.328.528-.299.352-.448.827-.448 1.424v4.4h-2.032v-4.4c0-.608-.155-1.083-.464-1.424-.299-.352-.731-.528-1.296-.528-.48 0-.901.155-1.264.464-.352.299-.528.795-.528 1.488v4.4h-2.032z" fill="#DCC816"/><path d="M398.882 291v-9.456h-3.264V279.8h8.592v1.744h-3.28V291h-2.048zm5.699 3.52 1.744-3.888-3.216-7.568h2.288l2.048 5.408 2.096-5.408h2.16l-4.96 11.456h-2.16zm7.827 0v-11.456h2.032v1.104a2.927 2.927 0 0 1 1.152-.96 3.482 3.482 0 0 1 1.52-.336c.768 0 1.424.187 1.968.56.554.373.976.875 1.264 1.504.298.619.448 1.307.448 2.064 0 .757-.15 1.456-.448 2.096a3.77 3.77 0 0 1-1.28 1.536c-.544.373-1.195.56-1.952.56-.672 0-1.232-.139-1.68-.416-.438-.277-.763-.565-.976-.864v4.608h-2.048zm4.16-5.12c.426 0 .8-.107 1.12-.32.32-.224.57-.517.752-.88.181-.363.272-.763.272-1.2 0-.501-.102-.923-.304-1.264a1.957 1.957 0 0 0-.784-.8 2.108 2.108 0 0 0-1.056-.272c-.406 0-.768.101-1.088.304-.32.203-.576.485-.768.848a2.61 2.61 0 0 0-.272 1.216c0 .437.09.837.272 1.2.181.363.432.651.752.864.32.203.688.304 1.104.304zm9.194 1.792c-.832 0-1.552-.181-2.16-.544a3.751 3.751 0 0 1-1.392-1.488c-.331-.629-.496-1.339-.496-2.128 0-.843.171-1.573.512-2.192a3.62 3.62 0 0 1 1.424-1.44c.608-.352 1.312-.528 2.112-.528.789 0 1.477.171 2.064.512a3.609 3.609 0 0 1 1.392 1.408c.341.597.512 1.285.512 2.064a4.05 4.05 0 0 1-.064.784h-5.888c.032.373.128.704.288.992.171.277.395.496.672.656.288.149.613.224.976.224.373 0 .693-.08.96-.24.277-.16.496-.405.656-.736h2.192a3.957 3.957 0 0 1-.72 1.312 3.626 3.626 0 0 1-1.264.976c-.501.245-1.093.368-1.776.368zm-1.968-4.912h3.824c-.011-.533-.208-.955-.592-1.264a2.017 2.017 0 0 0-1.328-.464 2 2 0 0 0-1.216.416c-.373.267-.603.704-.688 1.312zm10.268 4.912a4.404 4.404 0 0 1-1.68-.32 3.427 3.427 0 0 1-1.296-.944 2.416 2.416 0 0 1-.544-1.424h2.048c.053.341.218.608.496.8.288.192.608.288.96.288.298 0 .576-.064.832-.192.266-.139.4-.352.4-.64 0-.224-.096-.4-.288-.528a2.44 2.44 0 0 0-.672-.304 17.869 17.869 0 0 0-.704-.192 11.106 11.106 0 0 1-1.456-.448c-.438-.181-.784-.427-1.04-.736-.256-.32-.384-.741-.384-1.264 0-.512.144-.949.432-1.312a2.716 2.716 0 0 1 1.168-.816 4.303 4.303 0 0 1 1.584-.288c.885 0 1.632.224 2.24.672.608.448.938 1.109.992 1.984h-1.936c-.032-.341-.176-.597-.432-.768-.246-.181-.555-.272-.928-.272-.299 0-.566.053-.8.16-.235.107-.352.309-.352.608 0 .213.096.389.288.528.192.128.421.235.688.32.266.075.501.139.704.192.554.139 1.04.299 1.456.48.426.181.762.427 1.008.736.245.309.373.725.384 1.248 0 .523-.15.965-.448 1.328-.288.363-.672.64-1.152.832a4.41 4.41 0 0 1-1.568.272zm-34.22 21c-.8 0-1.515-.171-2.144-.512a3.787 3.787 0 0 1-1.456-1.472c-.352-.629-.528-1.355-.528-2.176 0-.864.187-1.605.56-2.224a3.87 3.87 0 0 1 1.52-1.44 4.528 4.528 0 0 1 2.112-.496c.8 0 1.515.176 2.144.528a3.787 3.787 0 0 1 1.488 1.44c.373.619.56 1.349.56 2.192 0 .8-.181 1.515-.544 2.144a3.958 3.958 0 0 1-1.504 1.488c-.629.352-1.365.528-2.208.528zm.032-1.776c.427 0 .795-.107 1.104-.32.32-.224.571-.517.752-.88a2.75 2.75 0 0 0 .272-1.216c0-.501-.101-.928-.304-1.28a1.984 1.984 0 0 0-.768-.8 2.108 2.108 0 0 0-1.056-.272c-.416 0-.784.101-1.104.304a2.122 2.122 0 0 0-.736.848c-.171.352-.256.763-.256 1.232s.091.885.272 1.248c.192.363.448.645.768.848.32.192.672.288 1.056.288zm5.617 1.584v-6.224h-.929v-1.712h.929v-.608c0-.96.24-1.643.72-2.048.49-.405 1.152-.608 1.984-.608h.672v1.744h-.352c-.352 0-.603.069-.752.208-.15.139-.224.373-.224.704v.608h1.424v1.712h-1.424V312h-2.048zm8.721 0v-11.2h7.055v1.744h-5.007v2.8h4.384v1.744h-4.384V312h-2.048zm8.211 0v-7.936h2.032v1.184a2.85 2.85 0 0 1 1.056-1.024 2.902 2.902 0 0 1 1.424-.352v2.144h-.544c-.651 0-1.136.155-1.456.464-.32.309-.48.827-.48 1.552V312h-2.032zm7.745.192c-.47 0-.907-.096-1.312-.288a2.554 2.554 0 0 1-.992-.816c-.246-.363-.368-.789-.368-1.28 0-.587.144-1.067.432-1.44.288-.373.682-.651 1.184-.832a5.107 5.107 0 0 1 1.712-.272h1.888c0-.363-.059-.667-.176-.912a1.16 1.16 0 0 0-.496-.56c-.214-.139-.48-.208-.8-.208-.374 0-.71.085-1.008.256-.288.16-.464.432-.528.816h-2.048a2.67 2.67 0 0 1 .592-1.488 3.325 3.325 0 0 1 1.312-.96 4.375 4.375 0 0 1 1.712-.336c.746 0 1.376.139 1.888.416a2.86 2.86 0 0 1 1.2 1.184c.277.501.416 1.099.416 1.792v2.416c.021.235.106.395.256.48.149.085.346.128.592.128V312c-.502 0-.923-.048-1.264-.144a2.18 2.18 0 0 1-.816-.416 2.492 2.492 0 0 1-.544-.72c-.246.416-.63.768-1.152 1.056a3.474 3.474 0 0 1-1.68.416zm.592-1.648c.352 0 .672-.08.96-.24.298-.16.538-.384.72-.672.181-.288.272-.619.272-.992v-.064h-1.76c-.235 0-.459.037-.672.112a1.054 1.054 0 0 0-.512.32c-.128.139-.192.331-.192.576 0 .331.112.576.336.736.234.149.517.224.848.224zm8.955 1.648c-.683 0-1.264-.144-1.744-.432a2.968 2.968 0 0 1-1.104-1.216c-.256-.523-.384-1.115-.384-1.776v-4.704h2.032v4.4c0 .587.149 1.067.448 1.44.309.373.757.56 1.344.56.608 0 1.061-.181 1.36-.544.298-.363.448-.848.448-1.456v-4.4h2.048V312h-2.048v-.928a2.56 2.56 0 0 1-1.056.832 3.241 3.241 0 0 1-1.344.288zm9.304 0c-.768 0-1.429-.187-1.984-.56a3.84 3.84 0 0 1-1.264-1.52 5.088 5.088 0 0 1-.432-2.112c0-.768.149-1.461.448-2.08a3.562 3.562 0 0 1 1.28-1.488c.555-.373 1.205-.56 1.952-.56.512 0 .997.107 1.456.32a3.15 3.15 0 0 1 1.184.928v-4.32h2.064V312h-2.064v-1.136c-.267.437-.64.768-1.12.992-.48.224-.987.336-1.52.336zm.528-1.792c.427 0 .795-.101 1.104-.304.32-.203.571-.48.752-.832.181-.363.272-.773.272-1.232 0-.565-.112-1.019-.336-1.36a2.038 2.038 0 0 0-.832-.768 2.23 2.23 0 0 0-.976-.24c-.416 0-.784.101-1.104.304a2.15 2.15 0 0 0-.736.832c-.181.341-.272.741-.272 1.2 0 .448.091.853.272 1.216.181.363.432.651.752.864.32.213.688.32 1.104.32zM396.274 333v-11.2h4.144c.779 0 1.461.133 2.048.4a3.17 3.17 0 0 1 1.408 1.136c.341.501.512 1.109.512 1.824 0 .715-.171 1.328-.512 1.84a3.277 3.277 0 0 1-1.408 1.152c-.587.256-1.269.384-2.048.384h-2.096V333h-2.048zm2.048-6.208h2.048c.715 0 1.216-.149 1.504-.448.288-.309.432-.704.432-1.184 0-.469-.144-.853-.432-1.152-.288-.309-.789-.464-1.504-.464h-2.048v3.248zm7.07 6.208v-7.936h2.032v1.184a2.85 2.85 0 0 1 1.056-1.024 2.902 2.902 0 0 1 1.424-.352v2.144h-.544c-.651 0-1.136.155-1.456.464-.32.309-.48.827-.48 1.552V333h-2.032zm9.104.192c-.832 0-1.552-.181-2.16-.544a3.751 3.751 0 0 1-1.392-1.488c-.33-.629-.496-1.339-.496-2.128 0-.843.171-1.573.512-2.192a3.627 3.627 0 0 1 1.424-1.44c.608-.352 1.312-.528 2.112-.528.79 0 1.478.171 2.064.512a3.596 3.596 0 0 1 1.392 1.408c.342.597.512 1.285.512 2.064 0 .139-.005.277-.016.416-.01.128-.026.251-.048.368h-5.888c.032.373.128.704.288.992.171.277.395.496.672.656.288.149.614.224.976.224.374 0 .694-.08.96-.24a1.64 1.64 0 0 0 .656-.736h2.192a3.957 3.957 0 0 1-.72 1.312c-.33.405-.752.731-1.264.976-.501.245-1.093.368-1.776.368zm-1.968-4.912h3.824c-.01-.533-.208-.955-.592-1.264a2.017 2.017 0 0 0-1.328-.464c-.437 0-.842.139-1.216.416-.373.267-.602.704-.688 1.312zm8.948 4.72-2.976-7.936h2.176l2.048 6.096 2.032-6.096h2.16L423.94 333h-2.464zm9.552.192c-.832 0-1.552-.181-2.16-.544a3.737 3.737 0 0 1-1.392-1.488c-.331-.629-.496-1.339-.496-2.128 0-.843.17-1.573.512-2.192a3.62 3.62 0 0 1 1.424-1.44c.608-.352 1.312-.528 2.112-.528.789 0 1.477.171 2.064.512a3.609 3.609 0 0 1 1.392 1.408c.341.597.512 1.285.512 2.064a4.05 4.05 0 0 1-.064.784h-5.888c.032.373.128.704.288.992.17.277.394.496.672.656.288.149.613.224.976.224.373 0 .693-.08.96-.24.277-.16.496-.405.656-.736h2.192c-.15.469-.39.907-.72 1.312a3.626 3.626 0 0 1-1.264.976c-.502.245-1.094.368-1.776.368zm-1.968-4.912h3.824c-.011-.533-.208-.955-.592-1.264a2.019 2.019 0 0 0-1.328-.464c-.438 0-.843.139-1.216.416-.374.267-.603.704-.688 1.312zm7.019 4.72v-7.936h2.032v.928a2.483 2.483 0 0 1 1.104-.832c.47-.192.939-.288 1.408-.288.918 0 1.67.299 2.256.896.587.587.88 1.44.88 2.56V333h-2.032v-4.4c0-.597-.154-1.077-.464-1.44-.298-.373-.741-.56-1.328-.56-.586 0-1.04.187-1.36.56-.309.363-.464.843-.464 1.44v4.4h-2.032zm12.105 0c-.854 0-1.499-.208-1.936-.624-.427-.416-.64-1.04-.64-1.872v-3.728h-1.024v-1.712h1.024v-1.936h2.048v1.936h1.808v1.712h-1.808v3.744c0 .299.08.501.24.608.16.107.368.16.624.16h.944V333h-1.28zm6.078.192c-.832 0-1.552-.181-2.16-.544a3.751 3.751 0 0 1-1.392-1.488c-.331-.629-.496-1.339-.496-2.128 0-.843.171-1.573.512-2.192a3.62 3.62 0 0 1 1.424-1.44c.608-.352 1.312-.528 2.112-.528.789 0 1.477.171 2.064.512a3.609 3.609 0 0 1 1.392 1.408c.341.597.512 1.285.512 2.064a4.05 4.05 0 0 1-.064.784h-5.888c.032.373.128.704.288.992.171.277.395.496.672.656.288.149.613.224.976.224.373 0 .693-.08.96-.24.277-.16.496-.405.656-.736h2.192a3.957 3.957 0 0 1-.72 1.312 3.626 3.626 0 0 1-1.264.976c-.501.245-1.093.368-1.776.368zm-1.968-4.912h3.824c-.011-.533-.208-.955-.592-1.264a2.017 2.017 0 0 0-1.328-.464 2 2 0 0 0-1.216.416c-.373.267-.603.704-.688 1.312zm10.444 4.912c-.768 0-1.43-.187-1.984-.56a3.832 3.832 0 0 1-1.264-1.52 5.088 5.088 0 0 1-.432-2.112c0-.768.149-1.461.448-2.08a3.555 3.555 0 0 1 1.28-1.488c.554-.373 1.205-.56 1.952-.56.512 0 .997.107 1.456.32a3.15 3.15 0 0 1 1.184.928v-4.32h2.064V333h-2.064v-1.136c-.267.437-.64.768-1.12.992-.48.224-.987.336-1.52.336zm.528-1.792c.426 0 .794-.101 1.104-.304.32-.203.57-.48.752-.832.181-.363.272-.773.272-1.232 0-.565-.112-1.019-.336-1.36a2.044 2.044 0 0 0-.832-.768 2.23 2.23 0 0 0-.976-.24c-.416 0-.784.101-1.104.304-.31.203-.555.48-.736.832-.182.341-.272.741-.272 1.2 0 .448.09.853.272 1.216.181.363.432.651.752.864.32.213.688.32 1.104.32z" fill="#AEE141"/><path d="M473.274 161v-11.2h2.048V161h-2.048zm7.214.192c-.768 0-1.43-.187-1.984-.56a3.832 3.832 0 0 1-1.264-1.52 5.088 5.088 0 0 1-.432-2.112c0-.768.149-1.461.448-2.08a3.555 3.555 0 0 1 1.28-1.488c.554-.373 1.205-.56 1.952-.56.512 0 .997.107 1.456.32a3.15 3.15 0 0 1 1.184.928v-4.32h2.064V161h-2.064v-1.136c-.267.437-.64.768-1.12.992-.48.224-.987.336-1.52.336zm.528-1.792c.426 0 .794-.101 1.104-.304.32-.203.57-.48.752-.832.181-.363.272-.773.272-1.232 0-.565-.112-1.019-.336-1.36a2.044 2.044 0 0 0-.832-.768 2.23 2.23 0 0 0-.976-.24c-.416 0-.784.101-1.104.304-.31.203-.555.48-.736.832-.182.341-.272.741-.272 1.2 0 .448.09.853.272 1.216.181.363.432.651.752.864.32.213.688.32 1.104.32zm9.402 1.792c-.832 0-1.552-.181-2.16-.544a3.751 3.751 0 0 1-1.392-1.488c-.33-.629-.496-1.339-.496-2.128 0-.843.171-1.573.512-2.192a3.627 3.627 0 0 1 1.424-1.44c.608-.352 1.312-.528 2.112-.528.79 0 1.478.171 2.064.512a3.596 3.596 0 0 1 1.392 1.408c.342.597.512 1.285.512 2.064 0 .139-.005.277-.016.416-.01.128-.026.251-.048.368h-5.888c.032.373.128.704.288.992.171.277.395.496.672.656.288.149.614.224.976.224.374 0 .694-.08.96-.24a1.64 1.64 0 0 0 .656-.736h2.192a3.957 3.957 0 0 1-.72 1.312c-.33.405-.752.731-1.264.976-.501.245-1.093.368-1.776.368zm-1.968-4.912h3.824c-.01-.533-.208-.955-.592-1.264a2.017 2.017 0 0 0-1.328-.464c-.437 0-.842.139-1.216.416-.373.267-.602.704-.688 1.312zm7.02 4.72v-7.936h2.032v.928a2.472 2.472 0 0 1 1.104-.832 3.694 3.694 0 0 1 1.408-.288c.917 0 1.669.299 2.256.896.587.587.88 1.44.88 2.56V161h-2.032v-4.4c0-.597-.155-1.077-.464-1.44-.299-.373-.741-.56-1.328-.56-.587 0-1.04.187-1.36.56-.309.363-.464.843-.464 1.44v4.4h-2.032zm12.104 0c-.853 0-1.498-.208-1.936-.624-.426-.416-.64-1.04-.64-1.872v-3.728h-1.024v-1.712h1.024v-1.936h2.048v1.936h1.808v1.712h-1.808v3.744c0 .299.08.501.24.608.16.107.368.16.624.16h.944V161h-1.28zm3.594-8.96c-.363 0-.678-.128-.944-.384a1.318 1.318 0 0 1-.384-.944c0-.373.128-.688.384-.944.266-.256.581-.384.944-.384.373 0 .688.128.944.384s.384.571.384.944c0 .363-.128.677-.384.944a1.284 1.284 0 0 1-.944.384zm-1.024 8.96v-7.936h2.048V161h-2.048zm3.753 0v-6.224h-.928v-1.712h.928v-.608c0-.96.24-1.643.72-2.048.49-.405 1.152-.608 1.984-.608h.672v1.744h-.352c-.352 0-.603.069-.752.208-.15.139-.224.373-.224.704v.608h1.424v1.712h-1.424V161h-2.048zm4.768 0v-7.936h2.048V161h-2.048zm1.024-8.96c-.363 0-.678-.128-.944-.384a1.318 1.318 0 0 1-.384-.944c0-.373.128-.688.384-.944.266-.256.581-.384.944-.384.373 0 .688.128.944.384s.384.571.384.944c0 .363-.128.677-.384.944a1.284 1.284 0 0 1-.944.384zm6.275 9.152c-.8 0-1.499-.176-2.096-.528a3.761 3.761 0 0 1-1.392-1.472c-.331-.629-.496-1.349-.496-2.16 0-.8.16-1.515.48-2.144.33-.629.794-1.12 1.392-1.472.597-.363 1.301-.544 2.112-.544.96 0 1.77.24 2.432.72.672.48 1.125 1.189 1.36 2.128h-2.192a1.561 1.561 0 0 0-.56-.784c-.267-.224-.619-.336-1.056-.336-.438 0-.795.112-1.072.336a2.023 2.023 0 0 0-.624.896 3.587 3.587 0 0 0-.192 1.2c0 .437.064.843.192 1.216.138.363.346.656.624.88.277.213.634.32 1.072.32.416 0 .757-.091 1.024-.272.266-.192.464-.469.592-.832h2.192a3.594 3.594 0 0 1-.752 1.536c-.352.427-.79.752-1.312.976-.512.224-1.088.336-1.728.336zm7.407 0c-.47 0-.907-.096-1.312-.288a2.554 2.554 0 0 1-.992-.816c-.246-.363-.368-.789-.368-1.28 0-.587.144-1.067.432-1.44.288-.373.682-.651 1.184-.832a5.107 5.107 0 0 1 1.712-.272h1.888c0-.363-.059-.667-.176-.912a1.16 1.16 0 0 0-.496-.56c-.214-.139-.48-.208-.8-.208-.374 0-.71.085-1.008.256-.288.16-.464.432-.528.816h-2.048a2.67 2.67 0 0 1 .592-1.488 3.325 3.325 0 0 1 1.312-.96 4.375 4.375 0 0 1 1.712-.336c.746 0 1.376.139 1.888.416a2.86 2.86 0 0 1 1.2 1.184c.277.501.416 1.099.416 1.792v2.416c.021.235.106.395.256.48.149.085.346.128.592.128V161c-.502 0-.923-.048-1.264-.144a2.18 2.18 0 0 1-.816-.416 2.492 2.492 0 0 1-.544-.72c-.246.416-.63.768-1.152 1.056a3.474 3.474 0 0 1-1.68.416zm.592-1.648c.352 0 .672-.08.96-.24.298-.16.538-.384.72-.672.181-.288.272-.619.272-.992v-.064h-1.76c-.235 0-.459.037-.672.112a1.054 1.054 0 0 0-.512.32c-.128.139-.192.331-.192.576 0 .331.112.576.336.736.234.149.517.224.848.224zm8.58 1.456c-.853 0-1.499-.208-1.936-.624-.427-.416-.64-1.04-.64-1.872v-3.728h-1.024v-1.712h1.024v-1.936h2.048v1.936h1.808v1.712h-1.808v3.744c0 .299.08.501.24.608.16.107.368.16.624.16h.944V161h-1.28zm3.594-8.96c-.363 0-.678-.128-.944-.384a1.318 1.318 0 0 1-.384-.944c0-.373.128-.688.384-.944.266-.256.581-.384.944-.384.373 0 .688.128.944.384s.384.571.384.944c0 .363-.128.677-.384.944a1.284 1.284 0 0 1-.944.384zm-1.024 8.96v-7.936h2.048V161h-2.048zm7.417.192c-.8 0-1.515-.171-2.144-.512a3.787 3.787 0 0 1-1.456-1.472c-.352-.629-.528-1.355-.528-2.176 0-.864.186-1.605.56-2.224a3.863 3.863 0 0 1 1.52-1.44 4.528 4.528 0 0 1 2.112-.496c.8 0 1.514.176 2.144.528a3.787 3.787 0 0 1 1.488 1.44c.373.619.56 1.349.56 2.192 0 .8-.182 1.515-.544 2.144a3.958 3.958 0 0 1-1.504 1.488c-.63.352-1.366.528-2.208.528zm.032-1.776c.426 0 .794-.107 1.104-.32.32-.224.57-.517.752-.88a2.75 2.75 0 0 0 .272-1.216c0-.501-.102-.928-.304-1.28a1.984 1.984 0 0 0-.768-.8 2.108 2.108 0 0 0-1.056-.272c-.416 0-.784.101-1.104.304-.31.203-.555.485-.736.848-.171.352-.256.763-.256 1.232s.09.885.272 1.248c.192.363.448.645.768.848.32.192.672.288 1.056.288zM557.97 161v-7.936h2.032v.928a2.472 2.472 0 0 1 1.104-.832 3.694 3.694 0 0 1 1.408-.288c.917 0 1.669.299 2.256.896.587.587.88 1.44.88 2.56V161h-2.032v-4.4c0-.597-.155-1.077-.464-1.44-.299-.373-.741-.56-1.328-.56-.587 0-1.04.187-1.36.56-.309.363-.464.843-.464 1.44v4.4h-2.032zm-81.128 21.192c-.8 0-1.515-.171-2.144-.512a3.787 3.787 0 0 1-1.456-1.472c-.352-.629-.528-1.355-.528-2.176 0-.864.187-1.605.56-2.224a3.87 3.87 0 0 1 1.52-1.44 4.528 4.528 0 0 1 2.112-.496c.8 0 1.515.176 2.144.528a3.787 3.787 0 0 1 1.488 1.44c.373.619.56 1.349.56 2.192 0 .8-.181 1.515-.544 2.144a3.958 3.958 0 0 1-1.504 1.488c-.629.352-1.365.528-2.208.528zm.032-1.776c.427 0 .795-.107 1.104-.32.32-.224.571-.517.752-.88a2.75 2.75 0 0 0 .272-1.216c0-.501-.101-.928-.304-1.28a1.984 1.984 0 0 0-.768-.8 2.108 2.108 0 0 0-1.056-.272c-.416 0-.784.101-1.104.304a2.122 2.122 0 0 0-.736.848c-.171.352-.256.763-.256 1.232s.091.885.272 1.248c.192.363.448.645.768.848.32.192.672.288 1.056.288zm5.617 1.584v-6.224h-.929v-1.712h.929v-.608c0-.96.24-1.643.72-2.048.49-.405 1.152-.608 1.984-.608h.672v1.744h-.352c-.352 0-.603.069-.752.208-.15.139-.224.373-.224.704v.608h1.424v1.712h-1.424V182h-2.048zm8.721 0v-11.2h2.048V182h-2.048zm3.789 0v-7.936h2.032v.928a2.483 2.483 0 0 1 1.104-.832c.47-.192.939-.288 1.408-.288.918 0 1.67.299 2.256.896.587.587.88 1.44.88 2.56V182h-2.032v-4.4c0-.597-.154-1.077-.464-1.44-.298-.373-.741-.56-1.328-.56-.586 0-1.04.187-1.36.56-.309.363-.464.843-.464 1.44v4.4h-2.032zm11.068 0-2.976-7.936h2.176l2.048 6.096 2.032-6.096h2.16L508.533 182h-2.464zm8.177.192c-.47 0-.907-.096-1.312-.288a2.554 2.554 0 0 1-.992-.816c-.246-.363-.368-.789-.368-1.28 0-.587.144-1.067.432-1.44.288-.373.682-.651 1.184-.832a5.107 5.107 0 0 1 1.712-.272h1.888c0-.363-.059-.667-.176-.912a1.16 1.16 0 0 0-.496-.56c-.214-.139-.48-.208-.8-.208-.374 0-.71.085-1.008.256-.288.16-.464.432-.528.816h-2.048a2.67 2.67 0 0 1 .592-1.488 3.325 3.325 0 0 1 1.312-.96 4.375 4.375 0 0 1 1.712-.336c.746 0 1.376.139 1.888.416a2.86 2.86 0 0 1 1.2 1.184c.277.501.416 1.099.416 1.792v2.416c.021.235.106.395.256.48.149.085.346.128.592.128V182c-.502 0-.923-.048-1.264-.144a2.18 2.18 0 0 1-.816-.416 2.492 2.492 0 0 1-.544-.72c-.246.416-.63.768-1.152 1.056a3.474 3.474 0 0 1-1.68.416zm.592-1.648c.352 0 .672-.08.96-.24.298-.16.538-.384.72-.672.181-.288.272-.619.272-.992v-.064h-1.76c-.235 0-.459.037-.672.112a1.054 1.054 0 0 0-.512.32c-.128.139-.192.331-.192.576 0 .331.112.576.336.736.234.149.517.224.848.224zm5.851 1.456v-11.2h2.048V182h-2.048zm4.604-8.96c-.363 0-.678-.128-.944-.384a1.318 1.318 0 0 1-.384-.944c0-.373.128-.688.384-.944.266-.256.581-.384.944-.384.373 0 .688.128.944.384s.384.571.384.944c0 .363-.128.677-.384.944a1.284 1.284 0 0 1-.944.384zm-1.024 8.96v-7.936h2.048V182h-2.048zm6.969.192c-.768 0-1.43-.187-1.984-.56a3.832 3.832 0 0 1-1.264-1.52 5.088 5.088 0 0 1-.432-2.112c0-.768.149-1.461.448-2.08a3.555 3.555 0 0 1 1.28-1.488c.554-.373 1.205-.56 1.952-.56.512 0 .997.107 1.456.32a3.15 3.15 0 0 1 1.184.928v-4.32h2.064V182h-2.064v-1.136c-.267.437-.64.768-1.12.992-.48.224-.987.336-1.52.336zm.528-1.792c.426 0 .794-.101 1.104-.304.32-.203.57-.48.752-.832.181-.363.272-.773.272-1.232 0-.565-.112-1.019-.336-1.36a2.044 2.044 0 0 0-.832-.768 2.23 2.23 0 0 0-.976-.24c-.416 0-.784.101-1.104.304-.31.203-.555.48-.736.832-.182.341-.272.741-.272 1.2 0 .448.09.853.272 1.216.181.363.432.651.752.864.32.213.688.32 1.104.32zM475.882 203v-9.456h-3.264V191.8h8.592v1.744h-3.28V203h-2.048zm4.807 0v-7.936h2.032v1.184a2.85 2.85 0 0 1 1.056-1.024 2.899 2.899 0 0 1 1.424-.352v2.144h-.544c-.651 0-1.136.155-1.456.464-.32.309-.48.827-.48 1.552V203h-2.032zm7.744.192c-.469 0-.906-.096-1.312-.288a2.561 2.561 0 0 1-.992-.816c-.245-.363-.368-.789-.368-1.28 0-.587.144-1.067.432-1.44.288-.373.683-.651 1.184-.832a5.111 5.111 0 0 1 1.712-.272h1.888c0-.363-.058-.667-.176-.912a1.155 1.155 0 0 0-.496-.56c-.213-.139-.48-.208-.8-.208-.373 0-.709.085-1.008.256-.288.16-.464.432-.528.816h-2.048a2.684 2.684 0 0 1 .592-1.488 3.34 3.34 0 0 1 1.312-.96 4.378 4.378 0 0 1 1.712-.336c.747 0 1.376.139 1.888.416a2.85 2.85 0 0 1 1.2 1.184c.278.501.416 1.099.416 1.792v2.416c.022.235.107.395.256.48.15.085.347.128.592.128V203c-.501 0-.922-.048-1.264-.144a2.196 2.196 0 0 1-.816-.416 2.528 2.528 0 0 1-.544-.72c-.245.416-.629.768-1.152 1.056a3.474 3.474 0 0 1-1.68.416zm.592-1.648c.352 0 .672-.08.96-.24a1.89 1.89 0 0 0 .72-.672c.182-.288.272-.619.272-.992v-.064h-1.76c-.234 0-.458.037-.672.112a1.058 1.058 0 0 0-.512.32c-.128.139-.192.331-.192.576 0 .331.112.576.336.736.235.149.518.224.848.224zm6.059 1.456v-6.224h-.928v-1.712h.928v-.608c0-.96.24-1.643.72-2.048.491-.405 1.152-.608 1.984-.608h.672v1.744h-.352c-.352 0-.602.069-.752.208-.149.139-.224.373-.224.704v.608h1.424v1.712h-1.424V203h-2.048zm4.938 0v-6.224h-.928v-1.712h.928v-.608c0-.96.24-1.643.72-2.048.49-.405 1.152-.608 1.984-.608h.672v1.744h-.352c-.352 0-.603.069-.752.208-.15.139-.224.373-.224.704v.608h1.424v1.712h-1.424V203h-2.048zm4.768 0v-7.936h2.048V203h-2.048zm1.024-8.96c-.363 0-.678-.128-.944-.384a1.318 1.318 0 0 1-.384-.944c0-.373.128-.688.384-.944.266-.256.581-.384.944-.384.373 0 .688.128.944.384s.384.571.384.944c0 .363-.128.677-.384.944a1.284 1.284 0 0 1-.944.384zm6.275 9.152c-.8 0-1.499-.176-2.096-.528a3.761 3.761 0 0 1-1.392-1.472c-.331-.629-.496-1.349-.496-2.16 0-.8.16-1.515.48-2.144.33-.629.794-1.12 1.392-1.472.597-.363 1.301-.544 2.112-.544.96 0 1.77.24 2.432.72.672.48 1.125 1.189 1.36 2.128h-2.192a1.561 1.561 0 0 0-.56-.784c-.267-.224-.619-.336-1.056-.336-.438 0-.795.112-1.072.336a2.023 2.023 0 0 0-.624.896 3.587 3.587 0 0 0-.192 1.2c0 .437.064.843.192 1.216.138.363.346.656.624.88.277.213.634.32 1.072.32.416 0 .757-.091 1.024-.272.266-.192.464-.469.592-.832h2.192a3.594 3.594 0 0 1-.752 1.536c-.352.427-.79.752-1.312.976-.512.224-1.088.336-1.728.336z" fill="#4CE39A"/><path d="M395.274 32V20.8h2.048V32h-2.048zm3.79 0v-7.936h2.032v.928c.277-.373.645-.65 1.104-.832a3.69 3.69 0 0 1 1.408-.288c.917 0 1.669.299 2.256.896.586.587.88 1.44.88 2.56V32h-2.032v-4.4c0-.597-.155-1.077-.464-1.44-.299-.373-.742-.56-1.328-.56-.587 0-1.04.187-1.36.56-.31.363-.464.843-.464 1.44V32h-2.032zm12.104 0c-.853 0-1.499-.208-1.936-.624-.427-.416-.64-1.04-.64-1.872v-3.728h-1.024v-1.712h1.024v-1.936h2.048v1.936h1.808v1.712h-1.808v3.744c0 .299.08.501.24.608.16.107.368.16.624.16h.944V32h-1.28zm6.078.192c-.832 0-1.552-.181-2.16-.544a3.747 3.747 0 0 1-1.392-1.488c-.33-.63-.496-1.339-.496-2.128 0-.843.171-1.573.512-2.192a3.63 3.63 0 0 1 1.424-1.44c.608-.352 1.312-.528 2.112-.528.79 0 1.478.17 2.064.512.598.341 1.062.81 1.392 1.408.342.597.512 1.285.512 2.064 0 .139-.005.277-.016.416-.01.128-.026.25-.048.368h-5.888c.032.373.128.704.288.992.171.277.395.496.672.656.288.15.614.224.976.224.374 0 .694-.08.96-.24.278-.16.496-.405.656-.736h2.192c-.149.47-.389.907-.72 1.312-.33.405-.752.73-1.264.976-.501.245-1.093.368-1.776.368zm-1.968-4.912h3.824c-.01-.533-.208-.955-.592-1.264a2.015 2.015 0 0 0-1.328-.464 2 2 0 0 0-1.216.416c-.373.267-.602.704-.688 1.312zm7.02 4.72v-7.936h2.032v1.184c.277-.448.629-.79 1.056-1.024a2.905 2.905 0 0 1 1.424-.352v2.144h-.544c-.651 0-1.136.155-1.456.464-.32.31-.48.827-.48 1.552V32h-2.032zm5.469 0v-7.936h2.032v.928c.277-.373.645-.65 1.104-.832a3.694 3.694 0 0 1 1.408-.288c.917 0 1.669.299 2.256.896.587.587.88 1.44.88 2.56V32h-2.032v-4.4c0-.597-.155-1.077-.464-1.44-.299-.373-.741-.56-1.328-.56-.587 0-1.04.187-1.36.56-.309.363-.464.843-.464 1.44V32h-2.032zm11.416.192c-.469 0-.906-.096-1.312-.288a2.561 2.561 0 0 1-.992-.816c-.245-.363-.368-.79-.368-1.28 0-.587.144-1.067.432-1.44.288-.373.683-.65 1.184-.832a5.104 5.104 0 0 1 1.712-.272h1.888c0-.363-.058-.667-.176-.912a1.154 1.154 0 0 0-.496-.56c-.213-.139-.48-.208-.8-.208-.373 0-.709.085-1.008.256-.288.16-.464.432-.528.816h-2.048a2.684 2.684 0 0 1 .592-1.488 3.34 3.34 0 0 1 1.312-.96 4.378 4.378 0 0 1 1.712-.336c.747 0 1.376.139 1.888.416.523.277.923.672 1.2 1.184.278.501.416 1.099.416 1.792v2.416c.022.235.107.395.256.48.15.085.347.128.592.128V32c-.501 0-.922-.048-1.264-.144a2.191 2.191 0 0 1-.816-.416 2.528 2.528 0 0 1-.544-.72c-.245.416-.629.768-1.152 1.056a3.471 3.471 0 0 1-1.68.416zm.592-1.648c.352 0 .672-.08.96-.24a1.89 1.89 0 0 0 .72-.672c.182-.288.272-.619.272-.992v-.064h-1.76c-.234 0-.458.037-.672.112-.213.064-.384.17-.512.32-.128.139-.192.33-.192.576 0 .33.112.576.336.736.235.15.518.224.848.224zM445.626 32V20.8h2.048V32h-2.048zm7.492 0V20.8h7.056v1.744h-5.008v2.8h4.384v1.744h-4.384V32h-2.048zm8.211 0v-7.936h2.032v1.184c.278-.448.63-.79 1.056-1.024a2.908 2.908 0 0 1 1.424-.352v2.144h-.544c-.65 0-1.136.155-1.456.464-.32.31-.48.827-.48 1.552V32h-2.032zm7.745.192c-.469 0-.907-.096-1.312-.288a2.561 2.561 0 0 1-.992-.816c-.245-.363-.368-.79-.368-1.28 0-.587.144-1.067.432-1.44.288-.373.683-.65 1.184-.832a5.104 5.104 0 0 1 1.712-.272h1.888c0-.363-.059-.667-.176-.912a1.159 1.159 0 0 0-.496-.56c-.213-.139-.48-.208-.8-.208-.373 0-.709.085-1.008.256-.288.16-.464.432-.528.816h-2.048a2.677 2.677 0 0 1 .592-1.488 3.332 3.332 0 0 1 1.312-.96 4.375 4.375 0 0 1 1.712-.336c.747 0 1.376.139 1.888.416.523.277.923.672 1.2 1.184.277.501.416 1.099.416 1.792v2.416c.021.235.107.395.256.48.149.085.347.128.592.128V32c-.501 0-.923-.048-1.264-.144a2.176 2.176 0 0 1-.816-.416 2.51 2.51 0 0 1-.544-.72c-.245.416-.629.768-1.152 1.056a3.471 3.471 0 0 1-1.68.416zm.592-1.648c.352 0 .672-.08.96-.24a1.89 1.89 0 0 0 .72-.672c.181-.288.272-.619.272-.992v-.064h-1.76c-.235 0-.459.037-.672.112-.213.064-.384.17-.512.32-.128.139-.192.33-.192.576 0 .33.112.576.336.736.235.15.517.224.848.224zm8.955 1.648c-.683 0-1.264-.144-1.744-.432a2.966 2.966 0 0 1-1.104-1.216c-.256-.523-.384-1.115-.384-1.776v-4.704h2.032v4.4c0 .587.149 1.067.448 1.44.309.373.757.56 1.344.56.608 0 1.061-.181 1.36-.544.299-.363.448-.848.448-1.456v-4.4h2.048V32h-2.048v-.928c-.267.363-.619.64-1.056.832a3.241 3.241 0 0 1-1.344.288zm9.304 0c-.768 0-1.429-.187-1.984-.56a3.838 3.838 0 0 1-1.264-1.52 5.088 5.088 0 0 1-.432-2.112c0-.768.15-1.461.448-2.08a3.566 3.566 0 0 1 1.28-1.488c.555-.373 1.206-.56 1.952-.56.512 0 .998.107 1.456.32.47.213.864.523 1.184.928V20.8h2.064V32h-2.064v-1.136a2.53 2.53 0 0 1-1.12.992 3.55 3.55 0 0 1-1.52.336zm.528-1.792c.427 0 .795-.101 1.104-.304a2.1 2.1 0 0 0 .752-.832c.182-.363.272-.773.272-1.232 0-.565-.112-1.019-.336-1.36a2.038 2.038 0 0 0-.832-.768c-.33-.16-.656-.24-.976-.24-.416 0-.784.101-1.104.304-.309.203-.554.48-.736.832-.181.341-.272.741-.272 1.2 0 .448.091.853.272 1.216a2.2 2.2 0 0 0 .752.864c.32.213.688.32 1.104.32zM395.274 53V41.8h4.144c.779 0 1.461.133 2.048.4a3.167 3.167 0 0 1 1.408 1.136c.341.501.512 1.11.512 1.824 0 .715-.171 1.328-.512 1.84a3.273 3.273 0 0 1-1.408 1.152c-.587.256-1.269.384-2.048.384h-2.096V53h-2.048zm2.048-6.208h2.048c.715 0 1.216-.15 1.504-.448.288-.31.432-.704.432-1.184 0-.47-.144-.853-.432-1.152-.288-.31-.789-.464-1.504-.464h-2.048v3.248zm7.07 6.208v-7.936h2.032v1.184c.277-.448.629-.79 1.056-1.024a2.905 2.905 0 0 1 1.424-.352v2.144h-.544c-.651 0-1.136.155-1.456.464-.32.31-.48.827-.48 1.552V53h-2.032zm9.184.192c-.8 0-1.514-.17-2.144-.512a3.792 3.792 0 0 1-1.456-1.472c-.352-.63-.528-1.355-.528-2.176 0-.864.187-1.605.56-2.224.384-.63.891-1.11 1.52-1.44a4.532 4.532 0 0 1 2.112-.496c.8 0 1.515.176 2.144.528.63.341 1.126.821 1.488 1.44.374.619.56 1.35.56 2.192 0 .8-.181 1.515-.544 2.144a3.947 3.947 0 0 1-1.504 1.488c-.629.352-1.365.528-2.208.528zm.032-1.776c.427 0 .795-.107 1.104-.32.32-.224.571-.517.752-.88.182-.373.272-.779.272-1.216 0-.501-.101-.928-.304-1.28a1.985 1.985 0 0 0-.768-.8 2.105 2.105 0 0 0-1.056-.272c-.416 0-.784.101-1.104.304a2.13 2.13 0 0 0-.736.848c-.17.352-.256.763-.256 1.232 0 .47.091.885.272 1.248.192.363.448.645.768.848.32.192.672.288 1.056.288zM421.824 53c-.853 0-1.498-.208-1.936-.624-.426-.416-.64-1.04-.64-1.872v-3.728h-1.024v-1.712h1.024v-1.936h2.048v1.936h1.808v1.712h-1.808v3.744c0 .299.08.501.24.608.16.107.368.16.624.16h.944V53h-1.28zm6.079.192c-.832 0-1.552-.181-2.16-.544a3.734 3.734 0 0 1-1.392-1.488c-.331-.63-.496-1.339-.496-2.128 0-.843.17-1.573.512-2.192a3.624 3.624 0 0 1 1.424-1.44c.608-.352 1.312-.528 2.112-.528.789 0 1.477.17 2.064.512.597.341 1.061.81 1.392 1.408.341.597.512 1.285.512 2.064a4.063 4.063 0 0 1-.064.784h-5.888c.032.373.128.704.288.992.17.277.394.496.672.656.288.15.613.224.976.224.373 0 .693-.08.96-.24.277-.16.496-.405.656-.736h2.192c-.15.47-.39.907-.72 1.312-.331.405-.752.73-1.264.976-.502.245-1.094.368-1.776.368zm-1.968-4.912h3.824c-.011-.533-.208-.955-.592-1.264a2.017 2.017 0 0 0-1.328-.464c-.438 0-.843.139-1.216.416-.374.267-.603.704-.688 1.312zm10.747 4.912c-.8 0-1.498-.176-2.096-.528a3.775 3.775 0 0 1-1.392-1.472c-.33-.63-.496-1.35-.496-2.16 0-.8.16-1.515.48-2.144.331-.63.795-1.12 1.392-1.472.598-.363 1.302-.544 2.112-.544.96 0 1.771.24 2.432.72.672.48 1.126 1.19 1.36 2.128h-2.192a1.555 1.555 0 0 0-.56-.784c-.266-.224-.618-.336-1.056-.336-.437 0-.794.112-1.072.336a2.037 2.037 0 0 0-.624.896 3.585 3.585 0 0 0-.192 1.2c0 .437.064.843.192 1.216.139.363.347.656.624.88.278.213.635.32 1.072.32.416 0 .758-.09 1.024-.272.267-.192.464-.47.592-.832h2.192a3.568 3.568 0 0 1-.752 1.536 3.417 3.417 0 0 1-1.312.976c-.512.224-1.088.336-1.728.336zm7.986-.192c-.853 0-1.499-.208-1.936-.624-.427-.416-.64-1.04-.64-1.872v-3.728h-1.024v-1.712h1.024v-1.936h2.048v1.936h1.808v1.712h-1.808v3.744c0 .299.08.501.24.608.16.107.368.16.624.16h.944V53h-1.28zm3.594-8.96c-.363 0-.678-.128-.944-.384a1.318 1.318 0 0 1-.384-.944c0-.373.128-.688.384-.944.266-.256.581-.384.944-.384.373 0 .688.128.944.384s.384.57.384.944c0 .363-.128.677-.384.944a1.284 1.284 0 0 1-.944.384zM447.238 53v-7.936h2.048V53h-2.048zm7.417.192c-.8 0-1.515-.17-2.144-.512a3.785 3.785 0 0 1-1.456-1.472c-.352-.63-.528-1.355-.528-2.176 0-.864.186-1.605.56-2.224.384-.63.89-1.11 1.52-1.44a4.532 4.532 0 0 1 2.112-.496c.8 0 1.514.176 2.144.528a3.79 3.79 0 0 1 1.488 1.44c.373.619.56 1.35.56 2.192 0 .8-.182 1.515-.544 2.144a3.954 3.954 0 0 1-1.504 1.488c-.63.352-1.366.528-2.208.528zm.032-1.776c.426 0 .794-.107 1.104-.32.32-.224.57-.517.752-.88a2.75 2.75 0 0 0 .272-1.216c0-.501-.102-.928-.304-1.28a1.985 1.985 0 0 0-.768-.8 2.105 2.105 0 0 0-1.056-.272c-.416 0-.784.101-1.104.304-.31.203-.555.485-.736.848-.171.352-.256.763-.256 1.232 0 .47.09.885.272 1.248.192.363.448.645.768.848.32.192.672.288 1.056.288zM460.095 53v-7.936h2.032v.928c.277-.373.645-.65 1.104-.832a3.694 3.694 0 0 1 1.408-.288c.917 0 1.669.299 2.256.896.587.587.88 1.44.88 2.56V53h-2.032v-4.4c0-.597-.155-1.077-.464-1.44-.299-.373-.741-.56-1.328-.56-.587 0-1.04.187-1.36.56-.309.363-.464.843-.464 1.44V53h-2.032z" fill="#37CDFF"/></g><defs><linearGradient id="b" x1="180.25" y1="19" x2="180.25" y2="67" gradientUnits="userSpaceOnUse"><stop stop-color="#FFA6A3"/><stop offset="1" stop-color="#FD6A65"/></linearGradient><linearGradient id="c" x1="102.25" y1="151" x2="102.25" y2="199" gradientUnits="userSpaceOnUse"><stop stop-color="#FFC188"/><stop offset="1" stop-color="#FA963A"/></linearGradient><linearGradient id="d" x1="180.25" y1="283" x2="180.25" y2="331" gradientUnits="userSpaceOnUse"><stop stop-color="#FFF282"/><stop offset="1" stop-color="#FFE714"/></linearGradient><linearGradient id="e" x1="336.25" y1="283" x2="336.25" y2="331" gradientUnits="userSpaceOnUse"><stop stop-color="#CFF976"/><stop offset="1" stop-color="#A8DD38"/></linearGradient><linearGradient id="f" x1="414.25" y1="151" x2="414.25" y2="199" gradientUnits="userSpaceOnUse"><stop stop-color="#83FAC1"/><stop offset="1" stop-color="#44E095"/></linearGradient><linearGradient id="g" x1="336.25" y1="19" x2="336.25" y2="67" gradientUnits="userSpaceOnUse"><stop stop-color="#7FDFFF"/><stop offset="1" stop-color="#1AC6FF"/></linearGradient><clipPath id="a"><path fill="#fff" transform="translate(.25)" d="M0 0h576v338H0z"/></clipPath></defs></svg>