<svg width="601" height="464" fill="none" xmlns="http://www.w3.org/2000/svg"><path fill-rule="evenodd" clip-rule="evenodd" d="M80.229 223.592c-4.639 4.638-4.639 12.159 0 16.798l58.897 58.895c-4.555-4.644-4.528-12.104.083-16.714l160.145-160.145c4.638-4.638 12.158-4.638 16.797 0l160.14 160.145c4.638 4.638 4.638 12.159 0 16.798l58.98-58.979c4.638-4.639 4.639-12.16 0-16.798L316.152 4.467c-4.639-4.64-12.159-4.64-16.798 0L80.229 223.592z" fill="url(#a)"/><path fill-rule="evenodd" clip-rule="evenodd" d="M139.208 282.571c-4.638 4.638-4.638 12.159.001 16.798l58.897 58.897c-4.556-4.646-4.529-12.104.082-16.716l101.164-101.163c4.638-4.639 12.159-4.639 16.798 0L417.311 341.55c4.639 4.639 4.638 12.159 0 16.798l58.98-58.979c4.638-4.639 4.638-12.16 0-16.798l-160.14-160.144c-4.639-4.639-12.16-4.639-16.798 0L139.208 282.571z" fill="url(#b)"/><path fill-rule="evenodd" clip-rule="evenodd" d="M198.186 341.55c-4.639 4.638-4.639 12.159 0 16.798l58.971 58.97c-4.63-4.64-4.627-12.154.009-16.789l42.182-42.182c4.638-4.639 12.159-4.639 16.798 0l42.181 42.182c4.638 4.638 4.638 12.159 0 16.798-89.833 89.832 22.838-22.836 58.981-58.979 4.638-4.639 4.639-12.16 0-16.798l-101.16-101.163c-4.639-4.639-12.16-4.639-16.798 0L198.186 341.55z" fill="url(#c)"/><path d="m257.459 400.818-.29-.29.29.29 42.182-42.182-.29-.29.29.29c4.479-4.479 11.74-4.479 16.219 0l42.18 42.182c4.479 4.479 4.479 11.74 0 16.219l-42.18 42.18c-4.479 4.479-11.74 4.479-16.219 0l-42.182-42.18c-4.479-4.479-4.479-11.74 0-16.219z" fill="url(#d)" stroke="#fff" stroke-width=".819"/><path clip-rule="evenodd" d="M80.229 223.592c-4.639 4.638-4.639 12.159 0 16.798l58.897 58.895c-4.555-4.645-4.528-12.103.083-16.714l160.144-160.145c4.639-4.638 12.16-4.638 16.798.001l160.14 160.144c4.639 4.638 4.639 12.159 0 16.798l58.98-58.98c4.639-4.638 4.639-12.159 0-16.797L316.152 4.467c-4.639-4.64-12.159-4.64-16.798 0L80.229 223.591z" stroke="#fff" stroke-width="1.638" stroke-linecap="round" stroke-linejoin="round"/><path clip-rule="evenodd" d="M139.208 282.571c-4.638 4.639-4.638 12.159.001 16.798l58.897 58.896c-4.556-4.645-4.529-12.104.082-16.715l101.164-101.163c4.639-4.639 12.159-4.639 16.798 0L417.311 341.55c4.638 4.639 4.638 12.159 0 16.798l58.98-58.979c4.638-4.639 4.638-12.159 0-16.798l-160.14-160.144c-4.639-4.639-12.16-4.639-16.798 0L139.208 282.571z" stroke="#fff" stroke-width="1.638" stroke-linecap="round" stroke-linejoin="round"/><path clip-rule="evenodd" d="M198.186 341.55c-4.639 4.639-4.639 12.159 0 16.798l58.971 58.969c-4.63-4.639-4.627-12.153.009-16.789l42.182-42.182c4.638-4.638 12.159-4.638 16.798.001l42.18 42.181c4.639 4.639 4.639 12.16 0 16.798-89.832 89.833 22.839-22.835 58.982-58.978 4.639-4.639 4.639-12.159 0-16.798L316.147 240.387c-4.638-4.639-12.159-4.639-16.798 0L198.186 341.55z" stroke="#fff" stroke-width="1.638" stroke-linecap="round" stroke-linejoin="round"/><path clip-rule="evenodd" d="M257.169 417.326c-4.638-4.638-4.638-12.159 0-16.798l42.182-42.182c4.639-4.638 12.16-4.638 16.798.001l42.181 42.181c4.638 4.639 4.638 12.16 0 16.798l-42.181 42.181c-4.638 4.638-12.159 4.638-16.798 0l-42.182-42.181z" stroke="#fff" stroke-width="1.638" stroke-linecap="round" stroke-linejoin="round"/><path d="M304.121 76.14a7.718 7.718 0 0 1-1.119-4.287v-1.755a6.034 6.034 0 1 0-12.065 0v1.755a7.747 7.747 0 0 1-1.127 4.287m1.119-5.046a7.982 7.982 0 0 0 6.031-2.765 7.99 7.99 0 0 0 6.042 2.765m-.724-.033a5.324 5.324 0 0 1-10.635 0m13.325 12.658a8.966 8.966 0 0 0-15.995 0m25.899-25.6a7.738 7.738 0 0 1-1.125-4.286v-1.755a6.034 6.034 0 1 0-12.067 0v1.755a7.738 7.738 0 0 1-1.125 4.287m1.125-5.046a7.984 7.984 0 0 0 6.033-2.765 7.99 7.99 0 0 0 6.034 2.765m-.716-.033a5.324 5.324 0 0 1-10.635 0m10.828 9.64a8.943 8.943 0 0 0-11.079.053M325.7 76.14a7.747 7.747 0 0 1-1.127-4.287v-1.755a6.034 6.034 0 1 0-12.065 0v1.755a7.722 7.722 0 0 1-1.127 4.287m1.122-5.046a7.99 7.99 0 0 0 6.034-2.765 7.982 7.982 0 0 0 6.031 2.765m-.709-.033a5.324 5.324 0 0 1-10.635 0m13.317 12.658a8.966 8.966 0 0 0-15.995 0M316.763 164.008v4.914m0 9.829v4.915m-9.829-9.829h4.914m9.829 0h4.915m-34.325-3.15a7.593 7.593 0 0 0 5.657-2.626 7.592 7.592 0 0 0 5.655 2.621m-2.023 8.422-3.632 5.718-3.601-5.741m14.249-5.244a8.19 8.19 0 0 0 8.191 8.191 8.19 8.19 0 0 0 8.191-8.191 8.19 8.19 0 0 0-8.191-8.191 8.19 8.19 0 0 0-8.191 8.191zm8.191-.41a.41.41 0 1 1-.001.82.41.41 0 0 1 .001-.82zm-24.573-3.686a5.734 5.734 0 1 0 11.467 0 5.734 5.734 0 0 0-11.467 0zm5.734 8.191a6.224 6.224 0 0 1 6.061 4.78l2.949 10.783h-4.844l-1.727 8.191h-4.914l-1.727-8.191h-4.808l2.957-10.783a6.225 6.225 0 0 1 6.053-4.78z" stroke="#fff" stroke-width="1.638" stroke-linecap="round" stroke-linejoin="round"/><path clip-rule="evenodd" d="M307.753 312.929c6.695 0 12.122-5.427 12.122-12.122s-5.427-12.122-12.122-12.122-12.123 5.427-12.123 12.122 5.428 12.122 12.123 12.122zm-2.621-17.2c-.328-.164-.492-.164-.82 0-.327.163-.491.491-.491.655v8.682c0 .328.164.492.491.655.328.164.492.164.82 0l7.535-4.423c.328-.163.328-.491.328-.655 0-.164-.164-.491-.328-.655l-7.535-4.259zm2.621-12.041a.656.656 0 1 1 0-1.31m0 1.31a.655.655 0 1 0 0-1.31m0 36.858a.656.656 0 1 1 0-1.31m0 1.31a.655.655 0 1 0 0-1.31m6.801-32.885a.655.655 0 0 1 0-1.31m0 1.31a.655.655 0 1 0 0-1.31m-13.603 1.31a.656.656 0 1 1 0-1.31m0 1.31a.655.655 0 1 0 0-1.31m13.603 34.152a.655.655 0 0 1 0-1.31m0 1.31a.655.655 0 1 0 0-1.31m-13.603 1.31a.656.656 0 1 1 0-1.31m0 1.31a.655.655 0 1 0 0-1.31m-5.767-2.543a.655.655 0 0 1 0-1.31m0 1.31a.656.656 0 1 0 0-1.31m-3.852-4.456a.656.656 0 1 1 0-1.31m0 1.31a.655.655 0 1 0 0-1.31m-1.353-5.492a.656.656 0 1 1 0-1.31m0 1.31a.655.655 0 0 0 0-1.31m1.353-5.492a.655.655 0 1 1 0-1.31m0 1.31a.655.655 0 1 0 0-1.31m3.852-4.456a.655.655 0 1 1 0-1.311m0 1.311a.655.655 0 1 0 0-1.311m25.136 26.447a.656.656 0 1 0 0-1.31m0 1.31a.655.655 0 0 1 0-1.31m3.853-4.456a.655.655 0 1 0 0-1.31m0 1.31a.655.655 0 1 1 0-1.31m1.353-5.492a.656.656 0 1 0 0-1.31m0 1.31a.655.655 0 0 1 0-1.31m-1.353-5.492a.655.655 0 1 0 0-1.31m0 1.31a.655.655 0 1 1 0-1.31m-3.852-4.456a.655.655 0 1 0 0-1.311m0 1.311a.656.656 0 1 1 0-1.311" stroke="#fff" stroke-width="1.638" stroke-linecap="round" stroke-linejoin="round"/><path d="m291.372 413.026 5.988-6.585a4.68 4.68 0 0 1 5.158-1.009l2.28 1.092a5.719 5.719 0 0 0 5.515-.631l3.073-2.457a19.245 19.245 0 0 1 5.72-2.926l5.029-1.408m-24.566 6.09v20.939m8.191-19.222v19.222m8.191-24.305v24.305m-24.572-13.105h32.763m-14.796-6.553h14.796m-32.763 13.106h32.763m-29.487-27.849h26.211s3.276 0 3.276 3.276v27.849s0 3.276-3.276 3.276h-26.211s-3.276 0-3.276-3.276v-27.849s0-3.276 3.276-3.276z" stroke="#fff" stroke-width="1.638" stroke-linecap="round" stroke-linejoin="round"/><path d="m108.554 60 4.096-11.2h2.304L119.05 60h-2.176l-.88-2.544h-4.4L110.698 60h-2.144zm3.616-4.192h3.248l-1.632-4.656-1.616 4.656zm10.857 4.384c-.683 0-1.264-.144-1.744-.432a2.966 2.966 0 0 1-1.104-1.216c-.256-.523-.384-1.115-.384-1.776v-4.704h2.032v4.4c0 .587.149 1.067.448 1.44.309.373.757.56 1.344.56.608 0 1.061-.181 1.36-.544.299-.363.448-.848.448-1.456v-4.4h2.048V60h-2.048v-.928c-.267.363-.619.64-1.056.832a3.241 3.241 0 0 1-1.344.288zm9.305 0c-.768 0-1.43-.187-1.984-.56a3.83 3.83 0 0 1-1.264-1.52 5.088 5.088 0 0 1-.432-2.112c0-.768.149-1.461.448-2.08a3.552 3.552 0 0 1 1.28-1.488c.554-.373 1.205-.56 1.952-.56.512 0 .997.107 1.456.32a3.15 3.15 0 0 1 1.184.928V48.8h2.064V60h-2.064v-1.136c-.267.437-.64.768-1.12.992-.48.224-.987.336-1.52.336zm.528-1.792c.426 0 .794-.101 1.104-.304.32-.203.57-.48.752-.832.181-.363.272-.773.272-1.232 0-.565-.112-1.019-.336-1.36a2.044 2.044 0 0 0-.832-.768 2.23 2.23 0 0 0-.976-.24c-.416 0-.784.101-1.104.304a2.14 2.14 0 0 0-.736.832c-.182.341-.272.741-.272 1.2 0 .448.09.853.272 1.216.181.363.432.65.752.864.32.213.688.32 1.104.32zm6.714-7.36c-.363 0-.677-.128-.944-.384a1.318 1.318 0 0 1-.384-.944c0-.373.128-.688.384-.944.267-.256.581-.384.944-.384.373 0 .688.128.944.384s.384.57.384.944c0 .363-.128.677-.384.944a1.284 1.284 0 0 1-.944.384zM138.55 60v-7.936h2.048V60h-2.048zm7.337.192c-.832 0-1.552-.181-2.16-.544a3.747 3.747 0 0 1-1.392-1.488c-.331-.63-.496-1.339-.496-2.128 0-.843.171-1.573.512-2.192a3.624 3.624 0 0 1 1.424-1.44c.608-.352 1.312-.528 2.112-.528.789 0 1.477.17 2.064.512.597.341 1.061.81 1.392 1.408.341.597.512 1.285.512 2.064a4.063 4.063 0 0 1-.064.784h-5.888c.032.373.128.704.288.992.171.277.395.496.672.656.288.15.613.224.976.224.373 0 .693-.08.96-.24.277-.16.496-.405.656-.736h2.192c-.149.47-.389.907-.72 1.312-.331.405-.752.73-1.264.976-.501.245-1.093.368-1.776.368zm-1.968-4.912h3.824c-.011-.533-.208-.955-.592-1.264a2.015 2.015 0 0 0-1.328-.464c-.437 0-.843.139-1.216.416-.373.267-.603.704-.688 1.312zm7.02 4.72v-7.936h2.032v.928c.277-.373.645-.65 1.104-.832a3.69 3.69 0 0 1 1.408-.288c.917 0 1.669.299 2.256.896.586.587.88 1.44.88 2.56V60h-2.032v-4.4c0-.597-.155-1.077-.464-1.44-.299-.373-.742-.56-1.328-.56-.587 0-1.04.187-1.36.56-.31.363-.464.843-.464 1.44V60h-2.032zm12.712.192c-.8 0-1.499-.176-2.096-.528a3.775 3.775 0 0 1-1.392-1.472c-.331-.63-.496-1.35-.496-2.16 0-.8.16-1.515.48-2.144.331-.63.795-1.12 1.392-1.472.597-.363 1.301-.544 2.112-.544.96 0 1.771.24 2.432.72.672.48 1.125 1.19 1.36 2.128h-2.192a1.561 1.561 0 0 0-.56-.784c-.267-.224-.619-.336-1.056-.336-.437 0-.795.112-1.072.336a2.037 2.037 0 0 0-.624.896 3.585 3.585 0 0 0-.192 1.2c0 .437.064.843.192 1.216.139.363.347.656.624.88.277.213.635.32 1.072.32.416 0 .757-.09 1.024-.272.267-.192.464-.47.592-.832h2.192a3.58 3.58 0 0 1-.752 1.536 3.417 3.417 0 0 1-1.312.976c-.512.224-1.088.336-1.728.336zm8.767 0c-.832 0-1.552-.181-2.16-.544a3.747 3.747 0 0 1-1.392-1.488c-.33-.63-.496-1.339-.496-2.128 0-.843.171-1.573.512-2.192a3.63 3.63 0 0 1 1.424-1.44c.608-.352 1.312-.528 2.112-.528.79 0 1.478.17 2.064.512.598.341 1.062.81 1.392 1.408.342.597.512 1.285.512 2.064 0 .139-.005.277-.016.416-.01.128-.026.25-.048.368h-5.888c.032.373.128.704.288.992.171.277.395.496.672.656.288.15.614.224.976.224.374 0 .694-.08.96-.24.278-.16.496-.405.656-.736h2.192c-.149.47-.389.907-.72 1.312-.33.405-.752.73-1.264.976-.501.245-1.093.368-1.776.368zm-1.968-4.912h3.824c-.01-.533-.208-.955-.592-1.264a2.015 2.015 0 0 0-1.328-.464 2 2 0 0 0-1.216.416c-.373.267-.602.704-.688 1.312zm-57.352 25.912c-.779 0-1.488-.133-2.128-.4a3.464 3.464 0 0 1-1.504-1.184c-.373-.533-.571-1.195-.592-1.984h2.16c.021.523.208.96.56 1.312.363.352.859.528 1.488.528.544 0 .976-.128 1.296-.384.32-.256.48-.603.48-1.04a1.46 1.46 0 0 0-.112-.592c-.064-.17-.192-.33-.384-.48-.192-.15-.464-.293-.816-.432-.341-.15-.795-.315-1.36-.496-.736-.245-1.328-.528-1.776-.848-.448-.32-.773-.677-.976-1.072a3.026 3.026 0 0 1-.288-1.312c0-.704.165-1.29.496-1.76.341-.48.795-.837 1.36-1.072a4.812 4.812 0 0 1 1.904-.368c.704 0 1.339.123 1.904.368.576.245 1.04.608 1.392 1.088.352.48.533 1.072.544 1.776h-2.192a1.48 1.48 0 0 0-.48-1.056c-.299-.299-.715-.448-1.248-.448-.427 0-.789.112-1.088.336-.299.224-.448.555-.448.992 0 .32.117.592.352.816.245.224.571.421.976.592.416.16.875.33 1.376.512.277.096.587.219.928.368a4.3 4.3 0 0 1 1.008.608c.32.245.581.56.784.944.213.373.32.837.32 1.392 0 .683-.176 1.27-.528 1.76-.341.49-.811.87-1.408 1.136-.587.267-1.253.4-2 .4zm8.93 0c-.832 0-1.552-.181-2.16-.544a3.734 3.734 0 0 1-1.392-1.488c-.331-.63-.496-1.339-.496-2.128 0-.843.17-1.573.512-2.192a3.624 3.624 0 0 1 1.424-1.44c.608-.352 1.312-.528 2.112-.528.789 0 1.477.17 2.064.512.597.341 1.061.81 1.392 1.408.341.597.512 1.285.512 2.064a4.063 4.063 0 0 1-.064.784h-5.888c.032.373.128.704.288.992.17.277.394.496.672.656.288.15.613.224.976.224.373 0 .693-.08.96-.24.277-.16.496-.405.656-.736h2.192c-.15.47-.39.907-.72 1.312-.331.405-.752.73-1.264.976-.502.245-1.094.368-1.776.368zm-1.968-4.912h3.824c-.011-.533-.208-.955-.592-1.264a2.017 2.017 0 0 0-1.328-.464c-.438 0-.843.139-1.216.416-.374.267-.603.704-.688 1.312zm10.367 8.432c-.725 0-1.376-.08-1.952-.24-.576-.16-1.035-.421-1.376-.784-.331-.352-.496-.816-.496-1.392 0-.373.08-.699.24-.976.16-.267.405-.501.736-.704a1.635 1.635 0 0 1-.624-.608 1.69 1.69 0 0 1-.208-.848c0-.704.331-1.248.992-1.632a2.667 2.667 0 0 1-.544-.832 2.648 2.648 0 0 1-.192-.992c0-.576.139-1.072.416-1.488a2.754 2.754 0 0 1 1.152-.992c.491-.235 1.051-.352 1.68-.352.459 0 .88.064 1.264.192h2.848V74.6h-1.104c.064.181.117.363.16.544.053.181.08.368.08.56 0 .555-.144 1.045-.432 1.472a2.989 2.989 0 0 1-1.168 1.008c-.48.235-1.029.352-1.648.352-.267 0-.512-.021-.736-.064a3.026 3.026 0 0 1-.656-.24.586.586 0 0 0-.352.56c0 .47.389.704 1.168.704h1.456c.64 0 1.184.09 1.632.272.459.17.805.443 1.04.816.235.373.352.848.352 1.424 0 .555-.165 1.035-.496 1.44-.331.405-.779.715-1.344.928a5.085 5.085 0 0 1-1.888.336zm0-1.6c.512 0 .944-.085 1.296-.256.363-.16.544-.405.544-.736 0-.63-.437-.944-1.312-.944h-1.152c-.427 0-.757.08-.992.24-.224.16-.336.395-.336.704 0 .245.091.437.272.576.181.15.421.256.72.32s.619.096.96.096zm-.192-6.176c.405 0 .736-.112.992-.336.267-.235.4-.533.4-.896 0-.352-.133-.645-.4-.88-.256-.235-.587-.352-.992-.352s-.736.117-.992.352a1.169 1.169 0 0 0-.368.88c0 .363.117.661.352.896.245.224.581.336 1.008.336zM135.361 81v-7.936h2.032v.912c.266-.373.608-.65 1.024-.832a3.248 3.248 0 0 1 1.312-.272 3.67 3.67 0 0 1 1.664.384c.522.245.928.635 1.216 1.168.266-.49.634-.87 1.104-1.136a3.078 3.078 0 0 1 1.568-.416 3.51 3.51 0 0 1 1.648.384c.501.245.896.624 1.184 1.136.288.512.432 1.152.432 1.92V81h-2.032v-4.4c0-.597-.144-1.072-.432-1.424-.288-.352-.731-.528-1.328-.528-.587 0-1.03.176-1.328.528-.299.352-.448.827-.448 1.424V81h-2.032v-4.4c0-.608-.155-1.083-.464-1.424-.299-.352-.731-.528-1.296-.528-.48 0-.902.155-1.264.464-.352.299-.528.795-.528 1.488V81h-2.032zm18.292.192c-.832 0-1.552-.181-2.16-.544a3.734 3.734 0 0 1-1.392-1.488c-.331-.63-.496-1.339-.496-2.128 0-.843.17-1.573.512-2.192a3.624 3.624 0 0 1 1.424-1.44c.608-.352 1.312-.528 2.112-.528.789 0 1.477.17 2.064.512.597.341 1.061.81 1.392 1.408.341.597.512 1.285.512 2.064a4.063 4.063 0 0 1-.064.784h-5.888c.032.373.128.704.288.992.17.277.394.496.672.656.288.15.613.224.976.224.373 0 .693-.08.96-.24.277-.16.496-.405.656-.736h2.192c-.15.47-.39.907-.72 1.312-.331.405-.752.73-1.264.976-.502.245-1.094.368-1.776.368zm-1.968-4.912h3.824c-.011-.533-.208-.955-.592-1.264a2.017 2.017 0 0 0-1.328-.464c-.438 0-.843.139-1.216.416-.374.267-.603.704-.688 1.312zm7.019 4.72v-7.936h2.032v.928c.278-.373.646-.65 1.104-.832.47-.192.939-.288 1.408-.288.918 0 1.67.299 2.256.896.587.587.88 1.44.88 2.56V81h-2.032v-4.4c0-.597-.154-1.077-.464-1.44-.298-.373-.741-.56-1.328-.56-.586 0-1.04.187-1.36.56-.309.363-.464.843-.464 1.44V81h-2.032zm12.105 0c-.854 0-1.499-.208-1.936-.624-.427-.416-.64-1.04-.64-1.872v-3.728h-1.024v-1.712h1.024v-1.936h2.048v1.936h1.808v1.712h-1.808v3.744c0 .299.08.501.24.608.16.107.368.16.624.16h.944V81h-1.28zm4.921.192c-.469 0-.907-.096-1.312-.288a2.561 2.561 0 0 1-.992-.816c-.245-.363-.368-.79-.368-1.28 0-.587.144-1.067.432-1.44.288-.373.683-.65 1.184-.832a5.104 5.104 0 0 1 1.712-.272h1.888c0-.363-.059-.667-.176-.912a1.159 1.159 0 0 0-.496-.56c-.213-.139-.48-.208-.8-.208-.373 0-.709.085-1.008.256-.288.16-.464.432-.528.816h-2.048a2.677 2.677 0 0 1 .592-1.488 3.332 3.332 0 0 1 1.312-.96 4.375 4.375 0 0 1 1.712-.336c.747 0 1.376.139 1.888.416.523.277.923.672 1.2 1.184.277.501.416 1.099.416 1.792v2.416c.021.235.107.395.256.48.149.085.347.128.592.128V81c-.501 0-.923-.048-1.264-.144a2.176 2.176 0 0 1-.816-.416 2.51 2.51 0 0 1-.544-.72c-.245.416-.629.768-1.152 1.056a3.471 3.471 0 0 1-1.68.416zm.592-1.648c.352 0 .672-.08.96-.24a1.89 1.89 0 0 0 .72-.672c.181-.288.272-.619.272-.992v-.064h-1.76c-.235 0-.459.037-.672.112-.213.064-.384.17-.512.32-.128.139-.192.33-.192.576 0 .33.112.576.336.736.235.15.517.224.848.224zM184.903 81c-.854 0-1.499-.208-1.936-.624-.427-.416-.64-1.04-.64-1.872v-3.728h-1.024v-1.712h1.024v-1.936h2.048v1.936h1.808v1.712h-1.808v3.744c0 .299.08.501.24.608.16.107.368.16.624.16h.944V81h-1.28zm3.593-8.96c-.363 0-.677-.128-.944-.384a1.318 1.318 0 0 1-.384-.944c0-.373.128-.688.384-.944.267-.256.581-.384.944-.384.373 0 .688.128.944.384s.384.57.384.944c0 .363-.128.677-.384.944a1.284 1.284 0 0 1-.944.384zM187.472 81v-7.936h2.048V81h-2.048zm7.417.192c-.8 0-1.515-.17-2.144-.512a3.785 3.785 0 0 1-1.456-1.472c-.352-.63-.528-1.355-.528-2.176 0-.864.187-1.605.56-2.224.384-.63.891-1.11 1.52-1.44a4.532 4.532 0 0 1 2.112-.496c.8 0 1.515.176 2.144.528a3.79 3.79 0 0 1 1.488 1.44c.373.619.56 1.35.56 2.192 0 .8-.181 1.515-.544 2.144a3.954 3.954 0 0 1-1.504 1.488c-.629.352-1.365.528-2.208.528zm.032-1.776c.427 0 .795-.107 1.104-.32.32-.224.571-.517.752-.88a2.75 2.75 0 0 0 .272-1.216c0-.501-.101-.928-.304-1.28a1.985 1.985 0 0 0-.768-.8 2.105 2.105 0 0 0-1.056-.272c-.416 0-.784.101-1.104.304a2.122 2.122 0 0 0-.736.848c-.171.352-.256.763-.256 1.232 0 .47.091.885.272 1.248.192.363.448.645.768.848.32.192.672.288 1.056.288zM200.329 81v-7.936h2.032v.928c.278-.373.646-.65 1.104-.832.47-.192.939-.288 1.408-.288.918 0 1.67.299 2.256.896.587.587.88 1.44.88 2.56V81h-2.032v-4.4c0-.597-.154-1.077-.464-1.44-.298-.373-.741-.56-1.328-.56-.586 0-1.04.187-1.36.56-.309.363-.464.843-.464 1.44V81h-2.032z" fill="#5495FF"/><path d="M3.882 180v-9.456H.618V168.8H9.21v1.744H5.93V180H3.882zm7.067.192c-.47 0-.907-.096-1.312-.288a2.559 2.559 0 0 1-.992-.816c-.245-.363-.368-.789-.368-1.28 0-.587.144-1.067.432-1.44.288-.373.683-.651 1.184-.832a5.11 5.11 0 0 1 1.712-.272h1.888c0-.363-.059-.667-.176-.912a1.159 1.159 0 0 0-.496-.56c-.213-.139-.48-.208-.8-.208-.373 0-.71.085-1.008.256-.288.16-.464.432-.528.816H8.437c.053-.576.25-1.072.592-1.488a3.332 3.332 0 0 1 1.312-.96 4.376 4.376 0 0 1 1.712-.336c.746 0 1.376.139 1.888.416.522.277.922.672 1.2 1.184.277.501.416 1.099.416 1.792v2.416c.021.235.107.395.256.48.15.085.347.128.592.128V180c-.502 0-.923-.048-1.264-.144a2.185 2.185 0 0 1-.816-.416 2.508 2.508 0 0 1-.544-.72c-.245.416-.63.768-1.152 1.056a3.474 3.474 0 0 1-1.68.416zm.592-1.648c.352 0 .672-.08.96-.24.299-.16.539-.384.72-.672.181-.288.272-.619.272-.992v-.064h-1.76a2.01 2.01 0 0 0-.672.112 1.056 1.056 0 0 0-.512.32c-.128.139-.192.331-.192.576 0 .331.112.576.336.736.235.149.517.224.848.224zM17.39 180v-7.936h2.033v1.184c.277-.448.63-.789 1.056-1.024a2.901 2.901 0 0 1 1.424-.352v2.144h-.544c-.65 0-1.136.155-1.456.464-.32.309-.48.827-.48 1.552V180h-2.032zm8.817 3.712c-.725 0-1.376-.08-1.952-.24-.576-.16-1.034-.421-1.376-.784-.33-.352-.496-.816-.496-1.392 0-.373.08-.699.24-.976.16-.267.406-.501.736-.704a1.632 1.632 0 0 1-.624-.608 1.692 1.692 0 0 1-.208-.848c0-.704.331-1.248.992-1.632a2.673 2.673 0 0 1-.544-.832 2.649 2.649 0 0 1-.192-.992c0-.576.139-1.072.416-1.488a2.758 2.758 0 0 1 1.152-.992c.491-.235 1.051-.352 1.68-.352.459 0 .88.064 1.264.192h2.848v1.536H29.04c.064.181.118.363.16.544.054.181.08.368.08.56 0 .555-.144 1.045-.432 1.472a2.987 2.987 0 0 1-1.168 1.008c-.48.235-1.029.352-1.648.352-.266 0-.512-.021-.736-.064a3 3 0 0 1-.656-.24.586.586 0 0 0-.352.56c0 .469.39.704 1.168.704h1.456c.64 0 1.184.091 1.632.272.459.171.806.443 1.04.816.235.373.352.848.352 1.424 0 .555-.165 1.035-.496 1.44-.33.405-.778.715-1.344.928a5.086 5.086 0 0 1-1.888.336zm0-1.6c.512 0 .944-.085 1.296-.256.363-.16.544-.405.544-.736 0-.629-.437-.944-1.312-.944h-1.152c-.426 0-.757.08-.992.24-.224.16-.336.395-.336.704 0 .245.091.437.272.576.182.149.422.256.72.32.299.064.619.096.96.096zm-.192-6.176c.406 0 .736-.112.992-.336.267-.235.4-.533.4-.896 0-.352-.133-.645-.4-.88-.256-.235-.586-.352-.992-.352-.405 0-.736.117-.992.352a1.168 1.168 0 0 0-.368.88c0 .363.118.661.352.896.246.224.582.336 1.008.336zm8.684 4.256c-.833 0-1.553-.181-2.16-.544a3.747 3.747 0 0 1-1.392-1.488c-.331-.629-.497-1.339-.497-2.128 0-.843.171-1.573.512-2.192a3.622 3.622 0 0 1 1.424-1.44c.608-.352 1.313-.528 2.112-.528.79 0 1.478.171 2.065.512a3.605 3.605 0 0 1 1.392 1.408c.34.597.511 1.285.511 2.064 0 .139-.005.277-.016.416-.01.128-.026.251-.048.368h-5.888c.032.373.128.704.288.992.171.277.395.496.672.656.289.149.614.224.977.224.373 0 .693-.08.96-.24.277-.16.495-.405.655-.736h2.192c-.149.469-.389.907-.72 1.312-.33.405-.752.731-1.264.976-.5.245-1.093.368-1.776.368zm-1.969-4.912h3.825c-.011-.533-.209-.955-.592-1.264a2.018 2.018 0 0 0-1.328-.464 2 2 0 0 0-1.217.416c-.373.267-.602.704-.688 1.312zm10 4.72c-.854 0-1.499-.208-1.936-.624-.427-.416-.64-1.04-.64-1.872v-3.728H39.13v-1.712h1.024v-1.936h2.048v1.936h1.808v1.712h-1.808v3.744c0 .299.08.501.24.608.16.107.368.16.624.16h.944V180h-1.28zm3.593-8.96c-.363 0-.677-.128-.944-.384a1.318 1.318 0 0 1-.384-.944c0-.373.128-.688.384-.944.267-.256.581-.384.944-.384.373 0 .688.128.944.384s.384.571.384.944c0 .363-.128.677-.384.944-.256.256-.57.384-.944.384zM45.3 180v-7.936h2.048V180H45.3zm3.545 0v-7.936h2.032v.928a2.475 2.475 0 0 1 1.104-.832c.47-.192.939-.288 1.408-.288.917 0 1.67.299 2.256.896.587.587.88 1.44.88 2.56V180h-2.032v-4.4c0-.597-.155-1.077-.464-1.44-.299-.373-.741-.56-1.328-.56-.587 0-1.04.187-1.36.56-.31.363-.464.843-.464 1.44v4.4h-2.032zm12.363 3.712c-.725 0-1.376-.08-1.952-.24-.576-.16-1.034-.421-1.376-.784-.33-.352-.496-.816-.496-1.392 0-.373.08-.699.24-.976.16-.267.406-.501.736-.704a1.632 1.632 0 0 1-.624-.608 1.692 1.692 0 0 1-.208-.848c0-.704.331-1.248.992-1.632a2.673 2.673 0 0 1-.544-.832 2.649 2.649 0 0 1-.192-.992c0-.576.139-1.072.416-1.488a2.758 2.758 0 0 1 1.152-.992c.491-.235 1.051-.352 1.68-.352.459 0 .88.064 1.264.192h2.848v1.536H64.04c.064.181.118.363.16.544.054.181.08.368.08.56 0 .555-.144 1.045-.432 1.472a2.987 2.987 0 0 1-1.168 1.008c-.48.235-1.029.352-1.648.352-.266 0-.512-.021-.736-.064a3 3 0 0 1-.656-.24.586.586 0 0 0-.352.56c0 .469.39.704 1.168.704h1.456c.64 0 1.184.091 1.632.272.459.171.806.443 1.04.816.235.373.352.848.352 1.424 0 .555-.165 1.035-.496 1.44-.33.405-.778.715-1.344.928a5.086 5.086 0 0 1-1.888.336zm0-1.6c.512 0 .944-.085 1.296-.256.363-.16.544-.405.544-.736 0-.629-.437-.944-1.312-.944h-1.152c-.426 0-.757.08-.992.24-.224.16-.336.395-.336.704 0 .245.091.437.272.576.182.149.422.256.72.32.299.064.619.096.96.096zm-.192-6.176c.406 0 .736-.112.992-.336.267-.235.4-.533.4-.896 0-.352-.133-.645-.4-.88-.256-.235-.586-.352-.992-.352-.405 0-.736.117-.992.352a1.168 1.168 0 0 0-.368.88c0 .363.118.661.352.896.246.224.582.336 1.008.336zM6.618 201.192a5.96 5.96 0 0 1-2.16-.4 5.64 5.64 0 0 1-1.824-1.152 5.42 5.42 0 0 1-1.264-1.824c-.31-.715-.464-1.52-.464-2.416 0-.896.155-1.701.464-2.416a5.42 5.42 0 0 1 1.264-1.824 5.64 5.64 0 0 1 1.824-1.152 5.96 5.96 0 0 1 2.16-.4c.757 0 1.477.133 2.16.4a5.599 5.599 0 0 1 1.84 1.152 5.42 5.42 0 0 1 1.264 1.824c.31.715.464 1.52.464 2.416 0 .896-.155 1.701-.464 2.416a5.42 5.42 0 0 1-1.264 1.824 5.599 5.599 0 0 1-1.84 1.152c-.683.267-1.403.4-2.16.4zm0-1.856c.597 0 1.173-.139 1.728-.416.555-.288 1.008-.725 1.36-1.312.352-.587.528-1.323.528-2.208 0-.896-.176-1.637-.528-2.224-.352-.587-.805-1.019-1.36-1.296a3.704 3.704 0 0 0-1.728-.432c-.587 0-1.157.144-1.712.432-.555.277-1.008.709-1.36 1.296-.352.587-.528 1.328-.528 2.224 0 .885.176 1.621.528 2.208.352.587.805 1.024 1.36 1.312a3.79 3.79 0 0 0 1.712.416zm7.102 5.184v-11.456h2.032v1.104a2.93 2.93 0 0 1 1.152-.96c.47-.224.976-.336 1.52-.336.768 0 1.424.187 1.968.56.555.373.976.875 1.264 1.504.299.619.448 1.307.448 2.064 0 .757-.15 1.456-.448 2.096a3.763 3.763 0 0 1-1.28 1.536c-.544.373-1.195.56-1.952.56-.672 0-1.232-.139-1.68-.416-.437-.277-.763-.565-.976-.864v4.608H13.72zm4.16-5.12c.427 0 .8-.107 1.12-.32.32-.224.57-.517.752-.88.181-.363.272-.763.272-1.2 0-.501-.101-.923-.304-1.264a1.952 1.952 0 0 0-.784-.8 2.108 2.108 0 0 0-1.056-.272c-.405 0-.768.101-1.088.304-.32.203-.576.485-.768.848a2.618 2.618 0 0 0-.272 1.216c0 .437.09.837.272 1.2.181.363.432.651.752.864.32.203.688.304 1.104.304zm8.21 1.6c-.853 0-1.499-.208-1.936-.624-.427-.416-.64-1.04-.64-1.872v-3.728H22.49v-1.712h1.024v-1.936h2.048v1.936h1.808v1.712h-1.808v3.744c0 .299.08.501.24.608.16.107.368.16.624.16h.944V201h-1.28zm3.593-8.96c-.362 0-.677-.128-.944-.384a1.318 1.318 0 0 1-.384-.944c0-.373.128-.688.384-.944.267-.256.582-.384.944-.384.374 0 .688.128.944.384s.384.571.384.944c0 .363-.128.677-.384.944-.256.256-.57.384-.944.384zM28.66 201v-7.936h2.048V201H28.66zm3.545 0v-7.936h2.032v.912a2.431 2.431 0 0 1 1.024-.832 3.254 3.254 0 0 1 1.312-.272c.598 0 1.152.128 1.664.384.523.245.928.635 1.216 1.168a2.83 2.83 0 0 1 1.104-1.136 3.083 3.083 0 0 1 1.568-.416c.608 0 1.158.128 1.648.384a2.7 2.7 0 0 1 1.184 1.136c.288.512.432 1.152.432 1.92V201h-2.032v-4.4c0-.597-.144-1.072-.432-1.424-.288-.352-.73-.528-1.328-.528-.586 0-1.029.176-1.328.528-.298.352-.448.827-.448 1.424v4.4h-2.032v-4.4c0-.608-.154-1.083-.464-1.424-.298-.352-.73-.528-1.296-.528-.48 0-.901.155-1.264.464-.352.299-.528.795-.528 1.488v4.4h-2.032zm15.604-8.96c-.362 0-.677-.128-.944-.384a1.318 1.318 0 0 1-.384-.944c0-.373.128-.688.384-.944.267-.256.582-.384.944-.384.374 0 .688.128.944.384s.384.571.384.944c0 .363-.128.677-.384.944-.256.256-.57.384-.944.384zM46.784 201v-7.936h2.048V201h-2.048zm3.584 0v-1.648l3.52-4.624h-3.504v-1.664h5.84v1.632l-3.536 4.624h3.584V201h-5.904zm9.409.192c-.47 0-.907-.096-1.312-.288a2.559 2.559 0 0 1-.992-.816c-.245-.363-.368-.789-.368-1.28 0-.587.144-1.067.432-1.44.288-.373.683-.651 1.184-.832a5.11 5.11 0 0 1 1.712-.272h1.888c0-.363-.059-.667-.176-.912a1.159 1.159 0 0 0-.496-.56c-.213-.139-.48-.208-.8-.208-.373 0-.71.085-1.008.256-.288.16-.464.432-.528.816h-2.048c.053-.576.25-1.072.592-1.488a3.332 3.332 0 0 1 1.312-.96 4.376 4.376 0 0 1 1.712-.336c.747 0 1.376.139 1.888.416.523.277.923.672 1.2 1.184.277.501.416 1.099.416 1.792v2.416c.021.235.107.395.256.48.15.085.347.128.592.128V201c-.501 0-.923-.048-1.264-.144a2.185 2.185 0 0 1-.816-.416 2.51 2.51 0 0 1-.544-.72c-.245.416-.63.768-1.152 1.056a3.474 3.474 0 0 1-1.68.416zm.592-1.648c.352 0 .672-.08.96-.24.299-.16.539-.384.72-.672.181-.288.272-.619.272-.992v-.064h-1.76a2.01 2.01 0 0 0-.672.112 1.057 1.057 0 0 0-.512.32c-.128.139-.192.331-.192.576 0 .331.112.576.336.736.235.149.517.224.848.224zm8.58 1.456c-.853 0-1.498-.208-1.936-.624-.426-.416-.64-1.04-.64-1.872v-3.728H65.35v-1.712h1.024v-1.936h2.048v1.936h1.808v1.712h-1.808v3.744c0 .299.08.501.24.608.16.107.368.16.624.16h.944V201h-1.28zm3.594-8.96c-.363 0-.678-.128-.944-.384a1.318 1.318 0 0 1-.384-.944c0-.373.128-.688.384-.944.266-.256.581-.384.944-.384.373 0 .688.128.944.384s.384.571.384.944c0 .363-.128.677-.384.944-.256.256-.57.384-.944.384zM71.519 201v-7.936h2.048V201h-2.048zm7.417.192c-.8 0-1.515-.171-2.144-.512a3.79 3.79 0 0 1-1.456-1.472c-.352-.629-.528-1.355-.528-2.176 0-.864.186-1.605.56-2.224a3.866 3.866 0 0 1 1.52-1.44 4.528 4.528 0 0 1 2.112-.496c.8 0 1.514.176 2.144.528.63.341 1.125.821 1.488 1.44.373.619.56 1.349.56 2.192 0 .8-.182 1.515-.544 2.144a3.956 3.956 0 0 1-1.504 1.488c-.63.352-1.366.528-2.208.528zm.032-1.776c.426 0 .794-.107 1.104-.32.32-.224.57-.517.752-.88.181-.373.272-.779.272-1.216 0-.501-.102-.928-.304-1.28a1.984 1.984 0 0 0-.768-.8 2.108 2.108 0 0 0-1.056-.272c-.416 0-.784.101-1.104.304-.31.203-.555.485-.736.848-.17.352-.256.763-.256 1.232s.09.885.272 1.248c.192.363.448.645.768.848.32.192.672.288 1.056.288zM84.376 201v-7.936h2.032v.928a2.475 2.475 0 0 1 1.104-.832c.47-.192.939-.288 1.408-.288.918 0 1.67.299 2.256.896.587.587.88 1.44.88 2.56V201h-2.032v-4.4c0-.597-.154-1.077-.464-1.44-.298-.373-.741-.56-1.328-.56-.586 0-1.04.187-1.36.56-.31.363-.464.843-.464 1.44v4.4h-2.032z" fill="#22C8FF"/><path d="M475.196 325v-11.2h3.824c1.333 0 2.421.235 3.264.704.853.469 1.477 1.125 1.872 1.968.405.843.608 1.819.608 2.928 0 1.195-.224 2.213-.672 3.056a4.394 4.394 0 0 1-1.936 1.904c-.853.427-1.899.64-3.136.64h-3.824zm2.048-1.76h1.68c.949 0 1.696-.155 2.24-.464a2.55 2.55 0 0 0 1.152-1.328c.235-.576.352-1.259.352-2.048 0-1.333-.309-2.309-.928-2.928-.608-.619-1.547-.928-2.816-.928h-1.68v7.696zm11.096 1.952c-.47 0-.907-.096-1.312-.288a2.554 2.554 0 0 1-.992-.816c-.246-.363-.368-.789-.368-1.28 0-.587.144-1.067.432-1.44.288-.373.682-.651 1.184-.832a5.107 5.107 0 0 1 1.712-.272h1.888c0-.363-.059-.667-.176-.912a1.16 1.16 0 0 0-.496-.56c-.214-.139-.481-.208-.801-.208-.373 0-.709.085-1.007.256-.288.16-.464.432-.528.816h-2.048a2.67 2.67 0 0 1 .592-1.488 3.325 3.325 0 0 1 1.312-.96 4.375 4.375 0 0 1 1.712-.336c.746 0 1.376.139 1.888.416a2.86 2.86 0 0 1 1.2 1.184c.277.501.416 1.099.416 1.792v2.416c.021.235.106.395.256.48.149.085.346.128.592.128V325c-.502 0-.923-.048-1.264-.144a2.18 2.18 0 0 1-.816-.416 2.492 2.492 0 0 1-.544-.72c-.246.416-.63.768-1.152 1.056a3.474 3.474 0 0 1-1.68.416zm.592-1.648c.352 0 .672-.08.959-.24a1.9 1.9 0 0 0 .721-.672c.181-.288.272-.619.272-.992v-.064h-1.76c-.235 0-.459.037-.672.112a1.054 1.054 0 0 0-.512.32c-.128.139-.192.331-.192.576 0 .331.112.576.336.736.234.149.517.224.848.224zm8.58 1.456c-.853 0-1.499-.208-1.936-.624-.427-.416-.64-1.04-.64-1.872v-3.728h-1.024v-1.712h1.024v-1.936h2.048v1.936h1.808v1.712h-1.808v3.744c0 .299.08.501.24.608.16.107.368.16.624.16h.944V325h-1.28zm4.921.192c-.469 0-.906-.096-1.312-.288a2.561 2.561 0 0 1-.992-.816c-.245-.363-.368-.789-.368-1.28 0-.587.144-1.067.432-1.44.288-.373.683-.651 1.184-.832a5.111 5.111 0 0 1 1.712-.272h1.888c0-.363-.058-.667-.176-.912a1.155 1.155 0 0 0-.496-.56c-.213-.139-.48-.208-.8-.208-.373 0-.709.085-1.008.256-.288.16-.464.432-.528.816h-2.048a2.684 2.684 0 0 1 .592-1.488 3.34 3.34 0 0 1 1.312-.96 4.378 4.378 0 0 1 1.712-.336c.747 0 1.376.139 1.888.416a2.85 2.85 0 0 1 1.2 1.184c.278.501.416 1.099.416 1.792v2.416c.022.235.107.395.256.48.15.085.347.128.592.128V325c-.501 0-.922-.048-1.264-.144a2.196 2.196 0 0 1-.816-.416 2.528 2.528 0 0 1-.544-.72c-.245.416-.629.768-1.152 1.056a3.474 3.474 0 0 1-1.68.416zm.592-1.648c.352 0 .672-.08.96-.24a1.89 1.89 0 0 0 .72-.672c.182-.288.272-.619.272-.992v-.064h-1.76c-.234 0-.458.037-.672.112a1.058 1.058 0 0 0-.512.32c-.128.139-.192.331-.192.576 0 .331.112.576.336.736.235.149.518.224.848.224zM512.07 325l4.096-11.2h2.304l4.096 11.2h-2.176l-.88-2.544h-4.4l-.896 2.544h-2.144zm3.616-4.192h3.248l-1.632-4.656-1.616 4.656zm11.262 4.384c-.8 0-1.499-.176-2.096-.528a3.775 3.775 0 0 1-1.392-1.472c-.331-.629-.496-1.349-.496-2.16 0-.8.16-1.515.48-2.144a3.638 3.638 0 0 1 1.392-1.472c.597-.363 1.301-.544 2.112-.544.96 0 1.771.24 2.432.72.672.48 1.125 1.189 1.36 2.128h-2.192a1.561 1.561 0 0 0-.56-.784c-.267-.224-.619-.336-1.056-.336-.437 0-.795.112-1.072.336a2.039 2.039 0 0 0-.624.896 3.587 3.587 0 0 0-.192 1.2c0 .437.064.843.192 1.216.139.363.347.656.624.88.277.213.635.32 1.072.32.416 0 .757-.091 1.024-.272.267-.192.464-.469.592-.832h2.192a3.583 3.583 0 0 1-.752 1.536 3.414 3.414 0 0 1-1.312.976c-.512.224-1.088.336-1.728.336zm7.986-.192c-.854 0-1.499-.208-1.936-.624-.427-.416-.64-1.04-.64-1.872v-3.728h-1.024v-1.712h1.024v-1.936h2.048v1.936h1.808v1.712h-1.808v3.744c0 .299.08.501.24.608.16.107.368.16.624.16h.944V325h-1.28zm3.593-8.96c-.363 0-.677-.128-.944-.384a1.318 1.318 0 0 1-.384-.944c0-.373.128-.688.384-.944.267-.256.581-.384.944-.384.373 0 .688.128.944.384s.384.571.384.944c0 .363-.128.677-.384.944a1.284 1.284 0 0 1-.944.384zm-1.024 8.96v-7.936h2.048V325h-2.048zm5.785 0-2.976-7.936h2.176l2.048 6.096 2.032-6.096h2.16L545.752 325h-2.464zm8.177.192c-.47 0-.907-.096-1.312-.288a2.554 2.554 0 0 1-.992-.816c-.246-.363-.368-.789-.368-1.28 0-.587.144-1.067.432-1.44.288-.373.682-.651 1.184-.832a5.107 5.107 0 0 1 1.712-.272h1.888c0-.363-.059-.667-.176-.912a1.16 1.16 0 0 0-.496-.56c-.214-.139-.481-.208-.801-.208-.373 0-.709.085-1.007.256-.288.16-.464.432-.528.816h-2.048a2.67 2.67 0 0 1 .592-1.488 3.325 3.325 0 0 1 1.312-.96 4.375 4.375 0 0 1 1.712-.336c.746 0 1.376.139 1.888.416a2.86 2.86 0 0 1 1.2 1.184c.277.501.416 1.099.416 1.792v2.416c.021.235.106.395.256.48.149.085.346.128.592.128V325c-.502 0-.923-.048-1.264-.144a2.18 2.18 0 0 1-.816-.416 2.492 2.492 0 0 1-.544-.72c-.246.416-.63.768-1.152 1.056a3.474 3.474 0 0 1-1.68.416zm.592-1.648c.352 0 .672-.08.959-.24a1.9 1.9 0 0 0 .721-.672c.181-.288.272-.619.272-.992v-.064h-1.76c-.235 0-.459.037-.672.112a1.054 1.054 0 0 0-.512.32c-.128.139-.192.331-.192.576 0 .331.112.576.336.736.234.149.517.224.848.224zm8.58 1.456c-.853 0-1.499-.208-1.936-.624-.427-.416-.64-1.04-.64-1.872v-3.728h-1.024v-1.712h1.024v-1.936h2.048v1.936h1.808v1.712h-1.808v3.744c0 .299.08.501.24.608.16.107.368.16.624.16h.944V325h-1.28zm3.593-8.96a1.32 1.32 0 0 1-.944-.384 1.318 1.318 0 0 1-.384-.944c0-.373.128-.688.384-.944a1.32 1.32 0 0 1 .944-.384c.374 0 .688.128.944.384s.384.571.384.944c0 .363-.128.677-.384.944-.256.256-.57.384-.944.384zm-1.024 8.96v-7.936h2.048V325h-2.048zm7.417.192c-.8 0-1.514-.171-2.144-.512a3.794 3.794 0 0 1-1.456-1.472c-.352-.629-.528-1.355-.528-2.176 0-.864.187-1.605.56-2.224a3.87 3.87 0 0 1 1.52-1.44 4.528 4.528 0 0 1 2.112-.496c.8 0 1.515.176 2.144.528.63.341 1.126.821 1.488 1.44.374.619.56 1.349.56 2.192 0 .8-.181 1.515-.544 2.144a3.951 3.951 0 0 1-1.504 1.488c-.629.352-1.365.528-2.208.528zm.032-1.776c.427 0 .795-.107 1.104-.32.32-.224.571-.517.752-.88.182-.373.272-.779.272-1.216 0-.501-.101-.928-.304-1.28a1.984 1.984 0 0 0-.768-.8 2.108 2.108 0 0 0-1.056-.272c-.416 0-.784.101-1.104.304a2.13 2.13 0 0 0-.736.848c-.17.352-.256.763-.256 1.232s.091.885.272 1.248c.192.363.448.645.768.848.32.192.672.288 1.056.288zm5.409 1.584v-7.936h2.032v.928a2.472 2.472 0 0 1 1.104-.832 3.69 3.69 0 0 1 1.408-.288c.917 0 1.669.299 2.256.896.586.587.88 1.44.88 2.56V325h-2.032v-4.4c0-.597-.155-1.077-.464-1.44-.299-.373-.742-.56-1.328-.56-.587 0-1.04.187-1.36.56-.31.363-.464.843-.464 1.44v4.4h-2.032z" fill="#55E7A1"/><path d="M394.774 409v-11.2h4.144c.779 0 1.461.133 2.048.4a3.17 3.17 0 0 1 1.408 1.136c.341.501.512 1.109.512 1.824 0 .715-.171 1.328-.512 1.84a3.277 3.277 0 0 1-1.408 1.152c-.587.256-1.269.384-2.048.384h-2.096V409h-2.048zm2.048-6.208h2.048c.715 0 1.216-.149 1.504-.448.288-.309.432-.704.432-1.184 0-.469-.144-.853-.432-1.152-.288-.309-.789-.464-1.504-.464h-2.048v3.248zm10.456 6.4c-.832 0-1.552-.181-2.16-.544a3.737 3.737 0 0 1-1.392-1.488c-.331-.629-.496-1.339-.496-2.128 0-.843.17-1.573.512-2.192a3.62 3.62 0 0 1 1.424-1.44c.608-.352 1.312-.528 2.112-.528.789 0 1.477.171 2.064.512a3.609 3.609 0 0 1 1.392 1.408c.341.597.512 1.285.512 2.064a4.05 4.05 0 0 1-.064.784h-5.888c.032.373.128.704.288.992.17.277.394.496.672.656.288.149.613.224.976.224.373 0 .693-.08.96-.24.277-.16.496-.405.656-.736h2.192c-.15.469-.39.907-.72 1.312a3.626 3.626 0 0 1-1.264.976c-.502.245-1.094.368-1.776.368zm-1.968-4.912h3.824c-.011-.533-.208-.955-.592-1.264a2.019 2.019 0 0 0-1.328-.464c-.438 0-.843.139-1.216.416-.374.267-.603.704-.688 1.312zm7.019 4.72v-7.936h2.032v1.184c.278-.448.63-.789 1.056-1.024a2.904 2.904 0 0 1 1.424-.352v2.144h-.544c-.65 0-1.136.155-1.456.464-.32.309-.48.827-.48 1.552V409h-2.032zm6.083 0v-6.224h-.928v-1.712h.928v-.608c0-.96.24-1.643.72-2.048.491-.405 1.152-.608 1.984-.608h.672v1.744h-.352c-.352 0-.602.069-.752.208-.149.139-.224.373-.224.704v.608h1.424v1.712h-1.424V409h-2.048zm8.289.192c-.8 0-1.514-.171-2.144-.512a3.794 3.794 0 0 1-1.456-1.472c-.352-.629-.528-1.355-.528-2.176 0-.864.187-1.605.56-2.224a3.87 3.87 0 0 1 1.52-1.44 4.528 4.528 0 0 1 2.112-.496c.8 0 1.515.176 2.144.528.63.341 1.126.821 1.488 1.44.374.619.56 1.349.56 2.192 0 .8-.181 1.515-.544 2.144a3.951 3.951 0 0 1-1.504 1.488c-.629.352-1.365.528-2.208.528zm.032-1.776c.427 0 .795-.107 1.104-.32.32-.224.571-.517.752-.88.182-.373.272-.779.272-1.216 0-.501-.101-.928-.304-1.28a1.984 1.984 0 0 0-.768-.8 2.108 2.108 0 0 0-1.056-.272c-.416 0-.784.101-1.104.304a2.13 2.13 0 0 0-.736.848c-.17.352-.256.763-.256 1.232s.091.885.272 1.248c.192.363.448.645.768.848.32.192.672.288 1.056.288zm5.409 1.584v-7.936h2.032v1.184a2.85 2.85 0 0 1 1.056-1.024 2.902 2.902 0 0 1 1.424-.352v2.144h-.544c-.651 0-1.136.155-1.456.464-.32.309-.48.827-.48 1.552V409h-2.032zm5.469 0v-7.936h2.032v.912a2.428 2.428 0 0 1 1.024-.832 3.253 3.253 0 0 1 1.312-.272 3.67 3.67 0 0 1 1.664.384c.522.245.928.635 1.216 1.168a2.822 2.822 0 0 1 1.104-1.136 3.081 3.081 0 0 1 1.568-.416 3.51 3.51 0 0 1 1.648.384c.501.245.896.624 1.184 1.136.288.512.432 1.152.432 1.92V409h-2.032v-4.4c0-.597-.144-1.072-.432-1.424-.288-.352-.731-.528-1.328-.528-.587 0-1.03.176-1.328.528-.299.352-.448.827-.448 1.424v4.4h-2.032v-4.4c0-.608-.155-1.083-.464-1.424-.299-.352-.731-.528-1.296-.528-.48 0-.902.155-1.264.464-.352.299-.528.795-.528 1.488v4.4h-2.032zm16.932.192c-.47 0-.907-.096-1.312-.288a2.554 2.554 0 0 1-.992-.816c-.246-.363-.368-.789-.368-1.28 0-.587.144-1.067.432-1.44.288-.373.682-.651 1.184-.832a5.107 5.107 0 0 1 1.712-.272h1.888c0-.363-.059-.667-.176-.912a1.16 1.16 0 0 0-.496-.56c-.214-.139-.48-.208-.8-.208-.374 0-.71.085-1.008.256-.288.16-.464.432-.528.816h-2.048a2.67 2.67 0 0 1 .592-1.488 3.325 3.325 0 0 1 1.312-.96 4.375 4.375 0 0 1 1.712-.336c.746 0 1.376.139 1.888.416a2.86 2.86 0 0 1 1.2 1.184c.277.501.416 1.099.416 1.792v2.416c.021.235.106.395.256.48.149.085.346.128.592.128V409c-.502 0-.923-.048-1.264-.144a2.18 2.18 0 0 1-.816-.416 2.492 2.492 0 0 1-.544-.72c-.246.416-.63.768-1.152 1.056a3.474 3.474 0 0 1-1.68.416zm.592-1.648c.352 0 .672-.08.96-.24.298-.16.538-.384.72-.672.181-.288.272-.619.272-.992v-.064h-1.76c-.235 0-.459.037-.672.112a1.054 1.054 0 0 0-.512.32c-.128.139-.192.331-.192.576 0 .331.112.576.336.736.234.149.517.224.848.224zm5.851 1.456v-7.936h2.032v.928a2.472 2.472 0 0 1 1.104-.832 3.69 3.69 0 0 1 1.408-.288c.917 0 1.669.299 2.256.896.586.587.88 1.44.88 2.56V409h-2.032v-4.4c0-.597-.155-1.077-.464-1.44-.299-.373-.742-.56-1.328-.56-.587 0-1.04.187-1.36.56-.31.363-.464.843-.464 1.44v4.4h-2.032zm12.712.192c-.8 0-1.499-.176-2.096-.528a3.775 3.775 0 0 1-1.392-1.472c-.331-.629-.496-1.349-.496-2.16 0-.8.16-1.515.48-2.144a3.638 3.638 0 0 1 1.392-1.472c.597-.363 1.301-.544 2.112-.544.96 0 1.771.24 2.432.72.672.48 1.125 1.189 1.36 2.128h-2.192a1.561 1.561 0 0 0-.56-.784c-.267-.224-.619-.336-1.056-.336-.437 0-.795.112-1.072.336a2.039 2.039 0 0 0-.624.896 3.587 3.587 0 0 0-.192 1.2c0 .437.064.843.192 1.216.139.363.347.656.624.88.277.213.635.32 1.072.32.416 0 .757-.091 1.024-.272.267-.192.464-.469.592-.832h2.192a3.583 3.583 0 0 1-.752 1.536 3.414 3.414 0 0 1-1.312.976c-.512.224-1.088.336-1.728.336zm8.767 0c-.832 0-1.552-.181-2.16-.544a3.751 3.751 0 0 1-1.392-1.488c-.331-.629-.496-1.339-.496-2.128 0-.843.171-1.573.512-2.192a3.62 3.62 0 0 1 1.424-1.44c.608-.352 1.312-.528 2.112-.528.789 0 1.477.171 2.064.512a3.609 3.609 0 0 1 1.392 1.408c.341.597.512 1.285.512 2.064a4.05 4.05 0 0 1-.064.784h-5.888c.032.373.128.704.288.992.171.277.395.496.672.656.288.149.613.224.976.224.373 0 .693-.08.96-.24.277-.16.496-.405.656-.736h2.192a3.957 3.957 0 0 1-.72 1.312 3.626 3.626 0 0 1-1.264.976c-.501.245-1.093.368-1.776.368zm-1.968-4.912h3.824c-.011-.533-.208-.955-.592-1.264a2.017 2.017 0 0 0-1.328-.464 2 2 0 0 0-1.216.416c-.373.267-.603.704-.688 1.312zM490.71 409l4.096-11.2h2.304l4.096 11.2h-2.176l-.88-2.544h-4.4l-.896 2.544h-2.144zm3.616-4.192h3.248l-1.632-4.656-1.616 4.656zm7.91 4.192v-7.936h2.032v.928a2.472 2.472 0 0 1 1.104-.832 3.69 3.69 0 0 1 1.408-.288c.917 0 1.669.299 2.256.896.586.587.88 1.44.88 2.56V409h-2.032v-4.4c0-.597-.155-1.077-.464-1.44-.299-.373-.742-.56-1.328-.56-.587 0-1.04.187-1.36.56-.31.363-.464.843-.464 1.44v4.4h-2.032zm11.416.192c-.469 0-.907-.096-1.312-.288a2.561 2.561 0 0 1-.992-.816c-.245-.363-.368-.789-.368-1.28 0-.587.144-1.067.432-1.44.288-.373.683-.651 1.184-.832a5.111 5.111 0 0 1 1.712-.272h1.888c0-.363-.059-.667-.176-.912a1.16 1.16 0 0 0-.496-.56c-.213-.139-.48-.208-.8-.208-.373 0-.709.085-1.008.256-.288.16-.464.432-.528.816h-2.048a2.677 2.677 0 0 1 .592-1.488 3.332 3.332 0 0 1 1.312-.96 4.375 4.375 0 0 1 1.712-.336c.747 0 1.376.139 1.888.416a2.85 2.85 0 0 1 1.2 1.184c.277.501.416 1.099.416 1.792v2.416c.021.235.107.395.256.48.149.085.347.128.592.128V409c-.501 0-.923-.048-1.264-.144a2.18 2.18 0 0 1-.816-.416 2.51 2.51 0 0 1-.544-.72c-.245.416-.629.768-1.152 1.056a3.474 3.474 0 0 1-1.68.416zm.592-1.648c.352 0 .672-.08.96-.24a1.89 1.89 0 0 0 .72-.672c.181-.288.272-.619.272-.992v-.064h-1.76c-.235 0-.459.037-.672.112a1.058 1.058 0 0 0-.512.32c-.128.139-.192.331-.192.576 0 .331.112.576.336.736.235.149.517.224.848.224zm5.851 1.456v-11.2h2.048V409h-2.048zm4.236 3.52 1.744-3.888-3.216-7.568h2.288l2.048 5.408 2.096-5.408h2.16l-4.96 11.456h-2.16zm10.825-3.328a4.404 4.404 0 0 1-1.68-.32 3.427 3.427 0 0 1-1.296-.944 2.416 2.416 0 0 1-.544-1.424h2.048c.053.341.218.608.496.8.288.192.608.288.96.288.298 0 .576-.064.832-.192.266-.139.4-.352.4-.64 0-.224-.096-.4-.288-.528a2.432 2.432 0 0 0-.673-.304 17.39 17.39 0 0 0-.703-.192 11.106 11.106 0 0 1-1.456-.448c-.438-.181-.784-.427-1.04-.736-.256-.32-.384-.741-.384-1.264 0-.512.144-.949.432-1.312a2.716 2.716 0 0 1 1.168-.816 4.303 4.303 0 0 1 1.584-.288c.885 0 1.632.224 2.24.672.608.448.938 1.109.992 1.984h-1.936c-.032-.341-.176-.597-.432-.768-.246-.181-.555-.272-.928-.272-.299 0-.566.053-.8.16-.235.107-.352.309-.352.608 0 .213.096.389.288.528.192.128.421.235.688.32.266.075.501.139.704.192.554.139 1.04.299 1.456.48.426.181.762.427 1.008.736.245.309.373.725.384 1.248 0 .523-.15.965-.448 1.328-.288.363-.672.64-1.152.832a4.41 4.41 0 0 1-1.568.272zm5.434-9.152c-.363 0-.678-.128-.944-.384a1.318 1.318 0 0 1-.384-.944c0-.373.128-.688.384-.944.266-.256.581-.384.944-.384.373 0 .688.128.944.384s.384.571.384.944c0 .363-.128.677-.384.944a1.284 1.284 0 0 1-.944.384zm-1.024 8.96v-7.936h2.048V409h-2.048zm6.793.192a4.404 4.404 0 0 1-1.68-.32 3.427 3.427 0 0 1-1.296-.944 2.416 2.416 0 0 1-.544-1.424h2.048c.053.341.218.608.496.8.288.192.608.288.96.288.298 0 .576-.064.832-.192.266-.139.4-.352.4-.64 0-.224-.096-.4-.288-.528a2.44 2.44 0 0 0-.672-.304 17.869 17.869 0 0 0-.704-.192 11.106 11.106 0 0 1-1.456-.448c-.438-.181-.784-.427-1.04-.736-.256-.32-.384-.741-.384-1.264 0-.512.144-.949.432-1.312a2.716 2.716 0 0 1 1.168-.816 4.303 4.303 0 0 1 1.584-.288c.885 0 1.632.224 2.24.672.608.448.938 1.109.992 1.984h-1.936c-.032-.341-.176-.597-.432-.768-.246-.181-.555-.272-.928-.272-.299 0-.566.053-.8.16-.235.107-.352.309-.352.608 0 .213.096.389.288.528.192.128.421.235.688.32.266.075.501.139.704.192.554.139 1.04.299 1.456.48.426.181.762.427 1.008.736.245.309.373.725.384 1.248 0 .523-.15.965-.448 1.328-.288.363-.672.64-1.152.832a4.41 4.41 0 0 1-1.568.272zm11.745 0c-.501 0-.981-.075-1.44-.224a3.82 3.82 0 0 1-1.2-.688 3.382 3.382 0 0 1-.816-1.072 3.327 3.327 0 0 1-.304-1.44c0-.373.059-.731.176-1.072.118-.341.283-.667.496-.976.224-.309.496-.587.816-.832l.144-.112-.144-.208a3.981 3.981 0 0 1-.48-.912 3.166 3.166 0 0 1-.144-.944c0-.619.144-1.157.432-1.616a3.007 3.007 0 0 1 1.216-1.088c.523-.267 1.12-.4 1.792-.4.672 0 1.264.133 1.776.4.523.256.928.624 1.216 1.104.299.48.448 1.056.448 1.728h-2.032c0-.224-.048-.443-.144-.656a1.223 1.223 0 0 0-.464-.528c-.213-.139-.49-.208-.832-.208-.309 0-.565.064-.768.192a1.208 1.208 0 0 0-.448.48 1.308 1.308 0 0 0-.144.592c0 .395.144.773.432 1.136.299.363.704.8 1.216 1.312l1.936 1.936 1.6-2.576h2.176l-2.448 3.904 2.576 2.576h-2.576l-1.088-1.088-.16.16a3.741 3.741 0 0 1-1.296.848 4.27 4.27 0 0 1-1.52.272zm.128-1.872c.278 0 .539-.048.784-.144.246-.107.507-.288.784-.544l-2.576-2.56c-.298.235-.512.48-.64.736a1.768 1.768 0 0 0-.192.8c0 .32.086.608.256.864.171.256.395.464.672.624.288.149.592.224.912.224zM394.774 430v-11.2h3.888c.779 0 1.451.128 2.016.384.576.245 1.024.608 1.344 1.088.32.48.48 1.067.48 1.76 0 .8-.213 1.44-.64 1.92-.427.48-1.008.811-1.744.992l3.12 5.056h-2.416l-2.752-4.72h-1.248V430h-2.048zm2.048-6.464h1.792c.48 0 .848-.064 1.104-.192.267-.139.448-.32.544-.544.107-.224.16-.48.16-.768a1.76 1.76 0 0 0-.16-.768c-.096-.224-.277-.4-.544-.528-.256-.128-.624-.192-1.104-.192h-1.792v2.992zm10.393 6.656c-.832 0-1.552-.181-2.16-.544a3.751 3.751 0 0 1-1.392-1.488c-.331-.629-.496-1.339-.496-2.128 0-.843.171-1.573.512-2.192a3.62 3.62 0 0 1 1.424-1.44c.608-.352 1.312-.528 2.112-.528.789 0 1.477.171 2.064.512a3.609 3.609 0 0 1 1.392 1.408c.341.597.512 1.285.512 2.064a4.05 4.05 0 0 1-.064.784h-5.888c.032.373.128.704.288.992.171.277.395.496.672.656.288.149.613.224.976.224.373 0 .693-.08.96-.24.277-.16.496-.405.656-.736h2.192a3.957 3.957 0 0 1-.72 1.312 3.626 3.626 0 0 1-1.264.976c-.501.245-1.093.368-1.776.368zm-1.968-4.912h3.824c-.011-.533-.208-.955-.592-1.264a2.017 2.017 0 0 0-1.328-.464 2 2 0 0 0-1.216.416c-.373.267-.603.704-.688 1.312zm7.228 4.72v-6.224h-.928v-1.712h.928v-.608c0-.96.24-1.643.72-2.048.491-.405 1.152-.608 1.984-.608h.672v1.744h-.352c-.352 0-.603.069-.752.208-.149.139-.224.373-.224.704v.608h1.424v1.712h-1.424V430h-2.048zm4.768 0v-7.936h2.048V430h-2.048zm1.024-8.96c-.363 0-.677-.128-.944-.384a1.318 1.318 0 0 1-.384-.944c0-.373.128-.688.384-.944.267-.256.581-.384.944-.384.373 0 .688.128.944.384s.384.571.384.944c0 .363-.128.677-.384.944a1.284 1.284 0 0 1-.944.384zm2.547 8.96v-7.936h2.032v.928a2.472 2.472 0 0 1 1.104-.832 3.69 3.69 0 0 1 1.408-.288c.917 0 1.669.299 2.256.896.586.587.88 1.44.88 2.56V430h-2.032v-4.4c0-.597-.155-1.077-.464-1.44-.299-.373-.742-.56-1.328-.56-.587 0-1.04.187-1.36.56-.31.363-.464.843-.464 1.44v4.4h-2.032zm12.776.192c-.832 0-1.552-.181-2.16-.544a3.751 3.751 0 0 1-1.392-1.488c-.331-.629-.496-1.339-.496-2.128 0-.843.171-1.573.512-2.192a3.62 3.62 0 0 1 1.424-1.44c.608-.352 1.312-.528 2.112-.528.789 0 1.477.171 2.064.512a3.609 3.609 0 0 1 1.392 1.408c.341.597.512 1.285.512 2.064a4.05 4.05 0 0 1-.064.784h-5.888c.032.373.128.704.288.992.171.277.395.496.672.656.288.149.613.224.976.224.373 0 .693-.08.96-.24.277-.16.496-.405.656-.736h2.192a3.957 3.957 0 0 1-.72 1.312 3.626 3.626 0 0 1-1.264.976c-.501.245-1.093.368-1.776.368zm-1.968-4.912h3.824c-.011-.533-.208-.955-.592-1.264a2.017 2.017 0 0 0-1.328-.464 2 2 0 0 0-1.216.416c-.373.267-.603.704-.688 1.312zm7.02 4.72v-7.936h2.032v.912a2.434 2.434 0 0 1 1.024-.832 3.253 3.253 0 0 1 1.312-.272 3.67 3.67 0 0 1 1.664.384c.523.245.928.635 1.216 1.168a2.835 2.835 0 0 1 1.104-1.136 3.084 3.084 0 0 1 1.568-.416 3.51 3.51 0 0 1 1.648.384c.501.245.896.624 1.184 1.136.288.512.432 1.152.432 1.92V430h-2.032v-4.4c0-.597-.144-1.072-.432-1.424-.288-.352-.731-.528-1.328-.528-.587 0-1.029.176-1.328.528-.299.352-.448.827-.448 1.424v4.4h-2.032v-4.4c0-.608-.155-1.083-.464-1.424-.299-.352-.731-.528-1.296-.528-.48 0-.901.155-1.264.464-.352.299-.528.795-.528 1.488v4.4h-2.032zm18.292.192c-.832 0-1.552-.181-2.16-.544a3.751 3.751 0 0 1-1.392-1.488c-.331-.629-.496-1.339-.496-2.128 0-.843.171-1.573.512-2.192a3.62 3.62 0 0 1 1.424-1.44c.608-.352 1.312-.528 2.112-.528.789 0 1.477.171 2.064.512a3.609 3.609 0 0 1 1.392 1.408c.341.597.512 1.285.512 2.064a4.05 4.05 0 0 1-.064.784h-5.888c.032.373.128.704.288.992.171.277.395.496.672.656.288.149.613.224.976.224.373 0 .693-.08.96-.24.277-.16.496-.405.656-.736h2.192a3.957 3.957 0 0 1-.72 1.312 3.626 3.626 0 0 1-1.264.976c-.501.245-1.093.368-1.776.368zm-1.968-4.912h3.824c-.011-.533-.208-.955-.592-1.264a2.017 2.017 0 0 0-1.328-.464 2 2 0 0 0-1.216.416c-.373.267-.603.704-.688 1.312zm7.02 4.72v-7.936h2.032v.928a2.472 2.472 0 0 1 1.104-.832 3.69 3.69 0 0 1 1.408-.288c.917 0 1.669.299 2.256.896.586.587.88 1.44.88 2.56V430h-2.032v-4.4c0-.597-.155-1.077-.464-1.44-.299-.373-.742-.56-1.328-.56-.587 0-1.04.187-1.36.56-.31.363-.464.843-.464 1.44v4.4h-2.032zm12.104 0c-.853 0-1.499-.208-1.936-.624-.427-.416-.64-1.04-.64-1.872v-3.728h-1.024v-1.712h1.024v-1.936h2.048v1.936h1.808v1.712h-1.808v3.744c0 .299.08.501.24.608.16.107.368.16.624.16h.944V430h-1.28z" fill="#ABDF3C"/><defs><linearGradient id="a" x1="76.75" y1=".988" x2="76.75" y2="299.369" gradientUnits="userSpaceOnUse"><stop stop-color="#9CC2FF"/><stop offset="1" stop-color="#4F92FF"/></linearGradient><linearGradient id="b" x1="135.729" y1="118.948" x2="135.729" y2="358.348" gradientUnits="userSpaceOnUse"><stop stop-color="#7FDFFF"/><stop offset="1" stop-color="#1AC6FF"/></linearGradient><linearGradient id="c" x1="194.707" y1="236.908" x2="194.707" y2="451.3" gradientUnits="userSpaceOnUse"><stop stop-color="#83FAC1"/><stop offset="1" stop-color="#44E095"/></linearGradient><linearGradient id="d" x1="253.69" y1="354.867" x2="253.69" y2="462.986" gradientUnits="userSpaceOnUse"><stop stop-color="#CFF976"/><stop offset="1" stop-color="#A8DD38"/></linearGradient></defs></svg>