<svg width="592" height="252" fill="none" xmlns="http://www.w3.org/2000/svg"><path d="M-.281.988v264.359" stroke="#fff" stroke-width="1.243"/><path d="M-.281 199.258h743.068M-.281 133.17h743.068M-.281 67.08h743.068M-.281.99h743.068M-.281.99v264.359M105.871.99v264.359M212.024.99v264.359M318.177.99v264.359M424.329.99v264.359M530.482.99v264.359" stroke="#4DA7D3" stroke-width="1.243" stroke-dasharray="3.73 3.73"/><path d="M-.281 133.169 105.87 49.455l106.153 132.179 106.153 74.902L424.329 73.688l106.153 72.698 106.153-6.609 106.152 74.902" stroke="#FF8433" stroke-width="1.243"/><path d="M-.445 134.946c1.968 0 3.564-1.206 3.564-2.694s-1.596-2.694-3.564-2.694-3.564 1.206-3.564 2.694 1.596 2.694 3.564 2.694zM105.707 51.235c1.969 0 3.564-1.206 3.564-2.694s-1.595-2.695-3.564-2.695c-1.968 0-3.563 1.207-3.563 2.695 0 1.488 1.595 2.694 3.563 2.694zM211.861 183.414c1.968 0 3.564-1.206 3.564-2.694s-1.596-2.694-3.564-2.694c-1.969 0-3.564 1.206-3.564 2.694s1.595 2.694 3.564 2.694zM424.165 75.468c1.969 0 3.564-1.207 3.564-2.695 0-1.488-1.595-2.694-3.564-2.694-1.968 0-3.563 1.206-3.563 2.694s1.595 2.695 3.563 2.695zM530.319 148.165c1.968 0 3.564-1.206 3.564-2.694s-1.596-2.694-3.564-2.694c-1.969 0-3.564 1.206-3.564 2.694s1.595 2.694 3.564 2.694z" fill="#FF8433" fill-opacity=".86" stroke="#FF8433" stroke-width="1.243"/><path d="m-.281 172.823 106.152-22.03 106.153-74.902 106.153 46.263 106.152 110.15 106.153-57.278 106.153 8.812 106.152-99.135" stroke="#10CE66" stroke-opacity=".86" stroke-width="1.243"/><path d="M-.445 175.946c1.968 0 3.563-1.206 3.563-2.694s-1.595-2.694-3.563-2.694c-1.968 0-3.564 1.206-3.564 2.694s1.596 2.694 3.564 2.694zM105.707 153.919c1.968 0 3.563-1.206 3.563-2.694 0-1.487-1.595-2.694-3.563-2.694-1.968 0-3.563 1.207-3.563 2.694 0 1.488 1.595 2.694 3.563 2.694zM211.86 79.015c1.968 0 3.564-1.206 3.564-2.693 0-1.488-1.596-2.694-3.564-2.694s-3.563 1.206-3.563 2.694c0 1.487 1.595 2.693 3.563 2.693zM318.013 125.277c1.968 0 3.563-1.206 3.563-2.694s-1.595-2.694-3.563-2.694c-1.968 0-3.564 1.206-3.564 2.694s1.596 2.694 3.564 2.694zM424.165 235.427c1.968 0 3.563-1.206 3.563-2.694 0-1.487-1.595-2.693-3.563-2.693-1.968 0-3.563 1.206-3.563 2.693 0 1.488 1.595 2.694 3.563 2.694zM530.318 178.148c1.968 0 3.564-1.206 3.564-2.694s-1.596-2.694-3.564-2.694-3.563 1.206-3.563 2.694 1.595 2.694 3.563 2.694z" fill="#10CE66" fill-opacity=".86" stroke="#10CE66" stroke-opacity=".86" stroke-width="1.243"/><path d="m-.281 170.62 106.152-59.481 106.153-22.03L318.177 5.396l106.152 94.728 106.153 37.451 106.153 88.12 106.152-198.27" stroke="#FEC82C" stroke-opacity=".86" stroke-width="1.243"/><path d="M-.445 173.746c1.968 0 3.564-1.206 3.564-2.694s-1.596-2.695-3.564-2.695-3.564 1.207-3.564 2.695c0 1.488 1.596 2.694 3.564 2.694zM105.707 114.265c1.969 0 3.564-1.207 3.564-2.695 0-1.488-1.595-2.694-3.564-2.694-1.968 0-3.563 1.206-3.563 2.694s1.595 2.695 3.563 2.695zM211.861 92.233c1.968 0 3.564-1.207 3.564-2.695 0-1.487-1.596-2.694-3.564-2.694-1.969 0-3.564 1.207-3.564 2.695 0 1.487 1.595 2.694 3.564 2.694zM318.013 8.521c1.968 0 3.564-1.206 3.564-2.694s-1.596-2.694-3.564-2.694-3.564 1.206-3.564 2.694 1.596 2.694 3.564 2.694zM424.165 103.249c1.969 0 3.564-1.206 3.564-2.694s-1.595-2.694-3.564-2.694c-1.968 0-3.563 1.206-3.563 2.694s1.595 2.694 3.563 2.694zM530.319 140.701c1.968 0 3.564-1.207 3.564-2.695 0-1.488-1.596-2.694-3.564-2.694-1.969 0-3.564 1.206-3.564 2.694s1.595 2.695 3.564 2.695z" fill="#FEC82C" fill-opacity=".86" stroke="#FEC82C" stroke-opacity=".86" stroke-width="1.243"/></svg>