<svg width="149" height="51" fill="none" xmlns="http://www.w3.org/2000/svg"><path d="M41.14 17.343c-1.206-1.21-2.874-1.812-5.004-1.807-1.97 0-3.578.635-4.82 1.906-1.238 1.27-1.857 2.917-1.857 4.94v2.108c0 2.48.367 4.368 1.1 5.662 1.028 1.817 2.842 2.732 5.444 2.746.556 0 1.56-.123 3.013-.371.724-.126 1.425-.252 2.102-.378l1.829-.169v-9.606l-.007.007c0-2.148-.6-3.828-1.8-5.038zm-2.768 2.691c.448.453.681 1.21.7 2.27v6.18c-1.116.285-1.686.43-1.71.434-.523.117-.964.176-1.324.176-.808 0-1.39-.164-1.744-.49-.49-.454-.787-1.334-.89-2.642l-.035-3.658c0-.77.163-1.406.49-1.906.467-.7 1.226-1.05 2.277-1.05 1.042 0 1.787.228 2.236.686z" fill="#53575E"/><path d="M43.335 9.867h-3.91V33.06h3.91V9.867zM107.335 16.398h-3.973v17.005h3.973V16.398zM122.859 22.2c0-.304-.023-.718-.07-1.241-.224-1.331-.633-2.357-1.226-3.076-1.014-1.242-2.605-1.826-4.772-1.752-.444.014-.995.108-1.654.28-.574.155-1.186.356-1.835.603v-.616h-3.903v17.005h3.903v-12.31c.7-.29 1.396-.547 2.088-.772.668-.215 1.135-.338 1.401-.371.817-.098 1.406.12 1.766.652.261.387.392.92.392 1.597v11.204h3.91V22.199zM70.7 17.505c-1.205-1.21-2.873-1.813-5.003-1.808-1.97 0-3.578.635-4.82 1.906-1.238 1.27-1.857 2.917-1.857 4.94v2.109c0 2.48.367 4.367 1.1 5.661 1.028 1.817 2.843 2.733 5.444 2.747.556 0 1.56-.042 3.013-.126.724-.047 1.425-.091 2.102-.133l1.367-.099v-3.84l-1.563.127c-2.023.177-3.65.266-4.884.266-.808 0-1.39-.163-1.744-.49-.49-.454-.787-1.334-.89-2.642h9.543v-3.587l-.007.007c0-2.15-.6-3.828-1.8-5.038zm-7.77 4.96c0-.77.163-1.405.49-1.905.467-.701 1.226-1.051 2.277-1.051 1.042 0 1.787.229 2.236.686.448.453.682 1.21.7 2.27H62.93zM91.584 16.398h-4.106l5.227 17.005h3.714l5.22-17.005h-4.1l-2.977 11.94-2.978-11.94zM78.662 17.007v-.617h-3.903v17.006h3.903V21.085c1.86-.761 3.022-1.142 3.49-1.142.565 0 1.064.245 1.499.736.416.462.623.966.623 1.513h3.104c.043-1.752-.305-3.188-1.044-4.31-.92-1.391-2.314-1.977-4.183-1.758a13.52 13.52 0 0 0-1.653.309c-.654.163-1.266.355-1.836.574zM54.553 20.707h2.768c.028-1.799-.561-3.111-1.766-3.938-1.047-.72-2.567-1.077-4.562-1.072-1.84 0-3.281.446-4.323 1.338-1.06.902-1.595 2.16-1.604 3.777-.005.995.36 1.892 1.093 2.69.705.771 1.539 1.23 2.501 1.374 2.49.374 4.095.901 4.814 1.583.593.566.586 1.245-.021 2.04-.168.224-.46.401-.876.532-.472.145-1.025.2-1.66.168-1.084-.051-1.86-.42-2.327-1.107v-.007h-4.26a6.458 6.458 0 0 0 1.668 3.027c1.266 1.299 2.905 1.948 4.918 1.948 1.995.004 3.642-.587 4.94-1.773 1.28-1.168 1.878-2.583 1.794-4.246-.075-1.317-.682-2.385-1.822-3.202-1.06-.761-2.67-1.366-4.828-1.815-.831-.168-1.424-.388-1.78-.659-.298-.233-.438-.527-.42-.882.028-.524.309-.95.841-1.283.463-.29.972-.434 1.528-.434.934 0 1.623.086 2.067.26.719.284 1.158.845 1.317 1.68zM22.037 9.377h-3.91L10.84 32.569h3.91l7.287-23.192z" fill="#53575E"/><path d="M22.09 9.377h-3.909l7.287 23.192h3.91L22.09 9.377z" fill="#53575E"/><path d="M15.75 21.975v3.973h9.291v-3.973h-9.29zM138.296 17.484l-1.829-.168c-.677-.127-1.378-.253-2.102-.379-1.452-.247-2.457-.371-3.013-.371-2.601.014-4.416.93-5.444 2.747-.733 1.294-1.1 3.18-1.1 5.661v2.109c0 2.023.619 3.67 1.857 4.94 1.242 1.27 2.849 1.906 4.821 1.906 2.13.004 3.797-.598 5.002-1.808 1.201-1.21 1.801-2.89 1.801-5.038l.007.007v-9.606zm-9.543 6.019c.103-1.308.399-2.189.89-2.642.355-.327.936-.49 1.744-.49.36 0 .802.058 1.325.175.023.004.593.15 1.709.434v6.18c-.018 1.06-.252 1.817-.7 2.27-.449.458-1.194.687-2.235.687-1.051 0-1.811-.35-2.278-1.051-.327-.5-.49-1.135-.49-1.906l.035-3.657z" fill="#53575E"/><path d="M138.296 16.405h-3.91v17.86h3.91v-17.86z" fill="#53575E"/><path d="M138.296 24.014h-3.91v11.204c0 .691-.201 1.25-.602 1.674-.365.383-.795.575-1.29.575-.172 0-.894-.24-2.165-.722a86.538 86.538 0 0 1-2.887-1.135l-1.786 3.426c1.452.636 2.529 1.084 3.23 1.346 1.649.616 2.84.918 3.573.904 1.682-.033 3.067-.612 4.155-1.738 1.089-1.13 1.649-2.574 1.682-4.33V24.014z" fill="#53575E"/></svg>