<svg width="33" height="37" fill="none" xmlns="http://www.w3.org/2000/svg"><path d="M17.644 5.69c0-1.563.151-4.69-3.778-4.69-3.098 0-5.97 3.44-6.045 5.472-2.342.312-4.609 2.736-4.307 5.706-2.266 1.094-3.853 7.192-.906 10.084-.53 2.423 1.058 8.13 5.969 7.66 1.209 6.566 9.067 6.41 9.067 1.564v-3.909" stroke="#486DCB" stroke-width="2" stroke-miterlimit="10"/><path d="M13.11 11.162c-2.72 0-5.29-.469-5.29-4.69M8.048 16.555c1.285.86 3.4.548 4.61-.703.83-.938 1.737-2.423 2.72-2.267h12.089M13.865 27.734c.53-1.33 1.89-1.72 3.778-1.72h9.823M9.635 25.467c-1.284-.235-2.418-1.407-2.418-2.502" stroke="#486DCB" stroke-width="2" stroke-miterlimit="10"/><path d="M8.577 29.922c0-2.97 1.662-6.878 5.894-6.878M5.705 14.21c1.285 0 2.418.938 2.418 2.345 0 1.095-.68 2.111-1.587 2.502M22.178 7.253h-4.534c-2.04 0-4.08-.312-4.76-2.11M17.644 8.817v4.69M17.644 15.852v8.599M17.644 19.76h4.534M19.155 32.267h3.022M29.733 15.852c1.252 0 2.267-1.05 2.267-2.345 0-1.295-1.015-2.345-2.267-2.345s-2.267 1.05-2.267 2.345c0 1.295 1.015 2.345 2.267 2.345z" stroke="#486DCB" stroke-width="2" stroke-miterlimit="10"/><path d="M24.444 9.599c1.252 0 2.267-1.05 2.267-2.345 0-1.296-1.015-2.346-2.267-2.346s-2.267 1.05-2.267 2.346c0 1.295 1.015 2.345 2.267 2.345zM24.444 22.106c1.252 0 2.267-1.05 2.267-2.345 0-1.296-1.015-2.345-2.267-2.345s-2.267 1.05-2.267 2.345c0 1.295 1.015 2.345 2.267 2.345zM24.444 34.612c1.252 0 2.267-1.05 2.267-2.345 0-1.295-1.015-2.345-2.267-2.345s-2.267 1.05-2.267 2.345c0 1.295 1.015 2.345 2.267 2.345zM29.733 28.359c1.252 0 2.267-1.05 2.267-2.345 0-1.295-1.015-2.345-2.267-2.345s-2.267 1.05-2.267 2.345c0 1.295 1.015 2.345 2.267 2.345z" stroke="#486DCB" stroke-width="2" stroke-miterlimit="10"/></svg>