<svg width="34" height="38" fill="none" xmlns="http://www.w3.org/2000/svg"><path d="M31.476 20.915v.766c0 2.91-2.285 5.208-6.095 7.66v5.361L22.334 37h-.762v-7.66c-3.81-2.527-6.095-4.825-6.095-7.66v-.765M19.285 20.915h-4.571c-.457 0-.762-.306-.762-.766v-1.532c0-.46.305-.766.762-.766h17.524c.457 0 .762.306.762.766v1.532c0 .46-.305.766-.762.766h-8.381M13.951 24.438c-.457.383-.99.69-1.523 1.073v5.361L9.38 33.17h-.763v-7.66c-3.809-2.527-6.095-4.825-6.095-7.659v-.766M6.333 17.085H1.762c-.457 0-.762-.306-.762-.766v-1.532c0-.46.305-.766.762-.766h17.523c.457 0 .762.307.762.766v1.532M24.619 16.32V14.02c0-.46.305-.766.762-.766h1.523c.457 0 .762.307.762.766v2.298M17.762 9.426v3.063M11.667 10.958h-1.525c-.457 0-.761-.307-.761-.766V7.128c0-.46.304-.766.761-.766h1.525c.457 0 .761.306.761.766v3.064c0 .46-.304.766-.761.766zM20.81 6.362h-1.524c-.458 0-.763-.307-.763-.766V2.532c0-.46.305-.766.763-.766h1.523c.457 0 .762.306.762.766v3.064c0 .46-.305.766-.762.766zM5.571 1v6.128M29.191 2.532V8.66" stroke="#486DCB" stroke-width="2" stroke-miterlimit="10"/></svg>