<svg width="33" height="37" fill="none" xmlns="http://www.w3.org/2000/svg"><path d="M5.054 27.47 27.469 5.053M16.5 32C25.06 32 32 25.06 32 16.5 32 7.94 25.06 1 16.5 1 7.94 1 1 7.94 1 16.5 1 25.06 7.94 32 16.5 32z" stroke="#486DCB" stroke-width="2" stroke-miterlimit="10"/><path d="M5.268 13.753v.324h1.135v.649H5.268V19.6H4.62v-4.874H3.96v-.649h.659v-.324c0-.363.124-.671.372-.925.254-.255.559-.382.915-.382h.496v.649h-.496a.623.623 0 0 0-.458.19.652.652 0 0 0-.18.468zm4.223.162v.706c-.438.019-.817.178-1.135.477a1.54 1.54 0 0 0-.496 1.097V19.6h-.648v-5.523h.648v.878h.02c.133-.255.352-.487.657-.697.306-.222.624-.337.954-.343zm6.014 5.685h-.649v-1.116h-.019c-.26.388-.591.7-.992.935a2.593 2.593 0 0 1-1.326.343 2.782 2.782 0 0 1-2.04-.849c-.56-.566-.84-1.259-.84-2.08 0-.813.28-1.5.84-2.06a2.747 2.747 0 0 1 2.04-.858c.986 0 1.758.426 2.318 1.278h.02v-1.116h.648V19.6zm-.649-2.766c0-.623-.226-1.16-.677-1.612-.452-.452-.986-.678-1.602-.678a2.2 2.2 0 0 0-1.612.678 2.233 2.233 0 0 0-.659 1.612c0 .636.22 1.18.659 1.63.444.446.982.669 1.612.669.622 0 1.157-.223 1.602-.668.451-.452.677-.995.677-1.631zm5.855-2.757h.649V19.6h-.649v-.935h-.02c-.133.28-.38.534-.743.763-.356.223-.74.334-1.154.334-.674 0-1.202-.2-1.584-.6-.375-.414-.562-.948-.562-1.603v-3.482h.648v3.482c0 .47.143.852.43 1.144.286.286.66.43 1.125.43.465 0 .887-.163 1.269-.487.388-.337.585-.725.591-1.164v-3.405zm7.471 5.523h-.648v-1.116h-.02c-.26.388-.59.7-.991.935a2.593 2.593 0 0 1-1.326.343 2.782 2.782 0 0 1-2.041-.849c-.56-.566-.84-1.259-.84-2.08 0-.813.28-1.5.84-2.06a2.747 2.747 0 0 1 2.04-.858c.986 0 1.759.426 2.319 1.278h.019v-2.747h.648V19.6zm-.648-2.766c0-.623-.226-1.16-.677-1.612-.452-.452-.986-.678-1.603-.678a2.2 2.2 0 0 0-1.612.678 2.234 2.234 0 0 0-.658 1.612c0 .636.22 1.18.658 1.63.445.446.983.669 1.612.669.623 0 1.157-.223 1.603-.668.45-.452.677-.995.677-1.631z" fill="#486DCB"/><path d="M5.268 14.077h-.143v.143h.143v-.143zm1.135 0h.143v-.143h-.143v.143zm0 .649v.143h.143v-.143h-.143zm-1.135 0v-.143h-.143v.143h.143zm0 4.874v.143h.143V19.6h-.143zm-.648 0h-.143v.143h.143V19.6zm0-4.874h.143v-.143H4.62v.143zm-.659 0h-.143v.143h.143v-.143zm0-.649v-.143h-.143v.143h.143zm.659 0v.143h.143v-.143H4.62zm.372-1.25-.102-.1.102.1zm1.411-.38h.143v-.144h-.143v.143zm0 .648v.143h.143v-.143h-.143zm-.954.19-.101-.1-.003.002.104.098zm-.324.468v.324h.286v-.324h-.286zm.143.467h1.135v-.286H5.268v.286zm.992-.143v.649h.286v-.649H6.26zm.143.506H5.268v.286h1.135v-.286zm-1.278.143V19.6h.286v-4.874h-.286zm.143 4.73H4.62v.287h.648v-.286zm-.505.144v-4.874h-.286V19.6h.286zm-.143-5.017H3.96v.286h.659v-.286zm-.515.143v-.649h-.287v.649h.287zm-.144-.506h.659v-.286H3.96v.286zm.802-.143v-.324h-.286v.324h.286zm0-.324c0-.326.11-.598.33-.825l-.204-.2a1.419 1.419 0 0 0-.412 1.025h.286zm.33-.824c.227-.228.496-.34.814-.34v-.286c-.395 0-.736.142-1.017.423l.203.203zm.814-.34h.496v-.286h-.496v.286zm.353-.143v.649h.286v-.649H6.26zm.143.506h-.496v.286h.496v-.286zm-.496 0a.769.769 0 0 0-.56.232l.204.203c.1-.101.217-.15.356-.15v-.285zm-.562.235a.796.796 0 0 0-.22.566h.286c0-.15.048-.27.142-.369l-.208-.197zm4.146.728h.143v-.146l-.146.003.003.143zm0 .706.007.143.136-.006v-.137h-.143zm-1.63 1.574-.144-.006v.006h.143zm0 3.405v.143h.142V19.6H7.86zm-.65 0H7.07v.143h.143V19.6zm0-5.523v-.143H7.07v.143h.143zm.65 0h.142v-.143H7.86v.143zm0 .878h-.144v.143h.143v-.143zm.018 0v.143h.087l.04-.077-.127-.066zm.659-.697.08.118.004-.002-.084-.116zm.81-.343v.706h.286v-.706h-.286zm.137.563c-.472.02-.884.193-1.226.515l.196.21c.292-.276.638-.422 1.043-.44l-.013-.285zm-1.226.515c-.34.32-.521.72-.542 1.196l.286.012c.018-.403.168-.733.452-.999l-.196-.209zm-.542 1.202V19.6h.286v-3.405h-.286zm.143 3.262h-.648v.286h.648v-.286zm-.505.143v-5.523h-.286V19.6h.286zm-.143-5.38h.648v-.286h-.648v.286zm.505-.143v.878h.286v-.878h-.286zm.143 1.02h.02v-.285h-.02v.286zm.146-.076c.12-.229.321-.444.613-.645l-.163-.236c-.319.22-.556.468-.703.748l.253.133zm.616-.647c.285-.208.575-.31.872-.316l-.005-.286c-.364.007-.71.133-1.036.37l.169.232zm6.883 5.226v.143h.143V19.6h-.143zm-.65 0h-.142v.143h.143V19.6zm0-1.116H15v-.143h-.143v.143zm-.018 0v-.143h-.076l-.043.063.12.08zm-.992.935.072.123-.072-.123zm-3.367-.506-.102.1v.001l.102-.1zm0-4.14.101.102.001-.002-.102-.1zm4.36.42-.12.079.042.064h.077v-.143zm.018 0v.143h.143v-.143h-.143zm0-1.116v-.143h-.143v.143h.143zm.649 0h.143v-.143h-.143v.143zm-4.54 1.145-.102-.101-.001.001.102.1zm0 3.243-.103.1.001.001.101-.101zm4.54.992h-.65v.286h.65v-.286zm-.506.143v-1.116h-.286V19.6H15zm-.143-1.26h-.019v.287h.019v-.286zm-.138.064c-.248.37-.563.667-.945.891l.144.247c.42-.246.766-.573 1.039-.978l-.238-.16zm-.945.891a2.451 2.451 0 0 1-1.254.324v.286c.513 0 .98-.12 1.398-.363l-.144-.247zm-1.254.324a2.64 2.64 0 0 1-1.94-.807l-.203.202c.593.593 1.31.891 2.143.891v-.286zm-1.94-.806c-.532-.539-.797-1.195-.797-1.98h-.287c0 .857.294 1.587.881 2.18l.204-.2zm-.797-1.98c0-.776.265-1.426.797-1.958l-.203-.203c-.587.587-.88 1.311-.88 2.162h.286zm.798-1.96a2.605 2.605 0 0 1 1.94-.815v-.286c-.84 0-1.558.302-2.144.901l.204.2zm1.94-.815c.935 0 1.663.4 2.197 1.214l.24-.157c-.585-.891-1.402-1.343-2.438-1.343v.286zm2.317 1.278h.019v-.286h-.019v.286zm.162-.143v-1.116h-.286v1.116H15zm-.143-.973h.649v-.286h-.65v.286zm.506-.143V19.6h.286v-5.523h-.286zm-.363 2.757c0-.662-.242-1.236-.719-1.713l-.202.202c.425.425.635.927.635 1.51H15zm-.719-1.713c-.477-.478-1.048-.72-1.703-.72v.287c.577 0 1.075.21 1.5.635l.203-.202zm-1.703-.72c-.663 0-1.236.242-1.714.72l.203.202a2.059 2.059 0 0 1 1.51-.635V14.4zm-1.715.721a2.377 2.377 0 0 0-.699 1.712h.286c0-.586.205-1.087.618-1.512l-.205-.2zm-.699 1.712c0 .672.234 1.252.699 1.73l.205-.199a2.114 2.114 0 0 1-.618-1.531h-.286zm.7 1.732a2.34 2.34 0 0 0 1.714.71v-.287a2.054 2.054 0 0 1-1.511-.625l-.203.202zm1.714.71c.661 0 1.232-.238 1.703-.71l-.202-.202a2.041 2.041 0 0 1-1.501.625v.287zm1.703-.71c.478-.478.72-1.058.72-1.732h-.287a2.08 2.08 0 0 1-.635 1.53l.202.202zm6.431-4.489v-.143h-.143v.143h.143zm.649 0h.143v-.143h-.143v.143zm0 5.523v.143h.143V19.6h-.143zm-.649 0h-.143v.143h.143V19.6zm0-.935h.143v-.143h-.143v.143zm-.02 0v-.143h-.09l-.038.082.129.061zm-.743.763.076.121-.076-.12zm-2.738-.267-.105.096.002.003.103-.099zm-.562-5.084v-.143h-.143v.143h.143zm.648 0h.143v-.143h-.143v.143zm.43 4.626-.103.1.001.001.101-.1zm2.394-.057.093.11v-.002l-.093-.108zm.591-1.164.143.002v-.002h-.143zm0-3.262h.649v-.286h-.649v.286zm.506-.143V19.6h.286v-5.523h-.287zm.143 5.38h-.649v.286h.649v-.286zm-.506.143v-.935h-.286v.935h.286zm-.143-1.078h-.02v.286h.02v-.286zm-.148.082c-.118.247-.343.483-.691.703l.153.242c.377-.238.647-.51.796-.822l-.258-.123zm-.69.703a1.994 1.994 0 0 1-1.08.312v.286c.441 0 .852-.119 1.23-.356l-.15-.242zm-1.08.312c-.643 0-1.13-.19-1.479-.556l-.207.197c.414.435.983.645 1.687.645v-.286zm-1.476-.554c-.348-.383-.526-.88-.526-1.506h-.287c0 .684.197 1.254.6 1.698l.213-.192zm-.526-1.506v-3.482h-.287v3.482h.287zm-.143-3.339h.648v-.286h-.648v.286zm.505-.143v3.482h.286v-3.482h-.286zm0 3.482c0 .502.154.921.47 1.244l.205-.2c-.256-.262-.389-.605-.389-1.044h-.286zm.471 1.245c.318.318.731.472 1.227.472v-.287c-.432 0-.769-.132-1.024-.387l-.203.202zm1.227.472c.501 0 .956-.177 1.362-.52l-.186-.219c-.358.304-.748.452-1.176.452v.287zm1.363-.522c.413-.359.633-.783.64-1.27l-.286-.004c-.005.391-.179.743-.542 1.058l.188.216zm.64-1.272v-3.405h-.286v3.405h.286zm7.329 2.118v.143h.143V19.6h-.143zm-.65 0h-.142v.143h.143V19.6zm0-1.116h.144v-.143h-.143v.143zm-.018 0v-.143h-.076l-.043.063.119.08zm-.992.935.071.123-.071-.123zm-3.367-.506-.102.1v.001l.102-.1zm0-4.14.1.102.002-.002-.102-.1zm4.359.42-.12.079.043.064h.077v-.143zm.019 0v.143h.143v-.143h-.143zm0-2.747v-.143h-.143v.143h.143zm.649 0h.143v-.143h-.143v.143zm-4.54 2.776-.102-.101-.002.001.103.1zm0 3.243-.104.1.002.001.101-.101zm4.54.992h-.65v.286h.65v-.286zm-.506.143v-1.116h-.286V19.6h.286zm-.143-1.26h-.02v.287h.02v-.286zm-.138.064c-.249.37-.564.667-.946.891l.145.247c.419-.246.766-.573 1.039-.978l-.238-.16zm-.945.891a2.451 2.451 0 0 1-1.254.324v.286c.513 0 .98-.12 1.397-.363l-.143-.247zm-1.254.324a2.64 2.64 0 0 1-1.94-.807l-.203.202c.593.593 1.31.891 2.143.891v-.286zm-1.94-.806c-.532-.539-.798-1.195-.798-1.98h-.286c0 .857.294 1.587.88 2.18l.204-.2zm-.798-1.98c0-.776.265-1.426.798-1.958l-.203-.203c-.587.587-.88 1.311-.88 2.162h.285zm.799-1.96a2.605 2.605 0 0 1 1.939-.815v-.286c-.84 0-1.557.302-2.144.901l.205.2zm1.939-.815c.935 0 1.664.4 2.198 1.214l.239-.157c-.585-.891-1.402-1.343-2.437-1.343v.286zm2.318 1.278h.019v-.286h-.02v.286zm.162-.143v-2.747h-.286v2.747h.286zm-.143-2.604h.649v-.286h-.65v.286zm.505-.143V19.6h.287v-7.154h-.287zm-.362 4.388c0-.662-.242-1.236-.72-1.713l-.202.202c.425.425.636.927.636 1.51h.286zm-.72-1.713c-.477-.478-1.047-.72-1.703-.72v.287c.577 0 1.076.21 1.501.635l.203-.202zm-1.703-.72c-.662 0-1.236.242-1.713.72l.202.202a2.059 2.059 0 0 1 1.511-.635V14.4zm-1.715.721a2.378 2.378 0 0 0-.698 1.712h.286c0-.586.204-1.087.618-1.512l-.206-.2zm-.698 1.712c0 .672.233 1.252.698 1.73l.206-.199a2.113 2.113 0 0 1-.618-1.531h-.286zm.7 1.732a2.34 2.34 0 0 0 1.713.71v-.287a2.053 2.053 0 0 1-1.51-.625l-.203.202zm1.713.71c.662 0 1.232-.238 1.704-.71l-.203-.202a2.041 2.041 0 0 1-1.5.625v.287zm1.704-.71c.478-.478.719-1.058.719-1.732h-.286a2.08 2.08 0 0 1-.636 1.53l.203.202z" fill="#486DCB"/></svg>