<svg width="34" height="34" fill="none" xmlns="http://www.w3.org/2000/svg"><path d="M17 33c8.837 0 16-7.163 16-16S25.837 1 17 1 1 8.163 1 17s7.163 16 16 16z" stroke="#3028BD" stroke-width="1.016" stroke-miterlimit="10" stroke-linejoin="bevel"/><path d="M12.04 14.117H8.899c-.432 0-.788.325-.788.74v4.795c0 .403.356.74.788.74h3.141l4.706 4.481V9.635l-4.706 4.482zM23.35 12.175c2.708 2.949 2.708 7.717 0 10.666M20.302 15.222c.677 1.119.677 2.945 0 4.064" stroke="#3028BD" stroke-width="1.016" stroke-miterlimit="10" stroke-linejoin="bevel"/></svg>